M48
; DRILL file {KiCad (7.0.0-0)} date Saturday, 13 April 2024 at 23:50:44
; FORMAT={-:-/ absolute / inch / decimal}
; #@! TF.CreationDate,2024-04-13T23:50:44+02:00
; #@! TF.GenerationSoftware,Kicad,Pcbnew,(7.0.0-0)
; #@! TF.FileFunction,Plated,1,2,PTH
FMAT,2
INCH
; #@! TA.AperFunction,Plated,PTH,ViaDrill
T1C0.0157
; #@! TA.AperFunction,Plated,PTH,ComponentDrill
T2C0.0295
; #@! TA.AperFunction,Plated,PTH,ComponentDrill
T3C0.0315
; #@! TA.AperFunction,Plated,PTH,ComponentDrill
T4C0.0354
; #@! TA.AperFunction,Plated,PTH,ComponentDrill
T5C0.0394
; #@! TA.AperFunction,Plated,PTH,ComponentDrill
T6C0.0400
; #@! TA.AperFunction,Plated,PTH,ComponentDrill
T7C0.0512
; #@! TA.AperFunction,Plated,PTH,ComponentDrill
T8C0.0984
%
G90
G05
T1
X-9.05Y-2.95
X-8.2Y-3.5
X-7.65Y-3.15
X-7.6Y-3.15
X-7.5Y-3.15
X-6.2Y-2.6
X-6.1Y-3.15
X-6.05Y-3.2
X-5.85Y-4.5
X-5.65Y-6.0
X-5.45Y-1.4
X-5.4Y-1.7
X-5.4Y-2.5
X-5.35Y-4.7
X-5.3Y-3.7
X-5.25Y-1.3
X-5.15Y-1.25
X-4.75Y-3.55
X-4.65Y-6.0
X-4.5Y-3.2
X-4.3Y-1.6
X-4.25Y-5.0
X-4.15Y-3.3
X-4.1Y-2.1
X-4.1Y-3.4
X-4.05Y-0.55
X-4.05Y-3.5
X-4.0Y-3.45
X-3.95Y-3.55
X-3.85Y-3.7
X-3.8Y-4.35
X-3.65Y-2.1
X-3.3Y-3.5
X-2.95Y-1.25
X-2.9Y-2.85
X-2.9Y-3.0
X-2.7Y-0.2
X-2.1Y-0.15
X-2.1Y-1.9
X-0.75Y-3.35
T2
X-6.4Y-4.5213
X-6.4Y-4.6
X-6.4Y-4.6787
X-6.4Y-4.7575
X-6.4Y-4.8362
X-6.4Y-5.2
X-6.4Y-5.2787
X-6.4Y-5.3575
X-6.4Y-5.8425
X-6.4Y-5.9213
X-6.4Y-6.0
X-5.8362Y0.2
X-5.7575Y0.2
X-5.6787Y0.2
X-5.6Y0.2
X-5.5213Y0.2
X-4.515Y0.2
X-4.4362Y0.2
X-4.3575Y0.2
X-4.2787Y0.2
X-4.2Y0.2
X-3.8Y-4.5213
X-3.8Y-4.6
X-3.8Y-4.6787
X-3.8Y-4.7575
X-3.8Y-4.8362
X-3.8Y-5.2
X-3.8Y-5.2787
X-3.8Y-5.3575
X-3.8Y-5.8425
X-3.8Y-5.9213
X-3.8Y-6.0
T3
X-8.4344Y-1.6004
X-8.4344Y-1.7972
X-7.714Y-1.6031
X-7.714Y-1.8
X-6.9936Y-1.6031
X-6.9936Y-1.8
X-6.2732Y-1.6031
X-6.2732Y-1.8
X-6.0828Y-4.5064
X-6.0828Y-4.7032
X-6.0828Y-5.1064
X-6.0828Y-5.3032
X-6.0828Y-5.7064
X-6.0828Y-5.9032
X-5.8Y-6.9
X-5.7Y-6.8
X-5.6984Y-6.4
X-5.6Y-6.9
X-5.5528Y-1.6037
X-5.5528Y-1.8006
X-5.5016Y-6.4
X-5.2Y-6.9
X-5.1Y-6.8
X-5.0984Y-6.6
X-5.0Y-6.9
X-4.9016Y-6.6
X-4.8Y-3.6319
X-4.8Y-4.0319
X-4.8Y-4.2
X-4.8Y-3.8685
X-4.6Y-1.6031
X-4.6Y-1.8
X-4.6Y-3.6319
X-4.6Y-4.0319
X-4.6Y-4.2
X-4.6Y-6.9
X-4.6Y-3.8685
X-4.5Y-6.8
X-4.4984Y-6.4
X-4.4Y-6.9
X-4.3016Y-6.4
X-4.0984Y-6.4
X-4.0828Y-4.6
X-4.0828Y-4.7969
X-4.0828Y-5.3064
X-4.0828Y-5.5032
X-4.0828Y-5.9064
X-4.0828Y-6.1032
X-4.0Y-6.9
X-3.9016Y-6.4
X-3.9Y-6.8
X-3.8Y-6.9
X-2.0Y-1.2
X-2.0Y-1.6
X-1.8Y-1.2
X-1.8Y-1.6
T4
X-5.047Y-3.8
X-5.0Y-3.945
X-5.0Y-4.03
X-5.0Y-4.115
X-5.0Y-4.2
X-4.947Y-3.8
X-1.6082Y-1.6
X-1.607Y-1.2036
X-1.6Y-0.8
X-1.5082Y-1.6
X-1.507Y-1.2036
X-1.5Y-0.8
T5
X-9.2984Y-2.0492
X-9.2984Y-2.2264
X-9.2984Y-2.4492
X-9.2984Y-2.6264
X-9.2984Y-2.8492
X-9.2984Y-3.0264
X-9.2984Y-3.2492
X-9.2984Y-3.4264
X-9.2984Y-3.6492
X-9.2984Y-3.8264
X-9.2984Y-4.0492
X-9.2984Y-4.2264
X-9.2984Y-4.4492
X-9.2984Y-4.6264
X-9.2984Y-4.8492
X-9.2984Y-5.0264
X-9.2984Y-5.2492
X-9.2984Y-5.4264
X-8.7517Y-1.9244
X-8.6532Y-1.9244
X-8.5548Y-1.9244
X-8.0317Y-1.9244
X-7.9332Y-1.9244
X-7.8348Y-1.9244
X-7.3117Y-1.9244
X-7.2132Y-1.9244
X-7.1148Y-1.9244
X-6.5917Y-1.9244
X-6.4932Y-1.9244
X-6.3948Y-1.9244
X-5.8717Y-1.9244
X-5.7732Y-1.9244
X-5.6748Y-1.9244
X-5.1517Y-1.9244
X-5.1409Y-0.3985
X-5.1409Y-0.5954
X-5.0918Y-5.1538
X-5.0909Y-4.5687
X-5.0909Y-5.7459
X-5.0532Y-1.9244
X-4.9548Y-1.9244
X-4.8918Y-5.1538
X-4.8909Y-4.5687
X-4.8909Y-5.7459
X-4.8575Y-0.3985
X-4.8575Y-0.5954
X-4.6778Y-1.9485
X-4.6778Y-2.0485
X-4.6778Y-2.1485
X-4.6778Y-2.2485
X-4.6778Y-2.3485
X-4.6778Y-2.4485
X-4.5527Y-0.4
X-4.5527Y-0.5969
X-4.2693Y-0.4
X-4.2693Y-0.5969
X-3.9646Y-0.4
X-3.9646Y-0.5969
X-3.6811Y-0.4
X-3.6811Y-0.5969
X-3.3764Y-0.4
X-3.3764Y-0.5969
X-3.0929Y-0.4
X-3.0929Y-0.5969
X-3.0Y-1.6
X-2.9016Y-1.6
X-2.7882Y-0.4
X-2.7882Y-0.5969
X-2.5047Y-0.4
X-2.5047Y-0.5969
X-2.4984Y-1.6
X-2.4Y-1.6
X-2.2Y-0.4
X-2.2Y-0.5969
X-1.9165Y-0.4
X-1.9165Y-0.5969
X-1.0257Y-1.3416
X-1.0257Y-1.5416
X-0.8462Y-2.5228
X-0.8462Y-2.6228
X-0.8462Y-2.7228
X-0.8462Y-2.8228
X-0.8462Y-2.9228
X-0.8462Y-3.0228
X-0.8Y-4.2
X-0.8Y-4.3
X-0.8Y-4.4
X-0.8Y-4.5
X-0.8Y-4.6
X-0.8Y-4.7
X-0.8Y-4.8
X-0.8Y-4.9
X-0.8Y-5.0
X-0.8Y-5.1
X-0.8Y-5.2
X-0.8Y-5.3
X-0.7016Y-5.6492
X-0.7016Y-5.8264
X-0.7016Y-6.0492
X-0.7016Y-6.2264
T6
X-4.4Y-2.2
X-4.4Y-2.3
X-4.4Y-2.4
X-4.4Y-2.5
X-4.4Y-2.6
X-4.4Y-2.7
X-4.4Y-2.8
X-4.4Y-2.9
X-4.4Y-3.0
X-4.4Y-3.1
X-4.4Y-3.2
X-4.4Y-3.3
X-4.4Y-3.4
X-4.4Y-3.5
X-4.4Y-3.6
X-4.4Y-3.7
X-4.4Y-3.8
X-4.4Y-3.9
X-4.3Y-2.2
X-4.3Y-2.3
X-4.3Y-2.4
X-4.3Y-2.5
X-4.3Y-2.6
X-4.3Y-2.7
X-4.3Y-2.8
X-4.3Y-2.9
X-4.3Y-3.0
X-4.3Y-3.1
X-4.3Y-3.2
X-4.3Y-3.3
X-4.3Y-3.4
X-4.3Y-3.5
X-4.3Y-3.6
X-4.3Y-3.7
X-4.3Y-3.8
X-4.3Y-3.9
X-4.2Y-2.0
X-4.1Y-2.0
X-4.0Y-2.0
X-4.0Y-3.9
X-3.9Y-2.0
X-3.9Y-3.9
X-3.8Y-2.0
X-3.8Y-3.9
X-3.7Y-2.0
X-3.7Y-3.9
X-3.6Y-2.0
X-3.6Y-3.9
X-3.5Y-2.0
X-3.5Y-3.9
X-3.4Y-3.9
X-3.3Y-2.0
X-3.3Y-3.9
X-3.205Y-2.9
X-3.205Y-3.0
X-3.205Y-3.1
X-3.2Y-2.0
X-3.105Y-2.9
X-3.105Y-3.0
X-3.105Y-3.1
X-3.1Y-2.0
X-3.1Y-3.9
X-3.0Y-2.0
X-3.0Y-3.9
X-2.9Y-2.0
X-2.9Y-3.9
X-2.8Y-2.0
X-2.8Y-3.9
X-2.7Y-2.0
X-2.7Y-3.9
X-2.6Y-2.0
X-2.6Y-3.9
X-2.5Y-3.9
X-2.4Y-2.0
X-2.4Y-3.9
X-2.3Y-2.0
X-2.24Y-3.9
X-2.2Y-2.0
X-2.14Y-3.9
X-2.1Y-2.0
X-2.04Y-3.9
X-2.0Y-2.0
X-1.94Y-3.9
X-1.9Y-2.0
X-1.84Y-3.9
X-1.8Y-2.0
X-1.74Y-3.9
X-1.7Y-2.0
X-1.64Y-3.9
X-1.54Y-3.9
X-1.44Y-3.9
X-1.34Y-3.9
T7
X-9.2Y-2.0
X-9.2Y-2.2756
X-9.2Y-2.4
X-9.2Y-2.6756
X-9.2Y-2.8
X-9.2Y-3.0756
X-9.2Y-3.2
X-9.2Y-3.4756
X-9.2Y-3.6
X-9.2Y-3.8756
X-9.2Y-4.0
X-9.2Y-4.2756
X-9.2Y-4.4
X-9.2Y-4.6756
X-9.2Y-4.8
X-9.2Y-5.0756
X-9.2Y-5.2
X-9.2Y-5.4756
X-2.4Y-1.0
X-2.4Y-1.2
X-0.8Y-5.6
X-0.8Y-5.8756
X-0.8Y-6.0
X-0.8Y-6.2756
T8
X-8.6Y-0.2
X-8.6Y-0.4
X-8.6Y-0.6
X-8.0Y-0.2
X-8.0Y-0.4
X-8.0Y-0.6
X-7.4Y-0.2
X-7.4Y-0.4
X-7.4Y-0.6
X-6.8Y-0.2
X-6.8Y-0.4
X-6.8Y-0.6
X-6.2Y-0.2
X-6.2Y-0.4
X-6.2Y-0.6
X-5.6Y-0.2
X-5.6Y-0.4
X-5.6Y-0.6
X-1.2Y-0.8
X-1.0Y-0.8
X-0.8Y-0.8
T5
G00X-1.4215Y-0.4039
M15
G01X-1.4215Y-0.4827
M16
G05
G00X-1.1971Y-0.3252
M15
G01X-1.2759Y-0.3252
M16
G05
G00X-1.1873Y-0.5693
M15
G01X-1.2857Y-0.5693
M16
G05
T0
M30
