%TF.GenerationSoftware,KiCad,Pcbnew,(7.0.0-0)*%
%TF.CreationDate,2024-03-29T02:07:55+01:00*%
%TF.ProjectId,universalRobotTx,756e6976-6572-4736-916c-526f626f7454,rev?*%
%TF.SameCoordinates,Original*%
%TF.FileFunction,Legend,Bot*%
%TF.FilePolarity,Positive*%
%FSLAX46Y46*%
G04 Gerber Fmt 4.6, Leading zero omitted, Abs format (unit mm)*
G04 Created by KiCad (PCBNEW (7.0.0-0)) date 2024-03-29 02:07:55*
%MOMM*%
%LPD*%
G01*
G04 APERTURE LIST*
%ADD10C,0.150000*%
G04 APERTURE END LIST*
D10*
X-15017049Y-61896217D02*
G75*
G03*
X-15017049Y-61896217I-155007878J0D01*
G01*
X-101552188Y-60175220D02*
G75*
G03*
X-101552188Y-60175220I-55278428J0D01*
G01*
X-107731045Y-73656364D02*
G75*
G03*
X-107731045Y-73656364I-65162211J0D01*
G01*
X-102636663Y-60175220D02*
G75*
G03*
X-102636663Y-60175220I-54193953J0D01*
G01*
X-102232507Y-67271710D02*
G75*
G03*
X-102232507Y-67271710I-62485598J0D01*
G01*
X-35259467Y-91440000D02*
G75*
G03*
X-35259467Y-91440000I-91740533J0D01*
G01*
X-31360167Y-81114018D02*
G75*
G03*
X-31360167Y-81114018I-111415640J0D01*
G01*
X107812710Y-101765983D02*
G75*
G03*
X107812710Y-101765983I-217312751J0D01*
G01*
X-68820358Y-42391583D02*
G75*
G03*
X-68820358Y-42391583I-94317426J0D01*
G01*
X-85565987Y-67271710D02*
G75*
G03*
X-85565987Y-67271710I-79152118J0D01*
G01*
X-101881975Y-67271710D02*
G75*
G03*
X-101881975Y-67271710I-62836130J0D01*
G01*
X-94764831Y-72351710D02*
G75*
G03*
X-94764831Y-72351710I-54713274J0D01*
G01*
X-105258229Y-67271710D02*
G75*
G03*
X-105258229Y-67271710I-59459876J0D01*
G01*
X-112416304Y-67271710D02*
G75*
G03*
X-112416304Y-67271710I-52301801J0D01*
G01*
%TO.C,REF\u002A\u002A*%
G36*
X-148509208Y-101007796D02*
G01*
X-148509208Y-102133267D01*
X-149825921Y-102133267D01*
X-149825921Y-102414635D01*
X-148509208Y-102414635D01*
X-148509208Y-103727685D01*
X-148188273Y-103727685D01*
X-148188273Y-100726428D01*
X-150053799Y-100726428D01*
X-150053799Y-101007796D01*
X-148509208Y-101007796D01*
G37*
G36*
X-150623862Y-103727685D02*
G01*
X-150623862Y-100726428D01*
X-150944797Y-100726428D01*
X-150944797Y-103446317D01*
X-152481329Y-103446317D01*
X-152481329Y-103727685D01*
X-150623862Y-103727685D01*
G37*
G36*
X-155085446Y-102751690D02*
G01*
X-155084757Y-102793552D01*
X-155082690Y-102834783D01*
X-155079245Y-102875383D01*
X-155074421Y-102915352D01*
X-155068219Y-102954690D01*
X-155060639Y-102993396D01*
X-155051681Y-103031471D01*
X-155041345Y-103068916D01*
X-155029631Y-103105729D01*
X-155016538Y-103141911D01*
X-155007044Y-103165682D01*
X-154991921Y-103200533D01*
X-154975677Y-103234469D01*
X-154958313Y-103267492D01*
X-154939828Y-103299599D01*
X-154920222Y-103330792D01*
X-154899496Y-103361071D01*
X-154877650Y-103390435D01*
X-154854683Y-103418885D01*
X-154830595Y-103446420D01*
X-154805387Y-103473041D01*
X-154787958Y-103490280D01*
X-154760999Y-103515162D01*
X-154733150Y-103538975D01*
X-154704412Y-103561719D01*
X-154674786Y-103583394D01*
X-154644271Y-103604000D01*
X-154612868Y-103623537D01*
X-154580576Y-103642005D01*
X-154547395Y-103659403D01*
X-154513325Y-103675733D01*
X-154478366Y-103690994D01*
X-154454567Y-103700574D01*
X-154418256Y-103713799D01*
X-154381314Y-103725724D01*
X-154343741Y-103736348D01*
X-154305537Y-103745671D01*
X-154266702Y-103753693D01*
X-154227235Y-103760414D01*
X-154187138Y-103765834D01*
X-154146409Y-103769954D01*
X-154105049Y-103772772D01*
X-154063058Y-103774290D01*
X-154034714Y-103774579D01*
X-153992302Y-103773929D01*
X-153950521Y-103771977D01*
X-153909372Y-103768725D01*
X-153868854Y-103764172D01*
X-153828966Y-103758318D01*
X-153789710Y-103751163D01*
X-153751085Y-103742708D01*
X-153713092Y-103732951D01*
X-153675729Y-103721894D01*
X-153638997Y-103709535D01*
X-153614860Y-103700574D01*
X-153579328Y-103686026D01*
X-153544724Y-103670409D01*
X-153511047Y-103653723D01*
X-153478298Y-103635967D01*
X-153446476Y-103617143D01*
X-153415581Y-103597250D01*
X-153385613Y-103576288D01*
X-153356573Y-103554257D01*
X-153328461Y-103531157D01*
X-153301275Y-103506987D01*
X-153283667Y-103490280D01*
X-153258098Y-103464269D01*
X-153233598Y-103437344D01*
X-153210167Y-103409504D01*
X-153187805Y-103380749D01*
X-153166513Y-103351080D01*
X-153146289Y-103320496D01*
X-153127134Y-103288998D01*
X-153109048Y-103256586D01*
X-153092032Y-103223259D01*
X-153076084Y-103189017D01*
X-153066046Y-103165682D01*
X-153052166Y-103129920D01*
X-153039651Y-103093528D01*
X-153028501Y-103056504D01*
X-153018717Y-103018850D01*
X-153010298Y-102980564D01*
X-153003244Y-102941647D01*
X-152997555Y-102902099D01*
X-152993232Y-102861920D01*
X-152990273Y-102821110D01*
X-152988681Y-102779668D01*
X-152988377Y-102751690D01*
X-152988377Y-100726428D01*
X-153308580Y-100726428D01*
X-153308580Y-102731174D01*
X-153309355Y-102773781D01*
X-153311682Y-102815323D01*
X-153315561Y-102855801D01*
X-153320990Y-102895213D01*
X-153327971Y-102933561D01*
X-153336503Y-102970845D01*
X-153346587Y-103007063D01*
X-153358222Y-103042217D01*
X-153371408Y-103076306D01*
X-153386146Y-103109330D01*
X-153402435Y-103141290D01*
X-153420275Y-103172185D01*
X-153439666Y-103202015D01*
X-153460609Y-103230780D01*
X-153483103Y-103258481D01*
X-153507149Y-103285116D01*
X-153532480Y-103310315D01*
X-153558829Y-103333889D01*
X-153586198Y-103355836D01*
X-153614585Y-103376158D01*
X-153643992Y-103394854D01*
X-153674417Y-103411924D01*
X-153705862Y-103427369D01*
X-153738325Y-103441188D01*
X-153771807Y-103453381D01*
X-153806308Y-103463948D01*
X-153841828Y-103472890D01*
X-153878368Y-103480205D01*
X-153915926Y-103485896D01*
X-153954503Y-103489960D01*
X-153994099Y-103492398D01*
X-154034714Y-103493211D01*
X-154075423Y-103492398D01*
X-154115119Y-103489960D01*
X-154153802Y-103485896D01*
X-154191472Y-103480205D01*
X-154228128Y-103472890D01*
X-154263771Y-103463948D01*
X-154298401Y-103453381D01*
X-154332018Y-103441188D01*
X-154364622Y-103427369D01*
X-154396212Y-103411924D01*
X-154426789Y-103394854D01*
X-154456353Y-103376158D01*
X-154484904Y-103355836D01*
X-154512441Y-103333889D01*
X-154538965Y-103310315D01*
X-154564476Y-103285116D01*
X-154588788Y-103258481D01*
X-154611531Y-103230780D01*
X-154632706Y-103202015D01*
X-154652312Y-103172185D01*
X-154670350Y-103141290D01*
X-154686819Y-103109330D01*
X-154701720Y-103076306D01*
X-154715052Y-103042217D01*
X-154726816Y-103007063D01*
X-154737011Y-102970845D01*
X-154745638Y-102933561D01*
X-154752696Y-102895213D01*
X-154758186Y-102855801D01*
X-154762107Y-102815323D01*
X-154764460Y-102773781D01*
X-154765244Y-102731174D01*
X-154765244Y-100726428D01*
X-155085446Y-100726428D01*
X-155085446Y-102751690D01*
G37*
G36*
X-155896577Y-103727685D02*
G01*
X-155896577Y-100726428D01*
X-157762104Y-100726428D01*
X-157762104Y-101007796D01*
X-156217512Y-101007796D01*
X-156217512Y-102086373D01*
X-157534225Y-102086373D01*
X-157534225Y-102367740D01*
X-156217512Y-102367740D01*
X-156217512Y-103446317D01*
X-157762104Y-103446317D01*
X-157762104Y-103727685D01*
X-155896577Y-103727685D01*
G37*
G36*
X-160224804Y-102910692D02*
G01*
X-160224154Y-102947982D01*
X-160222203Y-102984563D01*
X-160218950Y-103020436D01*
X-160214397Y-103055601D01*
X-160208543Y-103090057D01*
X-160201388Y-103123805D01*
X-160192933Y-103156844D01*
X-160183176Y-103189175D01*
X-160172119Y-103220797D01*
X-160159760Y-103251711D01*
X-160150799Y-103271927D01*
X-160136493Y-103301584D01*
X-160121054Y-103330377D01*
X-160104482Y-103358307D01*
X-160086777Y-103385374D01*
X-160067937Y-103411579D01*
X-160047965Y-103436920D01*
X-160026859Y-103461398D01*
X-160004619Y-103485014D01*
X-159981246Y-103507766D01*
X-159956740Y-103529656D01*
X-159939773Y-103543770D01*
X-159913618Y-103564202D01*
X-159886536Y-103583732D01*
X-159858526Y-103602361D01*
X-159829589Y-103620088D01*
X-159799724Y-103636913D01*
X-159768933Y-103652837D01*
X-159737214Y-103667860D01*
X-159704567Y-103681981D01*
X-159670993Y-103695200D01*
X-159636492Y-103707517D01*
X-159612976Y-103715228D01*
X-159576981Y-103725835D01*
X-159540161Y-103735398D01*
X-159502517Y-103743918D01*
X-159464049Y-103751395D01*
X-159424756Y-103757829D01*
X-159384639Y-103763219D01*
X-159343698Y-103767566D01*
X-159301933Y-103770870D01*
X-159259343Y-103773130D01*
X-159215929Y-103774347D01*
X-159186528Y-103774579D01*
X-159144256Y-103774233D01*
X-159102802Y-103773194D01*
X-159062167Y-103771462D01*
X-159022351Y-103769038D01*
X-158983353Y-103765921D01*
X-158945174Y-103762111D01*
X-158907813Y-103757609D01*
X-158871271Y-103752414D01*
X-158835548Y-103746526D01*
X-158800643Y-103739946D01*
X-158766557Y-103732673D01*
X-158733290Y-103724708D01*
X-158700841Y-103716050D01*
X-158669210Y-103706699D01*
X-158638398Y-103696655D01*
X-158608405Y-103685919D01*
X-158578993Y-103674261D01*
X-158549741Y-103661636D01*
X-158520649Y-103648043D01*
X-158491718Y-103633483D01*
X-158462947Y-103617956D01*
X-158434336Y-103601461D01*
X-158405886Y-103583998D01*
X-158377596Y-103565568D01*
X-158349466Y-103546171D01*
X-158321496Y-103525806D01*
X-158293687Y-103504474D01*
X-158266038Y-103482175D01*
X-158238549Y-103458908D01*
X-158211220Y-103434673D01*
X-158184052Y-103409471D01*
X-158157044Y-103383302D01*
X-158376130Y-103164216D01*
X-158399932Y-103187469D01*
X-158423712Y-103209783D01*
X-158447468Y-103231158D01*
X-158471202Y-103251594D01*
X-158494912Y-103271092D01*
X-158518600Y-103289650D01*
X-158542265Y-103307270D01*
X-158577719Y-103331940D01*
X-158613122Y-103354497D01*
X-158648473Y-103374942D01*
X-158683773Y-103393274D01*
X-158719021Y-103409494D01*
X-158754218Y-103423602D01*
X-158789969Y-103436042D01*
X-158826878Y-103447258D01*
X-158864947Y-103457251D01*
X-158904176Y-103466020D01*
X-158944563Y-103473566D01*
X-158986110Y-103479888D01*
X-159028815Y-103484986D01*
X-159072680Y-103488861D01*
X-159102568Y-103490764D01*
X-159132970Y-103492124D01*
X-159163888Y-103492939D01*
X-159195321Y-103493211D01*
X-159235901Y-103492633D01*
X-159275394Y-103490899D01*
X-159313799Y-103488008D01*
X-159351117Y-103483961D01*
X-159387347Y-103478757D01*
X-159422489Y-103472397D01*
X-159456544Y-103464881D01*
X-159489511Y-103456209D01*
X-159521391Y-103446380D01*
X-159552182Y-103435395D01*
X-159581887Y-103423253D01*
X-159610503Y-103409955D01*
X-159638032Y-103395501D01*
X-159664473Y-103379890D01*
X-159689827Y-103363123D01*
X-159714092Y-103345200D01*
X-159737162Y-103326221D01*
X-159758743Y-103306285D01*
X-159788324Y-103274590D01*
X-159814556Y-103240743D01*
X-159837440Y-103204746D01*
X-159856975Y-103166598D01*
X-159873160Y-103126298D01*
X-159882091Y-103098237D01*
X-159889532Y-103069220D01*
X-159895486Y-103039247D01*
X-159899951Y-103008318D01*
X-159902928Y-102976432D01*
X-159904416Y-102943591D01*
X-159904602Y-102926812D01*
X-159904041Y-102897114D01*
X-159901762Y-102860957D01*
X-159897730Y-102825873D01*
X-159891944Y-102791863D01*
X-159884406Y-102758926D01*
X-159875115Y-102727062D01*
X-159868698Y-102708459D01*
X-159856602Y-102678388D01*
X-159842752Y-102649998D01*
X-159827149Y-102623290D01*
X-159809794Y-102598264D01*
X-159790685Y-102574919D01*
X-159769823Y-102553255D01*
X-159760987Y-102545061D01*
X-159738386Y-102526016D01*
X-159710840Y-102505477D01*
X-159682831Y-102487462D01*
X-159654357Y-102471972D01*
X-159625420Y-102459006D01*
X-159610778Y-102453470D01*
X-159578586Y-102442856D01*
X-159547077Y-102434170D01*
X-159511310Y-102425626D01*
X-159479631Y-102418894D01*
X-159445227Y-102412254D01*
X-159408098Y-102405705D01*
X-159378463Y-102400853D01*
X-159368245Y-102399248D01*
X-159018000Y-102343560D01*
X-158973765Y-102335615D01*
X-158930817Y-102326799D01*
X-158889157Y-102317113D01*
X-158848786Y-102306557D01*
X-158809702Y-102295132D01*
X-158771907Y-102282835D01*
X-158735399Y-102269669D01*
X-158700179Y-102255633D01*
X-158666248Y-102240726D01*
X-158633604Y-102224950D01*
X-158602248Y-102208303D01*
X-158572181Y-102190786D01*
X-158543401Y-102172399D01*
X-158515910Y-102153142D01*
X-158489706Y-102133015D01*
X-158464790Y-102112018D01*
X-158437196Y-102085663D01*
X-158411381Y-102058071D01*
X-158387347Y-102029243D01*
X-158365093Y-101999178D01*
X-158344620Y-101967877D01*
X-158325927Y-101935339D01*
X-158309014Y-101901565D01*
X-158293881Y-101866554D01*
X-158280529Y-101830307D01*
X-158268957Y-101792823D01*
X-158259166Y-101754103D01*
X-158251154Y-101714146D01*
X-158244923Y-101672953D01*
X-158240472Y-101630524D01*
X-158237802Y-101586858D01*
X-158236912Y-101541955D01*
X-158237504Y-101505975D01*
X-158239282Y-101470574D01*
X-158242244Y-101435753D01*
X-158246391Y-101401512D01*
X-158251724Y-101367850D01*
X-158258241Y-101334768D01*
X-158265943Y-101302265D01*
X-158274830Y-101270342D01*
X-158284903Y-101238998D01*
X-158296160Y-101208235D01*
X-158304323Y-101188047D01*
X-158317465Y-101158260D01*
X-158331611Y-101129349D01*
X-158346762Y-101101313D01*
X-158362918Y-101074154D01*
X-158380079Y-101047870D01*
X-158398244Y-101022462D01*
X-158417413Y-100997930D01*
X-158437588Y-100974274D01*
X-158458767Y-100951493D01*
X-158480950Y-100929589D01*
X-158496298Y-100915472D01*
X-158520117Y-100895021D01*
X-158544864Y-100875433D01*
X-158570538Y-100856707D01*
X-158597139Y-100838845D01*
X-158624668Y-100821846D01*
X-158653124Y-100805709D01*
X-158682508Y-100790436D01*
X-158712819Y-100776025D01*
X-158744057Y-100762477D01*
X-158776223Y-100749793D01*
X-158798182Y-100741816D01*
X-158831842Y-100730685D01*
X-158866326Y-100720650D01*
X-158901634Y-100711709D01*
X-158937767Y-100703863D01*
X-158974724Y-100697111D01*
X-159012505Y-100691455D01*
X-159051111Y-100686893D01*
X-159090540Y-100683426D01*
X-159130795Y-100681054D01*
X-159171873Y-100679777D01*
X-159199717Y-100679534D01*
X-159235741Y-100679834D01*
X-159271089Y-100680736D01*
X-159305762Y-100682239D01*
X-159339760Y-100684342D01*
X-159373082Y-100687047D01*
X-159405728Y-100690353D01*
X-159437699Y-100694260D01*
X-159468995Y-100698768D01*
X-159499615Y-100703877D01*
X-159529559Y-100709587D01*
X-159558828Y-100715898D01*
X-159587422Y-100722811D01*
X-159629046Y-100734306D01*
X-159669150Y-100747154D01*
X-159695042Y-100756470D01*
X-159733413Y-100771667D01*
X-159771592Y-100788679D01*
X-159809577Y-100807507D01*
X-159847369Y-100828152D01*
X-159884968Y-100850612D01*
X-159909926Y-100866595D01*
X-159934799Y-100883385D01*
X-159959586Y-100900982D01*
X-159984287Y-100919386D01*
X-160008902Y-100938597D01*
X-160033431Y-100958615D01*
X-160057875Y-100979441D01*
X-160082232Y-101001074D01*
X-160094379Y-101012193D01*
X-159887749Y-101218822D01*
X-159861459Y-101195595D01*
X-159834795Y-101173450D01*
X-159807758Y-101152387D01*
X-159780347Y-101132406D01*
X-159752563Y-101113507D01*
X-159724405Y-101095689D01*
X-159695874Y-101078954D01*
X-159666969Y-101063300D01*
X-159637691Y-101048729D01*
X-159608039Y-101035239D01*
X-159588063Y-101026847D01*
X-159557267Y-101015062D01*
X-159525054Y-101004436D01*
X-159491425Y-100994969D01*
X-159456378Y-100986662D01*
X-159419915Y-100979513D01*
X-159382035Y-100973524D01*
X-159342738Y-100968694D01*
X-159302024Y-100965023D01*
X-159259894Y-100962512D01*
X-159216347Y-100961159D01*
X-159186528Y-100960902D01*
X-159149061Y-100961503D01*
X-159112683Y-100963306D01*
X-159077391Y-100966311D01*
X-159043188Y-100970519D01*
X-159010072Y-100975928D01*
X-158978044Y-100982540D01*
X-158947103Y-100990354D01*
X-158917250Y-100999370D01*
X-158888485Y-101009588D01*
X-158860807Y-101021008D01*
X-158834217Y-101033631D01*
X-158796371Y-101054818D01*
X-158760973Y-101078711D01*
X-158728022Y-101105308D01*
X-158717582Y-101114775D01*
X-158688250Y-101144527D01*
X-158661803Y-101176083D01*
X-158638241Y-101209442D01*
X-158617564Y-101244605D01*
X-158599773Y-101281570D01*
X-158584866Y-101320339D01*
X-158572845Y-101360911D01*
X-158563709Y-101403286D01*
X-158559221Y-101432538D01*
X-158556015Y-101462592D01*
X-158554092Y-101493446D01*
X-158553450Y-101525103D01*
X-158554635Y-101567407D01*
X-158558190Y-101607766D01*
X-158564115Y-101646181D01*
X-158572410Y-101682651D01*
X-158583074Y-101717175D01*
X-158596109Y-101749755D01*
X-158611513Y-101780390D01*
X-158629288Y-101809081D01*
X-158649432Y-101835826D01*
X-158671946Y-101860626D01*
X-158688273Y-101876079D01*
X-158711589Y-101894426D01*
X-158736658Y-101911914D01*
X-158763481Y-101928544D01*
X-158792057Y-101944315D01*
X-158822385Y-101959227D01*
X-158854467Y-101973280D01*
X-158867791Y-101978661D01*
X-158901701Y-101991423D01*
X-158936112Y-102003148D01*
X-158971024Y-102013835D01*
X-158999314Y-102021637D01*
X-159027925Y-102028775D01*
X-159056856Y-102035250D01*
X-159086108Y-102041060D01*
X-159093471Y-102042409D01*
X-159423199Y-102094433D01*
X-159462603Y-102100875D01*
X-159500307Y-102107562D01*
X-159536311Y-102114493D01*
X-159570615Y-102121669D01*
X-159603219Y-102129090D01*
X-159634122Y-102136756D01*
X-159663325Y-102144667D01*
X-159699618Y-102155595D01*
X-159732889Y-102166958D01*
X-159755858Y-102175765D01*
X-159785190Y-102188084D01*
X-159813835Y-102201594D01*
X-159841793Y-102216294D01*
X-159869065Y-102232186D01*
X-159895649Y-102249267D01*
X-159921546Y-102267540D01*
X-159946757Y-102287003D01*
X-159971280Y-102307657D01*
X-160001980Y-102335600D01*
X-160030700Y-102364844D01*
X-160057439Y-102395387D01*
X-160082197Y-102427229D01*
X-160104975Y-102460370D01*
X-160125771Y-102494811D01*
X-160144588Y-102530552D01*
X-160161423Y-102567592D01*
X-160176278Y-102605931D01*
X-160189152Y-102645570D01*
X-160200046Y-102686509D01*
X-160208959Y-102728747D01*
X-160215891Y-102772284D01*
X-160220843Y-102817120D01*
X-160223814Y-102863257D01*
X-160224804Y-102910692D01*
G37*
G36*
X-162861894Y-102885047D02*
G01*
X-162854287Y-102924228D01*
X-162845751Y-102962636D01*
X-162836289Y-103000271D01*
X-162825899Y-103037134D01*
X-162814582Y-103073223D01*
X-162802337Y-103108540D01*
X-162789165Y-103143084D01*
X-162775066Y-103176856D01*
X-162760039Y-103209854D01*
X-162744085Y-103242080D01*
X-162732934Y-103263135D01*
X-162715492Y-103293851D01*
X-162697239Y-103323628D01*
X-162678175Y-103352464D01*
X-162658299Y-103380360D01*
X-162637611Y-103407315D01*
X-162616113Y-103433331D01*
X-162593802Y-103458406D01*
X-162570680Y-103482541D01*
X-162546747Y-103505736D01*
X-162522003Y-103527990D01*
X-162505055Y-103542304D01*
X-162479042Y-103562867D01*
X-162452385Y-103582516D01*
X-162425084Y-103601249D01*
X-162397138Y-103619069D01*
X-162368549Y-103635974D01*
X-162339316Y-103651964D01*
X-162309438Y-103667040D01*
X-162278917Y-103681202D01*
X-162247752Y-103694449D01*
X-162215943Y-103706782D01*
X-162194379Y-103714495D01*
X-162161698Y-103725233D01*
X-162128502Y-103734914D01*
X-162094790Y-103743540D01*
X-162060564Y-103751109D01*
X-162025822Y-103757622D01*
X-161990566Y-103763079D01*
X-161954794Y-103767479D01*
X-161918506Y-103770824D01*
X-161881704Y-103773112D01*
X-161844386Y-103774344D01*
X-161819222Y-103774579D01*
X-161777557Y-103773864D01*
X-161736369Y-103771720D01*
X-161695657Y-103768146D01*
X-161655422Y-103763142D01*
X-161615664Y-103756708D01*
X-161576382Y-103748845D01*
X-161537577Y-103739552D01*
X-161499248Y-103728829D01*
X-161461396Y-103716677D01*
X-161424020Y-103703095D01*
X-161399368Y-103693246D01*
X-161362941Y-103677359D01*
X-161327300Y-103660196D01*
X-161292445Y-103641758D01*
X-161258375Y-103622046D01*
X-161225091Y-103601058D01*
X-161192593Y-103578795D01*
X-161160880Y-103555256D01*
X-161129953Y-103530443D01*
X-161099812Y-103504355D01*
X-161070456Y-103476991D01*
X-161051322Y-103458040D01*
X-161025699Y-103431170D01*
X-161001588Y-103404047D01*
X-160978988Y-103376673D01*
X-160957899Y-103349047D01*
X-160938322Y-103321169D01*
X-160920255Y-103293039D01*
X-160903700Y-103264657D01*
X-160888656Y-103236024D01*
X-160874838Y-103206657D01*
X-160861958Y-103176444D01*
X-160850016Y-103145383D01*
X-160839014Y-103113475D01*
X-160828950Y-103080720D01*
X-160819826Y-103047117D01*
X-160811640Y-103012667D01*
X-160804393Y-102977370D01*
X-160797970Y-102940883D01*
X-160792257Y-102903228D01*
X-160787254Y-102864404D01*
X-160783967Y-102834521D01*
X-160781080Y-102803980D01*
X-160778592Y-102772783D01*
X-160776503Y-102740928D01*
X-160774814Y-102708417D01*
X-160773524Y-102675249D01*
X-160772885Y-102652772D01*
X-160772100Y-102618152D01*
X-160771391Y-102582438D01*
X-160770760Y-102545630D01*
X-160770206Y-102507726D01*
X-160769730Y-102468727D01*
X-160769330Y-102428634D01*
X-160769008Y-102387446D01*
X-160768764Y-102345163D01*
X-160768596Y-102301785D01*
X-160768527Y-102272259D01*
X-160768493Y-102242246D01*
X-160768489Y-102227056D01*
X-160768506Y-102196803D01*
X-160768558Y-102167041D01*
X-160768699Y-102123322D01*
X-160768918Y-102080711D01*
X-160769214Y-102039207D01*
X-160769588Y-101998812D01*
X-160770039Y-101959523D01*
X-160770567Y-101921343D01*
X-160771172Y-101884270D01*
X-160771855Y-101848304D01*
X-160772615Y-101813447D01*
X-160772885Y-101802074D01*
X-160773909Y-101768343D01*
X-160775332Y-101735295D01*
X-160777155Y-101702930D01*
X-160779377Y-101671248D01*
X-160781998Y-101640248D01*
X-160785018Y-101609930D01*
X-160788438Y-101580295D01*
X-160793618Y-101541844D01*
X-160799509Y-101504607D01*
X-160804393Y-101477475D01*
X-160811640Y-101442018D01*
X-160819826Y-101407454D01*
X-160828950Y-101373783D01*
X-160839014Y-101341004D01*
X-160850016Y-101309119D01*
X-160861958Y-101278127D01*
X-160874838Y-101248028D01*
X-160888656Y-101218822D01*
X-160903700Y-101190017D01*
X-160920255Y-101161486D01*
X-160938322Y-101133230D01*
X-160957899Y-101105249D01*
X-160978988Y-101077543D01*
X-161001588Y-101050111D01*
X-161025699Y-101022954D01*
X-161051322Y-100996072D01*
X-161080154Y-100967859D01*
X-161109771Y-100940920D01*
X-161140175Y-100915257D01*
X-161171364Y-100890869D01*
X-161203338Y-100867756D01*
X-161236098Y-100845918D01*
X-161269644Y-100825355D01*
X-161303976Y-100806067D01*
X-161339093Y-100788054D01*
X-161374996Y-100771317D01*
X-161399368Y-100760867D01*
X-161436426Y-100746332D01*
X-161473960Y-100733226D01*
X-161511971Y-100721550D01*
X-161550459Y-100711304D01*
X-161589423Y-100702488D01*
X-161628864Y-100695101D01*
X-161668781Y-100689144D01*
X-161709175Y-100684617D01*
X-161750045Y-100681519D01*
X-161791392Y-100679851D01*
X-161819222Y-100679534D01*
X-161869909Y-100680438D01*
X-161919571Y-100683152D01*
X-161968209Y-100687674D01*
X-162015822Y-100694005D01*
X-162062410Y-100702145D01*
X-162107974Y-100712094D01*
X-162152513Y-100723852D01*
X-162196027Y-100737419D01*
X-162238517Y-100752795D01*
X-162279982Y-100769980D01*
X-162320422Y-100788974D01*
X-162359838Y-100809776D01*
X-162398229Y-100832388D01*
X-162435595Y-100856808D01*
X-162471937Y-100883038D01*
X-162507254Y-100911076D01*
X-162541268Y-100940777D01*
X-162573703Y-100971995D01*
X-162604558Y-101004731D01*
X-162633833Y-101038983D01*
X-162661527Y-101074752D01*
X-162687642Y-101112038D01*
X-162712177Y-101150841D01*
X-162735132Y-101191161D01*
X-162756507Y-101232999D01*
X-162776302Y-101276353D01*
X-162794518Y-101321224D01*
X-162811153Y-101367612D01*
X-162826208Y-101415517D01*
X-162839683Y-101464939D01*
X-162851579Y-101515878D01*
X-162861894Y-101568333D01*
X-162532166Y-101568333D01*
X-162524341Y-101533975D01*
X-162515520Y-101500510D01*
X-162505702Y-101467938D01*
X-162494889Y-101436259D01*
X-162483079Y-101405473D01*
X-162470274Y-101375580D01*
X-162456472Y-101346580D01*
X-162441674Y-101318473D01*
X-162425881Y-101291259D01*
X-162409091Y-101264938D01*
X-162391305Y-101239510D01*
X-162372523Y-101214975D01*
X-162352745Y-101191333D01*
X-162331971Y-101168584D01*
X-162310201Y-101146728D01*
X-162287435Y-101125765D01*
X-162263882Y-101105801D01*
X-162239567Y-101087125D01*
X-162214491Y-101069737D01*
X-162188654Y-101053637D01*
X-162162056Y-101038825D01*
X-162134696Y-101025301D01*
X-162106574Y-101013066D01*
X-162077692Y-101002118D01*
X-162048048Y-100992458D01*
X-162017642Y-100984086D01*
X-161986475Y-100977002D01*
X-161954547Y-100971206D01*
X-161921858Y-100966698D01*
X-161888407Y-100963478D01*
X-161854195Y-100961546D01*
X-161819222Y-100960902D01*
X-161782391Y-100961783D01*
X-161745903Y-100964428D01*
X-161709759Y-100968836D01*
X-161673958Y-100975007D01*
X-161638501Y-100982941D01*
X-161603387Y-100992638D01*
X-161568617Y-101004098D01*
X-161534190Y-101017322D01*
X-161500565Y-101031988D01*
X-161468199Y-101048142D01*
X-161437092Y-101065785D01*
X-161407245Y-101084916D01*
X-161378657Y-101105535D01*
X-161351329Y-101127643D01*
X-161325260Y-101151239D01*
X-161300450Y-101176324D01*
X-161278726Y-101199490D01*
X-161258432Y-101223193D01*
X-161239570Y-101247432D01*
X-161222139Y-101272208D01*
X-161206140Y-101297521D01*
X-161191571Y-101323370D01*
X-161186144Y-101333860D01*
X-161173382Y-101360822D01*
X-161161658Y-101389502D01*
X-161150971Y-101419899D01*
X-161141322Y-101452013D01*
X-161132710Y-101485844D01*
X-161125136Y-101521393D01*
X-161122397Y-101536093D01*
X-161117485Y-101566341D01*
X-161113009Y-101598101D01*
X-161108967Y-101631371D01*
X-161105361Y-101666153D01*
X-161102189Y-101702446D01*
X-161099453Y-101740250D01*
X-161097686Y-101769595D01*
X-161096164Y-101799790D01*
X-161095286Y-101820392D01*
X-161094238Y-101852105D01*
X-161093294Y-101885144D01*
X-161092452Y-101919510D01*
X-161091714Y-101955203D01*
X-161091078Y-101992222D01*
X-161090546Y-102030568D01*
X-161090117Y-102070240D01*
X-161089790Y-102111240D01*
X-161089567Y-102153565D01*
X-161089447Y-102197218D01*
X-161089424Y-102227056D01*
X-161089447Y-102256898D01*
X-161089567Y-102300565D01*
X-161089790Y-102342919D01*
X-161090117Y-102383959D01*
X-161090546Y-102423685D01*
X-161091078Y-102462098D01*
X-161091714Y-102499196D01*
X-161092452Y-102534981D01*
X-161093294Y-102569452D01*
X-161094238Y-102602610D01*
X-161095286Y-102634454D01*
X-161096645Y-102665091D01*
X-161098248Y-102694904D01*
X-161100767Y-102733372D01*
X-161103721Y-102770375D01*
X-161107110Y-102805912D01*
X-161110934Y-102839984D01*
X-161115193Y-102872590D01*
X-161119887Y-102903731D01*
X-161122397Y-102918752D01*
X-161128041Y-102947718D01*
X-161136030Y-102982444D01*
X-161145057Y-103015524D01*
X-161155121Y-103046958D01*
X-161166223Y-103076747D01*
X-161178362Y-103104890D01*
X-161186144Y-103120985D01*
X-161200140Y-103146838D01*
X-161215568Y-103172190D01*
X-161232426Y-103197042D01*
X-161250716Y-103221392D01*
X-161270437Y-103245241D01*
X-161291588Y-103268590D01*
X-161300450Y-103277789D01*
X-161325260Y-103302885D01*
X-161351329Y-103326516D01*
X-161378657Y-103348681D01*
X-161407245Y-103369380D01*
X-161437092Y-103388614D01*
X-161468199Y-103406383D01*
X-161500565Y-103422686D01*
X-161534190Y-103437524D01*
X-161568617Y-103450576D01*
X-161603387Y-103461887D01*
X-161638501Y-103471458D01*
X-161673958Y-103479290D01*
X-161709759Y-103485380D01*
X-161745903Y-103489731D01*
X-161782391Y-103492341D01*
X-161819222Y-103493211D01*
X-161854212Y-103492570D01*
X-161888476Y-103490647D01*
X-161922013Y-103487441D01*
X-161954822Y-103482953D01*
X-161986905Y-103477183D01*
X-162018260Y-103470130D01*
X-162048889Y-103461796D01*
X-162078791Y-103452179D01*
X-162107965Y-103441279D01*
X-162136413Y-103429098D01*
X-162164134Y-103415634D01*
X-162191127Y-103400888D01*
X-162217394Y-103384859D01*
X-162242933Y-103367548D01*
X-162267746Y-103348955D01*
X-162291831Y-103329080D01*
X-162315044Y-103308026D01*
X-162337238Y-103286078D01*
X-162358412Y-103263238D01*
X-162378568Y-103239504D01*
X-162397705Y-103214878D01*
X-162415823Y-103189358D01*
X-162432922Y-103162945D01*
X-162449002Y-103135640D01*
X-162464063Y-103107441D01*
X-162478105Y-103078350D01*
X-162491128Y-103048365D01*
X-162503132Y-103017487D01*
X-162514117Y-102985717D01*
X-162524084Y-102953053D01*
X-162533031Y-102919496D01*
X-162540959Y-102885047D01*
X-162861894Y-102885047D01*
G37*
G36*
X-165302613Y-103727685D02*
G01*
X-165302613Y-102367740D01*
X-163875991Y-102367740D01*
X-163875991Y-103727685D01*
X-163555055Y-103727685D01*
X-163555055Y-100726428D01*
X-163875991Y-100726428D01*
X-163875991Y-102086373D01*
X-165302613Y-102086373D01*
X-165302613Y-100726428D01*
X-165623548Y-100726428D01*
X-165623548Y-103727685D01*
X-165302613Y-103727685D01*
G37*
G36*
X-166477177Y-103727685D02*
G01*
X-166477177Y-100726428D01*
X-168342704Y-100726428D01*
X-168342704Y-101007796D01*
X-166798112Y-101007796D01*
X-166798112Y-102086373D01*
X-168114825Y-102086373D01*
X-168114825Y-102367740D01*
X-166798112Y-102367740D01*
X-166798112Y-103446317D01*
X-168342704Y-103446317D01*
X-168342704Y-103727685D01*
X-166477177Y-103727685D01*
G37*
G36*
X-168994832Y-103727685D02*
G01*
X-169315767Y-103727685D01*
X-169315767Y-102414635D01*
X-170037505Y-102414635D01*
X-170721141Y-103727685D01*
X-171097030Y-103727685D01*
X-170383353Y-102367740D01*
X-170419374Y-102359738D01*
X-170454530Y-102350567D01*
X-170488823Y-102340229D01*
X-170522251Y-102328723D01*
X-170554814Y-102316049D01*
X-170586513Y-102302207D01*
X-170617348Y-102287197D01*
X-170647318Y-102271020D01*
X-170676424Y-102253675D01*
X-170704666Y-102235162D01*
X-170732043Y-102215482D01*
X-170758556Y-102194633D01*
X-170784204Y-102172617D01*
X-170808988Y-102149433D01*
X-170832907Y-102125081D01*
X-170855963Y-102099562D01*
X-170877967Y-102072989D01*
X-170898553Y-102045477D01*
X-170917718Y-102017027D01*
X-170935464Y-101987637D01*
X-170951790Y-101957309D01*
X-170966696Y-101926042D01*
X-170980183Y-101893837D01*
X-170992250Y-101860692D01*
X-171002898Y-101826609D01*
X-171012125Y-101791587D01*
X-171019934Y-101755626D01*
X-171026322Y-101718726D01*
X-171031291Y-101680887D01*
X-171034840Y-101642110D01*
X-171036970Y-101602394D01*
X-171037487Y-101572730D01*
X-170716744Y-101572730D01*
X-170716092Y-101607698D01*
X-170714134Y-101641526D01*
X-170710871Y-101674216D01*
X-170706303Y-101705766D01*
X-170700430Y-101736177D01*
X-170693251Y-101765449D01*
X-170684768Y-101793582D01*
X-170669595Y-101833645D01*
X-170651486Y-101871145D01*
X-170630440Y-101906082D01*
X-170606457Y-101938456D01*
X-170579538Y-101968267D01*
X-170549682Y-101995514D01*
X-170528502Y-102012195D01*
X-170495271Y-102035199D01*
X-170460289Y-102055781D01*
X-170423556Y-102073942D01*
X-170385070Y-102089681D01*
X-170344833Y-102102999D01*
X-170302844Y-102113896D01*
X-170273879Y-102119815D01*
X-170244134Y-102124658D01*
X-170213612Y-102128424D01*
X-170182310Y-102131115D01*
X-170150231Y-102132729D01*
X-170117372Y-102133267D01*
X-169315767Y-102133267D01*
X-169315767Y-101007796D01*
X-170117372Y-101007796D01*
X-170133899Y-101007934D01*
X-170166368Y-101009033D01*
X-170198058Y-101011231D01*
X-170228970Y-101014528D01*
X-170259104Y-101018924D01*
X-170288459Y-101024420D01*
X-170331031Y-101034724D01*
X-170371852Y-101047501D01*
X-170410922Y-101062751D01*
X-170448239Y-101080474D01*
X-170483805Y-101100669D01*
X-170517620Y-101123338D01*
X-170549682Y-101148480D01*
X-170579538Y-101175990D01*
X-170606457Y-101206036D01*
X-170630440Y-101238621D01*
X-170651486Y-101273742D01*
X-170669595Y-101311401D01*
X-170684768Y-101351598D01*
X-170693251Y-101379805D01*
X-170700430Y-101409140D01*
X-170706303Y-101439602D01*
X-170710871Y-101471193D01*
X-170714134Y-101503911D01*
X-170716092Y-101537756D01*
X-170716744Y-101572730D01*
X-171037487Y-101572730D01*
X-171037679Y-101561739D01*
X-171037422Y-101537616D01*
X-171036069Y-101501990D01*
X-171033558Y-101467034D01*
X-171029887Y-101432747D01*
X-171025057Y-101399130D01*
X-171019068Y-101366183D01*
X-171011919Y-101333906D01*
X-171003612Y-101302299D01*
X-170994145Y-101271361D01*
X-170983519Y-101241093D01*
X-170971734Y-101211495D01*
X-170963376Y-101192175D01*
X-170950067Y-101163903D01*
X-170935830Y-101136482D01*
X-170920666Y-101109910D01*
X-170904575Y-101084189D01*
X-170887556Y-101059318D01*
X-170869610Y-101035296D01*
X-170850736Y-101012125D01*
X-170830935Y-100989804D01*
X-170810207Y-100968333D01*
X-170788552Y-100947712D01*
X-170773631Y-100934449D01*
X-170750595Y-100915305D01*
X-170726773Y-100897063D01*
X-170702166Y-100879722D01*
X-170676773Y-100863283D01*
X-170650595Y-100847745D01*
X-170623630Y-100833109D01*
X-170595881Y-100819375D01*
X-170567345Y-100806542D01*
X-170538024Y-100794611D01*
X-170507917Y-100783581D01*
X-170487446Y-100776660D01*
X-170456225Y-100767116D01*
X-170424386Y-100758577D01*
X-170391928Y-100751042D01*
X-170358852Y-100744512D01*
X-170325158Y-100738986D01*
X-170290846Y-100734466D01*
X-170255915Y-100730949D01*
X-170220366Y-100728438D01*
X-170184199Y-100726931D01*
X-170147414Y-100726428D01*
X-168994832Y-100726428D01*
X-168994832Y-103727685D01*
G37*
G36*
X-171686877Y-103727685D02*
G01*
X-171686877Y-103352527D01*
X-172083283Y-103352527D01*
X-172083283Y-103727685D01*
X-171686877Y-103727685D01*
G37*
G36*
X-174863988Y-102885047D02*
G01*
X-174856380Y-102924228D01*
X-174847845Y-102962636D01*
X-174838382Y-103000271D01*
X-174827993Y-103037134D01*
X-174816675Y-103073223D01*
X-174804431Y-103108540D01*
X-174791259Y-103143084D01*
X-174777159Y-103176856D01*
X-174762133Y-103209854D01*
X-174746179Y-103242080D01*
X-174735028Y-103263135D01*
X-174717586Y-103293851D01*
X-174699333Y-103323628D01*
X-174680268Y-103352464D01*
X-174660392Y-103380360D01*
X-174639705Y-103407315D01*
X-174618206Y-103433331D01*
X-174595896Y-103458406D01*
X-174572774Y-103482541D01*
X-174548841Y-103505736D01*
X-174524096Y-103527990D01*
X-174507149Y-103542304D01*
X-174481136Y-103562867D01*
X-174454478Y-103582516D01*
X-174427177Y-103601249D01*
X-174399232Y-103619069D01*
X-174370643Y-103635974D01*
X-174341409Y-103651964D01*
X-174311532Y-103667040D01*
X-174281011Y-103681202D01*
X-174249845Y-103694449D01*
X-174218036Y-103706782D01*
X-174196472Y-103714495D01*
X-174163791Y-103725233D01*
X-174130595Y-103734914D01*
X-174096884Y-103743540D01*
X-174062658Y-103751109D01*
X-174027916Y-103757622D01*
X-173992659Y-103763079D01*
X-173956887Y-103767479D01*
X-173920600Y-103770824D01*
X-173883797Y-103773112D01*
X-173846480Y-103774344D01*
X-173821315Y-103774579D01*
X-173779650Y-103773864D01*
X-173738462Y-103771720D01*
X-173697751Y-103768146D01*
X-173657516Y-103763142D01*
X-173617758Y-103756708D01*
X-173578476Y-103748845D01*
X-173539670Y-103739552D01*
X-173501342Y-103728829D01*
X-173463490Y-103716677D01*
X-173426114Y-103703095D01*
X-173401462Y-103693246D01*
X-173365035Y-103677359D01*
X-173329394Y-103660196D01*
X-173294538Y-103641758D01*
X-173260469Y-103622046D01*
X-173227185Y-103601058D01*
X-173194686Y-103578795D01*
X-173162974Y-103555256D01*
X-173132047Y-103530443D01*
X-173101905Y-103504355D01*
X-173072550Y-103476991D01*
X-173053416Y-103458040D01*
X-173027793Y-103431170D01*
X-173003682Y-103404047D01*
X-172981082Y-103376673D01*
X-172959993Y-103349047D01*
X-172940415Y-103321169D01*
X-172922349Y-103293039D01*
X-172905794Y-103264657D01*
X-172890750Y-103236024D01*
X-172876931Y-103206657D01*
X-172864051Y-103176444D01*
X-172852110Y-103145383D01*
X-172841107Y-103113475D01*
X-172831044Y-103080720D01*
X-172821919Y-103047117D01*
X-172813733Y-103012667D01*
X-172806486Y-102977370D01*
X-172800063Y-102940883D01*
X-172794350Y-102903228D01*
X-172789347Y-102864404D01*
X-172786061Y-102834521D01*
X-172783173Y-102803980D01*
X-172780685Y-102772783D01*
X-172778597Y-102740928D01*
X-172776907Y-102708417D01*
X-172775617Y-102675249D01*
X-172774979Y-102652772D01*
X-172774193Y-102618152D01*
X-172773485Y-102582438D01*
X-172772854Y-102545630D01*
X-172772300Y-102507726D01*
X-172771823Y-102468727D01*
X-172771424Y-102428634D01*
X-172771102Y-102387446D01*
X-172770857Y-102345163D01*
X-172770690Y-102301785D01*
X-172770621Y-102272259D01*
X-172770587Y-102242246D01*
X-172770582Y-102227056D01*
X-172770600Y-102196803D01*
X-172770651Y-102167041D01*
X-172770793Y-102123322D01*
X-172771012Y-102080711D01*
X-172771308Y-102039207D01*
X-172771681Y-101998812D01*
X-172772132Y-101959523D01*
X-172772660Y-101921343D01*
X-172773266Y-101884270D01*
X-172773948Y-101848304D01*
X-172774708Y-101813447D01*
X-172774979Y-101802074D01*
X-172776003Y-101768343D01*
X-172777426Y-101735295D01*
X-172779248Y-101702930D01*
X-172781470Y-101671248D01*
X-172784091Y-101640248D01*
X-172787112Y-101609930D01*
X-172790531Y-101580295D01*
X-172795712Y-101541844D01*
X-172801602Y-101504607D01*
X-172806486Y-101477475D01*
X-172813733Y-101442018D01*
X-172821919Y-101407454D01*
X-172831044Y-101373783D01*
X-172841107Y-101341004D01*
X-172852110Y-101309119D01*
X-172864051Y-101278127D01*
X-172876931Y-101248028D01*
X-172890750Y-101218822D01*
X-172905794Y-101190017D01*
X-172922349Y-101161486D01*
X-172940415Y-101133230D01*
X-172959993Y-101105249D01*
X-172981082Y-101077543D01*
X-173003682Y-101050111D01*
X-173027793Y-101022954D01*
X-173053416Y-100996072D01*
X-173082247Y-100967859D01*
X-173111865Y-100940920D01*
X-173142268Y-100915257D01*
X-173173457Y-100890869D01*
X-173205432Y-100867756D01*
X-173238192Y-100845918D01*
X-173271738Y-100825355D01*
X-173306070Y-100806067D01*
X-173341187Y-100788054D01*
X-173377090Y-100771317D01*
X-173401462Y-100760867D01*
X-173438520Y-100746332D01*
X-173476054Y-100733226D01*
X-173514065Y-100721550D01*
X-173552553Y-100711304D01*
X-173591517Y-100702488D01*
X-173630957Y-100695101D01*
X-173670875Y-100689144D01*
X-173711268Y-100684617D01*
X-173752139Y-100681519D01*
X-173793486Y-100679851D01*
X-173821315Y-100679534D01*
X-173872002Y-100680438D01*
X-173921665Y-100683152D01*
X-173970302Y-100687674D01*
X-174017915Y-100694005D01*
X-174064504Y-100702145D01*
X-174110067Y-100712094D01*
X-174154606Y-100723852D01*
X-174198121Y-100737419D01*
X-174240610Y-100752795D01*
X-174282075Y-100769980D01*
X-174322516Y-100788974D01*
X-174361931Y-100809776D01*
X-174400322Y-100832388D01*
X-174437689Y-100856808D01*
X-174474030Y-100883038D01*
X-174509347Y-100911076D01*
X-174543362Y-100940777D01*
X-174575797Y-100971995D01*
X-174606651Y-101004731D01*
X-174635926Y-101038983D01*
X-174663621Y-101074752D01*
X-174689736Y-101112038D01*
X-174714271Y-101150841D01*
X-174737226Y-101191161D01*
X-174758601Y-101232999D01*
X-174778396Y-101276353D01*
X-174796611Y-101321224D01*
X-174813246Y-101367612D01*
X-174828302Y-101415517D01*
X-174841777Y-101464939D01*
X-174853672Y-101515878D01*
X-174863988Y-101568333D01*
X-174534260Y-101568333D01*
X-174526435Y-101533975D01*
X-174517613Y-101500510D01*
X-174507796Y-101467938D01*
X-174496982Y-101436259D01*
X-174485173Y-101405473D01*
X-174472367Y-101375580D01*
X-174458566Y-101346580D01*
X-174443768Y-101318473D01*
X-174427974Y-101291259D01*
X-174411184Y-101264938D01*
X-174393399Y-101239510D01*
X-174374617Y-101214975D01*
X-174354839Y-101191333D01*
X-174334065Y-101168584D01*
X-174312295Y-101146728D01*
X-174289529Y-101125765D01*
X-174265975Y-101105801D01*
X-174241661Y-101087125D01*
X-174216585Y-101069737D01*
X-174190748Y-101053637D01*
X-174164149Y-101038825D01*
X-174136789Y-101025301D01*
X-174108668Y-101013066D01*
X-174079785Y-101002118D01*
X-174050141Y-100992458D01*
X-174019736Y-100984086D01*
X-173988569Y-100977002D01*
X-173956641Y-100971206D01*
X-173923951Y-100966698D01*
X-173890501Y-100963478D01*
X-173856289Y-100961546D01*
X-173821315Y-100960902D01*
X-173784484Y-100961783D01*
X-173747996Y-100964428D01*
X-173711852Y-100968836D01*
X-173676052Y-100975007D01*
X-173640594Y-100982941D01*
X-173605481Y-100992638D01*
X-173570710Y-101004098D01*
X-173536284Y-101017322D01*
X-173502658Y-101031988D01*
X-173470292Y-101048142D01*
X-173439186Y-101065785D01*
X-173409338Y-101084916D01*
X-173380751Y-101105535D01*
X-173353422Y-101127643D01*
X-173327353Y-101151239D01*
X-173302543Y-101176324D01*
X-173280819Y-101199490D01*
X-173260526Y-101223193D01*
X-173241664Y-101247432D01*
X-173224233Y-101272208D01*
X-173208233Y-101297521D01*
X-173193664Y-101323370D01*
X-173188238Y-101333860D01*
X-173175476Y-101360822D01*
X-173163751Y-101389502D01*
X-173153065Y-101419899D01*
X-173143415Y-101452013D01*
X-173134804Y-101485844D01*
X-173127229Y-101521393D01*
X-173124490Y-101536093D01*
X-173119579Y-101566341D01*
X-173115102Y-101598101D01*
X-173111061Y-101631371D01*
X-173107454Y-101666153D01*
X-173104283Y-101702446D01*
X-173101547Y-101740250D01*
X-173099780Y-101769595D01*
X-173098258Y-101799790D01*
X-173097379Y-101820392D01*
X-173096332Y-101852105D01*
X-173095387Y-101885144D01*
X-173094546Y-101919510D01*
X-173093807Y-101955203D01*
X-173093172Y-101992222D01*
X-173092639Y-102030568D01*
X-173092210Y-102070240D01*
X-173091884Y-102111240D01*
X-173091661Y-102153565D01*
X-173091540Y-102197218D01*
X-173091517Y-102227056D01*
X-173091540Y-102256898D01*
X-173091661Y-102300565D01*
X-173091884Y-102342919D01*
X-173092210Y-102383959D01*
X-173092639Y-102423685D01*
X-173093172Y-102462098D01*
X-173093807Y-102499196D01*
X-173094546Y-102534981D01*
X-173095387Y-102569452D01*
X-173096332Y-102602610D01*
X-173097379Y-102634454D01*
X-173098738Y-102665091D01*
X-173100342Y-102694904D01*
X-173102860Y-102733372D01*
X-173105814Y-102770375D01*
X-173109203Y-102805912D01*
X-173113027Y-102839984D01*
X-173117286Y-102872590D01*
X-173121980Y-102903731D01*
X-173124490Y-102918752D01*
X-173130135Y-102947718D01*
X-173138124Y-102982444D01*
X-173147150Y-103015524D01*
X-173157215Y-103046958D01*
X-173168317Y-103076747D01*
X-173180456Y-103104890D01*
X-173188238Y-103120985D01*
X-173202234Y-103146838D01*
X-173217661Y-103172190D01*
X-173234520Y-103197042D01*
X-173252809Y-103221392D01*
X-173272530Y-103245241D01*
X-173293682Y-103268590D01*
X-173302543Y-103277789D01*
X-173327353Y-103302885D01*
X-173353422Y-103326516D01*
X-173380751Y-103348681D01*
X-173409338Y-103369380D01*
X-173439186Y-103388614D01*
X-173470292Y-103406383D01*
X-173502658Y-103422686D01*
X-173536284Y-103437524D01*
X-173570710Y-103450576D01*
X-173605481Y-103461887D01*
X-173640594Y-103471458D01*
X-173676052Y-103479290D01*
X-173711852Y-103485380D01*
X-173747996Y-103489731D01*
X-173784484Y-103492341D01*
X-173821315Y-103493211D01*
X-173856306Y-103492570D01*
X-173890569Y-103490647D01*
X-173924106Y-103487441D01*
X-173956916Y-103482953D01*
X-173988998Y-103477183D01*
X-174020354Y-103470130D01*
X-174050983Y-103461796D01*
X-174080884Y-103452179D01*
X-174110059Y-103441279D01*
X-174138506Y-103429098D01*
X-174166227Y-103415634D01*
X-174193221Y-103400888D01*
X-174219487Y-103384859D01*
X-174245027Y-103367548D01*
X-174269839Y-103348955D01*
X-174293925Y-103329080D01*
X-174317138Y-103308026D01*
X-174339331Y-103286078D01*
X-174360506Y-103263238D01*
X-174380662Y-103239504D01*
X-174399799Y-103214878D01*
X-174417916Y-103189358D01*
X-174435015Y-103162945D01*
X-174451095Y-103135640D01*
X-174466156Y-103107441D01*
X-174480198Y-103078350D01*
X-174493221Y-103048365D01*
X-174505226Y-103017487D01*
X-174516211Y-102985717D01*
X-174526177Y-102953053D01*
X-174535124Y-102919496D01*
X-174543053Y-102885047D01*
X-174863988Y-102885047D01*
G37*
G36*
X-177304707Y-103727685D02*
G01*
X-177304707Y-102367740D01*
X-175878084Y-102367740D01*
X-175878084Y-103727685D01*
X-175557149Y-103727685D01*
X-175557149Y-100726428D01*
X-175878084Y-100726428D01*
X-175878084Y-102086373D01*
X-177304707Y-102086373D01*
X-177304707Y-100726428D01*
X-177625642Y-100726428D01*
X-177625642Y-103727685D01*
X-177304707Y-103727685D01*
G37*
%TO.C,A1*%
X-17065714Y-102697666D02*
X-17541904Y-102697666D01*
X-16970476Y-102983380D02*
X-17303809Y-101983380D01*
X-17303809Y-101983380D02*
X-17637142Y-102983380D01*
X-18494285Y-102983380D02*
X-17922857Y-102983380D01*
X-18208571Y-102983380D02*
X-18208571Y-101983380D01*
X-18208571Y-101983380D02*
X-18113333Y-102126238D01*
X-18113333Y-102126238D02*
X-18018095Y-102221476D01*
X-18018095Y-102221476D02*
X-17922857Y-102269095D01*
X-79478094Y-96787619D02*
X-79478094Y-97787619D01*
X-79478094Y-97787619D02*
X-79239999Y-97787619D01*
X-79239999Y-97787619D02*
X-79097142Y-97740000D01*
X-79097142Y-97740000D02*
X-79001904Y-97644761D01*
X-79001904Y-97644761D02*
X-78954285Y-97549523D01*
X-78954285Y-97549523D02*
X-78906666Y-97359047D01*
X-78906666Y-97359047D02*
X-78906666Y-97216190D01*
X-78906666Y-97216190D02*
X-78954285Y-97025714D01*
X-78954285Y-97025714D02*
X-79001904Y-96930476D01*
X-79001904Y-96930476D02*
X-79097142Y-96835238D01*
X-79097142Y-96835238D02*
X-79239999Y-96787619D01*
X-79239999Y-96787619D02*
X-79478094Y-96787619D01*
X-78287618Y-97787619D02*
X-78192380Y-97787619D01*
X-78192380Y-97787619D02*
X-78097142Y-97740000D01*
X-78097142Y-97740000D02*
X-78049523Y-97692380D01*
X-78049523Y-97692380D02*
X-78001904Y-97597142D01*
X-78001904Y-97597142D02*
X-77954285Y-97406666D01*
X-77954285Y-97406666D02*
X-77954285Y-97168571D01*
X-77954285Y-97168571D02*
X-78001904Y-96978095D01*
X-78001904Y-96978095D02*
X-78049523Y-96882857D01*
X-78049523Y-96882857D02*
X-78097142Y-96835238D01*
X-78097142Y-96835238D02*
X-78192380Y-96787619D01*
X-78192380Y-96787619D02*
X-78287618Y-96787619D01*
X-78287618Y-96787619D02*
X-78382856Y-96835238D01*
X-78382856Y-96835238D02*
X-78430475Y-96882857D01*
X-78430475Y-96882857D02*
X-78478094Y-96978095D01*
X-78478094Y-96978095D02*
X-78525713Y-97168571D01*
X-78525713Y-97168571D02*
X-78525713Y-97406666D01*
X-78525713Y-97406666D02*
X-78478094Y-97597142D01*
X-78478094Y-97597142D02*
X-78430475Y-97692380D01*
X-78430475Y-97692380D02*
X-78382856Y-97740000D01*
X-78382856Y-97740000D02*
X-78287618Y-97787619D01*
X-77723999Y-80536142D02*
X-77676380Y-80583761D01*
X-77676380Y-80583761D02*
X-77723999Y-80631380D01*
X-77723999Y-80631380D02*
X-77771618Y-80583761D01*
X-77771618Y-80583761D02*
X-77723999Y-80536142D01*
X-77723999Y-80536142D02*
X-77723999Y-80631380D01*
%TO.C,REF\u002A\u002A*%
G36*
X-168073331Y-60776230D02*
G01*
X-168031912Y-60779202D01*
X-167991045Y-60784102D01*
X-167950773Y-60790887D01*
X-167911142Y-60799513D01*
X-167872193Y-60809937D01*
X-167833971Y-60822114D01*
X-167796519Y-60836001D01*
X-167759881Y-60851555D01*
X-167724101Y-60868732D01*
X-167689222Y-60887488D01*
X-167655287Y-60907780D01*
X-167622341Y-60929564D01*
X-167590427Y-60952797D01*
X-167559588Y-60977434D01*
X-167529868Y-61003433D01*
X-167501311Y-61030750D01*
X-167473961Y-61059341D01*
X-167447860Y-61089162D01*
X-167423053Y-61120170D01*
X-167399583Y-61152322D01*
X-167377493Y-61185573D01*
X-167356828Y-61219881D01*
X-167337631Y-61255201D01*
X-167319945Y-61291490D01*
X-167303815Y-61328704D01*
X-167289283Y-61366800D01*
X-167276394Y-61405734D01*
X-167265191Y-61445463D01*
X-167255717Y-61485943D01*
X-167248016Y-61527130D01*
X-167242132Y-61568980D01*
X-167242132Y-61727733D01*
X-167248016Y-61767255D01*
X-167255717Y-61806410D01*
X-167265191Y-61845138D01*
X-167276394Y-61883382D01*
X-167289283Y-61921083D01*
X-167303815Y-61958183D01*
X-167319945Y-61994625D01*
X-167337630Y-62030349D01*
X-167356827Y-62065299D01*
X-167377492Y-62099415D01*
X-167399582Y-62132640D01*
X-167423052Y-62164915D01*
X-167447859Y-62196182D01*
X-167473959Y-62226384D01*
X-167501310Y-62255462D01*
X-167529867Y-62283358D01*
X-167559586Y-62310013D01*
X-167590425Y-62335370D01*
X-167622339Y-62359371D01*
X-167655286Y-62381956D01*
X-167689220Y-62403070D01*
X-167724099Y-62422652D01*
X-167759880Y-62440645D01*
X-167796517Y-62456991D01*
X-167833969Y-62471632D01*
X-167872191Y-62484509D01*
X-167911140Y-62495564D01*
X-167950772Y-62504740D01*
X-167991044Y-62511978D01*
X-168031911Y-62517220D01*
X-168073331Y-62520408D01*
X-168115259Y-62521483D01*
X-168157187Y-62520483D01*
X-168198607Y-62517511D01*
X-168239474Y-62512610D01*
X-168279745Y-62505825D01*
X-168319377Y-62497199D01*
X-168358326Y-62486776D01*
X-168396548Y-62474599D01*
X-168433999Y-62460712D01*
X-168470637Y-62445158D01*
X-168506417Y-62427981D01*
X-168541297Y-62409225D01*
X-168575231Y-62388933D01*
X-168608177Y-62367149D01*
X-168640092Y-62343916D01*
X-168670931Y-62319279D01*
X-168700650Y-62293280D01*
X-168729207Y-62265963D01*
X-168756558Y-62237372D01*
X-168782659Y-62207551D01*
X-168807466Y-62176542D01*
X-168830936Y-62144391D01*
X-168853025Y-62111139D01*
X-168873690Y-62076832D01*
X-168892887Y-62041512D01*
X-168910573Y-62005223D01*
X-168926703Y-61968008D01*
X-168941235Y-61929912D01*
X-168954124Y-61890978D01*
X-168965328Y-61851250D01*
X-168974802Y-61810770D01*
X-168982502Y-61769583D01*
X-168988386Y-61727733D01*
X-168988386Y-61568980D01*
X-168984830Y-61527130D01*
X-168979162Y-61485943D01*
X-168971439Y-61445463D01*
X-168961721Y-61405734D01*
X-168950065Y-61366800D01*
X-168936529Y-61328704D01*
X-168921171Y-61291490D01*
X-168904050Y-61255201D01*
X-168885223Y-61219881D01*
X-168864750Y-61185573D01*
X-168842687Y-61152322D01*
X-168819093Y-61120170D01*
X-168794027Y-61089162D01*
X-168767546Y-61059341D01*
X-168739708Y-61030750D01*
X-168710572Y-61003433D01*
X-168680196Y-60977434D01*
X-168648638Y-60952797D01*
X-168615956Y-60929564D01*
X-168582208Y-60907780D01*
X-168547452Y-60887488D01*
X-168511747Y-60868732D01*
X-168475150Y-60851555D01*
X-168437720Y-60836001D01*
X-168399515Y-60822114D01*
X-168360593Y-60809937D01*
X-168321012Y-60799513D01*
X-168280830Y-60790887D01*
X-168240106Y-60784102D01*
X-168198897Y-60779202D01*
X-168157262Y-60776230D01*
X-168115259Y-60775229D01*
X-168073331Y-60776230D01*
G37*
G36*
X-169951871Y-57521854D02*
G01*
X-169910452Y-57524827D01*
X-169869585Y-57529727D01*
X-169829313Y-57536512D01*
X-169789682Y-57545138D01*
X-169750733Y-57555561D01*
X-169712511Y-57567738D01*
X-169675059Y-57581626D01*
X-169638421Y-57597179D01*
X-169602641Y-57614356D01*
X-169567762Y-57633112D01*
X-169533827Y-57653404D01*
X-169500881Y-57675188D01*
X-169468967Y-57698421D01*
X-169438128Y-57723059D01*
X-169408408Y-57749058D01*
X-169379851Y-57776374D01*
X-169352501Y-57804965D01*
X-169326400Y-57834787D01*
X-169301593Y-57865795D01*
X-169278123Y-57897947D01*
X-169256033Y-57931198D01*
X-169235368Y-57965505D01*
X-169216171Y-58000826D01*
X-169198486Y-58037115D01*
X-169182355Y-58074329D01*
X-169167823Y-58112425D01*
X-169154934Y-58151359D01*
X-169143731Y-58191088D01*
X-169134257Y-58231567D01*
X-169126556Y-58272754D01*
X-169120672Y-58314605D01*
X-169120672Y-58473357D01*
X-169126557Y-58515208D01*
X-169134258Y-58556395D01*
X-169143732Y-58596874D01*
X-169154935Y-58636603D01*
X-169167825Y-58675537D01*
X-169182357Y-58713633D01*
X-169198487Y-58750847D01*
X-169216173Y-58787136D01*
X-169235370Y-58822456D01*
X-169256035Y-58856764D01*
X-169278124Y-58890015D01*
X-169301594Y-58922167D01*
X-169326401Y-58953175D01*
X-169352502Y-58982997D01*
X-169379853Y-59011587D01*
X-169408410Y-59038904D01*
X-169438129Y-59064903D01*
X-169468968Y-59089541D01*
X-169500882Y-59112773D01*
X-169533828Y-59134557D01*
X-169567763Y-59154849D01*
X-169602642Y-59173606D01*
X-169638422Y-59190782D01*
X-169675060Y-59206336D01*
X-169712511Y-59220223D01*
X-169750733Y-59232401D01*
X-169789682Y-59242824D01*
X-169829313Y-59251450D01*
X-169869585Y-59258235D01*
X-169910452Y-59263135D01*
X-169951871Y-59266107D01*
X-169993799Y-59267108D01*
X-170035727Y-59266107D01*
X-170077147Y-59263135D01*
X-170118014Y-59258235D01*
X-170158285Y-59251450D01*
X-170197917Y-59242824D01*
X-170236866Y-59232401D01*
X-170275088Y-59220223D01*
X-170312539Y-59206336D01*
X-170349177Y-59190782D01*
X-170384958Y-59173606D01*
X-170419837Y-59154849D01*
X-170453771Y-59134557D01*
X-170486717Y-59112773D01*
X-170518632Y-59089541D01*
X-170549471Y-59064903D01*
X-170579190Y-59038904D01*
X-170607747Y-59011587D01*
X-170635098Y-58982997D01*
X-170661199Y-58953175D01*
X-170686006Y-58922167D01*
X-170709476Y-58890015D01*
X-170731565Y-58856764D01*
X-170752230Y-58822456D01*
X-170771427Y-58787136D01*
X-170789113Y-58750847D01*
X-170805243Y-58713633D01*
X-170819775Y-58675537D01*
X-170832664Y-58636603D01*
X-170843868Y-58596874D01*
X-170853342Y-58556395D01*
X-170861042Y-58515208D01*
X-170866926Y-58473357D01*
X-170866926Y-58314605D01*
X-170863370Y-58272754D01*
X-170857701Y-58231567D01*
X-170849979Y-58191088D01*
X-170840260Y-58151359D01*
X-170828603Y-58112425D01*
X-170815067Y-58074329D01*
X-170799709Y-58037115D01*
X-170782588Y-58000826D01*
X-170763762Y-57965505D01*
X-170743288Y-57931198D01*
X-170721225Y-57897947D01*
X-170697632Y-57865795D01*
X-170672565Y-57834787D01*
X-170646084Y-57804965D01*
X-170618247Y-57776374D01*
X-170589111Y-57749058D01*
X-170558735Y-57723059D01*
X-170527177Y-57698421D01*
X-170494495Y-57675188D01*
X-170460747Y-57653404D01*
X-170425991Y-57633112D01*
X-170390286Y-57614356D01*
X-170353689Y-57597179D01*
X-170316260Y-57581626D01*
X-170278055Y-57567738D01*
X-170239133Y-57555561D01*
X-170199552Y-57545138D01*
X-170159370Y-57536512D01*
X-170118646Y-57529727D01*
X-170077437Y-57524827D01*
X-170035802Y-57521854D01*
X-169993799Y-57520854D01*
X-169951871Y-57521854D01*
G37*
G36*
X-169951871Y-64004147D02*
G01*
X-169910452Y-64007119D01*
X-169869585Y-64012019D01*
X-169829313Y-64018804D01*
X-169789682Y-64027430D01*
X-169750733Y-64037853D01*
X-169712511Y-64050031D01*
X-169675059Y-64063918D01*
X-169638421Y-64079472D01*
X-169602641Y-64096648D01*
X-169567762Y-64115405D01*
X-169533827Y-64135697D01*
X-169500881Y-64157481D01*
X-169468967Y-64180713D01*
X-169438128Y-64205351D01*
X-169408408Y-64231350D01*
X-169379851Y-64258667D01*
X-169352501Y-64287257D01*
X-169326400Y-64317079D01*
X-169301593Y-64348087D01*
X-169278123Y-64380239D01*
X-169256033Y-64413490D01*
X-169235368Y-64447798D01*
X-169216171Y-64483118D01*
X-169198486Y-64519407D01*
X-169182355Y-64556621D01*
X-169167823Y-64594717D01*
X-169154934Y-64633651D01*
X-169143731Y-64673380D01*
X-169134257Y-64713859D01*
X-169126556Y-64755046D01*
X-169120672Y-64796897D01*
X-169120672Y-64955649D01*
X-169126557Y-64997500D01*
X-169134258Y-65038687D01*
X-169143732Y-65079166D01*
X-169154935Y-65118895D01*
X-169167825Y-65157829D01*
X-169182357Y-65195925D01*
X-169198487Y-65233139D01*
X-169216173Y-65269428D01*
X-169235370Y-65304748D01*
X-169256035Y-65339055D01*
X-169278124Y-65372306D01*
X-169301594Y-65404458D01*
X-169326401Y-65435466D01*
X-169352502Y-65465287D01*
X-169379853Y-65493878D01*
X-169408410Y-65521194D01*
X-169438129Y-65547193D01*
X-169468968Y-65571831D01*
X-169500882Y-65595063D01*
X-169533828Y-65616847D01*
X-169567763Y-65637139D01*
X-169602642Y-65655895D01*
X-169638422Y-65673071D01*
X-169675060Y-65688625D01*
X-169712511Y-65702512D01*
X-169750733Y-65714689D01*
X-169789682Y-65725113D01*
X-169829313Y-65733738D01*
X-169869585Y-65740523D01*
X-169910452Y-65745424D01*
X-169951871Y-65748396D01*
X-169993799Y-65749396D01*
X-170035727Y-65748396D01*
X-170077147Y-65745424D01*
X-170118014Y-65740523D01*
X-170158285Y-65733738D01*
X-170197917Y-65725113D01*
X-170236866Y-65714689D01*
X-170275088Y-65702512D01*
X-170312539Y-65688625D01*
X-170349177Y-65673071D01*
X-170384958Y-65655895D01*
X-170419837Y-65637139D01*
X-170453771Y-65616847D01*
X-170486717Y-65595063D01*
X-170518632Y-65571831D01*
X-170549471Y-65547193D01*
X-170579190Y-65521194D01*
X-170607747Y-65493878D01*
X-170635098Y-65465287D01*
X-170661199Y-65435466D01*
X-170686006Y-65404458D01*
X-170709476Y-65372306D01*
X-170731565Y-65339055D01*
X-170752230Y-65304748D01*
X-170771427Y-65269428D01*
X-170789113Y-65233139D01*
X-170805243Y-65195925D01*
X-170819775Y-65157829D01*
X-170832664Y-65118895D01*
X-170843868Y-65079166D01*
X-170853342Y-65038687D01*
X-170861042Y-64997500D01*
X-170866926Y-64955649D01*
X-170866926Y-64796897D01*
X-170863370Y-64755046D01*
X-170857701Y-64713859D01*
X-170849979Y-64673380D01*
X-170840260Y-64633651D01*
X-170828603Y-64594717D01*
X-170815067Y-64556621D01*
X-170799709Y-64519407D01*
X-170782588Y-64483118D01*
X-170763762Y-64447798D01*
X-170743288Y-64413490D01*
X-170721225Y-64380239D01*
X-170697632Y-64348087D01*
X-170672565Y-64317079D01*
X-170646084Y-64287257D01*
X-170618247Y-64258667D01*
X-170589111Y-64231350D01*
X-170558735Y-64205351D01*
X-170527177Y-64180713D01*
X-170494495Y-64157481D01*
X-170460747Y-64135697D01*
X-170425991Y-64115405D01*
X-170390286Y-64096648D01*
X-170353689Y-64079472D01*
X-170316260Y-64063918D01*
X-170278055Y-64050031D01*
X-170239133Y-64037853D01*
X-170199552Y-64027430D01*
X-170159370Y-64018804D01*
X-170118646Y-64012019D01*
X-170077437Y-64007119D01*
X-170035802Y-64004147D01*
X-169993799Y-64003146D01*
X-169951871Y-64004147D01*
G37*
G36*
X-171830415Y-60776230D02*
G01*
X-171788996Y-60779202D01*
X-171748128Y-60784102D01*
X-171707857Y-60790887D01*
X-171668225Y-60799513D01*
X-171629277Y-60809937D01*
X-171591055Y-60822114D01*
X-171553603Y-60836001D01*
X-171516965Y-60851555D01*
X-171481185Y-60868732D01*
X-171446306Y-60887488D01*
X-171412371Y-60907780D01*
X-171379425Y-60929564D01*
X-171347511Y-60952797D01*
X-171316672Y-60977434D01*
X-171286952Y-61003433D01*
X-171258395Y-61030750D01*
X-171231044Y-61059341D01*
X-171204944Y-61089162D01*
X-171180136Y-61120170D01*
X-171156666Y-61152322D01*
X-171134577Y-61185573D01*
X-171113912Y-61219881D01*
X-171094715Y-61255201D01*
X-171077029Y-61291490D01*
X-171060899Y-61328704D01*
X-171046367Y-61366800D01*
X-171033478Y-61405734D01*
X-171022275Y-61445463D01*
X-171012801Y-61485943D01*
X-171005100Y-61527130D01*
X-170999216Y-61568980D01*
X-170999216Y-61727733D01*
X-171002697Y-61767255D01*
X-171008150Y-61806410D01*
X-171015531Y-61845138D01*
X-171024796Y-61883382D01*
X-171035902Y-61921083D01*
X-171048806Y-61958183D01*
X-171063464Y-61994625D01*
X-171079831Y-62030349D01*
X-171097866Y-62065299D01*
X-171117523Y-62099415D01*
X-171138759Y-62132640D01*
X-171161532Y-62164915D01*
X-171185796Y-62196182D01*
X-171211509Y-62226384D01*
X-171238627Y-62255462D01*
X-171267107Y-62283358D01*
X-171296904Y-62310013D01*
X-171327975Y-62335370D01*
X-171360277Y-62359371D01*
X-171393766Y-62381956D01*
X-171428398Y-62403070D01*
X-171464130Y-62422652D01*
X-171500918Y-62440645D01*
X-171538718Y-62456991D01*
X-171577488Y-62471632D01*
X-171617183Y-62484509D01*
X-171657759Y-62495564D01*
X-171699174Y-62504740D01*
X-171741384Y-62511978D01*
X-171784344Y-62517220D01*
X-171828012Y-62520408D01*
X-171872343Y-62521483D01*
X-171914271Y-62520483D01*
X-171955691Y-62517511D01*
X-171996558Y-62512610D01*
X-172036829Y-62505825D01*
X-172076461Y-62497199D01*
X-172115409Y-62486776D01*
X-172153631Y-62474599D01*
X-172191083Y-62460712D01*
X-172227721Y-62445158D01*
X-172263501Y-62427981D01*
X-172298380Y-62409225D01*
X-172332315Y-62388933D01*
X-172365261Y-62367149D01*
X-172397175Y-62343916D01*
X-172428014Y-62319279D01*
X-172457734Y-62293280D01*
X-172486291Y-62265963D01*
X-172513641Y-62237372D01*
X-172539742Y-62207551D01*
X-172564549Y-62176542D01*
X-172588019Y-62144391D01*
X-172610108Y-62111139D01*
X-172630773Y-62076832D01*
X-172649970Y-62041512D01*
X-172667655Y-62005223D01*
X-172683785Y-61968008D01*
X-172698317Y-61929912D01*
X-172711206Y-61890978D01*
X-172722409Y-61851250D01*
X-172731882Y-61810770D01*
X-172739583Y-61769583D01*
X-172745466Y-61727733D01*
X-172745466Y-61568980D01*
X-172741910Y-61527130D01*
X-172736242Y-61485943D01*
X-172728520Y-61445463D01*
X-172718801Y-61405734D01*
X-172707145Y-61366800D01*
X-172693609Y-61328704D01*
X-172678251Y-61291490D01*
X-172661130Y-61255201D01*
X-172642304Y-61219881D01*
X-172621831Y-61185573D01*
X-172599768Y-61152322D01*
X-172576174Y-61120170D01*
X-172551108Y-61089162D01*
X-172524627Y-61059341D01*
X-172496790Y-61030750D01*
X-172467654Y-61003433D01*
X-172437278Y-60977434D01*
X-172405720Y-60952797D01*
X-172373038Y-60929564D01*
X-172339290Y-60907780D01*
X-172304535Y-60887488D01*
X-172268830Y-60868732D01*
X-172232233Y-60851555D01*
X-172194803Y-60836001D01*
X-172156598Y-60822114D01*
X-172117677Y-60809937D01*
X-172078096Y-60799513D01*
X-172037914Y-60790887D01*
X-171997190Y-60784102D01*
X-171955981Y-60779202D01*
X-171914346Y-60776230D01*
X-171872343Y-60775229D01*
X-171830415Y-60776230D01*
G37*
G36*
X-173708955Y-57521854D02*
G01*
X-173667536Y-57524827D01*
X-173626668Y-57529727D01*
X-173586397Y-57536512D01*
X-173546765Y-57545138D01*
X-173507816Y-57555561D01*
X-173469594Y-57567738D01*
X-173432142Y-57581626D01*
X-173395505Y-57597179D01*
X-173359724Y-57614356D01*
X-173324845Y-57633112D01*
X-173290910Y-57653404D01*
X-173257964Y-57675188D01*
X-173226049Y-57698421D01*
X-173195210Y-57723059D01*
X-173165491Y-57749058D01*
X-173136934Y-57776374D01*
X-173109583Y-57804965D01*
X-173083482Y-57834787D01*
X-173058675Y-57865795D01*
X-173035205Y-57897947D01*
X-173013115Y-57931198D01*
X-172992450Y-57965505D01*
X-172973253Y-58000826D01*
X-172955568Y-58037115D01*
X-172939438Y-58074329D01*
X-172924906Y-58112425D01*
X-172912017Y-58151359D01*
X-172900814Y-58191088D01*
X-172891340Y-58231567D01*
X-172883640Y-58272754D01*
X-172877756Y-58314605D01*
X-172877756Y-58473357D01*
X-172881237Y-58515208D01*
X-172886690Y-58556395D01*
X-172894071Y-58596874D01*
X-172903336Y-58636603D01*
X-172914443Y-58675537D01*
X-172927347Y-58713633D01*
X-172942004Y-58750847D01*
X-172958372Y-58787136D01*
X-172976406Y-58822456D01*
X-172996064Y-58856764D01*
X-173017300Y-58890015D01*
X-173040073Y-58922167D01*
X-173064337Y-58953175D01*
X-173090050Y-58982997D01*
X-173117169Y-59011587D01*
X-173145648Y-59038904D01*
X-173175445Y-59064903D01*
X-173206517Y-59089541D01*
X-173238818Y-59112773D01*
X-173272307Y-59134557D01*
X-173306939Y-59154849D01*
X-173342671Y-59173606D01*
X-173379459Y-59190782D01*
X-173417260Y-59206336D01*
X-173456029Y-59220223D01*
X-173495724Y-59232401D01*
X-173536301Y-59242824D01*
X-173577715Y-59251450D01*
X-173619925Y-59258235D01*
X-173662885Y-59263135D01*
X-173706552Y-59266107D01*
X-173750883Y-59267108D01*
X-173792811Y-59266107D01*
X-173834230Y-59263135D01*
X-173875097Y-59258235D01*
X-173915368Y-59251450D01*
X-173955000Y-59242824D01*
X-173993948Y-59232401D01*
X-174032170Y-59220223D01*
X-174069622Y-59206336D01*
X-174106259Y-59190782D01*
X-174142040Y-59173606D01*
X-174176919Y-59154849D01*
X-174210853Y-59134557D01*
X-174243799Y-59112773D01*
X-174275714Y-59089541D01*
X-174306553Y-59064903D01*
X-174336272Y-59038904D01*
X-174364829Y-59011587D01*
X-174392180Y-58982997D01*
X-174418281Y-58953175D01*
X-174443088Y-58922167D01*
X-174466558Y-58890015D01*
X-174488647Y-58856764D01*
X-174509312Y-58822456D01*
X-174528509Y-58787136D01*
X-174546195Y-58750847D01*
X-174562325Y-58713633D01*
X-174576856Y-58675537D01*
X-174589746Y-58636603D01*
X-174600949Y-58596874D01*
X-174610422Y-58556395D01*
X-174618123Y-58515208D01*
X-174624006Y-58473357D01*
X-174624006Y-58314605D01*
X-174620450Y-58272754D01*
X-174614782Y-58231567D01*
X-174607060Y-58191088D01*
X-174597341Y-58151359D01*
X-174585685Y-58112425D01*
X-174572149Y-58074329D01*
X-174556791Y-58037115D01*
X-174539670Y-58000826D01*
X-174520843Y-57965505D01*
X-174500370Y-57931198D01*
X-174478307Y-57897947D01*
X-174454714Y-57865795D01*
X-174429647Y-57834787D01*
X-174403166Y-57804965D01*
X-174375329Y-57776374D01*
X-174346193Y-57749058D01*
X-174315817Y-57723059D01*
X-174284259Y-57698421D01*
X-174251577Y-57675188D01*
X-174217829Y-57653404D01*
X-174183073Y-57633112D01*
X-174147368Y-57614356D01*
X-174110772Y-57597179D01*
X-174073342Y-57581626D01*
X-174035137Y-57567738D01*
X-173996215Y-57555561D01*
X-173956634Y-57545138D01*
X-173916453Y-57536512D01*
X-173875729Y-57529727D01*
X-173834521Y-57524827D01*
X-173792886Y-57521854D01*
X-173750883Y-57520854D01*
X-173708955Y-57521854D01*
G37*
G36*
X-173708955Y-64004147D02*
G01*
X-173667536Y-64007119D01*
X-173626668Y-64012019D01*
X-173586397Y-64018804D01*
X-173546765Y-64027430D01*
X-173507816Y-64037853D01*
X-173469594Y-64050031D01*
X-173432142Y-64063918D01*
X-173395505Y-64079472D01*
X-173359724Y-64096648D01*
X-173324845Y-64115405D01*
X-173290910Y-64135697D01*
X-173257964Y-64157481D01*
X-173226049Y-64180713D01*
X-173195210Y-64205351D01*
X-173165491Y-64231350D01*
X-173136934Y-64258667D01*
X-173109583Y-64287257D01*
X-173083482Y-64317079D01*
X-173058675Y-64348087D01*
X-173035205Y-64380239D01*
X-173013115Y-64413490D01*
X-172992450Y-64447798D01*
X-172973253Y-64483118D01*
X-172955568Y-64519407D01*
X-172939438Y-64556621D01*
X-172924906Y-64594717D01*
X-172912017Y-64633651D01*
X-172900814Y-64673380D01*
X-172891340Y-64713859D01*
X-172883640Y-64755046D01*
X-172877756Y-64796897D01*
X-172877756Y-64955649D01*
X-172881237Y-64997500D01*
X-172886690Y-65038687D01*
X-172894071Y-65079166D01*
X-172903336Y-65118895D01*
X-172914443Y-65157829D01*
X-172927347Y-65195925D01*
X-172942004Y-65233139D01*
X-172958372Y-65269428D01*
X-172976406Y-65304748D01*
X-172996064Y-65339055D01*
X-173017300Y-65372306D01*
X-173040073Y-65404458D01*
X-173064337Y-65435466D01*
X-173090050Y-65465287D01*
X-173117169Y-65493878D01*
X-173145648Y-65521194D01*
X-173175445Y-65547193D01*
X-173206517Y-65571831D01*
X-173238818Y-65595063D01*
X-173272307Y-65616847D01*
X-173306939Y-65637139D01*
X-173342671Y-65655895D01*
X-173379459Y-65673071D01*
X-173417260Y-65688625D01*
X-173456029Y-65702512D01*
X-173495724Y-65714689D01*
X-173536301Y-65725113D01*
X-173577715Y-65733738D01*
X-173619925Y-65740523D01*
X-173662885Y-65745424D01*
X-173706552Y-65748396D01*
X-173750883Y-65749396D01*
X-173792811Y-65748396D01*
X-173834230Y-65745424D01*
X-173875097Y-65740523D01*
X-173915368Y-65733738D01*
X-173955000Y-65725113D01*
X-173993948Y-65714689D01*
X-174032170Y-65702512D01*
X-174069622Y-65688625D01*
X-174106259Y-65673071D01*
X-174142040Y-65655895D01*
X-174176919Y-65637139D01*
X-174210853Y-65616847D01*
X-174243799Y-65595063D01*
X-174275714Y-65571831D01*
X-174306553Y-65547193D01*
X-174336272Y-65521194D01*
X-174364829Y-65493878D01*
X-174392180Y-65465287D01*
X-174418281Y-65435466D01*
X-174443088Y-65404458D01*
X-174466558Y-65372306D01*
X-174488647Y-65339055D01*
X-174509312Y-65304748D01*
X-174528509Y-65269428D01*
X-174546195Y-65233139D01*
X-174562325Y-65195925D01*
X-174576856Y-65157829D01*
X-174589746Y-65118895D01*
X-174600949Y-65079166D01*
X-174610422Y-65038687D01*
X-174618123Y-64997500D01*
X-174624006Y-64955649D01*
X-174624006Y-64796897D01*
X-174620450Y-64755046D01*
X-174614782Y-64713859D01*
X-174607060Y-64673380D01*
X-174597341Y-64633651D01*
X-174585685Y-64594717D01*
X-174572149Y-64556621D01*
X-174556791Y-64519407D01*
X-174539670Y-64483118D01*
X-174520843Y-64447798D01*
X-174500370Y-64413490D01*
X-174478307Y-64380239D01*
X-174454714Y-64348087D01*
X-174429647Y-64317079D01*
X-174403166Y-64287257D01*
X-174375329Y-64258667D01*
X-174346193Y-64231350D01*
X-174315817Y-64205351D01*
X-174284259Y-64180713D01*
X-174251577Y-64157481D01*
X-174217829Y-64135697D01*
X-174183073Y-64115405D01*
X-174147368Y-64096648D01*
X-174110772Y-64079472D01*
X-174073342Y-64063918D01*
X-174035137Y-64050031D01*
X-173996215Y-64037853D01*
X-173956634Y-64027430D01*
X-173916453Y-64018804D01*
X-173875729Y-64012019D01*
X-173834521Y-64007119D01*
X-173792886Y-64004147D01*
X-173750883Y-64003146D01*
X-173708955Y-64004147D01*
G37*
G36*
X-175561036Y-60776230D02*
G01*
X-175519617Y-60779202D01*
X-175478750Y-60784102D01*
X-175438479Y-60790887D01*
X-175398847Y-60799513D01*
X-175359898Y-60809937D01*
X-175321676Y-60822114D01*
X-175284224Y-60836001D01*
X-175247586Y-60851555D01*
X-175211806Y-60868732D01*
X-175176927Y-60887488D01*
X-175142992Y-60907780D01*
X-175110046Y-60929564D01*
X-175078132Y-60952797D01*
X-175047293Y-60977434D01*
X-175017573Y-61003433D01*
X-174989016Y-61030750D01*
X-174961666Y-61059341D01*
X-174935565Y-61089162D01*
X-174910758Y-61120170D01*
X-174887288Y-61152322D01*
X-174865198Y-61185573D01*
X-174844533Y-61219881D01*
X-174825336Y-61255201D01*
X-174807651Y-61291490D01*
X-174791520Y-61328704D01*
X-174776989Y-61366800D01*
X-174764099Y-61405734D01*
X-174752896Y-61445463D01*
X-174743422Y-61485943D01*
X-174735721Y-61527130D01*
X-174729837Y-61568980D01*
X-174729837Y-61727733D01*
X-174735722Y-61767255D01*
X-174743423Y-61806410D01*
X-174752897Y-61845138D01*
X-174764100Y-61883382D01*
X-174776990Y-61921083D01*
X-174791522Y-61958183D01*
X-174807652Y-61994625D01*
X-174825338Y-62030349D01*
X-174844535Y-62065299D01*
X-174865200Y-62099415D01*
X-174887289Y-62132640D01*
X-174910760Y-62164915D01*
X-174935567Y-62196182D01*
X-174961667Y-62226384D01*
X-174989018Y-62255462D01*
X-175017575Y-62283358D01*
X-175047294Y-62310013D01*
X-175078133Y-62335370D01*
X-175110047Y-62359371D01*
X-175142993Y-62381956D01*
X-175176928Y-62403070D01*
X-175211807Y-62422652D01*
X-175247587Y-62440645D01*
X-175284225Y-62456991D01*
X-175321676Y-62471632D01*
X-175359898Y-62484509D01*
X-175398847Y-62495564D01*
X-175438479Y-62504740D01*
X-175478750Y-62511978D01*
X-175519617Y-62517220D01*
X-175561036Y-62520408D01*
X-175602964Y-62521483D01*
X-175644893Y-62520483D01*
X-175686312Y-62517511D01*
X-175727179Y-62512610D01*
X-175767450Y-62505825D01*
X-175807082Y-62497199D01*
X-175846031Y-62486776D01*
X-175884253Y-62474599D01*
X-175921705Y-62460712D01*
X-175958342Y-62445158D01*
X-175994123Y-62427981D01*
X-176029002Y-62409225D01*
X-176062936Y-62388933D01*
X-176095883Y-62367149D01*
X-176127797Y-62343916D01*
X-176158636Y-62319279D01*
X-176188355Y-62293280D01*
X-176216912Y-62265963D01*
X-176244263Y-62237372D01*
X-176270364Y-62207551D01*
X-176295171Y-62176542D01*
X-176318641Y-62144391D01*
X-176340731Y-62111139D01*
X-176361396Y-62076832D01*
X-176380593Y-62041512D01*
X-176398278Y-62005223D01*
X-176414409Y-61968008D01*
X-176428940Y-61929912D01*
X-176441830Y-61890978D01*
X-176453033Y-61851250D01*
X-176462507Y-61810770D01*
X-176470208Y-61769583D01*
X-176476091Y-61727733D01*
X-176476091Y-61568980D01*
X-176472535Y-61527130D01*
X-176466866Y-61485943D01*
X-176459144Y-61445463D01*
X-176449425Y-61405734D01*
X-176437769Y-61366800D01*
X-176424232Y-61328704D01*
X-176408875Y-61291490D01*
X-176391753Y-61255201D01*
X-176372927Y-61219881D01*
X-176352453Y-61185573D01*
X-176330390Y-61152322D01*
X-176306797Y-61120170D01*
X-176281730Y-61089162D01*
X-176255249Y-61059341D01*
X-176227412Y-61030750D01*
X-176198276Y-61003433D01*
X-176167900Y-60977434D01*
X-176136342Y-60952797D01*
X-176103660Y-60929564D01*
X-176069912Y-60907780D01*
X-176035156Y-60887488D01*
X-175999451Y-60868732D01*
X-175962855Y-60851555D01*
X-175925425Y-60836001D01*
X-175887220Y-60822114D01*
X-175848298Y-60809937D01*
X-175808717Y-60799513D01*
X-175768535Y-60790887D01*
X-175727811Y-60784102D01*
X-175686603Y-60779202D01*
X-175644968Y-60776230D01*
X-175602964Y-60775229D01*
X-175561036Y-60776230D01*
G37*
G36*
X-155523231Y-42903274D02*
G01*
X-155522552Y-42912045D01*
X-155521092Y-42968774D01*
X-155520149Y-43025502D01*
X-155522235Y-43081538D01*
X-155527276Y-43136809D01*
X-155535200Y-43191241D01*
X-155545933Y-43244762D01*
X-155559404Y-43297300D01*
X-155575539Y-43348782D01*
X-155594266Y-43399135D01*
X-155615513Y-43448287D01*
X-155639205Y-43496164D01*
X-155665272Y-43542695D01*
X-155693640Y-43587806D01*
X-155724237Y-43631425D01*
X-155756989Y-43673479D01*
X-155791825Y-43713895D01*
X-155828671Y-43752602D01*
X-155867455Y-43789525D01*
X-155908104Y-43824593D01*
X-155950546Y-43857733D01*
X-155994707Y-43888873D01*
X-156040516Y-43917938D01*
X-156087899Y-43944857D01*
X-156136784Y-43969558D01*
X-156187098Y-43991967D01*
X-156238769Y-44012012D01*
X-156291723Y-44029620D01*
X-156345889Y-44044718D01*
X-156401193Y-44057234D01*
X-156457563Y-44067096D01*
X-156514926Y-44074229D01*
X-156573210Y-44078563D01*
X-156632341Y-44080024D01*
X-156689070Y-44078563D01*
X-156745106Y-44074229D01*
X-156800376Y-44067096D01*
X-156854808Y-44057234D01*
X-156908330Y-44044718D01*
X-156960868Y-44029620D01*
X-157012350Y-44012012D01*
X-157062703Y-43991967D01*
X-157111854Y-43969558D01*
X-157159732Y-43944857D01*
X-157206262Y-43917938D01*
X-157251373Y-43888873D01*
X-157294992Y-43857733D01*
X-157337046Y-43824593D01*
X-157377463Y-43789525D01*
X-157416169Y-43752602D01*
X-157453093Y-43713895D01*
X-157488161Y-43673479D01*
X-157521301Y-43631425D01*
X-157552440Y-43587806D01*
X-157581506Y-43542695D01*
X-157608425Y-43496164D01*
X-157633126Y-43448287D01*
X-157655535Y-43399135D01*
X-157675580Y-43348782D01*
X-157693187Y-43297300D01*
X-157708286Y-43244762D01*
X-157720802Y-43191241D01*
X-157730663Y-43136809D01*
X-157737797Y-43081538D01*
X-157742131Y-43025502D01*
X-157743591Y-42968774D01*
X-157742910Y-42942315D01*
X-157002758Y-42942315D01*
X-157002296Y-42962001D01*
X-157000924Y-42981357D01*
X-156998660Y-43000364D01*
X-156995523Y-43019003D01*
X-156991535Y-43037255D01*
X-156986713Y-43055099D01*
X-156981077Y-43072518D01*
X-156974646Y-43089490D01*
X-156967441Y-43105997D01*
X-156959479Y-43122020D01*
X-156950782Y-43137539D01*
X-156941367Y-43152535D01*
X-156931254Y-43166989D01*
X-156920464Y-43180880D01*
X-156909014Y-43194190D01*
X-156896925Y-43206899D01*
X-156884216Y-43218988D01*
X-156870906Y-43230437D01*
X-156857015Y-43241228D01*
X-156842562Y-43251340D01*
X-156827566Y-43260755D01*
X-156812047Y-43269453D01*
X-156796024Y-43277414D01*
X-156779516Y-43284620D01*
X-156762544Y-43291050D01*
X-156745126Y-43296686D01*
X-156727281Y-43301508D01*
X-156709030Y-43305497D01*
X-156690391Y-43308633D01*
X-156671383Y-43310897D01*
X-156652027Y-43312270D01*
X-156632341Y-43312732D01*
X-156612656Y-43312270D01*
X-156593300Y-43310897D01*
X-156574292Y-43308633D01*
X-156555653Y-43305497D01*
X-156537402Y-43301508D01*
X-156519557Y-43296686D01*
X-156502139Y-43291050D01*
X-156485166Y-43284620D01*
X-156468659Y-43277414D01*
X-156452636Y-43269453D01*
X-156437117Y-43260755D01*
X-156422121Y-43251340D01*
X-156407668Y-43241228D01*
X-156393777Y-43230437D01*
X-156380467Y-43218988D01*
X-156367758Y-43206899D01*
X-156355669Y-43194190D01*
X-156344219Y-43180880D01*
X-156333428Y-43166989D01*
X-156323316Y-43152535D01*
X-156313901Y-43137539D01*
X-156305204Y-43122020D01*
X-156297242Y-43105997D01*
X-156290037Y-43089490D01*
X-156283606Y-43072518D01*
X-156277970Y-43055099D01*
X-156273148Y-43037255D01*
X-156269159Y-43019003D01*
X-156266023Y-43000364D01*
X-156263759Y-42981357D01*
X-156262387Y-42962001D01*
X-156261925Y-42942315D01*
X-156260059Y-42922630D01*
X-156259399Y-42903274D01*
X-156259912Y-42884266D01*
X-156261563Y-42865627D01*
X-156264319Y-42847376D01*
X-156268145Y-42829531D01*
X-156273008Y-42812113D01*
X-156278875Y-42795141D01*
X-156285710Y-42778633D01*
X-156293480Y-42762610D01*
X-156302151Y-42747091D01*
X-156311689Y-42732096D01*
X-156322061Y-42717642D01*
X-156333232Y-42703751D01*
X-156345168Y-42690441D01*
X-156357836Y-42677732D01*
X-156371202Y-42665643D01*
X-156385231Y-42654193D01*
X-156399890Y-42643403D01*
X-156415146Y-42633290D01*
X-156430963Y-42623875D01*
X-156447308Y-42615177D01*
X-156464147Y-42607216D01*
X-156481446Y-42600010D01*
X-156499172Y-42593580D01*
X-156517290Y-42587944D01*
X-156535767Y-42583122D01*
X-156554569Y-42579133D01*
X-156573661Y-42575997D01*
X-156593009Y-42573733D01*
X-156612581Y-42572360D01*
X-156632341Y-42571898D01*
X-156652027Y-42572360D01*
X-156671383Y-42573733D01*
X-156690391Y-42575997D01*
X-156709030Y-42579133D01*
X-156727281Y-42583122D01*
X-156745126Y-42587944D01*
X-156762544Y-42593580D01*
X-156779516Y-42600010D01*
X-156796024Y-42607216D01*
X-156812047Y-42615177D01*
X-156827566Y-42623875D01*
X-156842562Y-42633290D01*
X-156857015Y-42643402D01*
X-156870906Y-42654193D01*
X-156884216Y-42665642D01*
X-156896925Y-42677731D01*
X-156909014Y-42690440D01*
X-156920464Y-42703750D01*
X-156931254Y-42717641D01*
X-156941367Y-42732095D01*
X-156950782Y-42747091D01*
X-156959479Y-42762610D01*
X-156967441Y-42778633D01*
X-156974646Y-42795140D01*
X-156981077Y-42812112D01*
X-156986713Y-42829531D01*
X-156991535Y-42847375D01*
X-156995523Y-42865627D01*
X-156998660Y-42884266D01*
X-157000924Y-42903273D01*
X-157002296Y-42922629D01*
X-157002758Y-42942315D01*
X-157742910Y-42942315D01*
X-157742131Y-42912045D01*
X-157737797Y-42856009D01*
X-157730663Y-42800739D01*
X-157720802Y-42746307D01*
X-157708286Y-42692785D01*
X-157693187Y-42640248D01*
X-157675579Y-42588766D01*
X-157655534Y-42538413D01*
X-157633125Y-42489261D01*
X-157608425Y-42441384D01*
X-157581505Y-42394853D01*
X-157552440Y-42349742D01*
X-157521301Y-42306124D01*
X-157488161Y-42264070D01*
X-157453092Y-42223653D01*
X-157416169Y-42184947D01*
X-157377462Y-42148023D01*
X-157337046Y-42112955D01*
X-157294991Y-42079815D01*
X-157251372Y-42048676D01*
X-157206261Y-42019611D01*
X-157159731Y-41992691D01*
X-157111853Y-41967991D01*
X-157062702Y-41945582D01*
X-157012349Y-41925537D01*
X-156960867Y-41907929D01*
X-156908329Y-41892831D01*
X-156854808Y-41880315D01*
X-156800376Y-41870454D01*
X-156745106Y-41863320D01*
X-156689070Y-41858986D01*
X-156632341Y-41857526D01*
X-156575613Y-41858986D01*
X-156519577Y-41863320D01*
X-156464306Y-41870454D01*
X-156409874Y-41880315D01*
X-156356352Y-41892831D01*
X-156303814Y-41907930D01*
X-156252332Y-41925538D01*
X-156201979Y-41945582D01*
X-156152828Y-41967991D01*
X-156104950Y-41992692D01*
X-156058420Y-42019611D01*
X-156013309Y-42048677D01*
X-155969690Y-42079816D01*
X-155927636Y-42112956D01*
X-155887219Y-42148024D01*
X-155848513Y-42184947D01*
X-155811589Y-42223654D01*
X-155776521Y-42264070D01*
X-155743381Y-42306124D01*
X-155712242Y-42349743D01*
X-155683177Y-42394854D01*
X-155656257Y-42441385D01*
X-155631557Y-42489262D01*
X-155609148Y-42538414D01*
X-155589103Y-42588767D01*
X-155571495Y-42640248D01*
X-155556397Y-42692786D01*
X-155543881Y-42746307D01*
X-155534019Y-42800739D01*
X-155526886Y-42856010D01*
X-155523231Y-42903274D01*
G37*
G36*
X-168248234Y-42942315D02*
G01*
X-168247553Y-42968774D01*
X-168249014Y-43025502D01*
X-168253347Y-43081538D01*
X-168260481Y-43136809D01*
X-168270342Y-43191241D01*
X-168282858Y-43244762D01*
X-168297956Y-43297300D01*
X-168315564Y-43348782D01*
X-168335609Y-43399135D01*
X-168358018Y-43448287D01*
X-168382718Y-43496164D01*
X-168409638Y-43542695D01*
X-168438703Y-43587806D01*
X-168469842Y-43631425D01*
X-168502982Y-43673479D01*
X-168538050Y-43713895D01*
X-168574973Y-43752602D01*
X-168613679Y-43789525D01*
X-168654096Y-43824593D01*
X-168696150Y-43857733D01*
X-168739769Y-43888873D01*
X-168784880Y-43917938D01*
X-168831410Y-43944857D01*
X-168879288Y-43969558D01*
X-168928439Y-43991967D01*
X-168978792Y-44012012D01*
X-169030274Y-44029620D01*
X-169082812Y-44044718D01*
X-169136333Y-44057234D01*
X-169190766Y-44067096D01*
X-169246036Y-44074229D01*
X-169302072Y-44078563D01*
X-169358801Y-44080024D01*
X-169415530Y-44078563D01*
X-169471566Y-44074229D01*
X-169526836Y-44067096D01*
X-169581268Y-44057234D01*
X-169634790Y-44044718D01*
X-169687328Y-44029620D01*
X-169738810Y-44012012D01*
X-169789163Y-43991967D01*
X-169838314Y-43969558D01*
X-169886192Y-43944857D01*
X-169932722Y-43917938D01*
X-169977833Y-43888873D01*
X-170021452Y-43857733D01*
X-170063506Y-43824593D01*
X-170103922Y-43789525D01*
X-170142629Y-43752602D01*
X-170179552Y-43713895D01*
X-170214620Y-43673479D01*
X-170247760Y-43631425D01*
X-170278899Y-43587806D01*
X-170307964Y-43542695D01*
X-170334884Y-43496164D01*
X-170359584Y-43448287D01*
X-170381993Y-43399135D01*
X-170402038Y-43348782D01*
X-170419645Y-43297300D01*
X-170434744Y-43244762D01*
X-170447260Y-43191241D01*
X-170457121Y-43136809D01*
X-170464255Y-43081538D01*
X-170468588Y-43025502D01*
X-170470049Y-42968774D01*
X-170469368Y-42942315D01*
X-169729216Y-42942315D01*
X-169728754Y-42962001D01*
X-169727381Y-42981357D01*
X-169725117Y-43000364D01*
X-169721981Y-43019003D01*
X-169717992Y-43037255D01*
X-169713170Y-43055099D01*
X-169707534Y-43072518D01*
X-169701103Y-43089490D01*
X-169693898Y-43105997D01*
X-169685936Y-43122020D01*
X-169677238Y-43137539D01*
X-169667824Y-43152535D01*
X-169657711Y-43166989D01*
X-169646920Y-43180880D01*
X-169635471Y-43194190D01*
X-169623382Y-43206899D01*
X-169610672Y-43218988D01*
X-169597363Y-43230437D01*
X-169583471Y-43241228D01*
X-169569018Y-43251340D01*
X-169554022Y-43260755D01*
X-169538503Y-43269453D01*
X-169522481Y-43277414D01*
X-169505973Y-43284620D01*
X-169489001Y-43291050D01*
X-169471583Y-43296686D01*
X-169453739Y-43301508D01*
X-169435487Y-43305497D01*
X-169416849Y-43308633D01*
X-169397842Y-43310897D01*
X-169378486Y-43312270D01*
X-169358801Y-43312732D01*
X-169339115Y-43312270D01*
X-169319760Y-43310897D01*
X-169300752Y-43308633D01*
X-169282113Y-43305497D01*
X-169263862Y-43301508D01*
X-169246018Y-43296686D01*
X-169228599Y-43291050D01*
X-169211627Y-43284620D01*
X-169195120Y-43277414D01*
X-169179097Y-43269453D01*
X-169163578Y-43260755D01*
X-169148582Y-43251340D01*
X-169134129Y-43241228D01*
X-169120238Y-43230437D01*
X-169106928Y-43218988D01*
X-169094219Y-43206899D01*
X-169082130Y-43194190D01*
X-169070680Y-43180880D01*
X-169059890Y-43166989D01*
X-169049777Y-43152535D01*
X-169040363Y-43137539D01*
X-169031665Y-43122020D01*
X-169023704Y-43105997D01*
X-169016498Y-43089490D01*
X-169010068Y-43072518D01*
X-169004432Y-43055099D01*
X-168999610Y-43037255D01*
X-168995621Y-43019003D01*
X-168992485Y-43000364D01*
X-168990221Y-42981357D01*
X-168988848Y-42962001D01*
X-168988386Y-42942315D01*
X-168988848Y-42922630D01*
X-168990220Y-42903274D01*
X-168992484Y-42884266D01*
X-168995620Y-42865627D01*
X-168999608Y-42847376D01*
X-169004430Y-42829531D01*
X-169010066Y-42812113D01*
X-169016496Y-42795141D01*
X-169023702Y-42778633D01*
X-169031663Y-42762610D01*
X-169040361Y-42747091D01*
X-169049776Y-42732096D01*
X-169059888Y-42717642D01*
X-169070679Y-42703751D01*
X-169082128Y-42690441D01*
X-169094217Y-42677732D01*
X-169106927Y-42665643D01*
X-169120236Y-42654193D01*
X-169134128Y-42643403D01*
X-169148581Y-42633290D01*
X-169163577Y-42623875D01*
X-169179096Y-42615177D01*
X-169195119Y-42607216D01*
X-169211626Y-42600010D01*
X-169228599Y-42593580D01*
X-169246017Y-42587944D01*
X-169263862Y-42583122D01*
X-169282113Y-42579133D01*
X-169300752Y-42575997D01*
X-169319759Y-42573733D01*
X-169339115Y-42572360D01*
X-169358801Y-42571898D01*
X-169378486Y-42572360D01*
X-169397842Y-42573733D01*
X-169416850Y-42575997D01*
X-169435489Y-42579133D01*
X-169453740Y-42583122D01*
X-169471584Y-42587944D01*
X-169489002Y-42593580D01*
X-169505975Y-42600010D01*
X-169522482Y-42607216D01*
X-169538505Y-42615177D01*
X-169554024Y-42623875D01*
X-169569020Y-42633290D01*
X-169583473Y-42643402D01*
X-169597364Y-42654193D01*
X-169610674Y-42665642D01*
X-169623383Y-42677731D01*
X-169635472Y-42690440D01*
X-169646922Y-42703750D01*
X-169657712Y-42717641D01*
X-169667825Y-42732095D01*
X-169677239Y-42747091D01*
X-169685937Y-42762610D01*
X-169693898Y-42778633D01*
X-169701104Y-42795140D01*
X-169707534Y-42812112D01*
X-169713170Y-42829531D01*
X-169717992Y-42847375D01*
X-169721981Y-42865627D01*
X-169725117Y-42884266D01*
X-169727381Y-42903273D01*
X-169728754Y-42922629D01*
X-169729216Y-42942315D01*
X-170469368Y-42942315D01*
X-170468588Y-42912045D01*
X-170464255Y-42856009D01*
X-170457121Y-42800739D01*
X-170447260Y-42746307D01*
X-170434744Y-42692785D01*
X-170419645Y-42640248D01*
X-170402038Y-42588766D01*
X-170381993Y-42538413D01*
X-170359584Y-42489261D01*
X-170334884Y-42441384D01*
X-170307964Y-42394853D01*
X-170278899Y-42349742D01*
X-170247760Y-42306124D01*
X-170214620Y-42264070D01*
X-170179552Y-42223653D01*
X-170142629Y-42184947D01*
X-170103922Y-42148023D01*
X-170063506Y-42112955D01*
X-170021452Y-42079815D01*
X-169977833Y-42048676D01*
X-169932722Y-42019611D01*
X-169886192Y-41992691D01*
X-169838314Y-41967991D01*
X-169789163Y-41945582D01*
X-169738810Y-41925537D01*
X-169687328Y-41907929D01*
X-169634790Y-41892831D01*
X-169581268Y-41880315D01*
X-169526836Y-41870454D01*
X-169471566Y-41863320D01*
X-169415530Y-41858986D01*
X-169358801Y-41857526D01*
X-169302072Y-41858986D01*
X-169246036Y-41863320D01*
X-169190766Y-41870454D01*
X-169136333Y-41880315D01*
X-169082812Y-41892831D01*
X-169030274Y-41907930D01*
X-168978792Y-41925538D01*
X-168928439Y-41945582D01*
X-168879288Y-41967991D01*
X-168831410Y-41992692D01*
X-168784880Y-42019611D01*
X-168739769Y-42048677D01*
X-168696150Y-42079816D01*
X-168654096Y-42112956D01*
X-168613679Y-42148024D01*
X-168574973Y-42184947D01*
X-168538050Y-42223654D01*
X-168502982Y-42264070D01*
X-168469842Y-42306124D01*
X-168438703Y-42349743D01*
X-168409638Y-42394854D01*
X-168382718Y-42441385D01*
X-168358018Y-42489262D01*
X-168335609Y-42538414D01*
X-168315564Y-42588767D01*
X-168297956Y-42640248D01*
X-168282858Y-42692786D01*
X-168270342Y-42746307D01*
X-168260481Y-42800739D01*
X-168253347Y-42856010D01*
X-168249014Y-42912045D01*
X-168248234Y-42942315D01*
G37*
G36*
X-173830225Y-25638566D02*
G01*
X-173831149Y-25683053D01*
X-173833894Y-25727191D01*
X-173844694Y-25814266D01*
X-173862316Y-25899480D01*
X-173886449Y-25982524D01*
X-173916782Y-26063088D01*
X-173953008Y-26140861D01*
X-173994814Y-26215533D01*
X-174041891Y-26286795D01*
X-174093929Y-26354336D01*
X-174150618Y-26417846D01*
X-174211648Y-26477016D01*
X-174276708Y-26531535D01*
X-174345490Y-26581092D01*
X-174417682Y-26625379D01*
X-174492975Y-26664085D01*
X-174571058Y-26696899D01*
X-174571058Y-37042107D01*
X-172322100Y-37042107D01*
X-172322100Y-36618774D01*
X-172330834Y-36530614D01*
X-172337398Y-36444314D01*
X-172342102Y-36359255D01*
X-172345254Y-36274816D01*
X-172347167Y-36190376D01*
X-172348149Y-36105317D01*
X-172348492Y-35960624D01*
X-171627604Y-35960624D01*
X-171626363Y-36122526D01*
X-171622643Y-36285979D01*
X-171616441Y-36451292D01*
X-171607760Y-36618775D01*
X-171607760Y-49795024D01*
X-154383383Y-49795024D01*
X-154383383Y-36565858D01*
X-154360122Y-36126061D01*
X-154359457Y-35690110D01*
X-154380883Y-35258597D01*
X-154423898Y-34832113D01*
X-154487996Y-34411249D01*
X-154572674Y-33996596D01*
X-154677429Y-33588744D01*
X-154801756Y-33188286D01*
X-154945152Y-32795811D01*
X-155107112Y-32411912D01*
X-155287134Y-32037179D01*
X-155484712Y-31672203D01*
X-155699344Y-31317575D01*
X-155930525Y-30973886D01*
X-156177751Y-30641728D01*
X-156440520Y-30321691D01*
X-156718326Y-30014366D01*
X-157010666Y-29720345D01*
X-157317036Y-29440218D01*
X-157636932Y-29174577D01*
X-157969851Y-28924013D01*
X-158315289Y-28689116D01*
X-158672741Y-28470478D01*
X-159041704Y-28268690D01*
X-159421675Y-28084342D01*
X-159812148Y-27918026D01*
X-160212621Y-27770333D01*
X-160622589Y-27641854D01*
X-161041550Y-27533181D01*
X-161468997Y-27444903D01*
X-161904429Y-27377612D01*
X-162347342Y-27331899D01*
X-162791946Y-27311042D01*
X-163232398Y-27312630D01*
X-163668111Y-27336165D01*
X-164098501Y-27381147D01*
X-164522980Y-27447077D01*
X-164940963Y-27533457D01*
X-165351862Y-27639787D01*
X-165755093Y-27765568D01*
X-166150068Y-27910301D01*
X-166536201Y-28073488D01*
X-166912907Y-28254629D01*
X-167279599Y-28453226D01*
X-167635691Y-28668779D01*
X-167980596Y-28900789D01*
X-168313729Y-29148758D01*
X-168634503Y-29412185D01*
X-168942333Y-29690574D01*
X-169236631Y-29983423D01*
X-169516812Y-30290235D01*
X-169782289Y-30610510D01*
X-170032476Y-30943750D01*
X-170266788Y-31289455D01*
X-170484637Y-31647126D01*
X-170685438Y-32016264D01*
X-170868604Y-32396371D01*
X-171033550Y-32786947D01*
X-171179688Y-33187494D01*
X-171306434Y-33597512D01*
X-171413200Y-34016502D01*
X-171499400Y-34443965D01*
X-171564449Y-34879403D01*
X-171607760Y-35322316D01*
X-171616441Y-35481118D01*
X-171622643Y-35640229D01*
X-171626363Y-35799961D01*
X-171627604Y-35960624D01*
X-172348492Y-35960624D01*
X-172348562Y-35930858D01*
X-172348149Y-35756398D01*
X-172347167Y-35671339D01*
X-172345254Y-35586899D01*
X-172342102Y-35502460D01*
X-172337398Y-35417401D01*
X-172330834Y-35331101D01*
X-172322100Y-35242942D01*
X-172272983Y-34763062D01*
X-172200467Y-34291172D01*
X-172105180Y-33827817D01*
X-171987754Y-33373547D01*
X-171848817Y-32928907D01*
X-171689000Y-32494447D01*
X-171508931Y-32070712D01*
X-171309242Y-31658251D01*
X-171090562Y-31257611D01*
X-170853521Y-30869339D01*
X-170598748Y-30493983D01*
X-170326874Y-30132091D01*
X-170038527Y-29784209D01*
X-169734339Y-29450886D01*
X-169414938Y-29132668D01*
X-169080955Y-28830103D01*
X-168733019Y-28543739D01*
X-168371761Y-28274123D01*
X-167997809Y-28021802D01*
X-167611794Y-27787325D01*
X-167214346Y-27571237D01*
X-166806094Y-27374087D01*
X-166387668Y-27196423D01*
X-165959699Y-27038791D01*
X-165522815Y-26901740D01*
X-165077647Y-26785816D01*
X-164624824Y-26691567D01*
X-164164976Y-26619541D01*
X-163698734Y-26570284D01*
X-163226726Y-26544345D01*
X-162749583Y-26542271D01*
X-162267935Y-26564609D01*
X-162208403Y-26565797D01*
X-162148871Y-26569156D01*
X-162089340Y-26574376D01*
X-162029809Y-26581145D01*
X-161970278Y-26589155D01*
X-161910747Y-26598095D01*
X-161791685Y-26617525D01*
X-161632933Y-26643984D01*
X-161613096Y-26648648D01*
X-161593298Y-26652769D01*
X-161553972Y-26659693D01*
X-161515267Y-26665378D01*
X-161477491Y-26670442D01*
X-161440956Y-26675507D01*
X-161405972Y-26681191D01*
X-161389158Y-26684459D01*
X-161372848Y-26688116D01*
X-161357080Y-26692237D01*
X-161341894Y-26696900D01*
X-161327308Y-26697204D01*
X-161313265Y-26698089D01*
X-161299687Y-26699517D01*
X-161286496Y-26701448D01*
X-161273616Y-26703844D01*
X-161260968Y-26706667D01*
X-161248475Y-26709878D01*
X-161236059Y-26713437D01*
X-161211151Y-26721447D01*
X-161185622Y-26730387D01*
X-161158853Y-26739947D01*
X-161130224Y-26749817D01*
X-160865641Y-26802734D01*
X-160850764Y-26807397D01*
X-160835926Y-26811519D01*
X-160821166Y-26815175D01*
X-160806523Y-26818443D01*
X-160777739Y-26824128D01*
X-160749886Y-26829192D01*
X-160723273Y-26834256D01*
X-160710528Y-26836982D01*
X-160698210Y-26839941D01*
X-160686356Y-26843209D01*
X-160675007Y-26846865D01*
X-160664200Y-26850987D01*
X-160653975Y-26855650D01*
X-160415850Y-26908567D01*
X-160177725Y-26987942D01*
X-160149096Y-26997812D01*
X-160122327Y-27007372D01*
X-160096798Y-27016312D01*
X-160071890Y-27024322D01*
X-160059475Y-27027881D01*
X-160046982Y-27031092D01*
X-160034334Y-27033915D01*
X-160021454Y-27036311D01*
X-160008263Y-27038243D01*
X-159994685Y-27039670D01*
X-159980642Y-27040555D01*
X-159966057Y-27040859D01*
X-159902391Y-27061116D01*
X-159868388Y-27072019D01*
X-159833765Y-27083853D01*
X-159799142Y-27096927D01*
X-159782024Y-27104026D01*
X-159765139Y-27111552D01*
X-159748564Y-27119542D01*
X-159732376Y-27128037D01*
X-159716653Y-27137073D01*
X-159701473Y-27146692D01*
X-159681578Y-27156562D01*
X-159661373Y-27166122D01*
X-159651057Y-27170689D01*
X-159640547Y-27175062D01*
X-159629805Y-27179203D01*
X-159618792Y-27183072D01*
X-159607468Y-27186631D01*
X-159595796Y-27189842D01*
X-159583736Y-27192664D01*
X-159571249Y-27195061D01*
X-159558298Y-27196992D01*
X-159544843Y-27198420D01*
X-159530845Y-27199305D01*
X-159516266Y-27199608D01*
X-159251682Y-27305442D01*
X-159092932Y-27384817D01*
X-158828350Y-27517108D01*
X-158669600Y-27596483D01*
X-158405016Y-27755233D01*
X-158272724Y-27834608D01*
X-158234174Y-27854504D01*
X-158197484Y-27874709D01*
X-158162034Y-27895535D01*
X-158127204Y-27917291D01*
X-158092374Y-27940287D01*
X-158056924Y-27964833D01*
X-158020234Y-27991240D01*
X-157981684Y-28019817D01*
X-157979202Y-28022221D01*
X-157976716Y-28024481D01*
X-157974220Y-28026604D01*
X-157971710Y-28028602D01*
X-157966627Y-28032258D01*
X-157961427Y-28035526D01*
X-157956072Y-28038485D01*
X-157950523Y-28041211D01*
X-157944742Y-28043782D01*
X-157938689Y-28046275D01*
X-157910991Y-28057024D01*
X-157903000Y-28060292D01*
X-157894506Y-28063948D01*
X-157885469Y-28068070D01*
X-157875851Y-28072733D01*
X-157558352Y-28284400D01*
X-157549566Y-28293134D01*
X-157545910Y-28296667D01*
X-157542642Y-28299696D01*
X-157539683Y-28302261D01*
X-157536957Y-28304399D01*
X-157535657Y-28305320D01*
X-157534386Y-28306150D01*
X-157533135Y-28306892D01*
X-157531893Y-28307551D01*
X-157530651Y-28308134D01*
X-157529399Y-28308643D01*
X-157528128Y-28309085D01*
X-157526828Y-28309463D01*
X-157525490Y-28309784D01*
X-157524102Y-28310051D01*
X-157521144Y-28310445D01*
X-157517875Y-28310684D01*
X-157514219Y-28310807D01*
X-157505434Y-28310859D01*
X-157187935Y-28548983D01*
X-157135019Y-28601900D01*
X-157055645Y-28661845D01*
X-157015957Y-28692592D01*
X-156976270Y-28724270D01*
X-156936582Y-28757188D01*
X-156896895Y-28791656D01*
X-156857208Y-28827984D01*
X-156817520Y-28866483D01*
X-156791063Y-28892942D01*
X-156771226Y-28908122D01*
X-156751427Y-28923844D01*
X-156712101Y-28956607D01*
X-156673395Y-28990610D01*
X-156635619Y-29025233D01*
X-156599084Y-29059857D01*
X-156564099Y-29093860D01*
X-156500021Y-29157525D01*
X-156473564Y-29183984D01*
X-156394602Y-29263359D01*
X-156355896Y-29303046D01*
X-156318120Y-29342733D01*
X-156281585Y-29382421D01*
X-156246600Y-29422108D01*
X-156213476Y-29461796D01*
X-156197708Y-29481640D01*
X-156182522Y-29501484D01*
X-156156065Y-29527942D01*
X-155837435Y-29883444D01*
X-155536826Y-30254874D01*
X-155254899Y-30641421D01*
X-154992312Y-31042268D01*
X-154749723Y-31456603D01*
X-154527792Y-31883612D01*
X-154327178Y-32322481D01*
X-154148539Y-32772395D01*
X-153992534Y-33232541D01*
X-153859823Y-33702106D01*
X-153751063Y-34180274D01*
X-153666915Y-34666233D01*
X-153608036Y-35159168D01*
X-153575086Y-35658265D01*
X-153574684Y-35690110D01*
X-153568723Y-36162711D01*
X-153589607Y-36671692D01*
X-153589607Y-40111275D01*
X-152096830Y-40688151D01*
X-150646531Y-41345411D01*
X-149241501Y-42080340D01*
X-147884529Y-42890226D01*
X-146578407Y-43772356D01*
X-145325926Y-44724016D01*
X-144129875Y-45742494D01*
X-142993045Y-46825076D01*
X-141918227Y-47969050D01*
X-140908211Y-49171703D01*
X-139965789Y-50430321D01*
X-139093749Y-51742192D01*
X-138404823Y-52917107D01*
X-138294883Y-53104602D01*
X-137571981Y-54514839D01*
X-136927835Y-55970190D01*
X-136365233Y-57467940D01*
X-136239976Y-57395418D01*
X-136112277Y-57326811D01*
X-135982175Y-57262312D01*
X-135849709Y-57202115D01*
X-135714918Y-57146414D01*
X-135577840Y-57095403D01*
X-135438513Y-57049275D01*
X-135296978Y-57008225D01*
X-135153272Y-56972445D01*
X-135118571Y-56965232D01*
X-133269635Y-56965232D01*
X-133216718Y-56965232D01*
X-133110885Y-56991691D01*
X-132872760Y-57071067D01*
X-132867502Y-57071370D01*
X-132861701Y-57072255D01*
X-132855435Y-57073683D01*
X-132848782Y-57075614D01*
X-132841819Y-57078011D01*
X-132834623Y-57080834D01*
X-132827272Y-57084044D01*
X-132819843Y-57087603D01*
X-132812415Y-57091472D01*
X-132805064Y-57095613D01*
X-132797868Y-57099985D01*
X-132790905Y-57104552D01*
X-132784251Y-57109274D01*
X-132777986Y-57114111D01*
X-132772185Y-57119027D01*
X-132766927Y-57123980D01*
X-132752038Y-57129239D01*
X-132737110Y-57135039D01*
X-132706982Y-57147959D01*
X-132644557Y-57176898D01*
X-132611639Y-57191678D01*
X-132594618Y-57198874D01*
X-132577171Y-57205837D01*
X-132559258Y-57212491D01*
X-132540842Y-57218756D01*
X-132521883Y-57224557D01*
X-132502343Y-57229815D01*
X-132422968Y-57256274D01*
X-132131927Y-57415023D01*
X-132130790Y-57415074D01*
X-132129485Y-57415197D01*
X-132127793Y-57415436D01*
X-132125790Y-57415830D01*
X-132123555Y-57416418D01*
X-132121165Y-57417238D01*
X-132119936Y-57417748D01*
X-132118698Y-57418330D01*
X-132117459Y-57418990D01*
X-132116230Y-57419732D01*
X-132115021Y-57420561D01*
X-132113840Y-57421482D01*
X-132112698Y-57422501D01*
X-132111605Y-57423621D01*
X-132110570Y-57424847D01*
X-132109603Y-57426185D01*
X-132108713Y-57427639D01*
X-132107910Y-57429215D01*
X-132107204Y-57430916D01*
X-132106605Y-57432748D01*
X-132106122Y-57434716D01*
X-132105765Y-57436824D01*
X-132105544Y-57439078D01*
X-132105468Y-57441482D01*
X-132085625Y-57451707D01*
X-132065781Y-57462514D01*
X-132045937Y-57473863D01*
X-132026093Y-57485717D01*
X-131986406Y-57510779D01*
X-131946718Y-57537393D01*
X-131907031Y-57565246D01*
X-131867343Y-57594029D01*
X-131859018Y-57600230D01*
X-131787968Y-57653148D01*
X-131705215Y-57476130D01*
X-131615834Y-57302368D01*
X-131520020Y-57132017D01*
X-131417965Y-56965231D01*
X-131309865Y-56802166D01*
X-131195912Y-56642977D01*
X-131076300Y-56487818D01*
X-130951224Y-56336846D01*
X-130820876Y-56190214D01*
X-130685452Y-56048078D01*
X-130545144Y-55910592D01*
X-130400146Y-55777913D01*
X-130250653Y-55650195D01*
X-130096857Y-55527592D01*
X-129938953Y-55410261D01*
X-129777135Y-55298356D01*
X-130024484Y-55323762D01*
X-130270128Y-55360213D01*
X-130513602Y-55407594D01*
X-130754440Y-55465788D01*
X-130992177Y-55534680D01*
X-131226349Y-55614152D01*
X-131456490Y-55704088D01*
X-131682135Y-55804373D01*
X-131902819Y-55914889D01*
X-132118077Y-56035521D01*
X-132327445Y-56166153D01*
X-132530455Y-56306668D01*
X-132726645Y-56456949D01*
X-132915548Y-56616881D01*
X-133096700Y-56786347D01*
X-133269635Y-56965232D01*
X-135118571Y-56965232D01*
X-135007435Y-56942131D01*
X-134859505Y-56917475D01*
X-134709520Y-56898671D01*
X-134557521Y-56885913D01*
X-134403544Y-56879396D01*
X-134247630Y-56879312D01*
X-134089817Y-56885856D01*
X-133821842Y-56568763D01*
X-133534760Y-56272715D01*
X-133229927Y-55998294D01*
X-132908700Y-55746081D01*
X-132572435Y-55516657D01*
X-132222489Y-55310604D01*
X-131860218Y-55128503D01*
X-131486978Y-54970935D01*
X-131104127Y-54838482D01*
X-130713020Y-54731725D01*
X-130315015Y-54651245D01*
X-129911467Y-54597624D01*
X-129503734Y-54571443D01*
X-129093171Y-54573284D01*
X-128681135Y-54603728D01*
X-128474989Y-54629857D01*
X-128268984Y-54663356D01*
X-128216067Y-54663356D01*
X-128214930Y-54663407D01*
X-128213625Y-54663530D01*
X-128211933Y-54663769D01*
X-128209930Y-54664163D01*
X-128207695Y-54664751D01*
X-128205305Y-54665571D01*
X-128204076Y-54666081D01*
X-128202838Y-54666663D01*
X-128201599Y-54667323D01*
X-128200370Y-54668065D01*
X-128199161Y-54668894D01*
X-128197980Y-54669815D01*
X-128196838Y-54670834D01*
X-128195745Y-54671954D01*
X-128194710Y-54673180D01*
X-128193743Y-54674518D01*
X-128192853Y-54675972D01*
X-128192050Y-54677548D01*
X-128191345Y-54679249D01*
X-128190745Y-54681081D01*
X-128190263Y-54683049D01*
X-128189906Y-54685157D01*
X-128189684Y-54687411D01*
X-128189609Y-54689814D01*
X-128188472Y-54689866D01*
X-128187167Y-54689989D01*
X-128185474Y-54690228D01*
X-128183472Y-54690622D01*
X-128181237Y-54691210D01*
X-128178847Y-54692030D01*
X-128177618Y-54692540D01*
X-128176379Y-54693122D01*
X-128175141Y-54693782D01*
X-128173912Y-54694524D01*
X-128172702Y-54695353D01*
X-128171522Y-54696274D01*
X-128170380Y-54697292D01*
X-128169287Y-54698412D01*
X-128168252Y-54699639D01*
X-128167284Y-54700977D01*
X-128166395Y-54702431D01*
X-128165592Y-54704006D01*
X-128164886Y-54705708D01*
X-128164287Y-54707540D01*
X-128163804Y-54709508D01*
X-128163447Y-54711616D01*
X-128163226Y-54713869D01*
X-128163150Y-54716273D01*
X-128136692Y-54742730D01*
X-128110234Y-54769189D01*
X-128083775Y-54795646D01*
X-128057317Y-54822104D01*
X-128057265Y-54823241D01*
X-128057142Y-54824546D01*
X-128056903Y-54826238D01*
X-128056509Y-54828241D01*
X-128055922Y-54830475D01*
X-128055101Y-54832865D01*
X-128054592Y-54834094D01*
X-128054010Y-54835333D01*
X-128053350Y-54836571D01*
X-128052608Y-54837800D01*
X-128051779Y-54839010D01*
X-128050857Y-54840190D01*
X-128049839Y-54841332D01*
X-128048719Y-54842425D01*
X-128047493Y-54843460D01*
X-128046155Y-54844427D01*
X-128044701Y-54845317D01*
X-128043125Y-54846120D01*
X-128041424Y-54846825D01*
X-128039592Y-54847424D01*
X-128037624Y-54847907D01*
X-128035516Y-54848264D01*
X-128033262Y-54848485D01*
X-128030859Y-54848561D01*
X-128030807Y-54849698D01*
X-128030684Y-54851003D01*
X-128030445Y-54852695D01*
X-128030051Y-54854698D01*
X-128029463Y-54856933D01*
X-128028643Y-54859323D01*
X-128028133Y-54860552D01*
X-128027551Y-54861791D01*
X-128026892Y-54863029D01*
X-128026150Y-54864258D01*
X-128025320Y-54865468D01*
X-128024399Y-54866648D01*
X-128023381Y-54867790D01*
X-128022261Y-54868883D01*
X-128021034Y-54869918D01*
X-128019696Y-54870886D01*
X-128018242Y-54871776D01*
X-128016667Y-54872578D01*
X-128014966Y-54873284D01*
X-128013134Y-54873883D01*
X-128011166Y-54874366D01*
X-128009058Y-54874723D01*
X-128006804Y-54874944D01*
X-128004400Y-54875020D01*
X-128004400Y-55139600D01*
X-128004452Y-55140736D01*
X-128004575Y-55142041D01*
X-128004814Y-55143734D01*
X-128005208Y-55145736D01*
X-128005795Y-55147971D01*
X-128006616Y-55150361D01*
X-128007125Y-55151590D01*
X-128007708Y-55152828D01*
X-128008367Y-55154067D01*
X-128009109Y-55155296D01*
X-128009938Y-55156505D01*
X-128010860Y-55157685D01*
X-128011878Y-55158827D01*
X-128012998Y-55159920D01*
X-128014224Y-55160955D01*
X-128015562Y-55161923D01*
X-128017017Y-55162812D01*
X-128018592Y-55163615D01*
X-128020293Y-55164321D01*
X-128022125Y-55164920D01*
X-128024093Y-55165403D01*
X-128026201Y-55165759D01*
X-128028455Y-55165981D01*
X-128030859Y-55166057D01*
X-128030910Y-55167193D01*
X-128031033Y-55168498D01*
X-128031272Y-55170191D01*
X-128031666Y-55172193D01*
X-128032254Y-55174428D01*
X-128033074Y-55176818D01*
X-128033584Y-55178047D01*
X-128034166Y-55179286D01*
X-128034826Y-55180525D01*
X-128035568Y-55181754D01*
X-128036397Y-55182963D01*
X-128037318Y-55184144D01*
X-128038336Y-55185285D01*
X-128039456Y-55186379D01*
X-128040683Y-55187414D01*
X-128042021Y-55188381D01*
X-128043475Y-55189271D01*
X-128045050Y-55190074D01*
X-128046752Y-55190779D01*
X-128048584Y-55191378D01*
X-128050551Y-55191861D01*
X-128052660Y-55192218D01*
X-128054913Y-55192439D01*
X-128057317Y-55192515D01*
X-128083775Y-55218972D01*
X-128110234Y-55245431D01*
X-128136692Y-55271890D01*
X-128163150Y-55298346D01*
X-128163360Y-55298356D01*
X-128164287Y-55298398D01*
X-128165592Y-55298521D01*
X-128167284Y-55298760D01*
X-128169287Y-55299154D01*
X-128171522Y-55299742D01*
X-128173912Y-55300562D01*
X-128175141Y-55301072D01*
X-128176379Y-55301654D01*
X-128177618Y-55302313D01*
X-128178847Y-55303056D01*
X-128180057Y-55303885D01*
X-128181237Y-55304806D01*
X-128182379Y-55305824D01*
X-128183472Y-55306944D01*
X-128184507Y-55308171D01*
X-128185474Y-55309509D01*
X-128186364Y-55310963D01*
X-128187167Y-55312538D01*
X-128187873Y-55314240D01*
X-128188472Y-55316072D01*
X-128188955Y-55318040D01*
X-128189311Y-55320148D01*
X-128189533Y-55322401D01*
X-128189609Y-55324805D01*
X-128216067Y-55351262D01*
X-128465619Y-55451663D01*
X-128708078Y-55564117D01*
X-128943174Y-55688277D01*
X-129170634Y-55823792D01*
X-129390188Y-55970314D01*
X-129601564Y-56127494D01*
X-129804491Y-56294984D01*
X-129998697Y-56472435D01*
X-130183912Y-56659497D01*
X-130359864Y-56855823D01*
X-130526281Y-57061062D01*
X-130682893Y-57274867D01*
X-130829428Y-57496888D01*
X-130965615Y-57726777D01*
X-131091182Y-57964184D01*
X-131205858Y-58208762D01*
X-131084671Y-58350420D01*
X-130969336Y-58497427D01*
X-130860124Y-58649549D01*
X-130757307Y-58806555D01*
X-130661157Y-58968212D01*
X-130571944Y-59134287D01*
X-130489940Y-59304548D01*
X-130415416Y-59478762D01*
X-130348643Y-59656697D01*
X-130289894Y-59838120D01*
X-130239438Y-60022799D01*
X-130197548Y-60210501D01*
X-130164494Y-60400993D01*
X-130140549Y-60594043D01*
X-130125983Y-60789419D01*
X-130121725Y-60960429D01*
X-130121067Y-60986888D01*
X-130125692Y-61179996D01*
X-130139464Y-61372135D01*
X-130162227Y-61562956D01*
X-130193827Y-61752111D01*
X-130234109Y-61939250D01*
X-130282917Y-62124025D01*
X-130340097Y-62306088D01*
X-130405494Y-62485088D01*
X-130478952Y-62660678D01*
X-130560317Y-62832509D01*
X-130649432Y-63000231D01*
X-130746145Y-63163496D01*
X-130850299Y-63321955D01*
X-130961739Y-63475260D01*
X-131080311Y-63623061D01*
X-131205858Y-63765010D01*
X-131095542Y-64009582D01*
X-130973211Y-64246944D01*
X-130839253Y-64476711D01*
X-130694055Y-64698493D01*
X-130538005Y-64911904D01*
X-130371491Y-65116555D01*
X-130194900Y-65312060D01*
X-130008619Y-65498031D01*
X-129813037Y-65674079D01*
X-129608540Y-65839818D01*
X-129395517Y-65994861D01*
X-129174355Y-66138818D01*
X-128945441Y-66271304D01*
X-128709163Y-66391930D01*
X-128465910Y-66500309D01*
X-128216067Y-66596053D01*
X-128163150Y-66622512D01*
X-128136692Y-66622512D01*
X-128136681Y-66622523D01*
X-128110234Y-66648970D01*
X-128109097Y-66649022D01*
X-128107792Y-66649145D01*
X-128106100Y-66649384D01*
X-128104097Y-66649778D01*
X-128101862Y-66650366D01*
X-128099472Y-66651186D01*
X-128098243Y-66651696D01*
X-128097004Y-66652278D01*
X-128095766Y-66652938D01*
X-128094537Y-66653680D01*
X-128093327Y-66654510D01*
X-128092147Y-66655431D01*
X-128091005Y-66656449D01*
X-128089912Y-66657570D01*
X-128088877Y-66658796D01*
X-128087909Y-66660134D01*
X-128087020Y-66661589D01*
X-128086217Y-66663164D01*
X-128085511Y-66664866D01*
X-128084912Y-66666698D01*
X-128084429Y-66668666D01*
X-128084072Y-66670775D01*
X-128083851Y-66673029D01*
X-128083775Y-66675433D01*
X-128057317Y-66701892D01*
X-128057265Y-66703029D01*
X-128057143Y-66704334D01*
X-128056904Y-66706026D01*
X-128056510Y-66708028D01*
X-128055922Y-66710264D01*
X-128055101Y-66712654D01*
X-128054592Y-66713883D01*
X-128054010Y-66715121D01*
X-128053350Y-66716360D01*
X-128052608Y-66717589D01*
X-128051779Y-66718798D01*
X-128050857Y-66719979D01*
X-128049839Y-66721121D01*
X-128048719Y-66722214D01*
X-128047493Y-66723249D01*
X-128046155Y-66724216D01*
X-128044701Y-66725106D01*
X-128043125Y-66725909D01*
X-128041424Y-66726615D01*
X-128039592Y-66727214D01*
X-128037624Y-66727696D01*
X-128035516Y-66728053D01*
X-128033262Y-66728275D01*
X-128030859Y-66728351D01*
X-128004400Y-66754813D01*
X-128004349Y-66755950D01*
X-128004226Y-66757255D01*
X-128003987Y-66758947D01*
X-128003593Y-66760950D01*
X-128003005Y-66763185D01*
X-128002185Y-66765575D01*
X-128001675Y-66766804D01*
X-128001093Y-66768042D01*
X-128000433Y-66769281D01*
X-127999691Y-66770510D01*
X-127998862Y-66771720D01*
X-127997941Y-66772900D01*
X-127996923Y-66774042D01*
X-127995803Y-66775135D01*
X-127994576Y-66776170D01*
X-127993238Y-66777138D01*
X-127991784Y-66778027D01*
X-127990209Y-66778830D01*
X-127988507Y-66779536D01*
X-127986675Y-66780135D01*
X-127984708Y-66780618D01*
X-127982599Y-66780975D01*
X-127980346Y-66781196D01*
X-127977942Y-66781272D01*
X-127977942Y-67045863D01*
X-127978019Y-67048344D01*
X-127978246Y-67050824D01*
X-127978618Y-67053305D01*
X-127979131Y-67055785D01*
X-127979779Y-67058265D01*
X-127980558Y-67060746D01*
X-127981463Y-67063226D01*
X-127982489Y-67065707D01*
X-127984886Y-67070667D01*
X-127987709Y-67075628D01*
X-127990919Y-67080589D01*
X-127994478Y-67085550D01*
X-127998348Y-67090511D01*
X-128002488Y-67095471D01*
X-128006861Y-67100433D01*
X-128011428Y-67105394D01*
X-128020988Y-67115316D01*
X-128030859Y-67125239D01*
X-128057317Y-67151698D01*
X-128067239Y-67161568D01*
X-128077161Y-67171129D01*
X-128082122Y-67175696D01*
X-128087083Y-67180069D01*
X-128092044Y-67184209D01*
X-128097004Y-67188079D01*
X-128101965Y-67191638D01*
X-128106926Y-67194849D01*
X-128111887Y-67197671D01*
X-128116848Y-67200068D01*
X-128119329Y-67201094D01*
X-128121809Y-67201999D01*
X-128124290Y-67202779D01*
X-128126770Y-67203427D01*
X-128129251Y-67203940D01*
X-128131731Y-67204312D01*
X-128134212Y-67204539D01*
X-128136692Y-67204615D01*
X-128216067Y-67257529D01*
X-128268984Y-67257529D01*
X-128406753Y-67284866D01*
X-128542662Y-67307552D01*
X-128677331Y-67325897D01*
X-128811379Y-67340211D01*
X-128945428Y-67350804D01*
X-129080097Y-67357987D01*
X-129216006Y-67362069D01*
X-129353775Y-67363360D01*
X-129695318Y-67353490D01*
X-130034767Y-67324086D01*
X-130371271Y-67275459D01*
X-130703977Y-67207918D01*
X-131032032Y-67121774D01*
X-131354583Y-67017336D01*
X-131670778Y-66894914D01*
X-131979765Y-66754820D01*
X-132280689Y-66597362D01*
X-132572700Y-66422851D01*
X-132854944Y-66231597D01*
X-133126568Y-66023909D01*
X-133386720Y-65800099D01*
X-133634547Y-65560475D01*
X-133869197Y-65305349D01*
X-134089817Y-65035029D01*
X-134222108Y-65035029D01*
X-134302568Y-65033841D01*
X-134384579Y-65030481D01*
X-134467210Y-65025261D01*
X-134549530Y-65018491D01*
X-134630611Y-65010481D01*
X-134709520Y-65001541D01*
X-134857108Y-64982112D01*
X-134837678Y-65363690D01*
X-134820728Y-65752709D01*
X-134808739Y-66146689D01*
X-134805380Y-66344765D01*
X-134804191Y-66543151D01*
X-134840793Y-67990211D01*
X-134949415Y-69418149D01*
X-135128285Y-70825207D01*
X-135375629Y-72209626D01*
X-135689675Y-73569647D01*
X-136068649Y-74903511D01*
X-136510778Y-76209461D01*
X-136580285Y-76385646D01*
X-154674427Y-76385646D01*
X-154674427Y-77708564D01*
X-149806093Y-77708564D01*
X-149806093Y-76385646D01*
X-136580285Y-76385646D01*
X-137014289Y-77485737D01*
X-137450210Y-78449393D01*
X-137577408Y-78730581D01*
X-138198364Y-79942234D01*
X-138846518Y-81068770D01*
X-154674427Y-81068770D01*
X-154674427Y-82762103D01*
X-149806093Y-82762103D01*
X-149806093Y-81068770D01*
X-138846518Y-81068770D01*
X-138875382Y-81118937D01*
X-139606689Y-82258933D01*
X-140390512Y-83360462D01*
X-141225078Y-84421766D01*
X-142108614Y-85441085D01*
X-142278924Y-85619601D01*
X-143039347Y-86416663D01*
X-144015504Y-87346739D01*
X-145035311Y-88229555D01*
X-146096995Y-89063353D01*
X-147198783Y-89846375D01*
X-148338903Y-90576860D01*
X-149515580Y-91253052D01*
X-150727042Y-91873191D01*
X-151971515Y-92435518D01*
X-153247227Y-92938276D01*
X-154552404Y-93379704D01*
X-155885273Y-93758046D01*
X-157244061Y-94071542D01*
X-158626995Y-94318433D01*
X-160032302Y-94496961D01*
X-161458208Y-94605368D01*
X-162902941Y-94641894D01*
X-164350001Y-94605293D01*
X-165777939Y-94496671D01*
X-167184997Y-94317801D01*
X-168569416Y-94070456D01*
X-169929437Y-93756411D01*
X-171263302Y-93377437D01*
X-172569252Y-92935308D01*
X-173845528Y-92431797D01*
X-175090372Y-91868677D01*
X-176302025Y-91247722D01*
X-177478728Y-90570704D01*
X-178618724Y-89839397D01*
X-179720253Y-89055574D01*
X-180781557Y-88221008D01*
X-181800877Y-87337471D01*
X-182776454Y-86406739D01*
X-183526435Y-85619601D01*
X-182085257Y-85619601D01*
X-170152548Y-85619601D01*
X-155785675Y-85619601D01*
X-143879426Y-85619601D01*
X-143879426Y-85011062D01*
X-143881349Y-84934571D01*
X-143887061Y-84858958D01*
X-143896474Y-84784324D01*
X-143909502Y-84710769D01*
X-143926056Y-84638397D01*
X-143946050Y-84567309D01*
X-143969396Y-84497606D01*
X-143996008Y-84429391D01*
X-144025798Y-84362765D01*
X-144058679Y-84297829D01*
X-144094563Y-84234686D01*
X-144133364Y-84173438D01*
X-144174994Y-84114185D01*
X-144219366Y-84057030D01*
X-144266394Y-84002075D01*
X-144315988Y-83949420D01*
X-144368064Y-83899169D01*
X-144422532Y-83851422D01*
X-144479307Y-83806282D01*
X-144538300Y-83763850D01*
X-144599425Y-83724228D01*
X-144662595Y-83687518D01*
X-144727722Y-83653821D01*
X-144794719Y-83623239D01*
X-144863498Y-83595874D01*
X-144933974Y-83571827D01*
X-145006057Y-83551201D01*
X-145079662Y-83534097D01*
X-145154701Y-83520617D01*
X-145231087Y-83510862D01*
X-145308733Y-83504935D01*
X-145387550Y-83502936D01*
X-155785675Y-83502936D01*
X-155785675Y-85619601D01*
X-170152548Y-85619601D01*
X-170152548Y-83502936D01*
X-180577131Y-83502936D01*
X-180653621Y-83504860D01*
X-180729235Y-83510571D01*
X-180803869Y-83519985D01*
X-180877423Y-83533012D01*
X-180949795Y-83549566D01*
X-181020884Y-83569560D01*
X-181090586Y-83592906D01*
X-181158802Y-83619518D01*
X-181225428Y-83649308D01*
X-181290364Y-83682189D01*
X-181353507Y-83718073D01*
X-181414755Y-83756874D01*
X-181474008Y-83798504D01*
X-181531163Y-83842876D01*
X-181586118Y-83889904D01*
X-181638773Y-83939498D01*
X-181689024Y-83991574D01*
X-181736770Y-84046042D01*
X-181781911Y-84102817D01*
X-181824343Y-84161810D01*
X-181863965Y-84222935D01*
X-181900675Y-84286105D01*
X-181934372Y-84351232D01*
X-181964954Y-84418229D01*
X-181992319Y-84487009D01*
X-182016366Y-84557484D01*
X-182036992Y-84629568D01*
X-182054096Y-84703173D01*
X-182067576Y-84778212D01*
X-182077331Y-84854598D01*
X-182083258Y-84932244D01*
X-182085257Y-85011062D01*
X-182085257Y-85619601D01*
X-183526435Y-85619601D01*
X-183706531Y-85430582D01*
X-184589348Y-84410775D01*
X-185423146Y-83349091D01*
X-185840308Y-82762103D01*
X-176185053Y-82762103D01*
X-171316721Y-82762103D01*
X-171316721Y-81068770D01*
X-176185053Y-81068770D01*
X-176185053Y-82762103D01*
X-185840308Y-82762103D01*
X-186206167Y-82247303D01*
X-186936653Y-81107184D01*
X-187384455Y-80327941D01*
X-176185053Y-80327941D01*
X-171316721Y-80327941D01*
X-171316721Y-80327937D01*
X-154674427Y-80327937D01*
X-149806093Y-80327937D01*
X-149806093Y-78449393D01*
X-154674427Y-78449393D01*
X-154674427Y-78449397D01*
X-154674427Y-80327937D01*
X-171316721Y-80327937D01*
X-171316721Y-78449397D01*
X-176185053Y-78449397D01*
X-176185053Y-80327941D01*
X-187384455Y-80327941D01*
X-187612845Y-79930507D01*
X-188232984Y-78719045D01*
X-188689579Y-77708564D01*
X-176158590Y-77708564D01*
X-171290258Y-77708564D01*
X-171290258Y-76385646D01*
X-176158590Y-76385646D01*
X-176158590Y-77708564D01*
X-188689579Y-77708564D01*
X-188795311Y-77474572D01*
X-189298069Y-76198860D01*
X-189739498Y-74893683D01*
X-190117839Y-73560814D01*
X-190431335Y-72202026D01*
X-190678227Y-70819092D01*
X-190856755Y-69413785D01*
X-190965162Y-67987879D01*
X-191001688Y-66543147D01*
X-191000499Y-66345846D01*
X-190997141Y-66150406D01*
X-190985152Y-65762628D01*
X-190968203Y-65374849D01*
X-190948774Y-64982108D01*
X-190790049Y-64982108D01*
X-190751549Y-64972186D01*
X-190715221Y-64962263D01*
X-190680753Y-64952341D01*
X-190647835Y-64942418D01*
X-190585410Y-64922574D01*
X-190525465Y-64902732D01*
X-190701854Y-64955649D01*
X-190790049Y-64982108D01*
X-190948774Y-64982108D01*
X-191107937Y-65001539D01*
X-191188294Y-65010479D01*
X-191269581Y-65018489D01*
X-191352108Y-65025258D01*
X-191436185Y-65030478D01*
X-191522123Y-65033837D01*
X-191610231Y-65035026D01*
X-191742521Y-65035026D01*
X-191963141Y-65300985D01*
X-192197790Y-65552875D01*
X-192445618Y-65790270D01*
X-192705770Y-66012743D01*
X-192977394Y-66219868D01*
X-193259638Y-66411220D01*
X-193551649Y-66586370D01*
X-193852574Y-66744894D01*
X-194161560Y-66886364D01*
X-194477756Y-67010355D01*
X-194800307Y-67116441D01*
X-195128362Y-67204193D01*
X-195461068Y-67273188D01*
X-195797572Y-67322997D01*
X-196137021Y-67353196D01*
X-196478563Y-67363357D01*
X-196616332Y-67362065D01*
X-196752241Y-67357982D01*
X-196886911Y-67350799D01*
X-197020960Y-67340206D01*
X-197155009Y-67325891D01*
X-197289678Y-67307547D01*
X-197425587Y-67284861D01*
X-197563356Y-67257525D01*
X-197616274Y-67257525D01*
X-197618754Y-67257449D01*
X-197621235Y-67257222D01*
X-197623716Y-67256850D01*
X-197626196Y-67256337D01*
X-197628677Y-67255688D01*
X-197631158Y-67254909D01*
X-197633638Y-67254004D01*
X-197636119Y-67252978D01*
X-197641081Y-67250581D01*
X-197646042Y-67247759D01*
X-197651003Y-67244548D01*
X-197655965Y-67240989D01*
X-197660926Y-67237120D01*
X-197665887Y-67232980D01*
X-197670848Y-67228607D01*
X-197675809Y-67224040D01*
X-197685730Y-67214481D01*
X-197695650Y-67204612D01*
X-197775019Y-67151694D01*
X-197801477Y-67125235D01*
X-197854403Y-67045859D01*
X-197854403Y-66913562D01*
X-197877686Y-66913258D01*
X-197898023Y-66912373D01*
X-197915570Y-66910946D01*
X-197930480Y-66909015D01*
X-197942910Y-66906619D01*
X-197953014Y-66903796D01*
X-197957243Y-66902237D01*
X-197960948Y-66900586D01*
X-197964149Y-66898848D01*
X-197966866Y-66897027D01*
X-197969117Y-66895129D01*
X-197970923Y-66893158D01*
X-197972302Y-66891119D01*
X-197973275Y-66889018D01*
X-197973859Y-66886858D01*
X-197974076Y-66884645D01*
X-197973944Y-66882383D01*
X-197973482Y-66880078D01*
X-197971648Y-66875356D01*
X-197968728Y-66870518D01*
X-197964878Y-66865603D01*
X-197960253Y-66860648D01*
X-197960201Y-66851862D01*
X-197960078Y-66848205D01*
X-197959839Y-66844936D01*
X-197959445Y-66841977D01*
X-197959178Y-66840590D01*
X-197958858Y-66839251D01*
X-197958479Y-66837951D01*
X-197958037Y-66836680D01*
X-197957528Y-66835428D01*
X-197956945Y-66834186D01*
X-197956286Y-66832945D01*
X-197955544Y-66831693D01*
X-197954714Y-66830422D01*
X-197953793Y-66829122D01*
X-197951655Y-66826396D01*
X-197949091Y-66823438D01*
X-197946061Y-66820170D01*
X-197942528Y-66816514D01*
X-197933794Y-66807731D01*
X-197933794Y-66781272D01*
X-197933742Y-66780135D01*
X-197933620Y-66778830D01*
X-197933381Y-66777138D01*
X-197932987Y-66775135D01*
X-197932399Y-66772900D01*
X-197931578Y-66770510D01*
X-197931069Y-66769281D01*
X-197930487Y-66768042D01*
X-197929827Y-66766804D01*
X-197929085Y-66765575D01*
X-197928256Y-66764365D01*
X-197927334Y-66763185D01*
X-197926316Y-66762043D01*
X-197925196Y-66760950D01*
X-197923970Y-66759915D01*
X-197922632Y-66758947D01*
X-197921178Y-66758057D01*
X-197919602Y-66757255D01*
X-197917901Y-66756549D01*
X-197916069Y-66755950D01*
X-197914101Y-66755467D01*
X-197911993Y-66755110D01*
X-197909739Y-66754889D01*
X-197907335Y-66754813D01*
X-197907284Y-66753676D01*
X-197907161Y-66752371D01*
X-197906922Y-66750678D01*
X-197906528Y-66748676D01*
X-197905940Y-66746440D01*
X-197905120Y-66744050D01*
X-197904610Y-66742821D01*
X-197904028Y-66741582D01*
X-197903368Y-66740343D01*
X-197902626Y-66739114D01*
X-197901797Y-66737904D01*
X-197900876Y-66736723D01*
X-197899857Y-66735582D01*
X-197898738Y-66734488D01*
X-197897511Y-66733453D01*
X-197896173Y-66732485D01*
X-197894719Y-66731595D01*
X-197893143Y-66730793D01*
X-197891442Y-66730087D01*
X-197889610Y-66729488D01*
X-197887642Y-66729005D01*
X-197885534Y-66728648D01*
X-197883280Y-66728426D01*
X-197880877Y-66728351D01*
X-197880825Y-66727214D01*
X-197880702Y-66725909D01*
X-197880463Y-66724216D01*
X-197880069Y-66722214D01*
X-197879481Y-66719979D01*
X-197878661Y-66717589D01*
X-197878151Y-66716360D01*
X-197877569Y-66715121D01*
X-197876910Y-66713883D01*
X-197876168Y-66712654D01*
X-197875338Y-66711444D01*
X-197874417Y-66710264D01*
X-197873399Y-66709122D01*
X-197872279Y-66708028D01*
X-197871052Y-66706993D01*
X-197869714Y-66706026D01*
X-197868260Y-66705136D01*
X-197866685Y-66704334D01*
X-197864983Y-66703628D01*
X-197863151Y-66703029D01*
X-197861184Y-66702546D01*
X-197859075Y-66702189D01*
X-197856822Y-66701968D01*
X-197854418Y-66701892D01*
X-197827959Y-66675433D01*
X-197826822Y-66675381D01*
X-197825517Y-66675259D01*
X-197823824Y-66675020D01*
X-197821821Y-66674625D01*
X-197819585Y-66674038D01*
X-197817194Y-66673217D01*
X-197815965Y-66672708D01*
X-197814726Y-66672125D01*
X-197813487Y-66671465D01*
X-197812258Y-66670723D01*
X-197811048Y-66669894D01*
X-197809867Y-66668973D01*
X-197808725Y-66667954D01*
X-197807631Y-66666834D01*
X-197806596Y-66665607D01*
X-197805628Y-66664269D01*
X-197804738Y-66662815D01*
X-197803935Y-66661239D01*
X-197803229Y-66659538D01*
X-197802630Y-66657705D01*
X-197802147Y-66655737D01*
X-197801790Y-66653629D01*
X-197801569Y-66651375D01*
X-197801493Y-66648974D01*
X-196161089Y-66648974D01*
X-195923055Y-66623273D01*
X-195685563Y-66585983D01*
X-195449157Y-66537298D01*
X-195214378Y-66477412D01*
X-194981770Y-66406519D01*
X-194751874Y-66324812D01*
X-194525234Y-66232486D01*
X-194302392Y-66129734D01*
X-194083891Y-66016751D01*
X-193870273Y-65893729D01*
X-193662082Y-65760863D01*
X-193459859Y-65618346D01*
X-193264147Y-65466372D01*
X-193075489Y-65305136D01*
X-192894428Y-65134830D01*
X-192721506Y-64955649D01*
X-192853800Y-64929187D01*
X-192880259Y-64929187D01*
X-192904760Y-64923922D01*
X-192928680Y-64918076D01*
X-192952058Y-64911688D01*
X-192974931Y-64904795D01*
X-192997340Y-64897438D01*
X-193019322Y-64889654D01*
X-193062162Y-64872962D01*
X-193103763Y-64855031D01*
X-193144433Y-64836169D01*
X-193224222Y-64796897D01*
X-193226702Y-64796821D01*
X-193229177Y-64796600D01*
X-193231642Y-64796243D01*
X-193234092Y-64795760D01*
X-193236523Y-64795161D01*
X-193238930Y-64794455D01*
X-193243652Y-64792763D01*
X-193248218Y-64790760D01*
X-193252591Y-64788525D01*
X-193256731Y-64786135D01*
X-193260599Y-64783667D01*
X-193264158Y-64781200D01*
X-193267367Y-64778810D01*
X-193272586Y-64774572D01*
X-193277132Y-64770438D01*
X-193621096Y-64611686D01*
X-193689359Y-64571999D01*
X-193755452Y-64532311D01*
X-193819686Y-64492623D01*
X-193882369Y-64452935D01*
X-194004327Y-64373559D01*
X-194123804Y-64294185D01*
X-194215575Y-64471203D01*
X-194312268Y-64644965D01*
X-194413844Y-64815317D01*
X-194520265Y-64982103D01*
X-194631491Y-65145168D01*
X-194747485Y-65304357D01*
X-194868207Y-65459515D01*
X-194993619Y-65610488D01*
X-195123682Y-65757119D01*
X-195258356Y-65899255D01*
X-195397604Y-66036740D01*
X-195541387Y-66169419D01*
X-195689666Y-66297137D01*
X-195842401Y-66419739D01*
X-195999555Y-66537069D01*
X-196161089Y-66648974D01*
X-197801493Y-66648974D01*
X-197801493Y-66648970D01*
X-197775034Y-66622512D01*
X-197748575Y-66622512D01*
X-197695658Y-66596053D01*
X-197446105Y-66495659D01*
X-197203645Y-66383249D01*
X-196968548Y-66259213D01*
X-196741087Y-66123937D01*
X-196521533Y-65977809D01*
X-196310157Y-65821216D01*
X-196107230Y-65654547D01*
X-195913023Y-65478188D01*
X-195727808Y-65292527D01*
X-195551857Y-65097953D01*
X-195385439Y-64894851D01*
X-195228828Y-64683611D01*
X-195082294Y-64464619D01*
X-194946108Y-64238263D01*
X-194820541Y-64004931D01*
X-194705866Y-63765010D01*
X-194831413Y-63623352D01*
X-194949984Y-63476345D01*
X-195061423Y-63324223D01*
X-195165577Y-63167217D01*
X-195262288Y-63005560D01*
X-195351404Y-62839485D01*
X-195432768Y-62669224D01*
X-195506226Y-62495010D01*
X-195571622Y-62317076D01*
X-195628802Y-62135653D01*
X-195677610Y-61950974D01*
X-195717891Y-61763273D01*
X-195749491Y-61572781D01*
X-195772255Y-61379731D01*
X-195786026Y-61184356D01*
X-195790651Y-60986888D01*
X-195789412Y-60933978D01*
X-195023378Y-60933978D01*
X-195019057Y-61106945D01*
X-195006170Y-61278401D01*
X-194984834Y-61448074D01*
X-194955166Y-61615693D01*
X-194917281Y-61780987D01*
X-194871295Y-61943684D01*
X-194817326Y-62103512D01*
X-194755488Y-62260202D01*
X-194685900Y-62413481D01*
X-194608676Y-62563078D01*
X-194523933Y-62708721D01*
X-194431787Y-62850140D01*
X-194332355Y-62987063D01*
X-194225753Y-63119219D01*
X-194112097Y-63246336D01*
X-193991503Y-63368144D01*
X-193951209Y-63407521D01*
X-193909752Y-63446278D01*
X-193867210Y-63484416D01*
X-193823660Y-63521933D01*
X-193779179Y-63558829D01*
X-193733846Y-63595106D01*
X-193640932Y-63665800D01*
X-193545537Y-63734013D01*
X-193448283Y-63799745D01*
X-193349788Y-63862998D01*
X-193250673Y-63923770D01*
X-192933168Y-64082522D01*
X-192853800Y-64108981D01*
X-192793854Y-64128827D01*
X-192731428Y-64148671D01*
X-192698510Y-64158592D01*
X-192664041Y-64168514D01*
X-192627712Y-64178435D01*
X-192589212Y-64188357D01*
X-192615671Y-64188353D01*
X-192324633Y-64267730D01*
X-192298166Y-64267730D01*
X-191980669Y-64320647D01*
X-191821919Y-64327985D01*
X-191663170Y-64329742D01*
X-191504420Y-64325298D01*
X-191425045Y-64320557D01*
X-191345670Y-64314032D01*
X-191266295Y-64305648D01*
X-191186920Y-64295325D01*
X-191107545Y-64282987D01*
X-191028170Y-64268557D01*
X-190948795Y-64251955D01*
X-190869419Y-64233106D01*
X-190790044Y-64211931D01*
X-190710669Y-64188353D01*
X-190549141Y-64135049D01*
X-190392032Y-64074459D01*
X-190239419Y-64006737D01*
X-190091379Y-63932039D01*
X-189947990Y-63850519D01*
X-189809330Y-63762333D01*
X-189675475Y-63667637D01*
X-189546504Y-63566584D01*
X-189422493Y-63459329D01*
X-189354530Y-63394606D01*
X-188382341Y-63394606D01*
X-186794840Y-63394606D01*
X-186794840Y-63394603D01*
X-186054010Y-63394603D01*
X-184175467Y-63394603D01*
X-183434633Y-63394603D01*
X-182111715Y-63394603D01*
X-182111715Y-58526271D01*
X-181344427Y-58526271D01*
X-181344427Y-64902732D01*
X-181344427Y-75644816D01*
X-144620258Y-75644816D01*
X-144620258Y-64929194D01*
X-133269634Y-64929194D01*
X-133092339Y-65113026D01*
X-132907951Y-65287361D01*
X-132716819Y-65452008D01*
X-132519293Y-65606772D01*
X-132315720Y-65751459D01*
X-132106450Y-65885875D01*
X-131891831Y-66009827D01*
X-131672213Y-66123121D01*
X-131447944Y-66225563D01*
X-131219373Y-66316959D01*
X-130986848Y-66397116D01*
X-130750719Y-66465839D01*
X-130511334Y-66522936D01*
X-130269043Y-66568211D01*
X-130024194Y-66601471D01*
X-129777135Y-66622523D01*
X-129938960Y-66510618D01*
X-130096909Y-66393287D01*
X-130250827Y-66270685D01*
X-130400560Y-66142967D01*
X-130545951Y-66010288D01*
X-130686847Y-65872803D01*
X-130823092Y-65730667D01*
X-130954531Y-65584035D01*
X-131081009Y-65433063D01*
X-131202371Y-65277904D01*
X-131318462Y-65118715D01*
X-131429127Y-64955650D01*
X-131534211Y-64788864D01*
X-131633559Y-64618513D01*
X-131727016Y-64444751D01*
X-131814427Y-64267734D01*
X-132055859Y-64436405D01*
X-132118542Y-64477798D01*
X-132150446Y-64497739D01*
X-132182776Y-64517021D01*
X-132215571Y-64535528D01*
X-132248870Y-64553143D01*
X-132282712Y-64569751D01*
X-132317135Y-64585235D01*
X-132396923Y-64624920D01*
X-132479192Y-64664607D01*
X-132522032Y-64684451D01*
X-132566422Y-64704295D01*
X-132612672Y-64724139D01*
X-132661093Y-64743983D01*
X-132740468Y-64770446D01*
X-132760311Y-64780064D01*
X-132780155Y-64789100D01*
X-132799999Y-64797594D01*
X-132819843Y-64805585D01*
X-132859530Y-64820209D01*
X-132899218Y-64833283D01*
X-132938905Y-64845117D01*
X-132978593Y-64856021D01*
X-133057968Y-64876277D01*
X-133163786Y-64902732D01*
X-133163801Y-64902736D01*
X-133166283Y-64902812D01*
X-133168769Y-64903033D01*
X-133171264Y-64903390D01*
X-133173775Y-64903872D01*
X-133178858Y-64905177D01*
X-133184058Y-64906870D01*
X-133189413Y-64908872D01*
X-133194962Y-64911107D01*
X-133206796Y-64915965D01*
X-133213159Y-64918433D01*
X-133219870Y-64920823D01*
X-133226969Y-64923058D01*
X-133234495Y-64925060D01*
X-133238429Y-64925950D01*
X-133242485Y-64926753D01*
X-133246667Y-64927458D01*
X-133250979Y-64928057D01*
X-133255427Y-64928540D01*
X-133260016Y-64928897D01*
X-133264750Y-64929118D01*
X-133269634Y-64929194D01*
X-144620258Y-64929194D01*
X-144620258Y-64876273D01*
X-135518593Y-64876273D01*
X-135516113Y-64878677D01*
X-135513632Y-64880930D01*
X-135511152Y-64883039D01*
X-135508671Y-64885006D01*
X-135506191Y-64886839D01*
X-135503710Y-64888540D01*
X-135498749Y-64891569D01*
X-135493789Y-64894134D01*
X-135488828Y-64896272D01*
X-135483867Y-64898023D01*
X-135478906Y-64899424D01*
X-135473945Y-64900516D01*
X-135468984Y-64901337D01*
X-135464023Y-64901924D01*
X-135459062Y-64902318D01*
X-135454101Y-64902557D01*
X-135449140Y-64902680D01*
X-135439219Y-64902732D01*
X-135518593Y-64876273D01*
X-144620258Y-64876273D01*
X-144620258Y-64135440D01*
X-136894427Y-64135440D01*
X-136879544Y-64150019D01*
X-136864661Y-64164016D01*
X-136849778Y-64177471D01*
X-136834896Y-64190422D01*
X-136820013Y-64202908D01*
X-136805130Y-64214968D01*
X-136775364Y-64237964D01*
X-136745598Y-64259720D01*
X-136715833Y-64280546D01*
X-136656302Y-64320647D01*
X-136894427Y-64135440D01*
X-144620258Y-64135440D01*
X-144620258Y-63394603D01*
X-143879426Y-63394603D01*
X-142556510Y-63394603D01*
X-141815677Y-63394603D01*
X-139937136Y-63394603D01*
X-139937136Y-58526271D01*
X-139196301Y-58526271D01*
X-139196301Y-63394603D01*
X-137608801Y-63394603D01*
X-137700559Y-63263784D01*
X-137787240Y-63129399D01*
X-137868727Y-62991604D01*
X-137944905Y-62850553D01*
X-138015657Y-62706402D01*
X-138080866Y-62559305D01*
X-138140417Y-62409418D01*
X-138194192Y-62256895D01*
X-138242077Y-62101891D01*
X-138283954Y-61944562D01*
X-138319708Y-61785063D01*
X-138349222Y-61623548D01*
X-138372379Y-61460173D01*
X-138389064Y-61295093D01*
X-138399160Y-61128462D01*
X-138402552Y-60960437D01*
X-138402552Y-60669398D01*
X-138389859Y-60521209D01*
X-138371701Y-60374377D01*
X-138348194Y-60229018D01*
X-138319456Y-60085247D01*
X-138285601Y-59943182D01*
X-138246747Y-59802939D01*
X-138203009Y-59664633D01*
X-138154504Y-59528382D01*
X-138101349Y-59394301D01*
X-138043658Y-59262506D01*
X-137981550Y-59133115D01*
X-137915139Y-59006242D01*
X-137844542Y-58882006D01*
X-137769876Y-58760521D01*
X-137691257Y-58641904D01*
X-137608801Y-58526271D01*
X-136598282Y-58526271D01*
X-136627079Y-58552494D01*
X-136741419Y-58667022D01*
X-136850265Y-58786967D01*
X-136953389Y-58912130D01*
X-137050565Y-59042312D01*
X-137141563Y-59177314D01*
X-137226156Y-59316938D01*
X-137304117Y-59460985D01*
X-137375219Y-59609257D01*
X-137439232Y-59761555D01*
X-137495930Y-59917680D01*
X-137545085Y-60077434D01*
X-137586469Y-60240618D01*
X-137619854Y-60407033D01*
X-137645013Y-60576481D01*
X-137661718Y-60748763D01*
X-137661718Y-60986888D01*
X-137657336Y-61159477D01*
X-137644329Y-61329838D01*
X-137622913Y-61497757D01*
X-137593299Y-61663022D01*
X-137555701Y-61825418D01*
X-137510332Y-61984733D01*
X-137457406Y-62140754D01*
X-137397135Y-62293267D01*
X-137329733Y-62442059D01*
X-137255412Y-62586918D01*
X-137174387Y-62727630D01*
X-137086870Y-62863981D01*
X-136993074Y-62995759D01*
X-136893212Y-63122751D01*
X-136787498Y-63244743D01*
X-136676145Y-63361522D01*
X-136559366Y-63472875D01*
X-136437374Y-63578588D01*
X-136310383Y-63678450D01*
X-136178605Y-63772246D01*
X-136042253Y-63859763D01*
X-135901541Y-63940788D01*
X-135756683Y-64015109D01*
X-135607890Y-64082511D01*
X-135455377Y-64142782D01*
X-135299356Y-64195708D01*
X-135140041Y-64241077D01*
X-134977644Y-64278675D01*
X-134812380Y-64308289D01*
X-134715482Y-64320647D01*
X-134644461Y-64329705D01*
X-134474100Y-64342712D01*
X-134301510Y-64347094D01*
X-134276712Y-64342439D01*
X-134251952Y-64338365D01*
X-134202704Y-64331805D01*
X-134154077Y-64327104D01*
X-134106380Y-64323953D01*
X-134059922Y-64322042D01*
X-134015016Y-64321060D01*
X-133931093Y-64320647D01*
X-133912386Y-64320595D01*
X-133895540Y-64320234D01*
X-133887620Y-64319840D01*
X-133879934Y-64319252D01*
X-133872402Y-64318431D01*
X-133864947Y-64317339D01*
X-133857493Y-64315937D01*
X-133849961Y-64314187D01*
X-133842274Y-64312048D01*
X-133834355Y-64309483D01*
X-133826125Y-64306453D01*
X-133817508Y-64302919D01*
X-133808426Y-64298843D01*
X-133798801Y-64294185D01*
X-133534218Y-64241271D01*
X-133428385Y-64214808D01*
X-133137343Y-64135436D01*
X-133057969Y-64108973D01*
X-133009548Y-64089131D01*
X-132963297Y-64069287D01*
X-132918907Y-64049444D01*
X-132876068Y-64029600D01*
X-132793799Y-63989911D01*
X-132714010Y-63950221D01*
X-132614895Y-63890535D01*
X-132516400Y-63829919D01*
X-132419145Y-63767443D01*
X-132323750Y-63702176D01*
X-132276944Y-63668205D01*
X-132230836Y-63633187D01*
X-132185503Y-63597007D01*
X-132141022Y-63559548D01*
X-132097472Y-63520694D01*
X-132054929Y-63480327D01*
X-132013472Y-63438333D01*
X-131973177Y-63394595D01*
X-131856944Y-63273078D01*
X-131746524Y-63146755D01*
X-131642151Y-63015782D01*
X-131544056Y-62880312D01*
X-131452472Y-62740501D01*
X-131367633Y-62596505D01*
X-131289769Y-62448478D01*
X-131219114Y-62296575D01*
X-131155901Y-62140951D01*
X-131100362Y-61981762D01*
X-131052729Y-61819162D01*
X-131013236Y-61653307D01*
X-130982113Y-61484350D01*
X-130959595Y-61312449D01*
X-130945914Y-61137757D01*
X-130941302Y-60960429D01*
X-130948672Y-60734157D01*
X-130970499Y-60512033D01*
X-131006356Y-60294481D01*
X-131055817Y-60081930D01*
X-131118455Y-59874804D01*
X-131193845Y-59673531D01*
X-131281559Y-59478536D01*
X-131381172Y-59290247D01*
X-131492257Y-59109089D01*
X-131614387Y-58935488D01*
X-131747138Y-58769872D01*
X-131890081Y-58612666D01*
X-132042791Y-58464297D01*
X-132204842Y-58325190D01*
X-132375807Y-58195773D01*
X-132555260Y-58076472D01*
X-132581719Y-58076472D01*
X-132819844Y-57944179D01*
X-132872760Y-57917724D01*
X-133084427Y-57838347D01*
X-133163802Y-57811889D01*
X-133375468Y-57732512D01*
X-133454843Y-57706054D01*
X-133530084Y-57686624D01*
X-133565534Y-57677684D01*
X-133600364Y-57669675D01*
X-133635194Y-57662906D01*
X-133652803Y-57660083D01*
X-133670644Y-57657687D01*
X-133688795Y-57655756D01*
X-133707334Y-57654328D01*
X-133726338Y-57653444D01*
X-133745885Y-57653140D01*
X-133798801Y-57653140D01*
X-133813981Y-57648483D01*
X-133829704Y-57644407D01*
X-133845892Y-57640873D01*
X-133862467Y-57637843D01*
X-133879352Y-57635279D01*
X-133896470Y-57633141D01*
X-133931093Y-57629989D01*
X-133965717Y-57628077D01*
X-133999720Y-57627095D01*
X-134063385Y-57626681D01*
X-134236282Y-57618741D01*
X-134407557Y-57619595D01*
X-134576980Y-57629042D01*
X-134744325Y-57646886D01*
X-134909365Y-57672927D01*
X-135071870Y-57706966D01*
X-135231614Y-57748805D01*
X-135388369Y-57798246D01*
X-135541907Y-57855089D01*
X-135692000Y-57919136D01*
X-135838421Y-57990188D01*
X-135980942Y-58068048D01*
X-136119336Y-58152515D01*
X-136253374Y-58243392D01*
X-136382829Y-58340480D01*
X-136507474Y-58443580D01*
X-136598282Y-58526271D01*
X-141815677Y-58526271D01*
X-141815677Y-63394603D01*
X-142556510Y-63394603D01*
X-142556510Y-58526271D01*
X-143879426Y-58526271D01*
X-143879426Y-63394603D01*
X-144620258Y-63394603D01*
X-144620258Y-57785437D01*
X-136894426Y-57785437D01*
X-136656301Y-57600230D01*
X-136715832Y-57640332D01*
X-136745598Y-57661157D01*
X-136775364Y-57682913D01*
X-136805129Y-57705909D01*
X-136820012Y-57717969D01*
X-136834895Y-57730455D01*
X-136849778Y-57743406D01*
X-136864661Y-57756861D01*
X-136879544Y-57770859D01*
X-136894426Y-57785437D01*
X-144620258Y-57785437D01*
X-144620258Y-52917107D01*
X-181344427Y-52917107D01*
X-181344427Y-58526271D01*
X-183434633Y-58526271D01*
X-183434633Y-63394603D01*
X-184175467Y-63394603D01*
X-184175467Y-58526271D01*
X-186054010Y-58526271D01*
X-186054010Y-58526278D01*
X-186054010Y-63394603D01*
X-186794840Y-63394603D01*
X-186794840Y-58526278D01*
X-188382341Y-58526278D01*
X-188290583Y-58657097D01*
X-188203903Y-58791482D01*
X-188122415Y-58929277D01*
X-188046238Y-59070328D01*
X-187975486Y-59214479D01*
X-187910277Y-59361576D01*
X-187850726Y-59511463D01*
X-187796950Y-59663986D01*
X-187749066Y-59818989D01*
X-187707188Y-59976318D01*
X-187671435Y-60135817D01*
X-187641921Y-60297331D01*
X-187618763Y-60460706D01*
X-187602078Y-60625786D01*
X-187591982Y-60792416D01*
X-187588591Y-60960437D01*
X-187588591Y-60960441D01*
X-187590451Y-61089108D01*
X-187596032Y-61217117D01*
X-187605334Y-61344428D01*
X-187618357Y-61471003D01*
X-187635100Y-61596803D01*
X-187655564Y-61721788D01*
X-187679749Y-61845922D01*
X-187707654Y-61969163D01*
X-187739280Y-62091475D01*
X-187774627Y-62212818D01*
X-187813694Y-62333153D01*
X-187856482Y-62452441D01*
X-187902991Y-62570645D01*
X-187953220Y-62687724D01*
X-188007170Y-62803641D01*
X-188064840Y-62918357D01*
X-188095847Y-62977889D01*
X-188129333Y-63037420D01*
X-188165300Y-63096952D01*
X-188203747Y-63156483D01*
X-188244675Y-63216014D01*
X-188288083Y-63275545D01*
X-188333972Y-63335076D01*
X-188382341Y-63394606D01*
X-189354530Y-63394606D01*
X-189303521Y-63346029D01*
X-189189665Y-63226837D01*
X-189081002Y-63101910D01*
X-188977610Y-62971401D01*
X-188879566Y-62835466D01*
X-188786949Y-62694260D01*
X-188699835Y-62547938D01*
X-188651776Y-62453370D01*
X-188606817Y-62358182D01*
X-188564959Y-62262375D01*
X-188526202Y-62165946D01*
X-188490546Y-62068898D01*
X-188457990Y-61971230D01*
X-188428534Y-61872942D01*
X-188402179Y-61774033D01*
X-188378925Y-61674504D01*
X-188358771Y-61574355D01*
X-188341718Y-61473586D01*
X-188327766Y-61372197D01*
X-188316914Y-61270187D01*
X-188309162Y-61167557D01*
X-188304512Y-61064307D01*
X-188302961Y-60960437D01*
X-188307344Y-60787847D01*
X-188320350Y-60617486D01*
X-188341767Y-60449567D01*
X-188371381Y-60284303D01*
X-188408979Y-60121907D01*
X-188454347Y-59962592D01*
X-188507273Y-59806571D01*
X-188567544Y-59654058D01*
X-188634946Y-59505265D01*
X-188709267Y-59360406D01*
X-188790292Y-59219695D01*
X-188877809Y-59083343D01*
X-188971605Y-58951565D01*
X-189071466Y-58824574D01*
X-189177180Y-58702582D01*
X-189288533Y-58585803D01*
X-189405312Y-58474450D01*
X-189527304Y-58368736D01*
X-189654295Y-58268875D01*
X-189786073Y-58175079D01*
X-189922424Y-58087561D01*
X-190063136Y-58006536D01*
X-190207995Y-57932216D01*
X-190356787Y-57864814D01*
X-190509301Y-57804543D01*
X-190665321Y-57751616D01*
X-190824637Y-57706248D01*
X-190987033Y-57668650D01*
X-191152298Y-57639036D01*
X-191320217Y-57617619D01*
X-191490578Y-57604613D01*
X-191663168Y-57600230D01*
X-191901289Y-57600230D01*
X-191920829Y-57600527D01*
X-191939787Y-57601367D01*
X-191958203Y-57602672D01*
X-191976115Y-57604364D01*
X-192010583Y-57608602D01*
X-192043501Y-57613459D01*
X-192075179Y-57618317D01*
X-192105927Y-57622555D01*
X-192121049Y-57624247D01*
X-192136055Y-57625552D01*
X-192150983Y-57626392D01*
X-192165873Y-57626689D01*
X-192218790Y-57626689D01*
X-192238628Y-57631353D01*
X-192258427Y-57635474D01*
X-192297753Y-57642399D01*
X-192336459Y-57648083D01*
X-192374235Y-57653148D01*
X-192410771Y-57658212D01*
X-192445756Y-57663896D01*
X-192462571Y-57667165D01*
X-192478882Y-57670821D01*
X-192494650Y-57674942D01*
X-192509836Y-57679606D01*
X-192589212Y-57706061D01*
X-192617839Y-57715932D01*
X-192644606Y-57725492D01*
X-192670133Y-57734432D01*
X-192695041Y-57742442D01*
X-192707456Y-57746001D01*
X-192719949Y-57749212D01*
X-192732596Y-57752035D01*
X-192745477Y-57754431D01*
X-192758667Y-57756363D01*
X-192772246Y-57757790D01*
X-192786289Y-57758675D01*
X-192800875Y-57758979D01*
X-192880251Y-57785437D01*
X-193091921Y-57864814D01*
X-193144838Y-57891269D01*
X-193159721Y-57896533D01*
X-193174604Y-57902379D01*
X-193189487Y-57908768D01*
X-193204370Y-57915660D01*
X-193219253Y-57923018D01*
X-193234136Y-57930802D01*
X-193263902Y-57947493D01*
X-193293667Y-57965425D01*
X-193323432Y-57984288D01*
X-193382959Y-58023562D01*
X-193384096Y-58023614D01*
X-193385401Y-58023737D01*
X-193387094Y-58023976D01*
X-193389096Y-58024370D01*
X-193391331Y-58024958D01*
X-193393721Y-58025778D01*
X-193394950Y-58026288D01*
X-193396189Y-58026870D01*
X-193397427Y-58027529D01*
X-193398656Y-58028271D01*
X-193399866Y-58029101D01*
X-193401046Y-58030022D01*
X-193402188Y-58031040D01*
X-193403281Y-58032160D01*
X-193404317Y-58033387D01*
X-193405284Y-58034725D01*
X-193406174Y-58036179D01*
X-193406976Y-58037754D01*
X-193407682Y-58039456D01*
X-193408281Y-58041288D01*
X-193408764Y-58043255D01*
X-193409121Y-58045364D01*
X-193409342Y-58047617D01*
X-193409418Y-58050021D01*
X-193588871Y-58169322D01*
X-193759836Y-58298739D01*
X-193921887Y-58437845D01*
X-194074597Y-58586215D01*
X-194217541Y-58743421D01*
X-194350291Y-58909037D01*
X-194472422Y-59082638D01*
X-194529372Y-59172299D01*
X-194583508Y-59263796D01*
X-194634775Y-59357076D01*
X-194683121Y-59452085D01*
X-194728492Y-59548771D01*
X-194770835Y-59647080D01*
X-194810097Y-59746958D01*
X-194846225Y-59848353D01*
X-194879164Y-59951211D01*
X-194908863Y-60055479D01*
X-194935267Y-60161103D01*
X-194958324Y-60268030D01*
X-194977980Y-60376208D01*
X-194994181Y-60485582D01*
X-195006875Y-60596099D01*
X-195016008Y-60707706D01*
X-195021527Y-60820350D01*
X-195023378Y-60933978D01*
X-195789412Y-60933978D01*
X-195786026Y-60789419D01*
X-195772255Y-60594043D01*
X-195749491Y-60400993D01*
X-195717891Y-60210501D01*
X-195677609Y-60022799D01*
X-195628801Y-59838120D01*
X-195571621Y-59656697D01*
X-195506225Y-59478762D01*
X-195432767Y-59304548D01*
X-195351402Y-59134287D01*
X-195262286Y-58968212D01*
X-195165573Y-58806555D01*
X-195061419Y-58649549D01*
X-194949979Y-58497427D01*
X-194831407Y-58350420D01*
X-194705858Y-58208762D01*
X-194816175Y-57964184D01*
X-194938506Y-57726776D01*
X-195072464Y-57496886D01*
X-195217662Y-57274865D01*
X-195373712Y-57061060D01*
X-195540227Y-56855820D01*
X-195716818Y-56659495D01*
X-195903099Y-56472432D01*
X-196098682Y-56294982D01*
X-196303178Y-56127492D01*
X-196516201Y-55970312D01*
X-196737363Y-55823790D01*
X-196966277Y-55688274D01*
X-197202554Y-55564115D01*
X-197445808Y-55451661D01*
X-197695650Y-55351260D01*
X-197696787Y-55351208D01*
X-197698092Y-55351086D01*
X-197699784Y-55350847D01*
X-197701787Y-55350453D01*
X-197704022Y-55349865D01*
X-197706412Y-55349045D01*
X-197707641Y-55348535D01*
X-197708880Y-55347953D01*
X-197710118Y-55347293D01*
X-197711347Y-55346551D01*
X-197712557Y-55345722D01*
X-197713737Y-55344801D01*
X-197714879Y-55343783D01*
X-197715972Y-55342663D01*
X-197717007Y-55341436D01*
X-197717975Y-55340099D01*
X-197718864Y-55338644D01*
X-197719667Y-55337069D01*
X-197720373Y-55335368D01*
X-197720972Y-55333536D01*
X-197721455Y-55331568D01*
X-197721812Y-55329460D01*
X-197722033Y-55327207D01*
X-197722109Y-55324803D01*
X-197723246Y-55324752D01*
X-197724551Y-55324629D01*
X-197726243Y-55324390D01*
X-197728246Y-55323996D01*
X-197730481Y-55323408D01*
X-197732871Y-55322588D01*
X-197734100Y-55322078D01*
X-197735338Y-55321496D01*
X-197736577Y-55320836D01*
X-197737806Y-55320094D01*
X-197739015Y-55319265D01*
X-197740196Y-55318344D01*
X-197741338Y-55317325D01*
X-197742431Y-55316205D01*
X-197743466Y-55314979D01*
X-197744433Y-55313641D01*
X-197745323Y-55312187D01*
X-197746126Y-55310611D01*
X-197746832Y-55308910D01*
X-197747431Y-55307078D01*
X-197747914Y-55305110D01*
X-197748270Y-55303002D01*
X-197748492Y-55300748D01*
X-197748568Y-55298356D01*
X-196214006Y-55298356D01*
X-196052181Y-55410261D01*
X-195894231Y-55527592D01*
X-195740312Y-55650195D01*
X-195590579Y-55777913D01*
X-195445187Y-55910592D01*
X-195304292Y-56048078D01*
X-195168047Y-56190214D01*
X-195036608Y-56336846D01*
X-194910130Y-56487818D01*
X-194788768Y-56642977D01*
X-194672677Y-56802166D01*
X-194562012Y-56965231D01*
X-194456929Y-57132017D01*
X-194357581Y-57302368D01*
X-194264125Y-57476130D01*
X-194176714Y-57653148D01*
X-194097338Y-57594029D01*
X-194057650Y-57565246D01*
X-194017962Y-57537393D01*
X-193978275Y-57510779D01*
X-193938589Y-57485717D01*
X-193918745Y-57473863D01*
X-193898902Y-57462514D01*
X-193879059Y-57451707D01*
X-193859217Y-57441482D01*
X-193858079Y-57441430D01*
X-193856774Y-57441307D01*
X-193855081Y-57441068D01*
X-193853078Y-57440674D01*
X-193850843Y-57440086D01*
X-193848452Y-57439266D01*
X-193847223Y-57438756D01*
X-193845984Y-57438174D01*
X-193844745Y-57437514D01*
X-193843515Y-57436772D01*
X-193842305Y-57435943D01*
X-193841124Y-57435022D01*
X-193839982Y-57434004D01*
X-193838889Y-57432884D01*
X-193837853Y-57431657D01*
X-193836886Y-57430319D01*
X-193835996Y-57428865D01*
X-193835193Y-57427290D01*
X-193834487Y-57425588D01*
X-193833888Y-57423756D01*
X-193833405Y-57421788D01*
X-193833048Y-57419680D01*
X-193832826Y-57417427D01*
X-193832750Y-57415023D01*
X-193801796Y-57395180D01*
X-193768672Y-57375336D01*
X-193733688Y-57355492D01*
X-193697153Y-57335648D01*
X-193659378Y-57315804D01*
X-193620673Y-57295961D01*
X-193541712Y-57256274D01*
X-193462336Y-57229815D01*
X-193447446Y-57220198D01*
X-193432518Y-57211161D01*
X-193417512Y-57202667D01*
X-193402390Y-57194676D01*
X-193387113Y-57187151D01*
X-193371642Y-57180052D01*
X-193355939Y-57173340D01*
X-193339964Y-57166977D01*
X-193323679Y-57160924D01*
X-193307046Y-57155143D01*
X-193272577Y-57144238D01*
X-193236248Y-57133954D01*
X-193197748Y-57123980D01*
X-193091921Y-57071067D01*
X-192853800Y-56991691D01*
X-192747965Y-56965232D01*
X-192695047Y-56965232D01*
X-192872640Y-56786057D01*
X-193057867Y-56615796D01*
X-193250304Y-56454682D01*
X-193449523Y-56302946D01*
X-193655099Y-56160823D01*
X-193866604Y-56028544D01*
X-194083613Y-55906342D01*
X-194305699Y-55794450D01*
X-194532436Y-55693099D01*
X-194763398Y-55602523D01*
X-194998158Y-55522955D01*
X-195236289Y-55454625D01*
X-195477366Y-55397768D01*
X-195720962Y-55352616D01*
X-195966651Y-55319401D01*
X-196214006Y-55298356D01*
X-197748568Y-55298356D01*
X-197748568Y-55298345D01*
X-197775026Y-55271888D01*
X-197827944Y-55218970D01*
X-197854410Y-55192513D01*
X-197854462Y-55191376D01*
X-197854585Y-55190072D01*
X-197854824Y-55188379D01*
X-197855218Y-55186377D01*
X-197855805Y-55184142D01*
X-197856626Y-55181752D01*
X-197857135Y-55180523D01*
X-197857718Y-55179284D01*
X-197858377Y-55178045D01*
X-197859119Y-55176816D01*
X-197859949Y-55175607D01*
X-197860870Y-55174426D01*
X-197861888Y-55173285D01*
X-197863008Y-55172191D01*
X-197864235Y-55171156D01*
X-197865573Y-55170189D01*
X-197867027Y-55169299D01*
X-197868602Y-55168496D01*
X-197870303Y-55167791D01*
X-197872136Y-55167192D01*
X-197874103Y-55166709D01*
X-197876212Y-55166352D01*
X-197878465Y-55166131D01*
X-197880869Y-55166055D01*
X-197880921Y-55164918D01*
X-197881043Y-55163613D01*
X-197881282Y-55161921D01*
X-197881676Y-55159918D01*
X-197882264Y-55157684D01*
X-197883085Y-55155294D01*
X-197883594Y-55154065D01*
X-197884176Y-55152826D01*
X-197884836Y-55151588D01*
X-197885578Y-55150359D01*
X-197886407Y-55149149D01*
X-197887329Y-55147969D01*
X-197888347Y-55146827D01*
X-197889467Y-55145734D01*
X-197890693Y-55144699D01*
X-197892031Y-55143732D01*
X-197893485Y-55142842D01*
X-197895061Y-55142039D01*
X-197896762Y-55141334D01*
X-197898594Y-55140735D01*
X-197900562Y-55140252D01*
X-197902670Y-55139895D01*
X-197904924Y-55139674D01*
X-197907328Y-55139598D01*
X-197907328Y-54875018D01*
X-197907276Y-54873881D01*
X-197907153Y-54872576D01*
X-197906914Y-54870884D01*
X-197906520Y-54868881D01*
X-197905932Y-54866646D01*
X-197905112Y-54864256D01*
X-197904602Y-54863027D01*
X-197904020Y-54861789D01*
X-197903361Y-54860550D01*
X-197902619Y-54859321D01*
X-197901789Y-54858111D01*
X-197900868Y-54856931D01*
X-197899850Y-54855789D01*
X-197898730Y-54854696D01*
X-197897503Y-54853661D01*
X-197896165Y-54852693D01*
X-197894711Y-54851804D01*
X-197893136Y-54851001D01*
X-197891435Y-54850295D01*
X-197889602Y-54849696D01*
X-197887635Y-54849213D01*
X-197885526Y-54848856D01*
X-197883273Y-54848635D01*
X-197880869Y-54848559D01*
X-197880817Y-54847422D01*
X-197880695Y-54846118D01*
X-197880456Y-54844425D01*
X-197880061Y-54842423D01*
X-197879474Y-54840188D01*
X-197878653Y-54837798D01*
X-197878144Y-54836569D01*
X-197877562Y-54835331D01*
X-197876902Y-54834092D01*
X-197876160Y-54832863D01*
X-197875331Y-54831654D01*
X-197874409Y-54830474D01*
X-197873391Y-54829332D01*
X-197872271Y-54828239D01*
X-197871045Y-54827204D01*
X-197869707Y-54826236D01*
X-197868252Y-54825347D01*
X-197866677Y-54824544D01*
X-197864976Y-54823838D01*
X-197863144Y-54823239D01*
X-197861176Y-54822756D01*
X-197859068Y-54822400D01*
X-197856814Y-54822178D01*
X-197854410Y-54822102D01*
X-197827944Y-54795644D01*
X-197801485Y-54769187D01*
X-197775026Y-54742728D01*
X-197748568Y-54716269D01*
X-197747431Y-54716218D01*
X-197746126Y-54716095D01*
X-197744433Y-54715856D01*
X-197742431Y-54715462D01*
X-197740196Y-54714874D01*
X-197737806Y-54714054D01*
X-197736577Y-54713544D01*
X-197735338Y-54712962D01*
X-197734100Y-54712303D01*
X-197732871Y-54711561D01*
X-197731661Y-54710731D01*
X-197730481Y-54709810D01*
X-197729339Y-54708792D01*
X-197728246Y-54707672D01*
X-197727210Y-54706446D01*
X-197726243Y-54705108D01*
X-197725353Y-54703654D01*
X-197724551Y-54702079D01*
X-197723845Y-54700377D01*
X-197723246Y-54698545D01*
X-197722763Y-54696578D01*
X-197722406Y-54694470D01*
X-197722185Y-54692216D01*
X-197722109Y-54689813D01*
X-197695650Y-54663354D01*
X-197616266Y-54663354D01*
X-197203824Y-54603435D01*
X-196790995Y-54572197D01*
X-196379250Y-54569174D01*
X-195970064Y-54593901D01*
X-195564908Y-54645914D01*
X-195165255Y-54724746D01*
X-194772579Y-54829933D01*
X-194388351Y-54961011D01*
X-194014046Y-55117513D01*
X-193651135Y-55298974D01*
X-193301092Y-55504931D01*
X-192965389Y-55734917D01*
X-192645499Y-55988468D01*
X-192342895Y-56265118D01*
X-192059049Y-56564402D01*
X-191795435Y-56885856D01*
X-191663141Y-56885856D01*
X-191519611Y-56888330D01*
X-191376855Y-56895726D01*
X-191235029Y-56908005D01*
X-191094289Y-56925130D01*
X-190954789Y-56947060D01*
X-190860785Y-56965232D01*
X-190816684Y-56973757D01*
X-190680129Y-57005183D01*
X-190545280Y-57041298D01*
X-190412290Y-57082065D01*
X-190281316Y-57127443D01*
X-190152513Y-57177395D01*
X-190026035Y-57231881D01*
X-189902037Y-57290864D01*
X-189780675Y-57354303D01*
X-189662103Y-57422161D01*
X-189546476Y-57494399D01*
X-188983875Y-55996648D01*
X-188339728Y-54541297D01*
X-187616826Y-53131060D01*
X-186817961Y-51768650D01*
X-185945921Y-50456779D01*
X-185003498Y-49198161D01*
X-183993482Y-47995508D01*
X-182918664Y-46851534D01*
X-181781834Y-45768952D01*
X-180585783Y-44750474D01*
X-179333301Y-43798813D01*
X-178027179Y-42916684D01*
X-176670207Y-42106798D01*
X-175265177Y-41371868D01*
X-173814877Y-40714609D01*
X-172322100Y-40137731D01*
X-172322100Y-37862316D01*
X-174941473Y-37862316D01*
X-174961159Y-37861854D01*
X-174980515Y-37860482D01*
X-174999523Y-37858217D01*
X-175018162Y-37855081D01*
X-175036413Y-37851093D01*
X-175054258Y-37846271D01*
X-175071676Y-37840635D01*
X-175088649Y-37834204D01*
X-175105156Y-37826998D01*
X-175121179Y-37819037D01*
X-175136698Y-37810339D01*
X-175151694Y-37800925D01*
X-175166147Y-37790812D01*
X-175180038Y-37780021D01*
X-175193348Y-37768572D01*
X-175206057Y-37756483D01*
X-175218146Y-37743774D01*
X-175229595Y-37730464D01*
X-175240385Y-37716572D01*
X-175250498Y-37702119D01*
X-175259912Y-37687123D01*
X-175268610Y-37671604D01*
X-175276571Y-37655581D01*
X-175283777Y-37639074D01*
X-175290207Y-37622101D01*
X-175295843Y-37604683D01*
X-175300665Y-37586838D01*
X-175304653Y-37568587D01*
X-175307789Y-37549948D01*
X-175310053Y-37530940D01*
X-175311426Y-37511584D01*
X-175311888Y-37491898D01*
X-175311888Y-26696899D01*
X-175351259Y-26681323D01*
X-175389971Y-26664375D01*
X-175427986Y-26646081D01*
X-175465264Y-26626464D01*
X-175501768Y-26605549D01*
X-175537457Y-26583360D01*
X-175572293Y-26559920D01*
X-175606238Y-26535255D01*
X-175639253Y-26509389D01*
X-175671299Y-26482345D01*
X-175702338Y-26454148D01*
X-175732330Y-26424823D01*
X-175761236Y-26394393D01*
X-175789019Y-26362882D01*
X-175815639Y-26330315D01*
X-175841057Y-26296717D01*
X-175865236Y-26262111D01*
X-175888135Y-26226521D01*
X-175909716Y-26189972D01*
X-175929941Y-26152488D01*
X-175948771Y-26114093D01*
X-175966167Y-26074812D01*
X-175982089Y-26034668D01*
X-175996501Y-25993686D01*
X-176009362Y-25951891D01*
X-176020634Y-25909305D01*
X-176030278Y-25865954D01*
X-176038255Y-25821862D01*
X-176044528Y-25777053D01*
X-176049056Y-25731551D01*
X-176051801Y-25685381D01*
X-176052725Y-25638566D01*
X-175338381Y-25638566D01*
X-175337919Y-25658251D01*
X-175336546Y-25677607D01*
X-175334282Y-25696615D01*
X-175331146Y-25715254D01*
X-175327157Y-25733505D01*
X-175322335Y-25751350D01*
X-175316699Y-25768768D01*
X-175310269Y-25785740D01*
X-175303063Y-25802248D01*
X-175295101Y-25818271D01*
X-175286404Y-25833790D01*
X-175276989Y-25848786D01*
X-175266876Y-25863239D01*
X-175256085Y-25877130D01*
X-175244636Y-25890440D01*
X-175232547Y-25903149D01*
X-175219838Y-25915238D01*
X-175206528Y-25926688D01*
X-175192636Y-25937479D01*
X-175178183Y-25947591D01*
X-175163188Y-25957006D01*
X-175147669Y-25965704D01*
X-175131646Y-25973665D01*
X-175115138Y-25980871D01*
X-175098166Y-25987301D01*
X-175080748Y-25992937D01*
X-175062904Y-25997759D01*
X-175044653Y-26001748D01*
X-175026014Y-26004884D01*
X-175007007Y-26007148D01*
X-174987651Y-26008521D01*
X-174967966Y-26008983D01*
X-174948281Y-26008521D01*
X-174928925Y-26007148D01*
X-174909918Y-26004884D01*
X-174891280Y-26001748D01*
X-174873028Y-25997759D01*
X-174855184Y-25992937D01*
X-174837766Y-25987301D01*
X-174820794Y-25980871D01*
X-174804287Y-25973665D01*
X-174788264Y-25965704D01*
X-174772745Y-25957006D01*
X-174757749Y-25947591D01*
X-174743296Y-25937479D01*
X-174729404Y-25926688D01*
X-174716095Y-25915238D01*
X-174703385Y-25903149D01*
X-174691296Y-25890440D01*
X-174679847Y-25877130D01*
X-174669056Y-25863239D01*
X-174658944Y-25848786D01*
X-174649529Y-25833790D01*
X-174640831Y-25818271D01*
X-174632869Y-25802248D01*
X-174625664Y-25785740D01*
X-174619233Y-25768768D01*
X-174613597Y-25751350D01*
X-174608775Y-25733505D01*
X-174604786Y-25715254D01*
X-174601650Y-25696615D01*
X-174599386Y-25677607D01*
X-174598013Y-25658251D01*
X-174597551Y-25638566D01*
X-174598013Y-25618880D01*
X-174599386Y-25599524D01*
X-174601650Y-25580517D01*
X-174604786Y-25561878D01*
X-174608775Y-25543627D01*
X-174613597Y-25525782D01*
X-174619233Y-25508364D01*
X-174625664Y-25491391D01*
X-174632869Y-25474884D01*
X-174640831Y-25458861D01*
X-174649529Y-25443342D01*
X-174658944Y-25428346D01*
X-174669056Y-25413893D01*
X-174679847Y-25400002D01*
X-174691296Y-25386692D01*
X-174703385Y-25373983D01*
X-174716095Y-25361893D01*
X-174729404Y-25350444D01*
X-174743296Y-25339653D01*
X-174757749Y-25329541D01*
X-174772745Y-25320126D01*
X-174788264Y-25311428D01*
X-174804287Y-25303467D01*
X-174820794Y-25296261D01*
X-174837766Y-25289831D01*
X-174855184Y-25284195D01*
X-174873028Y-25279373D01*
X-174891280Y-25275384D01*
X-174909918Y-25272248D01*
X-174928925Y-25269984D01*
X-174948281Y-25268611D01*
X-174967966Y-25268149D01*
X-174987651Y-25268611D01*
X-175007007Y-25269984D01*
X-175026014Y-25272248D01*
X-175044653Y-25275384D01*
X-175062904Y-25279373D01*
X-175080748Y-25284195D01*
X-175098166Y-25289831D01*
X-175115138Y-25296261D01*
X-175131646Y-25303467D01*
X-175147669Y-25311428D01*
X-175163188Y-25320126D01*
X-175178183Y-25329541D01*
X-175192636Y-25339653D01*
X-175206528Y-25350444D01*
X-175219838Y-25361893D01*
X-175232547Y-25373983D01*
X-175244636Y-25386692D01*
X-175256085Y-25400002D01*
X-175266876Y-25413893D01*
X-175276989Y-25428346D01*
X-175286404Y-25443342D01*
X-175295101Y-25458861D01*
X-175303063Y-25474884D01*
X-175310269Y-25491391D01*
X-175316699Y-25508364D01*
X-175322335Y-25525782D01*
X-175327157Y-25543627D01*
X-175331146Y-25561878D01*
X-175334282Y-25580517D01*
X-175336546Y-25599524D01*
X-175337919Y-25618880D01*
X-175338381Y-25638566D01*
X-176052725Y-25638566D01*
X-176051264Y-25581837D01*
X-176046931Y-25525802D01*
X-176039797Y-25470531D01*
X-176029936Y-25416099D01*
X-176017419Y-25362577D01*
X-176002321Y-25310039D01*
X-175984713Y-25258558D01*
X-175964668Y-25208205D01*
X-175942259Y-25159053D01*
X-175917559Y-25111176D01*
X-175890639Y-25064645D01*
X-175861574Y-25019534D01*
X-175830435Y-24975915D01*
X-175797295Y-24933861D01*
X-175762226Y-24893444D01*
X-175725303Y-24854738D01*
X-175686596Y-24817814D01*
X-175646180Y-24782746D01*
X-175604125Y-24749606D01*
X-175560506Y-24718467D01*
X-175515395Y-24689402D01*
X-175468865Y-24662482D01*
X-175420987Y-24637782D01*
X-175371835Y-24615373D01*
X-175321482Y-24595328D01*
X-175270000Y-24577720D01*
X-175217462Y-24562621D01*
X-175163941Y-24550105D01*
X-175109508Y-24540244D01*
X-175054238Y-24533110D01*
X-174998202Y-24528777D01*
X-174941473Y-24527316D01*
X-174884744Y-24528777D01*
X-174828708Y-24533110D01*
X-174773438Y-24540244D01*
X-174719006Y-24550105D01*
X-174665484Y-24562621D01*
X-174612946Y-24577720D01*
X-174561464Y-24595328D01*
X-174511111Y-24615373D01*
X-174461960Y-24637782D01*
X-174414082Y-24662482D01*
X-174367552Y-24689402D01*
X-174322441Y-24718467D01*
X-174278822Y-24749606D01*
X-174236768Y-24782746D01*
X-174196352Y-24817814D01*
X-174157645Y-24854738D01*
X-174120722Y-24893444D01*
X-174085654Y-24933861D01*
X-174052514Y-24975915D01*
X-174021375Y-25019534D01*
X-173992310Y-25064645D01*
X-173965390Y-25111176D01*
X-173940690Y-25159053D01*
X-173918281Y-25208205D01*
X-173898236Y-25258558D01*
X-173880629Y-25310039D01*
X-173865530Y-25362577D01*
X-173853014Y-25416099D01*
X-173843153Y-25470531D01*
X-173836019Y-25525802D01*
X-173831686Y-25581837D01*
X-173830225Y-25638566D01*
G37*
%TO.C,A1*%
X-116840000Y-52070000D02*
X-116840000Y-86360000D01*
X-116840000Y-86360000D02*
X-114300000Y-88900000D01*
X-114300000Y-48260000D02*
X-114300000Y-49530000D01*
X-114300000Y-49530000D02*
X-116840000Y-52070000D01*
X-114300000Y-88900000D02*
X-114300000Y-100076000D01*
X-112776000Y-101600000D02*
X-114300000Y-100076000D01*
X-15240000Y-48260000D02*
X-114300000Y-48260000D01*
X-15240000Y-101600000D02*
X-112776000Y-101600000D01*
X-15240000Y-101600000D02*
X-15240000Y-48260000D01*
%TD*%
M02*
