%TF.GenerationSoftware,KiCad,Pcbnew,(7.0.0-0)*%
%TF.CreationDate,2024-03-29T02:07:55+01:00*%
%TF.ProjectId,universalRobotTx,756e6976-6572-4736-916c-526f626f7454,rev?*%
%TF.SameCoordinates,Original*%
%TF.FileFunction,Profile,NP*%
%FSLAX46Y46*%
G04 Gerber Fmt 4.6, Leading zero omitted, Abs format (unit mm)*
G04 Created by KiCad (PCBNEW (7.0.0-0)) date 2024-03-29 02:07:55*
%MOMM*%
%LPD*%
G01*
G04 APERTURE LIST*
%TA.AperFunction,Profile*%
%ADD10C,0.100000*%
%TD*%
%TA.AperFunction,Profile*%
%ADD11C,0.200000*%
%TD*%
G04 APERTURE END LIST*
D10*
X-15240000Y-172720000D02*
X-15240000Y-5080000D01*
X-238760000Y-172720000D02*
X-238760000Y-5080000D01*
X-167640000Y0D02*
X-233680000Y0D01*
X-101600000Y10160000D02*
X-157480000Y10160000D01*
X-20320000Y0D02*
X-91440000Y0D01*
X-233680000Y-177800000D02*
X-20320000Y-177800000D01*
D11*
X-157480000Y10160000D02*
G75*
G03*
X-162560000Y5080000I2J-5080002D01*
G01*
X-167640000Y0D02*
G75*
G03*
X-162560000Y5080000I-2J5080002D01*
G01*
X-20320000Y-177800000D02*
G75*
G03*
X-15240000Y-172720000I-2J5080002D01*
G01*
X-15240000Y-5080000D02*
G75*
G03*
X-20320000Y0I-5080002J-2D01*
G01*
X-96520000Y5080000D02*
G75*
G03*
X-101600000Y10160000I-5080002J-2D01*
G01*
X-96520000Y5080000D02*
G75*
G03*
X-91440000Y0I5080002J2D01*
G01*
X-233680000Y0D02*
G75*
G03*
X-238760000Y-5080000I2J-5080002D01*
G01*
X-238760000Y-172720000D02*
G75*
G03*
X-233680000Y-177800000I5080002J2D01*
G01*
D10*
X-25400000Y-127000000D02*
X-25400000Y-147320000D01*
X-45720000Y-167640000D01*
X-66040000Y-167640000D01*
X-86360000Y-147320000D01*
X-86360000Y-127000000D01*
X-66040000Y-106680000D01*
X-45720000Y-106680000D01*
X-25400000Y-127000000D01*
X-167640000Y-127000000D02*
X-167640000Y-147320000D01*
X-187960000Y-167640000D01*
X-208280000Y-167640000D01*
X-228600000Y-147320000D01*
X-228600000Y-127000000D01*
X-208280000Y-106680000D01*
X-187960000Y-106680000D01*
X-167640000Y-127000000D01*
M02*
