%TF.GenerationSoftware,KiCad,Pcbnew,(7.0.0-0)*%
%TF.CreationDate,2024-03-29T02:07:55+01:00*%
%TF.ProjectId,universalRobotTx,756e6976-6572-4736-916c-526f626f7454,rev?*%
%TF.SameCoordinates,Original*%
%TF.FileFunction,Soldermask,Bot*%
%TF.FilePolarity,Negative*%
%FSLAX46Y46*%
G04 Gerber Fmt 4.6, Leading zero omitted, Abs format (unit mm)*
G04 Created by KiCad (PCBNEW (7.0.0-0)) date 2024-03-29 02:07:55*
%MOMM*%
%LPD*%
G01*
G04 APERTURE LIST*
G04 Aperture macros list*
%AMRoundRect*
0 Rectangle with rounded corners*
0 $1 Rounding radius*
0 $2 $3 $4 $5 $6 $7 $8 $9 X,Y pos of 4 corners*
0 Add a 4 corners polygon primitive as box body*
4,1,4,$2,$3,$4,$5,$6,$7,$8,$9,$2,$3,0*
0 Add four circle primitives for the rounded corners*
1,1,$1+$1,$2,$3*
1,1,$1+$1,$4,$5*
1,1,$1+$1,$6,$7*
1,1,$1+$1,$8,$9*
0 Add four rect primitives between the rounded corners*
20,1,$1+$1,$2,$3,$4,$5,0*
20,1,$1+$1,$4,$5,$6,$7,0*
20,1,$1+$1,$6,$7,$8,$9,0*
20,1,$1+$1,$8,$9,$2,$3,0*%
G04 Aperture macros list end*
%ADD10R,1.700000X1.700000*%
%ADD11O,1.700000X1.700000*%
%ADD12O,1.727200X1.727200*%
%ADD13R,1.727200X1.727200*%
%ADD14C,3.200000*%
%ADD15R,4.000000X4.000000*%
%ADD16C,4.000000*%
%ADD17RoundRect,0.250000X-0.600000X-0.750000X0.600000X-0.750000X0.600000X0.750000X-0.600000X0.750000X0*%
%ADD18O,1.700000X2.000000*%
%ADD19RoundRect,0.250000X-0.750000X0.600000X-0.750000X-0.600000X0.750000X-0.600000X0.750000X0.600000X0*%
%ADD20O,2.000000X1.700000*%
%ADD21C,1.600000*%
%ADD22O,1.600000X1.600000*%
%ADD23R,2.600000X2.600000*%
%ADD24C,2.600000*%
%ADD25C,3.000000*%
%ADD26C,1.440000*%
%ADD27C,1.800000*%
%ADD28C,1.700000*%
%ADD29R,1.800000X1.800000*%
%ADD30R,1.800000X1.070000*%
%ADD31O,1.800000X1.070000*%
%ADD32O,1.750000X1.200000*%
%ADD33RoundRect,0.250000X0.625000X-0.350000X0.625000X0.350000X-0.625000X0.350000X-0.625000X-0.350000X0*%
%ADD34C,2.000000*%
%ADD35O,2.000000X1.500000*%
%ADD36O,1.200000X1.750000*%
%ADD37RoundRect,0.250000X-0.350000X-0.625000X0.350000X-0.625000X0.350000X0.625000X-0.350000X0.625000X0*%
G04 APERTURE END LIST*
D10*
%TO.C,J13*%
X-20319999Y-134619999D03*
D11*
X-20319999Y-132079999D03*
X-20319999Y-129539999D03*
X-20319999Y-126999999D03*
X-20319999Y-124459999D03*
X-20319999Y-121919999D03*
X-20319999Y-119379999D03*
X-20319999Y-116839999D03*
X-20319999Y-114299999D03*
X-20319999Y-111759999D03*
X-20319999Y-109219999D03*
X-20319999Y-106679999D03*
%TD*%
D10*
%TO.C,J15*%
X-118540514Y-49471853D03*
D11*
X-118540514Y-52011853D03*
X-118540514Y-54551853D03*
X-118540514Y-57091853D03*
X-118540514Y-59631853D03*
X-118540514Y-62171853D03*
X-118540514Y-64711853D03*
X-118540514Y-67251853D03*
X-118540514Y-69791853D03*
X-118540514Y-72331853D03*
X-118540514Y-74871853D03*
X-118540514Y-77411853D03*
%TD*%
D10*
%TO.C,J14*%
X-21492353Y-64080078D03*
D11*
X-21492353Y-66620078D03*
X-21492353Y-69160078D03*
X-21492353Y-71700078D03*
X-21492353Y-74240078D03*
X-21492353Y-76780078D03*
%TD*%
D12*
%TO.C,A1*%
X-60959999Y-50799999D03*
X-36575999Y-99059999D03*
X-34035999Y-99059999D03*
X-78866999Y-76199999D03*
X-78866999Y-73659999D03*
X-48259999Y-50799999D03*
X-81406999Y-76199999D03*
X-78866999Y-78739999D03*
X-45719999Y-50799999D03*
D13*
X-111759999Y-55879999D03*
X-109219999Y-55879999D03*
X-81406999Y-73659999D03*
X-58419999Y-50799999D03*
X-55879999Y-50799999D03*
X-41655999Y-99059999D03*
D12*
X-111759999Y-58419999D03*
X-109219999Y-58419999D03*
X-111759999Y-60959999D03*
X-109219999Y-60959999D03*
X-111759999Y-63499999D03*
X-109219999Y-63499999D03*
X-111759999Y-66039999D03*
X-109219999Y-66039999D03*
X-111759999Y-68579999D03*
X-109219999Y-68579999D03*
X-111759999Y-71119999D03*
X-109219999Y-71119999D03*
X-111759999Y-73659999D03*
X-109219999Y-73659999D03*
X-111759999Y-76199999D03*
X-109219999Y-76199999D03*
X-111759999Y-78739999D03*
X-109219999Y-78739999D03*
X-111759999Y-81279999D03*
X-109219999Y-81279999D03*
X-111759999Y-83819999D03*
X-109219999Y-83819999D03*
X-111759999Y-86359999D03*
X-109219999Y-86359999D03*
X-111759999Y-88899999D03*
X-109219999Y-88899999D03*
X-111759999Y-91439999D03*
X-109219999Y-91439999D03*
X-111759999Y-93979999D03*
X-109219999Y-93979999D03*
X-111759999Y-96519999D03*
X-109219999Y-96519999D03*
X-101599999Y-99059999D03*
X-99059999Y-99059999D03*
X-96519999Y-99059999D03*
X-93979999Y-99059999D03*
X-91439999Y-99059999D03*
X-88899999Y-99059999D03*
X-86359999Y-99059999D03*
X-83819999Y-99059999D03*
X-44195999Y-99059999D03*
X-46735999Y-99059999D03*
X-49275999Y-99059999D03*
X-51815999Y-99059999D03*
X-54355999Y-99059999D03*
X-56895999Y-99059999D03*
X-60959999Y-99059999D03*
X-63499999Y-99059999D03*
X-66039999Y-99059999D03*
X-68579999Y-99059999D03*
X-71119999Y-99059999D03*
X-73659999Y-99059999D03*
X-76199999Y-99059999D03*
X-78739999Y-99059999D03*
X-39115999Y-99059999D03*
X-106679999Y-50799999D03*
X-104139999Y-50799999D03*
X-101599999Y-50799999D03*
X-99059999Y-50799999D03*
X-96519999Y-50799999D03*
X-93979999Y-50799999D03*
X-91439999Y-50799999D03*
X-88899999Y-50799999D03*
X-83819999Y-50799999D03*
X-81279999Y-50799999D03*
X-78739999Y-50799999D03*
X-76199999Y-50799999D03*
X-73659999Y-50799999D03*
X-71119999Y-50799999D03*
X-68579999Y-50799999D03*
X-66039999Y-50799999D03*
X-111759999Y-99059999D03*
X-109219999Y-99059999D03*
X-81406999Y-78739999D03*
X-53339999Y-50799999D03*
X-50799999Y-50799999D03*
D14*
X-111760000Y-50800000D03*
X-105410000Y-99060000D03*
X-81280000Y-55880000D03*
X-81280000Y-83820000D03*
D12*
X-43179999Y-50799999D03*
D14*
X-30480000Y-99060000D03*
X-29210000Y-50800000D03*
%TD*%
D15*
%TO.C,SW17*%
X-172719999Y-15239999D03*
D16*
X-172720000Y-10160000D03*
X-172720000Y-5080000D03*
%TD*%
%TO.C,SW16*%
X-142240000Y-5080000D03*
X-142240000Y-10160000D03*
D15*
X-142239999Y-15239999D03*
%TD*%
%TO.C,SW15*%
X-157479999Y-15239999D03*
D16*
X-157480000Y-10160000D03*
X-157480000Y-5080000D03*
%TD*%
D15*
%TO.C,SW14*%
X-203199999Y-15239999D03*
D16*
X-203200000Y-10160000D03*
X-203200000Y-5080000D03*
%TD*%
D15*
%TO.C,SW13*%
X-187959999Y-15239999D03*
D16*
X-187960000Y-10160000D03*
X-187960000Y-5080000D03*
%TD*%
D15*
%TO.C,SW1*%
X-218439999Y-15239999D03*
D16*
X-218440000Y-10160000D03*
X-218440000Y-5080000D03*
%TD*%
D17*
%TO.C,SW5*%
X-128080429Y-145661307D03*
D18*
X-125580428Y-145661306D03*
%TD*%
D17*
%TO.C,SW4*%
X-128080429Y-131199771D03*
D18*
X-125580428Y-131199770D03*
%TD*%
D17*
%TO.C,SW3*%
X-128080429Y-115761307D03*
D18*
X-125580428Y-115761306D03*
%TD*%
D19*
%TO.C,SW6*%
X-25999730Y-35277234D03*
D20*
X-25999729Y-37777233D03*
%TD*%
D21*
%TO.C,R6*%
X-116840000Y-92249283D03*
D22*
X-121919999Y-92249282D03*
%TD*%
D21*
%TO.C,R5*%
X-50800000Y-40640000D03*
D22*
X-45719999Y-40639999D03*
%TD*%
%TO.C,R4*%
X-121918787Y-98260331D03*
D21*
X-116838788Y-98260332D03*
%TD*%
%TO.C,R3*%
X-116840000Y-102409283D03*
D22*
X-121919999Y-102409282D03*
%TD*%
%TO.C,R2*%
X-121919999Y-106679999D03*
D21*
X-116840000Y-106680000D03*
%TD*%
%TO.C,R1*%
X-50800000Y-30480000D03*
D22*
X-45719999Y-30479999D03*
%TD*%
D23*
%TO.C,J3*%
X-60959999Y-25399999D03*
D24*
X-60960000Y-30480000D03*
%TD*%
D25*
%TO.C,H16*%
X-127000000Y5080000D03*
%TD*%
%TO.C,H15*%
X-20320000Y-5080000D03*
%TD*%
%TO.C,H3*%
X-127000000Y-40640000D03*
%TD*%
%TO.C,H2*%
X-126853531Y-159885931D03*
%TD*%
%TO.C,H1*%
X-127000000Y-86360000D03*
%TD*%
D26*
%TO.C,RV13*%
X-127000000Y-172720000D03*
X-129540000Y-175260000D03*
X-132080000Y-172720000D03*
%TD*%
%TO.C,RV12*%
X-111760000Y-172720000D03*
X-114300000Y-175260000D03*
X-116840000Y-172720000D03*
%TD*%
%TO.C,RV11*%
X-96520000Y-172720000D03*
X-99060000Y-175260000D03*
X-101600000Y-172720000D03*
%TD*%
%TO.C,RV7*%
X-142240000Y-172720000D03*
X-144780000Y-175260000D03*
X-147320000Y-172720000D03*
%TD*%
D16*
%TO.C,RV6*%
X-123952000Y-55880000D03*
X-132752000Y-55880000D03*
D27*
X-130852000Y-48880000D03*
X-128352000Y-48880000D03*
X-125852000Y-48880000D03*
%TD*%
D16*
%TO.C,RV5*%
X-142240000Y-55880000D03*
X-151040000Y-55880000D03*
D27*
X-149140000Y-48880000D03*
X-146640000Y-48880000D03*
X-144140000Y-48880000D03*
%TD*%
D16*
%TO.C,RV4*%
X-160528000Y-55880000D03*
X-169328000Y-55880000D03*
D27*
X-167428000Y-48880000D03*
X-164928000Y-48880000D03*
X-162428000Y-48880000D03*
%TD*%
D16*
%TO.C,RV3*%
X-178816000Y-55880000D03*
X-187616000Y-55880000D03*
D27*
X-185716000Y-48880000D03*
X-183216000Y-48880000D03*
X-180716000Y-48880000D03*
%TD*%
D16*
%TO.C,RV2*%
X-197104000Y-55880000D03*
X-205904000Y-55880000D03*
D27*
X-204004000Y-48880000D03*
X-201504000Y-48880000D03*
X-199004000Y-48880000D03*
%TD*%
%TO.C,RV1*%
X-217292000Y-48880000D03*
X-219792000Y-48880000D03*
X-222292000Y-48880000D03*
D16*
X-224192000Y-55880000D03*
X-215392000Y-55880000D03*
%TD*%
D28*
%TO.C,SW2*%
X-48680000Y-15160000D03*
X-55880000Y-15160000D03*
X-48680000Y-10160000D03*
X-55880000Y-10160000D03*
%TD*%
D27*
%TO.C,D3*%
X-40818345Y-30571326D03*
D29*
X-38278344Y-30571325D03*
%TD*%
D25*
%TO.C,H14*%
X-30480000Y-111760000D03*
%TD*%
D30*
%TO.C,D2*%
X-126999999Y-106679999D03*
D31*
X-126999999Y-105409999D03*
X-126999999Y-104139999D03*
X-126999999Y-102869999D03*
%TD*%
D28*
%TO.C,SW11*%
X-123379332Y-15123047D03*
X-130579332Y-15123047D03*
X-123379332Y-10123047D03*
X-130579332Y-10123047D03*
%TD*%
D21*
%TO.C,C3*%
X-103703118Y-116840000D03*
X-103703118Y-119340000D03*
%TD*%
D25*
%TO.C,H12*%
X-20320000Y-172720000D03*
%TD*%
%TO.C,H8*%
X-81280000Y-162560000D03*
%TD*%
D29*
%TO.C,D4*%
X-38308868Y-40639999D03*
D27*
X-40848869Y-40640000D03*
%TD*%
D25*
%TO.C,H13*%
X-172720000Y-162560000D03*
%TD*%
D28*
%TO.C,SW8*%
X-85759734Y-10160000D03*
X-78559734Y-10160000D03*
X-85759734Y-15160000D03*
X-78559734Y-15160000D03*
%TD*%
D32*
%TO.C,J7*%
X-96519999Y-148399999D03*
X-96519999Y-150399999D03*
D33*
X-96520000Y-152400000D03*
%TD*%
D25*
%TO.C,H10*%
X-172720000Y-111760000D03*
%TD*%
D33*
%TO.C,J2*%
X-96520000Y-122840000D03*
D32*
X-96519999Y-120839999D03*
X-96519999Y-118839999D03*
X-96519999Y-116839999D03*
X-96519999Y-114839999D03*
%TD*%
D33*
%TO.C,J9*%
X-162560000Y-136080000D03*
D32*
X-162559999Y-134079999D03*
X-162559999Y-132079999D03*
%TD*%
D28*
%TO.C,SW10*%
X-108439466Y-15160000D03*
X-115639466Y-15160000D03*
X-108439466Y-10160000D03*
X-115639466Y-10160000D03*
%TD*%
D17*
%TO.C,J11*%
X-63460000Y-40640000D03*
D18*
X-60959999Y-40639999D03*
%TD*%
D27*
%TO.C,D5*%
X-38100000Y-20320000D03*
D29*
X-40639999Y-20319999D03*
%TD*%
D34*
%TO.C,J12*%
X-35980000Y-9580000D03*
D35*
X-35979999Y-5179999D03*
%TD*%
D25*
%TO.C,H7*%
X-223520000Y-162560000D03*
%TD*%
D21*
%TO.C,C17*%
X-101600000Y-162560000D03*
X-104100000Y-162560000D03*
%TD*%
%TO.C,C2*%
X-103703118Y-134781657D03*
X-103703118Y-137281657D03*
%TD*%
%TO.C,C12*%
X-116840000Y-45720000D03*
X-116840000Y-43220000D03*
%TD*%
D33*
%TO.C,J1*%
X-162560000Y-122840000D03*
D32*
X-162559999Y-120839999D03*
X-162559999Y-118839999D03*
X-162559999Y-116839999D03*
X-162559999Y-114839999D03*
%TD*%
D28*
%TO.C,SW9*%
X-63619868Y-15160000D03*
X-70819868Y-15160000D03*
X-63619868Y-10160000D03*
X-70819868Y-10160000D03*
%TD*%
D21*
%TO.C,C5*%
X-154503118Y-129701657D03*
X-154503118Y-132201657D03*
%TD*%
%TO.C,C8*%
X-195936020Y-45720000D03*
X-195936020Y-43220000D03*
%TD*%
%TO.C,C18*%
X-114260000Y-162560000D03*
X-111760000Y-162560000D03*
%TD*%
%TO.C,C7*%
X-214234683Y-45649417D03*
X-214234683Y-43149417D03*
%TD*%
%TO.C,C19*%
X-129500000Y-167640000D03*
X-127000000Y-167640000D03*
%TD*%
D25*
%TO.C,H9*%
X-233680000Y-172720000D03*
%TD*%
D16*
%TO.C,SW7*%
X-20320000Y-20320000D03*
X-25400000Y-20320000D03*
D15*
X-30479999Y-20319999D03*
%TD*%
D21*
%TO.C,C13*%
X-142240000Y-162560000D03*
X-144740000Y-162560000D03*
%TD*%
%TO.C,C4*%
X-154503118Y-144941657D03*
X-154503118Y-147441657D03*
%TD*%
%TO.C,C6*%
X-154503118Y-116961657D03*
X-154503118Y-114461657D03*
%TD*%
D33*
%TO.C,J8*%
X-162560000Y-152400000D03*
D32*
X-162559999Y-150399999D03*
X-162559999Y-148399999D03*
%TD*%
D36*
%TO.C,J4*%
X-140239999Y5079999D03*
X-142239999Y5079999D03*
X-144239999Y5079999D03*
X-146239999Y5079999D03*
D37*
X-148240000Y5080000D03*
%TD*%
D25*
%TO.C,H5*%
X-81280000Y-111760000D03*
%TD*%
D29*
%TO.C,D1*%
X-128194297Y-96519999D03*
D27*
X-125654298Y-96520000D03*
%TD*%
D21*
%TO.C,C11*%
X-141040028Y-43235024D03*
X-141040028Y-45735024D03*
%TD*%
%TO.C,C1*%
X-103703118Y-150021657D03*
X-103703118Y-152521657D03*
%TD*%
D37*
%TO.C,J5*%
X-114680000Y5080000D03*
D36*
X-112679999Y5079999D03*
X-110679999Y5079999D03*
X-108679999Y5079999D03*
X-106679999Y5079999D03*
%TD*%
D25*
%TO.C,H11*%
X-30480000Y-162560000D03*
%TD*%
%TO.C,H6*%
X-233680000Y-5080000D03*
%TD*%
D28*
%TO.C,SW12*%
X-93499600Y-15160000D03*
X-100699600Y-15160000D03*
X-93499600Y-10160000D03*
X-100699600Y-10160000D03*
%TD*%
D25*
%TO.C,H4*%
X-223520000Y-111760000D03*
%TD*%
D21*
%TO.C,C10*%
X-159338694Y-45720000D03*
X-159338694Y-43220000D03*
%TD*%
D33*
%TO.C,J6*%
X-96520000Y-136080000D03*
D32*
X-96519999Y-134079999D03*
X-96519999Y-132079999D03*
%TD*%
D21*
%TO.C,C9*%
X-177637357Y-45720000D03*
X-177637357Y-43220000D03*
%TD*%
M02*
