%TF.GenerationSoftware,KiCad,Pcbnew,(7.0.0-0)*%
%TF.CreationDate,2024-03-29T02:07:55+01:00*%
%TF.ProjectId,universalRobotTx,756e6976-6572-4736-916c-526f626f7454,rev?*%
%TF.SameCoordinates,Original*%
%TF.FileFunction,Copper,L1,Top*%
%TF.FilePolarity,Positive*%
%FSLAX46Y46*%
G04 Gerber Fmt 4.6, Leading zero omitted, Abs format (unit mm)*
G04 Created by KiCad (PCBNEW (7.0.0-0)) date 2024-03-29 02:07:55*
%MOMM*%
%LPD*%
G01*
G04 APERTURE LIST*
G04 Aperture macros list*
%AMRoundRect*
0 Rectangle with rounded corners*
0 $1 Rounding radius*
0 $2 $3 $4 $5 $6 $7 $8 $9 X,Y pos of 4 corners*
0 Add a 4 corners polygon primitive as box body*
4,1,4,$2,$3,$4,$5,$6,$7,$8,$9,$2,$3,0*
0 Add four circle primitives for the rounded corners*
1,1,$1+$1,$2,$3*
1,1,$1+$1,$4,$5*
1,1,$1+$1,$6,$7*
1,1,$1+$1,$8,$9*
0 Add four rect primitives between the rounded corners*
20,1,$1+$1,$2,$3,$4,$5,0*
20,1,$1+$1,$4,$5,$6,$7,0*
20,1,$1+$1,$6,$7,$8,$9,0*
20,1,$1+$1,$8,$9,$2,$3,0*%
G04 Aperture macros list end*
%ADD10C,0.300000*%
%TA.AperFunction,NonConductor*%
%ADD11C,0.300000*%
%TD*%
%TA.AperFunction,ComponentPad*%
%ADD12R,1.700000X1.700000*%
%TD*%
%TA.AperFunction,ComponentPad*%
%ADD13O,1.700000X1.700000*%
%TD*%
%TA.AperFunction,ComponentPad*%
%ADD14O,1.727200X1.727200*%
%TD*%
%TA.AperFunction,ComponentPad*%
%ADD15R,1.727200X1.727200*%
%TD*%
%TA.AperFunction,ComponentPad*%
%ADD16R,4.000000X4.000000*%
%TD*%
%TA.AperFunction,ComponentPad*%
%ADD17C,4.000000*%
%TD*%
%TA.AperFunction,ComponentPad*%
%ADD18RoundRect,0.250000X-0.600000X-0.750000X0.600000X-0.750000X0.600000X0.750000X-0.600000X0.750000X0*%
%TD*%
%TA.AperFunction,ComponentPad*%
%ADD19O,1.700000X2.000000*%
%TD*%
%TA.AperFunction,ComponentPad*%
%ADD20RoundRect,0.250000X-0.750000X0.600000X-0.750000X-0.600000X0.750000X-0.600000X0.750000X0.600000X0*%
%TD*%
%TA.AperFunction,ComponentPad*%
%ADD21O,2.000000X1.700000*%
%TD*%
%TA.AperFunction,ComponentPad*%
%ADD22C,1.600000*%
%TD*%
%TA.AperFunction,ComponentPad*%
%ADD23O,1.600000X1.600000*%
%TD*%
%TA.AperFunction,ComponentPad*%
%ADD24R,2.600000X2.600000*%
%TD*%
%TA.AperFunction,ComponentPad*%
%ADD25C,2.600000*%
%TD*%
%TA.AperFunction,ComponentPad*%
%ADD26C,1.440000*%
%TD*%
%TA.AperFunction,WasherPad*%
%ADD27C,4.000000*%
%TD*%
%TA.AperFunction,ComponentPad*%
%ADD28C,1.800000*%
%TD*%
%TA.AperFunction,ComponentPad*%
%ADD29C,1.700000*%
%TD*%
%TA.AperFunction,ComponentPad*%
%ADD30R,1.800000X1.800000*%
%TD*%
%TA.AperFunction,ComponentPad*%
%ADD31R,1.800000X1.070000*%
%TD*%
%TA.AperFunction,ComponentPad*%
%ADD32O,1.800000X1.070000*%
%TD*%
%TA.AperFunction,ComponentPad*%
%ADD33O,1.750000X1.200000*%
%TD*%
%TA.AperFunction,ComponentPad*%
%ADD34RoundRect,0.250000X0.625000X-0.350000X0.625000X0.350000X-0.625000X0.350000X-0.625000X-0.350000X0*%
%TD*%
%TA.AperFunction,SMDPad,CuDef*%
%ADD35R,3.000000X2.000000*%
%TD*%
%TA.AperFunction,ComponentPad*%
%ADD36O,1.200000X1.750000*%
%TD*%
%TA.AperFunction,ComponentPad*%
%ADD37RoundRect,0.250000X-0.350000X-0.625000X0.350000X-0.625000X0.350000X0.625000X-0.350000X0.625000X0*%
%TD*%
%TA.AperFunction,ViaPad*%
%ADD38C,1.000000*%
%TD*%
%TA.AperFunction,Conductor*%
%ADD39C,0.250000*%
%TD*%
%TA.AperFunction,Conductor*%
%ADD40C,0.500000*%
%TD*%
%TA.AperFunction,Conductor*%
%ADD41C,0.000000*%
%TD*%
G04 APERTURE END LIST*
D10*
D11*
X-55737142Y6406428D02*
X-55165714Y6406428D01*
X-55522857Y5406428D02*
X-55522857Y6692142D01*
X-55522857Y6692142D02*
X-55451428Y6835000D01*
X-55451428Y6835000D02*
X-55308571Y6906428D01*
X-55308571Y6906428D02*
X-55165714Y6906428D01*
X-54022857Y5406428D02*
X-54022857Y6192142D01*
X-54022857Y6192142D02*
X-54094285Y6335000D01*
X-54094285Y6335000D02*
X-54237142Y6406428D01*
X-54237142Y6406428D02*
X-54522857Y6406428D01*
X-54522857Y6406428D02*
X-54665714Y6335000D01*
X-54022857Y5477857D02*
X-54165714Y5406428D01*
X-54165714Y5406428D02*
X-54522857Y5406428D01*
X-54522857Y5406428D02*
X-54665714Y5477857D01*
X-54665714Y5477857D02*
X-54737142Y5620714D01*
X-54737142Y5620714D02*
X-54737142Y5763571D01*
X-54737142Y5763571D02*
X-54665714Y5906428D01*
X-54665714Y5906428D02*
X-54522857Y5977857D01*
X-54522857Y5977857D02*
X-54165714Y5977857D01*
X-54165714Y5977857D02*
X-54022857Y6049285D01*
X-53094285Y5406428D02*
X-53237142Y5477857D01*
X-53237142Y5477857D02*
X-53308571Y5620714D01*
X-53308571Y5620714D02*
X-53308571Y6906428D01*
X-52594285Y5477857D02*
X-52451428Y5406428D01*
X-52451428Y5406428D02*
X-52165714Y5406428D01*
X-52165714Y5406428D02*
X-52022857Y5477857D01*
X-52022857Y5477857D02*
X-51951428Y5620714D01*
X-51951428Y5620714D02*
X-51951428Y5692142D01*
X-51951428Y5692142D02*
X-52022857Y5835000D01*
X-52022857Y5835000D02*
X-52165714Y5906428D01*
X-52165714Y5906428D02*
X-52380000Y5906428D01*
X-52380000Y5906428D02*
X-52522857Y5977857D01*
X-52522857Y5977857D02*
X-52594285Y6120714D01*
X-52594285Y6120714D02*
X-52594285Y6192142D01*
X-52594285Y6192142D02*
X-52522857Y6335000D01*
X-52522857Y6335000D02*
X-52380000Y6406428D01*
X-52380000Y6406428D02*
X-52165714Y6406428D01*
X-52165714Y6406428D02*
X-52022857Y6335000D01*
X-50665714Y5477857D02*
X-50808571Y5406428D01*
X-50808571Y5406428D02*
X-51094285Y5406428D01*
X-51094285Y5406428D02*
X-51237142Y5477857D01*
X-51237142Y5477857D02*
X-51308571Y5549285D01*
X-51308571Y5549285D02*
X-51379999Y5692142D01*
X-51379999Y5692142D02*
X-51379999Y6120714D01*
X-51379999Y6120714D02*
X-51308571Y6263571D01*
X-51308571Y6263571D02*
X-51237142Y6335000D01*
X-51237142Y6335000D02*
X-51094285Y6406428D01*
X-51094285Y6406428D02*
X-50808571Y6406428D01*
X-50808571Y6406428D02*
X-50665714Y6335000D01*
X-50022857Y5406428D02*
X-50022857Y6906428D01*
X-49380000Y5406428D02*
X-49380000Y6192142D01*
X-49380000Y6192142D02*
X-49451428Y6335000D01*
X-49451428Y6335000D02*
X-49594285Y6406428D01*
X-49594285Y6406428D02*
X-49808571Y6406428D01*
X-49808571Y6406428D02*
X-49951428Y6335000D01*
X-49951428Y6335000D02*
X-50022857Y6263571D01*
X-48094285Y5477857D02*
X-48237142Y5406428D01*
X-48237142Y5406428D02*
X-48522857Y5406428D01*
X-48522857Y5406428D02*
X-48665714Y5477857D01*
X-48665714Y5477857D02*
X-48737142Y5620714D01*
X-48737142Y5620714D02*
X-48737142Y6192142D01*
X-48737142Y6192142D02*
X-48665714Y6335000D01*
X-48665714Y6335000D02*
X-48522857Y6406428D01*
X-48522857Y6406428D02*
X-48237142Y6406428D01*
X-48237142Y6406428D02*
X-48094285Y6335000D01*
X-48094285Y6335000D02*
X-48022857Y6192142D01*
X-48022857Y6192142D02*
X-48022857Y6049285D01*
X-48022857Y6049285D02*
X-48737142Y5906428D01*
X-47380000Y5406428D02*
X-47380000Y6406428D01*
X-47380000Y6120714D02*
X-47308571Y6263571D01*
X-47308571Y6263571D02*
X-47237143Y6335000D01*
X-47237143Y6335000D02*
X-47094285Y6406428D01*
X-47094285Y6406428D02*
X-46951428Y6406428D01*
X-45765714Y6406428D02*
X-45194286Y6406428D01*
X-45551429Y5406428D02*
X-45551429Y6692142D01*
X-45551429Y6692142D02*
X-45480000Y6835000D01*
X-45480000Y6835000D02*
X-45337143Y6906428D01*
X-45337143Y6906428D02*
X-45194286Y6906428D01*
X-44480000Y5406428D02*
X-44622857Y5477857D01*
X-44622857Y5477857D02*
X-44694286Y5549285D01*
X-44694286Y5549285D02*
X-44765714Y5692142D01*
X-44765714Y5692142D02*
X-44765714Y6120714D01*
X-44765714Y6120714D02*
X-44694286Y6263571D01*
X-44694286Y6263571D02*
X-44622857Y6335000D01*
X-44622857Y6335000D02*
X-44480000Y6406428D01*
X-44480000Y6406428D02*
X-44265714Y6406428D01*
X-44265714Y6406428D02*
X-44122857Y6335000D01*
X-44122857Y6335000D02*
X-44051429Y6263571D01*
X-44051429Y6263571D02*
X-43980000Y6120714D01*
X-43980000Y6120714D02*
X-43980000Y5692142D01*
X-43980000Y5692142D02*
X-44051429Y5549285D01*
X-44051429Y5549285D02*
X-44122857Y5477857D01*
X-44122857Y5477857D02*
X-44265714Y5406428D01*
X-44265714Y5406428D02*
X-44480000Y5406428D01*
X-43122857Y5406428D02*
X-43265714Y5477857D01*
X-43265714Y5477857D02*
X-43337143Y5549285D01*
X-43337143Y5549285D02*
X-43408571Y5692142D01*
X-43408571Y5692142D02*
X-43408571Y6120714D01*
X-43408571Y6120714D02*
X-43337143Y6263571D01*
X-43337143Y6263571D02*
X-43265714Y6335000D01*
X-43265714Y6335000D02*
X-43122857Y6406428D01*
X-43122857Y6406428D02*
X-42908571Y6406428D01*
X-42908571Y6406428D02*
X-42765714Y6335000D01*
X-42765714Y6335000D02*
X-42694286Y6263571D01*
X-42694286Y6263571D02*
X-42622857Y6120714D01*
X-42622857Y6120714D02*
X-42622857Y5692142D01*
X-42622857Y5692142D02*
X-42694286Y5549285D01*
X-42694286Y5549285D02*
X-42765714Y5477857D01*
X-42765714Y5477857D02*
X-42908571Y5406428D01*
X-42908571Y5406428D02*
X-43122857Y5406428D01*
X-42194285Y6406428D02*
X-41622857Y6406428D01*
X-41980000Y6906428D02*
X-41980000Y5620714D01*
X-41980000Y5620714D02*
X-41908571Y5477857D01*
X-41908571Y5477857D02*
X-41765714Y5406428D01*
X-41765714Y5406428D02*
X-41622857Y5406428D01*
X-41122857Y6406428D02*
X-41122857Y4906428D01*
X-41122857Y6335000D02*
X-40980000Y6406428D01*
X-40980000Y6406428D02*
X-40694285Y6406428D01*
X-40694285Y6406428D02*
X-40551428Y6335000D01*
X-40551428Y6335000D02*
X-40480000Y6263571D01*
X-40480000Y6263571D02*
X-40408571Y6120714D01*
X-40408571Y6120714D02*
X-40408571Y5692142D01*
X-40408571Y5692142D02*
X-40480000Y5549285D01*
X-40480000Y5549285D02*
X-40551428Y5477857D01*
X-40551428Y5477857D02*
X-40694285Y5406428D01*
X-40694285Y5406428D02*
X-40980000Y5406428D01*
X-40980000Y5406428D02*
X-41122857Y5477857D01*
X-39765714Y5406428D02*
X-39765714Y6406428D01*
X-39765714Y6120714D02*
X-39694285Y6263571D01*
X-39694285Y6263571D02*
X-39622857Y6335000D01*
X-39622857Y6335000D02*
X-39479999Y6406428D01*
X-39479999Y6406428D02*
X-39337142Y6406428D01*
X-38837143Y5406428D02*
X-38837143Y6406428D01*
X-38837143Y6906428D02*
X-38908571Y6835000D01*
X-38908571Y6835000D02*
X-38837143Y6763571D01*
X-38837143Y6763571D02*
X-38765714Y6835000D01*
X-38765714Y6835000D02*
X-38837143Y6906428D01*
X-38837143Y6906428D02*
X-38837143Y6763571D01*
X-38122857Y6406428D02*
X-38122857Y5406428D01*
X-38122857Y6263571D02*
X-38051428Y6335000D01*
X-38051428Y6335000D02*
X-37908571Y6406428D01*
X-37908571Y6406428D02*
X-37694285Y6406428D01*
X-37694285Y6406428D02*
X-37551428Y6335000D01*
X-37551428Y6335000D02*
X-37480000Y6192142D01*
X-37480000Y6192142D02*
X-37480000Y5406428D01*
X-36979999Y6406428D02*
X-36408571Y6406428D01*
X-36765714Y6906428D02*
X-36765714Y5620714D01*
X-36765714Y5620714D02*
X-36694285Y5477857D01*
X-36694285Y5477857D02*
X-36551428Y5406428D01*
X-36551428Y5406428D02*
X-36408571Y5406428D01*
X-35008571Y5977857D02*
X-33865714Y5977857D01*
X-32251428Y5406428D02*
X-32251428Y6906428D01*
X-32108571Y5977857D02*
X-31679999Y5406428D01*
X-31679999Y6406428D02*
X-32251428Y5835000D01*
X-30465713Y5477857D02*
X-30608570Y5406428D01*
X-30608570Y5406428D02*
X-30894285Y5406428D01*
X-30894285Y5406428D02*
X-31037142Y5477857D01*
X-31037142Y5477857D02*
X-31108570Y5620714D01*
X-31108570Y5620714D02*
X-31108570Y6192142D01*
X-31108570Y6192142D02*
X-31037142Y6335000D01*
X-31037142Y6335000D02*
X-30894285Y6406428D01*
X-30894285Y6406428D02*
X-30608570Y6406428D01*
X-30608570Y6406428D02*
X-30465713Y6335000D01*
X-30465713Y6335000D02*
X-30394285Y6192142D01*
X-30394285Y6192142D02*
X-30394285Y6049285D01*
X-30394285Y6049285D02*
X-31108570Y5906428D01*
X-29751428Y5406428D02*
X-29751428Y6406428D01*
X-29751428Y6906428D02*
X-29822856Y6835000D01*
X-29822856Y6835000D02*
X-29751428Y6763571D01*
X-29751428Y6763571D02*
X-29679999Y6835000D01*
X-29679999Y6835000D02*
X-29751428Y6906428D01*
X-29751428Y6906428D02*
X-29751428Y6763571D01*
X-29037142Y6406428D02*
X-29037142Y5406428D01*
X-29037142Y6263571D02*
X-28965713Y6335000D01*
X-28965713Y6335000D02*
X-28822856Y6406428D01*
X-28822856Y6406428D02*
X-28608570Y6406428D01*
X-28608570Y6406428D02*
X-28465713Y6335000D01*
X-28465713Y6335000D02*
X-28394285Y6192142D01*
X-28394285Y6192142D02*
X-28394285Y5406428D01*
X-26994284Y6406428D02*
X-26422856Y6406428D01*
X-26779999Y6906428D02*
X-26779999Y5620714D01*
X-26779999Y5620714D02*
X-26708570Y5477857D01*
X-26708570Y5477857D02*
X-26565713Y5406428D01*
X-26565713Y5406428D02*
X-26422856Y5406428D01*
X-25922856Y5406428D02*
X-25922856Y6406428D01*
X-25922856Y6120714D02*
X-25851427Y6263571D01*
X-25851427Y6263571D02*
X-25779999Y6335000D01*
X-25779999Y6335000D02*
X-25637141Y6406428D01*
X-25637141Y6406428D02*
X-25494284Y6406428D01*
X-24994285Y5406428D02*
X-24994285Y6906428D01*
X-24351428Y5406428D02*
X-24351428Y6192142D01*
X-24351428Y6192142D02*
X-24422856Y6335000D01*
X-24422856Y6335000D02*
X-24565713Y6406428D01*
X-24565713Y6406428D02*
X-24779999Y6406428D01*
X-24779999Y6406428D02*
X-24922856Y6335000D01*
X-24922856Y6335000D02*
X-24994285Y6263571D01*
X-23637142Y5406428D02*
X-23637142Y6406428D01*
X-23637142Y6906428D02*
X-23708570Y6835000D01*
X-23708570Y6835000D02*
X-23637142Y6763571D01*
X-23637142Y6763571D02*
X-23565713Y6835000D01*
X-23565713Y6835000D02*
X-23637142Y6906428D01*
X-23637142Y6906428D02*
X-23637142Y6763571D01*
X-22708570Y5406428D02*
X-22851427Y5477857D01*
X-22851427Y5477857D02*
X-22922856Y5549285D01*
X-22922856Y5549285D02*
X-22994284Y5692142D01*
X-22994284Y5692142D02*
X-22994284Y6120714D01*
X-22994284Y6120714D02*
X-22922856Y6263571D01*
X-22922856Y6263571D02*
X-22851427Y6335000D01*
X-22851427Y6335000D02*
X-22708570Y6406428D01*
X-22708570Y6406428D02*
X-22494284Y6406428D01*
X-22494284Y6406428D02*
X-22351427Y6335000D01*
X-22351427Y6335000D02*
X-22279999Y6263571D01*
X-22279999Y6263571D02*
X-22208570Y6120714D01*
X-22208570Y6120714D02*
X-22208570Y5692142D01*
X-22208570Y5692142D02*
X-22279999Y5549285D01*
X-22279999Y5549285D02*
X-22351427Y5477857D01*
X-22351427Y5477857D02*
X-22494284Y5406428D01*
X-22494284Y5406428D02*
X-22708570Y5406428D01*
X-20922856Y6406428D02*
X-20922856Y5406428D01*
X-21565713Y6406428D02*
X-21565713Y5620714D01*
X-21565713Y5620714D02*
X-21494284Y5477857D01*
X-21494284Y5477857D02*
X-21351427Y5406428D01*
X-21351427Y5406428D02*
X-21137141Y5406428D01*
X-21137141Y5406428D02*
X-20994284Y5477857D01*
X-20994284Y5477857D02*
X-20922856Y5549285D01*
X-19565713Y6406428D02*
X-19565713Y5192142D01*
X-19565713Y5192142D02*
X-19637141Y5049285D01*
X-19637141Y5049285D02*
X-19708570Y4977857D01*
X-19708570Y4977857D02*
X-19851427Y4906428D01*
X-19851427Y4906428D02*
X-20065713Y4906428D01*
X-20065713Y4906428D02*
X-20208570Y4977857D01*
X-19565713Y5477857D02*
X-19708570Y5406428D01*
X-19708570Y5406428D02*
X-19994284Y5406428D01*
X-19994284Y5406428D02*
X-20137141Y5477857D01*
X-20137141Y5477857D02*
X-20208570Y5549285D01*
X-20208570Y5549285D02*
X-20279998Y5692142D01*
X-20279998Y5692142D02*
X-20279998Y6120714D01*
X-20279998Y6120714D02*
X-20208570Y6263571D01*
X-20208570Y6263571D02*
X-20137141Y6335000D01*
X-20137141Y6335000D02*
X-19994284Y6406428D01*
X-19994284Y6406428D02*
X-19708570Y6406428D01*
X-19708570Y6406428D02*
X-19565713Y6335000D01*
X-18851427Y5406428D02*
X-18851427Y6906428D01*
X-18208570Y5406428D02*
X-18208570Y6192142D01*
X-18208570Y6192142D02*
X-18279998Y6335000D01*
X-18279998Y6335000D02*
X-18422855Y6406428D01*
X-18422855Y6406428D02*
X-18637141Y6406428D01*
X-18637141Y6406428D02*
X-18779998Y6335000D01*
X-18779998Y6335000D02*
X-18851427Y6263571D01*
X-16594284Y5406428D02*
X-16594284Y6906428D01*
X-15951427Y5406428D02*
X-15951427Y6192142D01*
X-15951427Y6192142D02*
X-16022855Y6335000D01*
X-16022855Y6335000D02*
X-16165712Y6406428D01*
X-16165712Y6406428D02*
X-16379998Y6406428D01*
X-16379998Y6406428D02*
X-16522855Y6335000D01*
X-16522855Y6335000D02*
X-16594284Y6263571D01*
X-15022855Y5406428D02*
X-15165712Y5477857D01*
X-15165712Y5477857D02*
X-15237141Y5549285D01*
X-15237141Y5549285D02*
X-15308569Y5692142D01*
X-15308569Y5692142D02*
X-15308569Y6120714D01*
X-15308569Y6120714D02*
X-15237141Y6263571D01*
X-15237141Y6263571D02*
X-15165712Y6335000D01*
X-15165712Y6335000D02*
X-15022855Y6406428D01*
X-15022855Y6406428D02*
X-14808569Y6406428D01*
X-14808569Y6406428D02*
X-14665712Y6335000D01*
X-14665712Y6335000D02*
X-14594284Y6263571D01*
X-14594284Y6263571D02*
X-14522855Y6120714D01*
X-14522855Y6120714D02*
X-14522855Y5692142D01*
X-14522855Y5692142D02*
X-14594284Y5549285D01*
X-14594284Y5549285D02*
X-14665712Y5477857D01*
X-14665712Y5477857D02*
X-14808569Y5406428D01*
X-14808569Y5406428D02*
X-15022855Y5406428D01*
X-13665712Y5406428D02*
X-13808569Y5477857D01*
X-13808569Y5477857D02*
X-13879998Y5620714D01*
X-13879998Y5620714D02*
X-13879998Y6906428D01*
X-12522855Y5477857D02*
X-12665712Y5406428D01*
X-12665712Y5406428D02*
X-12951427Y5406428D01*
X-12951427Y5406428D02*
X-13094284Y5477857D01*
X-13094284Y5477857D02*
X-13165712Y5620714D01*
X-13165712Y5620714D02*
X-13165712Y6192142D01*
X-13165712Y6192142D02*
X-13094284Y6335000D01*
X-13094284Y6335000D02*
X-12951427Y6406428D01*
X-12951427Y6406428D02*
X-12665712Y6406428D01*
X-12665712Y6406428D02*
X-12522855Y6335000D01*
X-12522855Y6335000D02*
X-12451427Y6192142D01*
X-12451427Y6192142D02*
X-12451427Y6049285D01*
X-12451427Y6049285D02*
X-13165712Y5906428D01*
D12*
%TO.P,J13,1,Pin_1*%
%TO.N,unconnected-(J13-Pin_1-Pad1)*%
X-20319999Y-134619999D03*
D13*
%TO.P,J13,2,Pin_2*%
%TO.N,unconnected-(J13-Pin_2-Pad2)*%
X-20319999Y-132079999D03*
%TO.P,J13,3,Pin_3*%
%TO.N,D11*%
X-20319999Y-129539999D03*
%TO.P,J13,4,Pin_4*%
%TO.N,D12*%
X-20319999Y-126999999D03*
%TO.P,J13,5,Pin_5*%
%TO.N,GND*%
X-20319999Y-124459999D03*
%TO.P,J13,6,Pin_6*%
%TO.N,AREF*%
X-20319999Y-121919999D03*
%TO.P,J13,7,Pin_7*%
%TO.N,SDA*%
X-20319999Y-119379999D03*
%TO.P,J13,8,Pin_8*%
%TO.N,SCL*%
X-20319999Y-116839999D03*
%TO.P,J13,9,Pin_9*%
%TO.N,unconnected-(J13-Pin_9-Pad9)*%
X-20319999Y-114299999D03*
%TO.P,J13,10,Pin_10*%
%TO.N,unconnected-(J13-Pin_10-Pad10)*%
X-20319999Y-111759999D03*
%TO.P,J13,11,Pin_11*%
%TO.N,3V3*%
X-20319999Y-109219999D03*
%TO.P,J13,12,Pin_12*%
%TO.N,IORF*%
X-20319999Y-106679999D03*
%TD*%
D12*
%TO.P,J15,1,Pin_1*%
%TO.N,D53*%
X-118540514Y-49471853D03*
D13*
%TO.P,J15,2,Pin_2*%
%TO.N,D52*%
X-118540514Y-52011853D03*
%TO.P,J15,3,Pin_3*%
%TO.N,D51*%
X-118540514Y-54551853D03*
%TO.P,J15,4,Pin_4*%
%TO.N,D50*%
X-118540514Y-57091853D03*
%TO.P,J15,5,Pin_5*%
%TO.N,D47*%
X-118540514Y-59631853D03*
%TO.P,J15,6,Pin_6*%
%TO.N,D46*%
X-118540514Y-62171853D03*
%TO.P,J15,7,Pin_7*%
%TO.N,D45*%
X-118540514Y-64711853D03*
%TO.P,J15,8,Pin_8*%
%TO.N,D44*%
X-118540514Y-67251853D03*
%TO.P,J15,9,Pin_9*%
%TO.N,D43*%
X-118540514Y-69791853D03*
%TO.P,J15,10,Pin_10*%
%TO.N,D42*%
X-118540514Y-72331853D03*
%TO.P,J15,11,Pin_11*%
%TO.N,D41*%
X-118540514Y-74871853D03*
%TO.P,J15,12,Pin_12*%
%TO.N,D40*%
X-118540514Y-77411853D03*
%TD*%
D12*
%TO.P,J14,1,Pin_1*%
%TO.N,Net-(A1-SPI_GND)*%
X-21492353Y-64080078D03*
D13*
%TO.P,J14,2,Pin_2*%
%TO.N,Net-(A1-SPI_5V)*%
X-21492353Y-66620078D03*
%TO.P,J14,3,Pin_3*%
%TO.N,Net-(A1-SPI_RESET)*%
X-21492353Y-69160078D03*
%TO.P,J14,4,Pin_4*%
%TO.N,Net-(A1-SPI_SCK)*%
X-21492353Y-71700078D03*
%TO.P,J14,5,Pin_5*%
%TO.N,Net-(A1-SPI_MOSI)*%
X-21492353Y-74240078D03*
%TO.P,J14,6,Pin_6*%
%TO.N,Net-(A1-SPI_MISO)*%
X-21492353Y-76780078D03*
%TD*%
D14*
%TO.P,A1,VIN,VIN*%
%TO.N,7-12V*%
X-60959999Y-50799999D03*
%TO.P,A1,SDA,SDA*%
%TO.N,SDA*%
X-36575999Y-99059999D03*
%TO.P,A1,SCL,SCL*%
%TO.N,SCL*%
X-34035999Y-99059999D03*
%TO.P,A1,SCK,SPI_SCK*%
%TO.N,Net-(A1-SPI_SCK)*%
X-78866999Y-76199999D03*
%TO.P,A1,RST2,SPI_RESET*%
%TO.N,Net-(A1-SPI_RESET)*%
X-78866999Y-73659999D03*
%TO.P,A1,RST1,RESET*%
%TO.N,Net-(A1-RESET)*%
X-48259999Y-50799999D03*
%TO.P,A1,MOSI,SPI_MOSI*%
%TO.N,Net-(A1-SPI_MOSI)*%
X-81406999Y-76199999D03*
%TO.P,A1,MISO,SPI_MISO*%
%TO.N,Net-(A1-SPI_MISO)*%
X-78866999Y-78739999D03*
%TO.P,A1,IORF,IOREF*%
%TO.N,IORF*%
X-45719999Y-50799999D03*
D15*
%TO.P,A1,GND6,GND*%
%TO.N,GND*%
X-111759999Y-55879999D03*
%TO.P,A1,GND5,GND*%
X-109219999Y-55879999D03*
%TO.P,A1,GND4,SPI_GND*%
%TO.N,Net-(A1-SPI_GND)*%
X-81406999Y-73659999D03*
%TO.P,A1,GND3,GND*%
%TO.N,GND*%
X-58419999Y-50799999D03*
%TO.P,A1,GND2,GND*%
X-55879999Y-50799999D03*
%TO.P,A1,GND1,GND*%
X-41655999Y-99059999D03*
D14*
%TO.P,A1,D53,D53_CS*%
%TO.N,D53*%
X-111759999Y-58419999D03*
%TO.P,A1,D52,D52_SCK*%
%TO.N,D52*%
X-109219999Y-58419999D03*
%TO.P,A1,D51,D51_MOSI*%
%TO.N,D51*%
X-111759999Y-60959999D03*
%TO.P,A1,D50,D50_MISO*%
%TO.N,D50*%
X-109219999Y-60959999D03*
%TO.P,A1,D49,D49*%
%TO.N,D49*%
X-111759999Y-63499999D03*
%TO.P,A1,D48,D48*%
%TO.N,D48*%
X-109219999Y-63499999D03*
%TO.P,A1,D47,D47*%
%TO.N,D47*%
X-111759999Y-66039999D03*
%TO.P,A1,D46,D46*%
%TO.N,D46*%
X-109219999Y-66039999D03*
%TO.P,A1,D45,D45*%
%TO.N,D45*%
X-111759999Y-68579999D03*
%TO.P,A1,D44,D44*%
%TO.N,D44*%
X-109219999Y-68579999D03*
%TO.P,A1,D43,D43*%
%TO.N,D43*%
X-111759999Y-71119999D03*
%TO.P,A1,D42,D42*%
%TO.N,D42*%
X-109219999Y-71119999D03*
%TO.P,A1,D41,D41*%
%TO.N,D41*%
X-111759999Y-73659999D03*
%TO.P,A1,D40,D40*%
%TO.N,D40*%
X-109219999Y-73659999D03*
%TO.P,A1,D39,D39*%
%TO.N,D39*%
X-111759999Y-76199999D03*
%TO.P,A1,D38,D38*%
%TO.N,D38*%
X-109219999Y-76199999D03*
%TO.P,A1,D37,D37*%
%TO.N,D37*%
X-111759999Y-78739999D03*
%TO.P,A1,D36,D36*%
%TO.N,Net-(SW16-B)*%
X-109219999Y-78739999D03*
%TO.P,A1,D35,D35*%
%TO.N,Net-(SW17-B)*%
X-111759999Y-81279999D03*
%TO.P,A1,D34,D34*%
%TO.N,Net-(SW15-B)*%
X-109219999Y-81279999D03*
%TO.P,A1,D33,D33*%
%TO.N,Net-(SW14-B)*%
X-111759999Y-83819999D03*
%TO.P,A1,D32,D32*%
%TO.N,Net-(SW13-B)*%
X-109219999Y-83819999D03*
%TO.P,A1,D31,D31*%
%TO.N,Net-(SW1-B)*%
X-111759999Y-86359999D03*
%TO.P,A1,D30,D30*%
%TO.N,Net-(A1-PadD30)*%
X-109219999Y-86359999D03*
%TO.P,A1,D29,D29*%
%TO.N,Net-(A1-PadD29)*%
X-111759999Y-88899999D03*
%TO.P,A1,D28,D28*%
%TO.N,Net-(A1-PadD28)*%
X-109219999Y-88899999D03*
%TO.P,A1,D27,D27*%
%TO.N,Net-(A1-PadD27)*%
X-111759999Y-91439999D03*
%TO.P,A1,D26,D26*%
%TO.N,Net-(A1-PadD26)*%
X-109219999Y-91439999D03*
%TO.P,A1,D25,D25*%
%TO.N,Net-(A1-PadD25)*%
X-111759999Y-93979999D03*
%TO.P,A1,D24,D24*%
%TO.N,Net-(A1-PadD24)*%
X-109219999Y-93979999D03*
%TO.P,A1,D23,D23*%
%TO.N,Net-(A1-PadD23)*%
X-111759999Y-96519999D03*
%TO.P,A1,D22,D22*%
%TO.N,Net-(A1-PadD22)*%
X-109219999Y-96519999D03*
%TO.P,A1,D21,D21/SCL*%
%TO.N,unconnected-(A1-D21{slash}SCL-PadD21)*%
X-101599999Y-99059999D03*
%TO.P,A1,D20,D20/SDA*%
%TO.N,unconnected-(A1-D20{slash}SDA-PadD20)*%
X-99059999Y-99059999D03*
%TO.P,A1,D19,D19/RX1*%
%TO.N,unconnected-(A1-D19{slash}RX1-PadD19)*%
X-96519999Y-99059999D03*
%TO.P,A1,D18,D18/TX1*%
%TO.N,unconnected-(A1-D18{slash}TX1-PadD18)*%
X-93979999Y-99059999D03*
%TO.P,A1,D17,D17/RX2*%
%TO.N,unconnected-(A1-D17{slash}RX2-PadD17)*%
X-91439999Y-99059999D03*
%TO.P,A1,D16,D16/TX2*%
%TO.N,unconnected-(A1-D16{slash}TX2-PadD16)*%
X-88899999Y-99059999D03*
%TO.P,A1,D15,D15/RX3*%
%TO.N,unconnected-(A1-D15{slash}RX3-PadD15)*%
X-86359999Y-99059999D03*
%TO.P,A1,D14,D14/TX3*%
%TO.N,unconnected-(A1-D14{slash}TX3-PadD14)*%
X-83819999Y-99059999D03*
%TO.P,A1,D13,D13*%
%TO.N,Net-(A1-PadD13)*%
X-44195999Y-99059999D03*
%TO.P,A1,D12,D12*%
%TO.N,D12*%
X-46735999Y-99059999D03*
%TO.P,A1,D11,D11*%
%TO.N,D11*%
X-49275999Y-99059999D03*
%TO.P,A1,D10,D10*%
%TO.N,Net-(J5-Pin_1)*%
X-51815999Y-99059999D03*
%TO.P,A1,D9,D9*%
%TO.N,Net-(J4-Pin_1)*%
X-54355999Y-99059999D03*
%TO.P,A1,D8,D8*%
%TO.N,Net-(A1-PadD8)*%
X-56895999Y-99059999D03*
%TO.P,A1,D7,D7*%
%TO.N,Net-(A1-PadD7)*%
X-60959999Y-99059999D03*
%TO.P,A1,D6,D6*%
%TO.N,Net-(A1-PadD6)*%
X-63499999Y-99059999D03*
%TO.P,A1,D5,D5*%
%TO.N,Net-(A1-PadD5)*%
X-66039999Y-99059999D03*
%TO.P,A1,D4,D4*%
%TO.N,Net-(A1-PadD4)*%
X-68579999Y-99059999D03*
%TO.P,A1,D3,D3_INT1*%
%TO.N,D3*%
X-71119999Y-99059999D03*
%TO.P,A1,D2,D2_INT0*%
%TO.N,D2*%
X-73659999Y-99059999D03*
%TO.P,A1,D1,D1/TX0*%
%TO.N,unconnected-(A1-D1{slash}TX0-PadD1)*%
X-76199999Y-99059999D03*
%TO.P,A1,D0,D0/RX0*%
%TO.N,unconnected-(A1-D0{slash}RX0-PadD0)*%
X-78739999Y-99059999D03*
%TO.P,A1,AREF,AREF*%
%TO.N,AREF*%
X-39115999Y-99059999D03*
%TO.P,A1,A15,A15*%
%TO.N,Net-(A1-PadA15)*%
X-106679999Y-50799999D03*
%TO.P,A1,A14,A14*%
%TO.N,Net-(A1-PadA14)*%
X-104139999Y-50799999D03*
%TO.P,A1,A13,A13*%
%TO.N,Net-(A1-PadA13)*%
X-101599999Y-50799999D03*
%TO.P,A1,A12,A12*%
%TO.N,Net-(A1-PadA12)*%
X-99059999Y-50799999D03*
%TO.P,A1,A11,A11*%
%TO.N,Net-(A1-PadA11)*%
X-96519999Y-50799999D03*
%TO.P,A1,A10,A10*%
%TO.N,Net-(A1-PadA10)*%
X-93979999Y-50799999D03*
%TO.P,A1,A9,A9*%
%TO.N,Net-(A1-PadA9)*%
X-91439999Y-50799999D03*
%TO.P,A1,A8,A8*%
%TO.N,Net-(A1-PadA8)*%
X-88899999Y-50799999D03*
%TO.P,A1,A7,A7*%
%TO.N,Net-(A1-PadA7)*%
X-83819999Y-50799999D03*
%TO.P,A1,A6,A6*%
%TO.N,Net-(A1-PadA6)*%
X-81279999Y-50799999D03*
%TO.P,A1,A5,A5*%
%TO.N,Net-(J1-Pin_5)*%
X-78739999Y-50799999D03*
%TO.P,A1,A4,A4*%
%TO.N,Net-(J9-Pin_3)*%
X-76199999Y-50799999D03*
%TO.P,A1,A3,A3*%
%TO.N,Net-(J8-Pin_3)*%
X-73659999Y-50799999D03*
%TO.P,A1,A2,A2*%
%TO.N,Net-(J2-Pin_5)*%
X-71119999Y-50799999D03*
%TO.P,A1,A1,A1*%
%TO.N,Net-(J6-Pin_3)*%
X-68579999Y-50799999D03*
%TO.P,A1,A0,A0*%
%TO.N,Net-(J7-Pin_3)*%
X-66039999Y-50799999D03*
%TO.P,A1,5V4,5V*%
%TO.N,5V*%
X-111759999Y-99059999D03*
%TO.P,A1,5V3,5V*%
X-109219999Y-99059999D03*
%TO.P,A1,5V2,SPI_5V*%
%TO.N,Net-(A1-SPI_5V)*%
X-81406999Y-78739999D03*
%TO.P,A1,5V1,5V*%
%TO.N,5V*%
X-53339999Y-50799999D03*
%TO.P,A1,3V3,3.3V*%
%TO.N,3V3*%
X-50799999Y-50799999D03*
%TO.P,A1,*%
%TO.N,*%
X-43179999Y-50799999D03*
%TD*%
D16*
%TO.P,SW17,1,A*%
%TO.N,GND*%
X-172719999Y-15239999D03*
D17*
%TO.P,SW17,2,B*%
%TO.N,Net-(SW17-B)*%
X-172720000Y-10160000D03*
%TO.P,SW17,3,C*%
%TO.N,unconnected-(SW17-C-Pad3)*%
X-172720000Y-5080000D03*
%TD*%
%TO.P,SW16,3,C*%
%TO.N,unconnected-(SW16-C-Pad3)*%
X-142240000Y-5080000D03*
%TO.P,SW16,2,B*%
%TO.N,Net-(SW16-B)*%
X-142240000Y-10160000D03*
D16*
%TO.P,SW16,1,A*%
%TO.N,GND*%
X-142239999Y-15239999D03*
%TD*%
%TO.P,SW15,1,A*%
%TO.N,GND*%
X-157479999Y-15239999D03*
D17*
%TO.P,SW15,2,B*%
%TO.N,Net-(SW15-B)*%
X-157480000Y-10160000D03*
%TO.P,SW15,3,C*%
%TO.N,unconnected-(SW15-C-Pad3)*%
X-157480000Y-5080000D03*
%TD*%
D16*
%TO.P,SW14,1,A*%
%TO.N,GND*%
X-203199999Y-15239999D03*
D17*
%TO.P,SW14,2,B*%
%TO.N,Net-(SW14-B)*%
X-203200000Y-10160000D03*
%TO.P,SW14,3,C*%
%TO.N,unconnected-(SW14-C-Pad3)*%
X-203200000Y-5080000D03*
%TD*%
D16*
%TO.P,SW13,1,A*%
%TO.N,GND*%
X-187959999Y-15239999D03*
D17*
%TO.P,SW13,2,B*%
%TO.N,Net-(SW13-B)*%
X-187960000Y-10160000D03*
%TO.P,SW13,3,C*%
%TO.N,unconnected-(SW13-C-Pad3)*%
X-187960000Y-5080000D03*
%TD*%
D16*
%TO.P,SW1,1,A*%
%TO.N,GND*%
X-218439999Y-15239999D03*
D17*
%TO.P,SW1,2,B*%
%TO.N,Net-(SW1-B)*%
X-218440000Y-10160000D03*
%TO.P,SW1,3,C*%
%TO.N,unconnected-(SW1-C-Pad3)*%
X-218440000Y-5080000D03*
%TD*%
D18*
%TO.P,SW5,1,1*%
%TO.N,Net-(A1-PadD24)*%
X-128080429Y-145661307D03*
D19*
%TO.P,SW5,2,2*%
%TO.N,GND*%
X-125580428Y-145661306D03*
%TD*%
D18*
%TO.P,SW4,1,1*%
%TO.N,Net-(A1-PadD23)*%
X-128080429Y-131199771D03*
D19*
%TO.P,SW4,2,2*%
%TO.N,GND*%
X-125580428Y-131199770D03*
%TD*%
D18*
%TO.P,SW3,1,1*%
%TO.N,Net-(A1-PadD22)*%
X-128080429Y-115761307D03*
D19*
%TO.P,SW3,2,2*%
%TO.N,GND*%
X-125580428Y-115761306D03*
%TD*%
D20*
%TO.P,SW6,1,1*%
%TO.N,GND*%
X-25999730Y-35277234D03*
D21*
%TO.P,SW6,2,2*%
%TO.N,Net-(A1-RESET)*%
X-25999729Y-37777233D03*
%TD*%
D22*
%TO.P,R6,1*%
%TO.N,Net-(A1-PadD13)*%
X-116840000Y-92249283D03*
D23*
%TO.P,R6,2*%
%TO.N,Net-(D1-A)*%
X-121919999Y-92249282D03*
%TD*%
D22*
%TO.P,R5,1*%
%TO.N,Net-(A1-PadD8)*%
X-50800000Y-40640000D03*
D23*
%TO.P,R5,2*%
%TO.N,Net-(D4-A)*%
X-45719999Y-40639999D03*
%TD*%
%TO.P,R4,2*%
%TO.N,Net-(D2-BK)*%
X-121918787Y-98260331D03*
D22*
%TO.P,R4,1*%
%TO.N,Net-(A1-PadD6)*%
X-116838788Y-98260332D03*
%TD*%
%TO.P,R3,1*%
%TO.N,Net-(A1-PadD5)*%
X-116840000Y-102409283D03*
D23*
%TO.P,R3,2*%
%TO.N,Net-(D2-GK)*%
X-121919999Y-102409282D03*
%TD*%
%TO.P,R2,2*%
%TO.N,Net-(D2-RK)*%
X-121919999Y-106679999D03*
D22*
%TO.P,R2,1*%
%TO.N,Net-(A1-PadD4)*%
X-116840000Y-106680000D03*
%TD*%
%TO.P,R1,1*%
%TO.N,Net-(A1-PadD7)*%
X-50800000Y-30480000D03*
D23*
%TO.P,R1,2*%
%TO.N,Net-(D3-A)*%
X-45719999Y-30479999D03*
%TD*%
D24*
%TO.P,J3,1,Pin_1*%
%TO.N,Net-(J3-Pin_1)*%
X-60959999Y-25399999D03*
D25*
%TO.P,J3,2,Pin_2*%
%TO.N,Net-(J3-Pin_2)*%
X-60960000Y-30480000D03*
%TD*%
D26*
%TO.P,RV13,1,1*%
%TO.N,GND*%
X-127000000Y-172720000D03*
%TO.P,RV13,2,2*%
%TO.N,Net-(A1-PadA15)*%
X-129540000Y-175260000D03*
%TO.P,RV13,3,3*%
%TO.N,5V*%
X-132080000Y-172720000D03*
%TD*%
%TO.P,RV12,1,1*%
%TO.N,GND*%
X-111760000Y-172720000D03*
%TO.P,RV12,2,2*%
%TO.N,Net-(A1-PadA14)*%
X-114300000Y-175260000D03*
%TO.P,RV12,3,3*%
%TO.N,5V*%
X-116840000Y-172720000D03*
%TD*%
%TO.P,RV11,1,1*%
%TO.N,GND*%
X-96520000Y-172720000D03*
%TO.P,RV11,2,2*%
%TO.N,Net-(A1-PadA13)*%
X-99060000Y-175260000D03*
%TO.P,RV11,3,3*%
%TO.N,5V*%
X-101600000Y-172720000D03*
%TD*%
%TO.P,RV7,1,1*%
%TO.N,GND*%
X-142240000Y-172720000D03*
%TO.P,RV7,2,2*%
%TO.N,Net-(A1-PadA12)*%
X-144780000Y-175260000D03*
%TO.P,RV7,3,3*%
%TO.N,5V*%
X-147320000Y-172720000D03*
%TD*%
D27*
%TO.P,RV6,*%
%TO.N,*%
X-123952000Y-55880000D03*
X-132752000Y-55880000D03*
D28*
%TO.P,RV6,1,1*%
%TO.N,GND*%
X-130852000Y-48880000D03*
%TO.P,RV6,2,2*%
%TO.N,Net-(A1-PadA11)*%
X-128352000Y-48880000D03*
%TO.P,RV6,3,3*%
%TO.N,5V*%
X-125852000Y-48880000D03*
%TD*%
D27*
%TO.P,RV5,*%
%TO.N,*%
X-142240000Y-55880000D03*
X-151040000Y-55880000D03*
D28*
%TO.P,RV5,1,1*%
%TO.N,GND*%
X-149140000Y-48880000D03*
%TO.P,RV5,2,2*%
%TO.N,Net-(A1-PadA10)*%
X-146640000Y-48880000D03*
%TO.P,RV5,3,3*%
%TO.N,5V*%
X-144140000Y-48880000D03*
%TD*%
D27*
%TO.P,RV4,*%
%TO.N,*%
X-160528000Y-55880000D03*
X-169328000Y-55880000D03*
D28*
%TO.P,RV4,1,1*%
%TO.N,GND*%
X-167428000Y-48880000D03*
%TO.P,RV4,2,2*%
%TO.N,Net-(A1-PadA9)*%
X-164928000Y-48880000D03*
%TO.P,RV4,3,3*%
%TO.N,5V*%
X-162428000Y-48880000D03*
%TD*%
D27*
%TO.P,RV3,*%
%TO.N,*%
X-178816000Y-55880000D03*
X-187616000Y-55880000D03*
D28*
%TO.P,RV3,1,1*%
%TO.N,GND*%
X-185716000Y-48880000D03*
%TO.P,RV3,2,2*%
%TO.N,Net-(A1-PadA8)*%
X-183216000Y-48880000D03*
%TO.P,RV3,3,3*%
%TO.N,5V*%
X-180716000Y-48880000D03*
%TD*%
D27*
%TO.P,RV2,*%
%TO.N,*%
X-197104000Y-55880000D03*
X-205904000Y-55880000D03*
D28*
%TO.P,RV2,1,1*%
%TO.N,GND*%
X-204004000Y-48880000D03*
%TO.P,RV2,2,2*%
%TO.N,Net-(A1-PadA7)*%
X-201504000Y-48880000D03*
%TO.P,RV2,3,3*%
%TO.N,5V*%
X-199004000Y-48880000D03*
%TD*%
%TO.P,RV1,3,3*%
%TO.N,5V*%
X-217292000Y-48880000D03*
%TO.P,RV1,2,2*%
%TO.N,Net-(A1-PadA6)*%
X-219792000Y-48880000D03*
%TO.P,RV1,1,1*%
%TO.N,GND*%
X-222292000Y-48880000D03*
D27*
%TO.P,RV1,*%
%TO.N,*%
X-224192000Y-55880000D03*
X-215392000Y-55880000D03*
%TD*%
D29*
%TO.P,SW2,3*%
%TO.N,N/C*%
X-48680000Y-15160000D03*
%TO.P,SW2,2,2*%
%TO.N,GND*%
X-55880000Y-15160000D03*
%TO.P,SW2,1,1*%
%TO.N,Net-(A1-PadD25)*%
X-48680000Y-10160000D03*
X-55880000Y-10160000D03*
%TD*%
D28*
%TO.P,D3,2,A*%
%TO.N,Net-(D3-A)*%
X-40818345Y-30571326D03*
D30*
%TO.P,D3,1,K*%
%TO.N,GND*%
X-38278344Y-30571325D03*
%TD*%
D31*
%TO.P,D2,1,RK*%
%TO.N,Net-(D2-RK)*%
X-126999999Y-106679999D03*
D32*
%TO.P,D2,2,GK*%
%TO.N,Net-(D2-GK)*%
X-126999999Y-105409999D03*
%TO.P,D2,3,A*%
%TO.N,GND*%
X-126999999Y-104139999D03*
%TO.P,D2,4,BK*%
%TO.N,Net-(D2-BK)*%
X-126999999Y-102869999D03*
%TD*%
D29*
%TO.P,SW11,3*%
%TO.N,N/C*%
X-123379332Y-15123047D03*
%TO.P,SW11,2,2*%
%TO.N,GND*%
X-130579332Y-15123047D03*
%TO.P,SW11,1,1*%
%TO.N,Net-(A1-PadD29)*%
X-123379332Y-10123047D03*
X-130579332Y-10123047D03*
%TD*%
D22*
%TO.P,C3,1*%
%TO.N,Net-(J2-Pin_5)*%
X-103703118Y-116840000D03*
%TO.P,C3,2*%
%TO.N,GND*%
X-103703118Y-119340000D03*
%TD*%
D30*
%TO.P,D4,1,K*%
%TO.N,GND*%
X-38308868Y-40639999D03*
D28*
%TO.P,D4,2,A*%
%TO.N,Net-(D4-A)*%
X-40848869Y-40640000D03*
%TD*%
D29*
%TO.P,SW8,1,1*%
%TO.N,Net-(A1-PadD26)*%
X-85759734Y-10160000D03*
X-78559734Y-10160000D03*
%TO.P,SW8,2,2*%
%TO.N,GND*%
X-85759734Y-15160000D03*
%TO.P,SW8,3*%
%TO.N,N/C*%
X-78559734Y-15160000D03*
%TD*%
D33*
%TO.P,J7,3,Pin_3*%
%TO.N,Net-(J7-Pin_3)*%
X-96519999Y-148399999D03*
%TO.P,J7,2,Pin_2*%
%TO.N,5V*%
X-96519999Y-150399999D03*
D34*
%TO.P,J7,1,Pin_1*%
%TO.N,GND*%
X-96520000Y-152400000D03*
%TD*%
%TO.P,J2,1,Pin_1*%
%TO.N,GND*%
X-96520000Y-122840000D03*
D33*
%TO.P,J2,2,Pin_2*%
%TO.N,5V*%
X-96519999Y-120839999D03*
%TO.P,J2,3,Pin_3*%
%TO.N,D49*%
X-96519999Y-118839999D03*
%TO.P,J2,4,Pin_4*%
%TO.N,GND*%
X-96519999Y-116839999D03*
%TO.P,J2,5,Pin_5*%
%TO.N,Net-(J2-Pin_5)*%
X-96519999Y-114839999D03*
%TD*%
D34*
%TO.P,J9,1,Pin_1*%
%TO.N,GND*%
X-162560000Y-136080000D03*
D33*
%TO.P,J9,2,Pin_2*%
%TO.N,5V*%
X-162559999Y-134079999D03*
%TO.P,J9,3,Pin_3*%
%TO.N,Net-(J9-Pin_3)*%
X-162559999Y-132079999D03*
%TD*%
D29*
%TO.P,SW10,3*%
%TO.N,N/C*%
X-108439466Y-15160000D03*
%TO.P,SW10,2,2*%
%TO.N,GND*%
X-115639466Y-15160000D03*
%TO.P,SW10,1,1*%
%TO.N,Net-(A1-PadD28)*%
X-108439466Y-10160000D03*
X-115639466Y-10160000D03*
%TD*%
D18*
%TO.P,J11,1,Pin_1*%
%TO.N,GND*%
X-63460000Y-40640000D03*
D19*
%TO.P,J11,2,Pin_2*%
%TO.N,7-12V*%
X-60959999Y-40639999D03*
%TD*%
D28*
%TO.P,D5,2,A*%
%TO.N,7-12V*%
X-38100000Y-20320000D03*
D30*
%TO.P,D5,1,K*%
%TO.N,GND*%
X-40639999Y-20319999D03*
%TD*%
D35*
%TO.P,J12,3*%
%TO.N,Net-(J3-Pin_1)*%
X-41479999Y-5079999D03*
%TO.P,J12,2*%
%TO.N,GND*%
X-41479999Y-11079999D03*
%TO.P,J12,1*%
%TO.N,Net-(J3-Pin_2)*%
X-30479999Y-11079999D03*
X-30479999Y-5079999D03*
%TD*%
D22*
%TO.P,C17,2*%
%TO.N,GND*%
X-101600000Y-162560000D03*
%TO.P,C17,1*%
%TO.N,Net-(A1-PadA13)*%
X-104100000Y-162560000D03*
%TD*%
%TO.P,C2,1*%
%TO.N,Net-(J6-Pin_3)*%
X-103703118Y-134781657D03*
%TO.P,C2,2*%
%TO.N,GND*%
X-103703118Y-137281657D03*
%TD*%
%TO.P,C12,1*%
%TO.N,Net-(A1-PadA11)*%
X-116840000Y-45720000D03*
%TO.P,C12,2*%
%TO.N,GND*%
X-116840000Y-43220000D03*
%TD*%
D34*
%TO.P,J1,1,Pin_1*%
%TO.N,GND*%
X-162560000Y-122840000D03*
D33*
%TO.P,J1,2,Pin_2*%
%TO.N,5V*%
X-162559999Y-120839999D03*
%TO.P,J1,3,Pin_3*%
%TO.N,D48*%
X-162559999Y-118839999D03*
%TO.P,J1,4,Pin_4*%
%TO.N,GND*%
X-162559999Y-116839999D03*
%TO.P,J1,5,Pin_5*%
%TO.N,Net-(J1-Pin_5)*%
X-162559999Y-114839999D03*
%TD*%
D29*
%TO.P,SW9,3*%
%TO.N,N/C*%
X-63619868Y-15160000D03*
%TO.P,SW9,2,2*%
%TO.N,GND*%
X-70819868Y-15160000D03*
%TO.P,SW9,1,1*%
%TO.N,Net-(A1-PadD27)*%
X-63619868Y-10160000D03*
X-70819868Y-10160000D03*
%TD*%
D22*
%TO.P,C5,1*%
%TO.N,Net-(J9-Pin_3)*%
X-154503118Y-129701657D03*
%TO.P,C5,2*%
%TO.N,GND*%
X-154503118Y-132201657D03*
%TD*%
%TO.P,C8,1*%
%TO.N,Net-(A1-PadA7)*%
X-195936020Y-45720000D03*
%TO.P,C8,2*%
%TO.N,GND*%
X-195936020Y-43220000D03*
%TD*%
%TO.P,C18,1*%
%TO.N,Net-(A1-PadA14)*%
X-114260000Y-162560000D03*
%TO.P,C18,2*%
%TO.N,GND*%
X-111760000Y-162560000D03*
%TD*%
%TO.P,C7,1*%
%TO.N,Net-(A1-PadA6)*%
X-214234683Y-45649417D03*
%TO.P,C7,2*%
%TO.N,GND*%
X-214234683Y-43149417D03*
%TD*%
%TO.P,C19,1*%
%TO.N,Net-(A1-PadA15)*%
X-129500000Y-167640000D03*
%TO.P,C19,2*%
%TO.N,GND*%
X-127000000Y-167640000D03*
%TD*%
D17*
%TO.P,SW7,3,C*%
%TO.N,unconnected-(SW7-C-Pad3)*%
X-20320000Y-20320000D03*
%TO.P,SW7,2,B*%
%TO.N,Net-(J3-Pin_2)*%
X-25400000Y-20320000D03*
D16*
%TO.P,SW7,1,A*%
%TO.N,7-12V*%
X-30479999Y-20319999D03*
%TD*%
D22*
%TO.P,C13,2*%
%TO.N,GND*%
X-142240000Y-162560000D03*
%TO.P,C13,1*%
%TO.N,Net-(A1-PadA12)*%
X-144740000Y-162560000D03*
%TD*%
%TO.P,C4,1*%
%TO.N,Net-(J8-Pin_3)*%
X-154503118Y-144941657D03*
%TO.P,C4,2*%
%TO.N,GND*%
X-154503118Y-147441657D03*
%TD*%
%TO.P,C6,2*%
%TO.N,GND*%
X-154503118Y-116961657D03*
%TO.P,C6,1*%
%TO.N,Net-(J1-Pin_5)*%
X-154503118Y-114461657D03*
%TD*%
D34*
%TO.P,J8,1,Pin_1*%
%TO.N,GND*%
X-162560000Y-152400000D03*
D33*
%TO.P,J8,2,Pin_2*%
%TO.N,5V*%
X-162559999Y-150399999D03*
%TO.P,J8,3,Pin_3*%
%TO.N,Net-(J8-Pin_3)*%
X-162559999Y-148399999D03*
%TD*%
D36*
%TO.P,J4,5,Pin_5*%
%TO.N,unconnected-(J4-Pin_5-Pad5)*%
X-140239999Y5079999D03*
%TO.P,J4,4,Pin_4*%
%TO.N,GND*%
X-142239999Y5079999D03*
%TO.P,J4,3,Pin_3*%
%TO.N,7-12V*%
X-144239999Y5079999D03*
%TO.P,J4,2,Pin_2*%
%TO.N,unconnected-(J4-Pin_2-Pad2)*%
X-146239999Y5079999D03*
D37*
%TO.P,J4,1,Pin_1*%
%TO.N,Net-(J4-Pin_1)*%
X-148240000Y5080000D03*
%TD*%
D30*
%TO.P,D1,1,K*%
%TO.N,GND*%
X-128194297Y-96519999D03*
D28*
%TO.P,D1,2,A*%
%TO.N,Net-(D1-A)*%
X-125654298Y-96520000D03*
%TD*%
D22*
%TO.P,C11,2*%
%TO.N,GND*%
X-141040028Y-43235024D03*
%TO.P,C11,1*%
%TO.N,Net-(A1-PadA10)*%
X-141040028Y-45735024D03*
%TD*%
%TO.P,C1,1*%
%TO.N,Net-(J7-Pin_3)*%
X-103703118Y-150021657D03*
%TO.P,C1,2*%
%TO.N,GND*%
X-103703118Y-152521657D03*
%TD*%
D37*
%TO.P,J5,1,Pin_1*%
%TO.N,Net-(J5-Pin_1)*%
X-114680000Y5080000D03*
D36*
%TO.P,J5,2,Pin_2*%
%TO.N,unconnected-(J5-Pin_2-Pad2)*%
X-112679999Y5079999D03*
%TO.P,J5,3,Pin_3*%
%TO.N,7-12V*%
X-110679999Y5079999D03*
%TO.P,J5,4,Pin_4*%
%TO.N,GND*%
X-108679999Y5079999D03*
%TO.P,J5,5,Pin_5*%
%TO.N,unconnected-(J5-Pin_5-Pad5)*%
X-106679999Y5079999D03*
%TD*%
D29*
%TO.P,SW12,3*%
%TO.N,N/C*%
X-93499600Y-15160000D03*
%TO.P,SW12,2,2*%
%TO.N,GND*%
X-100699600Y-15160000D03*
%TO.P,SW12,1,1*%
%TO.N,Net-(A1-PadD30)*%
X-93499600Y-10160000D03*
X-100699600Y-10160000D03*
%TD*%
D22*
%TO.P,C10,1*%
%TO.N,Net-(A1-PadA9)*%
X-159338694Y-45720000D03*
%TO.P,C10,2*%
%TO.N,GND*%
X-159338694Y-43220000D03*
%TD*%
D34*
%TO.P,J6,1,Pin_1*%
%TO.N,GND*%
X-96520000Y-136080000D03*
D33*
%TO.P,J6,2,Pin_2*%
%TO.N,5V*%
X-96519999Y-134079999D03*
%TO.P,J6,3,Pin_3*%
%TO.N,Net-(J6-Pin_3)*%
X-96519999Y-132079999D03*
%TD*%
D22*
%TO.P,C9,1*%
%TO.N,Net-(A1-PadA8)*%
X-177637357Y-45720000D03*
%TO.P,C9,2*%
%TO.N,GND*%
X-177637357Y-43220000D03*
%TD*%
D38*
%TO.N,Net-(J3-Pin_2)*%
X-30415149Y-5112314D03*
%TO.N,GND*%
X-41498132Y-11063852D03*
X-120693615Y-78290373D03*
%TO.N,5V*%
X-156015566Y-64755739D03*
%TO.N,Net-(A1-PadA12)*%
X-87605681Y-92656315D03*
%TO.N,Net-(A1-PadA13)*%
X-90208382Y-91644154D03*
%TO.N,Net-(A1-PadA14)*%
X-92521894Y-93090099D03*
%TO.N,Net-(A1-PadA15)*%
X-95320039Y-95066223D03*
%TO.N,Net-(J3-Pin_2)*%
X-37081308Y-16502422D03*
X-55110698Y-22533159D03*
%TD*%
D39*
%TO.N,Net-(A1-PadD8)*%
X-50800000Y-40640000D02*
X-52124933Y-41964933D01*
X-52124933Y-41964933D02*
X-52124933Y-94288933D01*
X-52124933Y-94288933D02*
X-56896000Y-99060000D01*
%TO.N,IORF*%
X-45720000Y-50800000D02*
X-22667354Y-73852646D01*
X-22667354Y-73852646D02*
X-22667354Y-104332646D01*
X-22667354Y-104332646D02*
X-20320000Y-106680000D01*
%TO.N,3V3*%
X-50800000Y-50800000D02*
X-25400000Y-76200000D01*
X-25400000Y-76200000D02*
X-25400000Y-104140000D01*
X-25400000Y-104140000D02*
X-20320000Y-109220000D01*
%TO.N,D11*%
X-49276000Y-99060000D02*
X-49276000Y-100589584D01*
X-49276000Y-100589584D02*
X-20325584Y-129540000D01*
X-20325584Y-129540000D02*
X-20320000Y-129540000D01*
%TO.N,D12*%
X-46736000Y-99060000D02*
X-46736000Y-102493188D01*
X-46736000Y-102493188D02*
X-22229188Y-127000000D01*
X-22229188Y-127000000D02*
X-20320000Y-127000000D01*
%TO.N,GND*%
X-41656000Y-99060000D02*
X-41656000Y-106936792D01*
X-41656000Y-106936792D02*
X-24132792Y-124460000D01*
X-24132792Y-124460000D02*
X-20320000Y-124460000D01*
%TO.N,AREF*%
X-39116000Y-99060000D02*
X-39116000Y-108840396D01*
X-39116000Y-108840396D02*
X-26036396Y-121920000D01*
X-26036396Y-121920000D02*
X-20320000Y-121920000D01*
%TO.N,SDA*%
X-36576000Y-99060000D02*
X-36576000Y-110744000D01*
X-36576000Y-110744000D02*
X-27940000Y-119380000D01*
X-27940000Y-119380000D02*
X-20320000Y-119380000D01*
%TO.N,SCL*%
X-34036000Y-99060000D02*
X-34036000Y-103124000D01*
X-34036000Y-103124000D02*
X-20320000Y-116840000D01*
%TO.N,D52*%
X-118540515Y-52011854D02*
X-113398600Y-57153769D01*
X-113398600Y-57153769D02*
X-113398600Y-58462335D01*
X-113398600Y-58462335D02*
X-112204549Y-59656386D01*
X-112204549Y-59656386D02*
X-110456386Y-59656386D01*
X-110456386Y-59656386D02*
X-109220000Y-58420000D01*
%TO.N,D51*%
X-118540515Y-54551854D02*
X-112132369Y-60960000D01*
X-112132369Y-60960000D02*
X-111760000Y-60960000D01*
%TO.N,D50*%
X-118540515Y-57091854D02*
X-113320969Y-62311400D01*
X-113320969Y-62311400D02*
X-110571400Y-62311400D01*
X-110571400Y-62311400D02*
X-109220000Y-60960000D01*
%TO.N,D47*%
X-118540515Y-59631854D02*
X-112132369Y-66040000D01*
X-112132369Y-66040000D02*
X-111760000Y-66040000D01*
%TO.N,D46*%
X-118540515Y-62171854D02*
X-117309081Y-62171854D01*
X-110435063Y-67255063D02*
X-109220000Y-66040000D01*
X-117309081Y-62171854D02*
X-112225872Y-67255063D01*
X-112225872Y-67255063D02*
X-110435063Y-67255063D01*
%TO.N,D45*%
X-118540515Y-64711854D02*
X-115628146Y-64711854D01*
X-115628146Y-64711854D02*
X-111760000Y-68580000D01*
%TO.N,D44*%
X-118540515Y-67251854D02*
X-116023769Y-69768600D01*
X-116023769Y-69768600D02*
X-110408600Y-69768600D01*
X-110408600Y-69768600D02*
X-109220000Y-68580000D01*
%TO.N,D43*%
X-118540515Y-69791854D02*
X-117212369Y-71120000D01*
X-117212369Y-71120000D02*
X-111760000Y-71120000D01*
%TO.N,D42*%
X-118540515Y-72331854D02*
X-110431854Y-72331854D01*
X-110431854Y-72331854D02*
X-109220000Y-71120000D01*
%TO.N,D41*%
X-118540515Y-74871854D02*
X-117328661Y-73660000D01*
X-117328661Y-73660000D02*
X-111760000Y-73660000D01*
%TO.N,D40*%
X-118540515Y-77411854D02*
X-115977261Y-74848600D01*
X-115977261Y-74848600D02*
X-110408600Y-74848600D01*
X-110408600Y-74848600D02*
X-109220000Y-73660000D01*
%TO.N,GND*%
X-111760000Y-55880000D02*
X-116840000Y-50800000D01*
X-117365515Y-48296854D02*
X-119715515Y-48296854D01*
X-119715515Y-48296854D02*
X-120693615Y-49274954D01*
X-116840000Y-48822369D02*
X-117365515Y-48296854D01*
X-116840000Y-50800000D02*
X-116840000Y-48822369D01*
X-120693615Y-49274954D02*
X-120693615Y-78290373D01*
%TO.N,D53*%
X-118540515Y-49471854D02*
X-118540515Y-50288085D01*
X-112948600Y-57231400D02*
X-111760000Y-58420000D01*
X-118540515Y-50288085D02*
X-112948600Y-55880000D01*
X-112948600Y-55880000D02*
X-112948600Y-57231400D01*
%TO.N,Net-(SW16-B)*%
X-142240000Y-10160000D02*
X-162560000Y-30480000D01*
X-162560000Y-30480000D02*
X-213360000Y-30480000D01*
X-228600000Y-45720000D02*
X-228600000Y-66040000D01*
X-213360000Y-30480000D02*
X-228600000Y-45720000D01*
X-215161400Y-79478600D02*
X-114179535Y-79478600D01*
X-228600000Y-66040000D02*
X-215161400Y-79478600D01*
X-114179535Y-79478600D02*
X-112252335Y-77551400D01*
X-112252335Y-77551400D02*
X-110408600Y-77551400D01*
X-110408600Y-77551400D02*
X-109220000Y-78740000D01*
%TO.N,D42*%
X-109220000Y-71120000D02*
X-108764881Y-71120000D01*
%TO.N,Net-(A1-PadD30)*%
X-88610000Y-15049600D02*
X-88610000Y-20133604D01*
X-88610000Y-20133604D02*
X-95168600Y-26692204D01*
X-93499600Y-10160000D02*
X-88610000Y-15049600D01*
X-99701980Y-86360000D02*
X-109220000Y-86360000D01*
X-95168600Y-26692204D02*
X-95168600Y-81826620D01*
X-95168600Y-81826620D02*
X-99701980Y-86360000D01*
%TO.N,Net-(A1-PadD28)*%
X-108439466Y-10160000D02*
X-104259466Y-5980000D01*
X-104259466Y-5980000D02*
X-91626396Y-5980000D01*
X-91626396Y-5980000D02*
X-88160000Y-9446396D01*
X-88160000Y-9446396D02*
X-88160000Y-20320000D01*
X-88160000Y-20320000D02*
X-92712792Y-24872792D01*
X-92712792Y-24872792D02*
X-92712792Y-80007208D01*
X-92712792Y-80007208D02*
X-101605584Y-88900000D01*
X-101605584Y-88900000D02*
X-109220000Y-88900000D01*
%TO.N,Net-(A1-PadD27)*%
X-70819868Y-10160000D02*
X-63619868Y-10160000D01*
%TO.N,Net-(A1-PadD29)*%
X-123379332Y-10123047D02*
X-130579332Y-10123047D01*
%TO.N,Net-(A1-PadD26)*%
X-78559734Y-10160000D02*
X-85759734Y-10160000D01*
%TO.N,Net-(A1-PadD28)*%
X-108439466Y-10160000D02*
X-115639466Y-10160000D01*
%TO.N,Net-(A1-PadD30)*%
X-93499600Y-10160000D02*
X-100699600Y-10160000D01*
%TO.N,Net-(A1-PadA15)*%
X-129500000Y-167640000D02*
X-116840000Y-154980000D01*
X-116840000Y-154980000D02*
X-116840000Y-124868143D01*
X-116840000Y-124868143D02*
X-95322031Y-103350174D01*
X-95322031Y-103350174D02*
X-95322031Y-95068215D01*
X-95322031Y-95068215D02*
X-95320039Y-95066223D01*
%TO.N,Net-(A1-PadA12)*%
X-144740000Y-162560000D02*
X-138535000Y-168765000D01*
X-138535000Y-168765000D02*
X-102725000Y-168765000D01*
X-102725000Y-168765000D02*
X-100025000Y-166065000D01*
X-100025000Y-166065000D02*
X-100025000Y-161437321D01*
X-100025000Y-161437321D02*
X-109062321Y-152400000D01*
X-109062321Y-152400000D02*
X-113623604Y-152400000D01*
X-113623604Y-152400000D02*
X-115490000Y-150533604D01*
X-115490000Y-150533604D02*
X-115490000Y-125427331D01*
X-115490000Y-125427331D02*
X-90311269Y-100248600D01*
X-90311269Y-100248600D02*
X-88407665Y-100248600D01*
X-88407665Y-100248600D02*
X-87664913Y-99505848D01*
X-87664913Y-99505848D02*
X-87664913Y-92715547D01*
X-87664913Y-92715547D02*
X-87605681Y-92656315D01*
%TO.N,Net-(A1-PadA13)*%
X-104100000Y-162560000D02*
X-115940000Y-150720000D01*
X-115940000Y-150720000D02*
X-115940000Y-125240935D01*
X-115940000Y-125240935D02*
X-90213941Y-99514876D01*
X-90213941Y-99514876D02*
X-90213941Y-91649713D01*
X-90213941Y-91649713D02*
X-90208382Y-91644154D01*
%TO.N,Net-(A1-PadA14)*%
X-114260000Y-162560000D02*
X-114260000Y-154530000D01*
X-114260000Y-154530000D02*
X-116390000Y-152400000D01*
X-116390000Y-152400000D02*
X-116390000Y-125054539D01*
X-116390000Y-125054539D02*
X-92628600Y-101293139D01*
X-92628600Y-101293139D02*
X-92628600Y-93196805D01*
X-92628600Y-93196805D02*
X-92521894Y-93090099D01*
%TO.N,5V*%
X-156015566Y-64755739D02*
X-156015566Y-55292434D01*
X-156015566Y-55292434D02*
X-162428000Y-48880000D01*
%TO.N,Net-(J8-Pin_3)*%
X-154503118Y-144941657D02*
X-154503118Y-139263118D01*
X-154503118Y-139263118D02*
X-125169207Y-109929207D01*
X-125169207Y-109929207D02*
X-108248272Y-109929207D01*
X-108248272Y-109929207D02*
X-97871400Y-99552335D01*
X-97871400Y-99552335D02*
X-97871400Y-94923257D01*
X-97871400Y-94923257D02*
X-85010000Y-82061857D01*
X-85010000Y-82061857D02*
X-85010000Y-67250436D01*
X-85010000Y-67250436D02*
X-73660000Y-55900436D01*
X-73660000Y-55900436D02*
X-73660000Y-50800000D01*
D40*
%TO.N,Net-(J3-Pin_1)*%
X-41480000Y-5920000D02*
X-60960000Y-25400000D01*
D39*
%TO.N,Net-(A1-PadA12)*%
X-87605681Y-92656315D02*
X-87711400Y-92791400D01*
%TO.N,Net-(A1-PadA13)*%
X-90208382Y-91644154D02*
X-90251400Y-91992204D01*
%TO.N,Net-(A1-PadA14)*%
X-92521894Y-93090099D02*
X-92628600Y-93264996D01*
%TO.N,Net-(A1-PadA15)*%
X-95320039Y-95066223D02*
X-95331400Y-95331400D01*
%TO.N,5V*%
X-162560000Y-120840000D02*
X-165551366Y-117848634D01*
X-165551366Y-117848634D02*
X-165551366Y-114751366D01*
X-165551366Y-114751366D02*
X-141924283Y-91124283D01*
X-141924283Y-91124283D02*
X-119695717Y-91124283D01*
X-119695717Y-91124283D02*
X-111760000Y-99060000D01*
%TO.N,GND*%
X-127000000Y-104140000D02*
X-127365000Y-104140000D01*
X-127365000Y-104140000D02*
X-128225000Y-103280000D01*
X-128225000Y-103280000D02*
X-128225000Y-96550702D01*
X-128225000Y-96550702D02*
X-128194298Y-96520000D01*
X-162560000Y-116840000D02*
X-163760000Y-115640000D01*
X-163760000Y-115640000D02*
X-163760000Y-114456852D01*
X-163760000Y-114456852D02*
X-145823148Y-96520000D01*
X-145823148Y-96520000D02*
X-128194298Y-96520000D01*
%TO.N,Net-(J9-Pin_3)*%
X-154503118Y-129701657D02*
X-154503118Y-123163734D01*
X-140818591Y-109479207D02*
X-110338272Y-109479207D01*
X-110338272Y-109479207D02*
X-100411400Y-99552335D01*
X-100411400Y-99552335D02*
X-100411400Y-96826861D01*
X-154503118Y-123163734D02*
X-140818591Y-109479207D01*
X-100411400Y-96826861D02*
X-85460000Y-81875461D01*
X-85460000Y-81875461D02*
X-85460000Y-67064040D01*
X-85460000Y-67064040D02*
X-76200000Y-57804040D01*
X-76200000Y-57804040D02*
X-76200000Y-50800000D01*
%TO.N,Net-(J1-Pin_5)*%
X-154503118Y-114461657D02*
X-149070668Y-109029207D01*
X-149070668Y-109029207D02*
X-111821225Y-109029207D01*
X-85910000Y-66877644D02*
X-78740000Y-59707644D01*
X-78740000Y-59707644D02*
X-78740000Y-50800000D01*
X-111821225Y-109029207D02*
X-102788600Y-99996582D01*
X-102788600Y-99996582D02*
X-102788600Y-98567665D01*
X-102788600Y-98567665D02*
X-85910000Y-81689065D01*
X-85910000Y-81689065D02*
X-85910000Y-66877644D01*
%TO.N,5V*%
X-111760000Y-99060000D02*
X-109220000Y-99060000D01*
%TO.N,Net-(J2-Pin_5)*%
X-103703118Y-116840000D02*
X-98628118Y-121915000D01*
X-95320000Y-116040000D02*
X-96520000Y-114840000D01*
X-98628118Y-121915000D02*
X-96011852Y-121915000D01*
X-95320000Y-121223148D02*
X-95320000Y-116040000D01*
X-96011852Y-121915000D02*
X-95320000Y-121223148D01*
X-94466371Y-126681802D02*
X-91758198Y-126681802D01*
X-97720000Y-123428173D02*
X-94466371Y-126681802D01*
X-97720000Y-122823118D02*
X-97720000Y-123428173D01*
X-72308600Y-51988600D02*
X-71120000Y-50800000D01*
X-103703118Y-116840000D02*
X-97720000Y-122823118D01*
X-91758198Y-126681802D02*
X-72308600Y-107232204D01*
X-72308600Y-107232204D02*
X-72308600Y-51988600D01*
%TO.N,Net-(J6-Pin_3)*%
X-96520000Y-132080000D02*
X-69768600Y-105328600D01*
X-69768600Y-105328600D02*
X-69768600Y-51988600D01*
X-69768600Y-51988600D02*
X-68580000Y-50800000D01*
X-103703118Y-134781657D02*
X-99221657Y-134781657D01*
X-99221657Y-134781657D02*
X-96520000Y-132080000D01*
%TO.N,Net-(J7-Pin_3)*%
X-96520000Y-148400000D02*
X-87561522Y-139441522D01*
X-87350557Y-139441522D02*
X-87350557Y-126299017D01*
X-87561522Y-139441522D02*
X-87350557Y-139441522D01*
X-87350557Y-126299017D02*
X-67228600Y-106177060D01*
X-67228600Y-106177060D02*
X-67228600Y-51988600D01*
X-67228600Y-51988600D02*
X-66040000Y-50800000D01*
X-96520000Y-148400000D02*
X-102081461Y-148400000D01*
X-102081461Y-148400000D02*
X-103703118Y-150021657D01*
%TO.N,Net-(J1-Pin_5)*%
X-162560000Y-114840000D02*
X-154881461Y-114840000D01*
X-154881461Y-114840000D02*
X-154503118Y-114461657D01*
%TO.N,5V*%
X-147320000Y-172720000D02*
X-152400000Y-172720000D01*
X-152400000Y-172720000D02*
X-165679462Y-159440538D01*
X-165679462Y-159440538D02*
X-165679462Y-153519462D01*
X-165679462Y-153519462D02*
X-162560000Y-150400000D01*
X-162560000Y-150400000D02*
X-165623174Y-147336826D01*
X-165623174Y-147336826D02*
X-165623174Y-137143174D01*
X-165623174Y-137143174D02*
X-162560000Y-134080000D01*
X-162560000Y-134080000D02*
X-165623174Y-131016826D01*
X-165623174Y-131016826D02*
X-165623174Y-123903174D01*
X-165623174Y-123903174D02*
X-162560000Y-120840000D01*
%TO.N,Net-(A1-PadA12)*%
X-144780000Y-162600000D02*
X-144740000Y-162560000D01*
%TO.N,Net-(A1-PadA15)*%
X-129540000Y-167680000D02*
X-129500000Y-167640000D01*
%TO.N,Net-(A1-PadA14)*%
X-114300000Y-162600000D02*
X-114260000Y-162560000D01*
%TO.N,5V*%
X-96520000Y-150400000D02*
X-95320000Y-151600000D01*
X-96593153Y-177180483D02*
X-98617371Y-177180483D01*
X-95320000Y-151600000D02*
X-95320000Y-175907330D01*
X-95320000Y-175907330D02*
X-96593153Y-177180483D01*
X-98617371Y-177180483D02*
X-101600000Y-174197854D01*
X-101600000Y-174197854D02*
X-101600000Y-172720000D01*
X-132080000Y-172720000D02*
X-133125000Y-173765000D01*
X-133125000Y-173765000D02*
X-133163118Y-173765000D01*
X-133163118Y-173765000D02*
X-136616482Y-177218364D01*
X-136616482Y-177218364D02*
X-145309542Y-177218364D01*
X-147320000Y-175207906D02*
X-147320000Y-172720000D01*
X-145309542Y-177218364D02*
X-147320000Y-175207906D01*
X-116840000Y-172720000D02*
X-121284032Y-177164032D01*
X-121284032Y-177164032D02*
X-129113822Y-177164032D01*
X-132080000Y-174197854D02*
X-132080000Y-172720000D01*
X-129113822Y-177164032D02*
X-132080000Y-174197854D01*
X-102645000Y-173765000D02*
X-102645000Y-173782993D01*
X-106080371Y-177218364D02*
X-113819490Y-177218364D01*
X-116840000Y-174197854D02*
X-116840000Y-172720000D01*
X-101600000Y-172720000D02*
X-102645000Y-173765000D01*
X-102645000Y-173782993D02*
X-106080371Y-177218364D01*
X-113819490Y-177218364D02*
X-116840000Y-174197854D01*
D40*
%TO.N,7-12V*%
X-55880000Y-44405000D02*
X-55880000Y-35560000D01*
X-55880000Y-35560000D02*
X-55880000Y-30480000D01*
X-60960000Y-40640000D02*
X-55880000Y-35560000D01*
X-60960000Y-49485000D02*
X-55880000Y-44405000D01*
X-55880000Y-30480000D02*
X-50800000Y-25400000D01*
X-50800000Y-25400000D02*
X-35560000Y-25400000D01*
X-60960000Y-50800000D02*
X-60960000Y-49485000D01*
X-35560000Y-25400000D02*
X-30480000Y-20320000D01*
D39*
%TO.N,Net-(J5-Pin_1)*%
X-114680000Y5080000D02*
X-107046291Y-2553709D01*
X-107046291Y-2553709D02*
X-58406291Y-2553709D01*
X-58406291Y-2553709D02*
X-54255000Y-6705000D01*
X-54255000Y-10833097D02*
X-71120000Y-27698097D01*
X-54255000Y-6705000D02*
X-54255000Y-10833097D01*
X-71120000Y-27698097D02*
X-71120000Y-40003604D01*
X-71120000Y-40003604D02*
X-62148600Y-48975004D01*
X-62148600Y-48975004D02*
X-62148600Y-99552335D01*
X-62148600Y-99552335D02*
X-61452335Y-100248600D01*
X-61452335Y-100248600D02*
X-56403665Y-100248600D01*
X-56403665Y-100248600D02*
X-55707400Y-99552335D01*
X-55707400Y-99552335D02*
X-55707400Y-98507796D01*
X-55707400Y-98507796D02*
X-54037802Y-96838198D01*
X-54037802Y-96838198D02*
X-51816000Y-99060000D01*
%TO.N,Net-(J4-Pin_1)*%
X-148240000Y5080000D02*
X-147040000Y3880000D01*
X-147040000Y3880000D02*
X-139044080Y3880000D01*
X-139044080Y3880000D02*
X-132160371Y-3003709D01*
X-132160371Y-3003709D02*
X-58592687Y-3003709D01*
X-58592687Y-3003709D02*
X-54705000Y-6891396D01*
X-54705000Y-6891396D02*
X-54705000Y-10646701D01*
X-54705000Y-10646701D02*
X-72308600Y-28250301D01*
X-72308600Y-28250301D02*
X-72308600Y-39451400D01*
X-72308600Y-39451400D02*
X-62598600Y-49161400D01*
X-62598600Y-49161400D02*
X-62598600Y-96520000D01*
X-62598600Y-96520000D02*
X-62640935Y-96520000D01*
X-62640935Y-96520000D02*
X-64688600Y-98567665D01*
X-64688600Y-98567665D02*
X-64688600Y-99552335D01*
X-64688600Y-99552335D02*
X-62640935Y-101600000D01*
X-62640935Y-101600000D02*
X-56896000Y-101600000D01*
X-56896000Y-101600000D02*
X-54356000Y-99060000D01*
%TO.N,Net-(A1-RESET)*%
X-35560000Y-45720000D02*
X-27617234Y-37777234D01*
X-27617234Y-37777234D02*
X-25999730Y-37777234D01*
D40*
%TO.N,7-12V*%
X-30480000Y-20320000D02*
X-38436668Y-12363332D01*
X-38436668Y-12363332D02*
X-38436668Y-4190750D01*
X-40648709Y-1978709D02*
X-94541291Y-1978709D01*
X-38436668Y-4190750D02*
X-40648709Y-1978709D01*
X-94541291Y-1978709D02*
X-105513429Y8993429D01*
D39*
%TO.N,Net-(D2-RK)*%
X-121920000Y-106680000D02*
X-127000000Y-106680000D01*
%TO.N,Net-(D2-GK)*%
X-121920000Y-102409283D02*
X-124920717Y-105410000D01*
X-124920717Y-105410000D02*
X-127000000Y-105410000D01*
%TO.N,Net-(D2-BK)*%
X-121918788Y-98260332D02*
X-126528456Y-102870000D01*
X-126528456Y-102870000D02*
X-127000000Y-102870000D01*
%TO.N,Net-(D1-A)*%
X-121920000Y-92249283D02*
X-125654298Y-95983581D01*
X-125654298Y-95983581D02*
X-125654298Y-96520000D01*
%TO.N,Net-(SW17-B)*%
X-172720000Y-10160000D02*
X-192140000Y-29580000D01*
X-192140000Y-29580000D02*
X-213732792Y-29580000D01*
X-229500000Y-45347208D02*
X-229500000Y-66412792D01*
X-213732792Y-29580000D02*
X-229500000Y-45347208D01*
X-229500000Y-66412792D02*
X-214632792Y-81280000D01*
X-214632792Y-81280000D02*
X-111760000Y-81280000D01*
%TO.N,Net-(SW13-B)*%
X-187960000Y-10160000D02*
X-206930000Y-29130000D01*
X-206930000Y-29130000D02*
X-213919188Y-29130000D01*
X-229950000Y-45160812D02*
X-229950000Y-66599188D01*
X-214080588Y-82468600D02*
X-110571400Y-82468600D01*
X-110571400Y-82468600D02*
X-109220000Y-83820000D01*
X-213919188Y-29130000D02*
X-229950000Y-45160812D01*
X-229950000Y-66599188D02*
X-214080588Y-82468600D01*
%TO.N,5V*%
X-199004000Y-48880000D02*
X-200229000Y-50105000D01*
X-200229000Y-50105000D02*
X-216067000Y-50105000D01*
X-216067000Y-50105000D02*
X-217292000Y-48880000D01*
X-180716000Y-48880000D02*
X-181941000Y-50105000D01*
X-197779000Y-50105000D02*
X-199004000Y-48880000D01*
X-181941000Y-50105000D02*
X-197779000Y-50105000D01*
X-162428000Y-48880000D02*
X-163653000Y-50105000D01*
X-179491000Y-50105000D02*
X-180716000Y-48880000D01*
X-163653000Y-50105000D02*
X-179491000Y-50105000D01*
X-144140000Y-48880000D02*
X-145365000Y-50105000D01*
X-145365000Y-50105000D02*
X-161203000Y-50105000D01*
X-161203000Y-50105000D02*
X-162428000Y-48880000D01*
X-125852000Y-48880000D02*
X-127077000Y-50105000D01*
X-127077000Y-50105000D02*
X-142915000Y-50105000D01*
X-142915000Y-50105000D02*
X-144140000Y-48880000D01*
%TO.N,GND*%
X-195936020Y-43220000D02*
X-214164100Y-43220000D01*
X-214164100Y-43220000D02*
X-214234683Y-43149417D01*
X-177637357Y-43220000D02*
X-195936020Y-43220000D01*
X-159338694Y-43220000D02*
X-177637357Y-43220000D01*
X-141040028Y-43235024D02*
X-159323670Y-43235024D01*
X-159323670Y-43235024D02*
X-159338694Y-43220000D01*
X-141040028Y-43235024D02*
X-141040028Y-40560562D01*
X-141040028Y-40560562D02*
X-115639466Y-15160000D01*
%TO.N,Net-(A1-PadA6)*%
X-219792000Y-48880000D02*
X-216561417Y-45649417D01*
X-216561417Y-45649417D02*
X-214234683Y-45649417D01*
%TO.N,Net-(A1-PadA7)*%
X-201504000Y-48880000D02*
X-198344000Y-45720000D01*
X-198344000Y-45720000D02*
X-195936020Y-45720000D01*
%TO.N,Net-(A1-PadA8)*%
X-183216000Y-48880000D02*
X-180056000Y-45720000D01*
X-180056000Y-45720000D02*
X-177637357Y-45720000D01*
%TO.N,Net-(A1-PadA9)*%
X-164928000Y-48880000D02*
X-161768000Y-45720000D01*
X-161768000Y-45720000D02*
X-159338694Y-45720000D01*
%TO.N,Net-(A1-PadA10)*%
X-146640000Y-48880000D02*
X-143495024Y-45735024D01*
X-143495024Y-45735024D02*
X-141040028Y-45735024D01*
%TO.N,GND*%
X-116840000Y-43220000D02*
X-116840000Y-16360534D01*
X-116840000Y-16360534D02*
X-115639466Y-15160000D01*
%TO.N,Net-(A1-PadA11)*%
X-128352000Y-48880000D02*
X-125192000Y-45720000D01*
X-125192000Y-45720000D02*
X-116840000Y-45720000D01*
%TO.N,Net-(SW14-B)*%
X-214632792Y-29207208D02*
X-230400000Y-44974416D01*
X-214632792Y-21592792D02*
X-214632792Y-29207208D01*
X-203200000Y-10160000D02*
X-214632792Y-21592792D01*
X-230400000Y-44974416D02*
X-230400000Y-66785584D01*
X-230400000Y-66785584D02*
X-213365584Y-83820000D01*
X-213365584Y-83820000D02*
X-111760000Y-83820000D01*
%TO.N,Net-(SW1-B)*%
X-218440000Y-10160000D02*
X-230850000Y-22570000D01*
X-230850000Y-22570000D02*
X-230850000Y-66971980D01*
X-230850000Y-66971980D02*
X-213551980Y-84270000D01*
X-213551980Y-84270000D02*
X-113850000Y-84270000D01*
X-113850000Y-84270000D02*
X-111760000Y-86360000D01*
%TO.N,Net-(SW15-B)*%
X-157480000Y-10160000D02*
X-177350000Y-30030000D01*
X-177350000Y-30030000D02*
X-213546396Y-30030000D01*
X-213546396Y-30030000D02*
X-229050000Y-45533604D01*
X-229050000Y-45533604D02*
X-229050000Y-66226396D01*
X-229050000Y-66226396D02*
X-215347796Y-79928600D01*
X-215347796Y-79928600D02*
X-110571400Y-79928600D01*
X-110571400Y-79928600D02*
X-109220000Y-81280000D01*
%TO.N,Net-(J3-Pin_2)*%
X-37081308Y-16565242D02*
X-37081308Y-16565242D01*
X-37081308Y-16502422D02*
X-37081308Y-16565242D01*
X-37144128Y-16502422D02*
X-37081308Y-16502422D01*
D40*
X-42295382Y-16502422D02*
X-37144128Y-16502422D01*
D39*
X-37144128Y-16502422D02*
X-37144128Y-16502422D01*
D40*
X-55110698Y-22533159D02*
X-51607539Y-19030000D01*
X-44822960Y-19030000D02*
X-42295382Y-16502422D01*
X-51607539Y-19030000D02*
X-44822960Y-19030000D01*
D39*
%TO.N,Net-(J3-Pin_1)*%
X-41480000Y-5920000D02*
X-41480000Y-5080000D01*
D41*
%TO.N,*%
X-66040000Y-35560000D02*
X-66040000Y-31980000D01*
D40*
%TO.N,7-12V*%
X-110680000Y5080000D02*
X-106766571Y8993429D01*
D39*
X-106766571Y8993429D02*
X-105513429Y8993429D01*
D40*
X-105513429Y8993429D02*
X-140326571Y8993429D01*
X-140326571Y8993429D02*
X-144240000Y5080000D01*
D39*
%TO.N,Net-(A1-RESET)*%
X-35560000Y-45720000D02*
X-43180000Y-45720000D01*
X-43180000Y-45720000D02*
X-48260000Y-50800000D01*
%TO.N,Net-(A1-PadD7)*%
X-50800000Y-30480000D02*
X-54691400Y-34371400D01*
X-54691400Y-34371400D02*
X-54691400Y-92791400D01*
X-54691400Y-92791400D02*
X-60960000Y-99060000D01*
%TO.N,Net-(D4-A)*%
X-40848869Y-40640000D02*
X-45720000Y-40640000D01*
%TO.N,Net-(D3-A)*%
X-40818345Y-30571326D02*
X-45628674Y-30571326D01*
X-45628674Y-30571326D02*
X-45720000Y-30480000D01*
%TO.N,Net-(A1-PadD25)*%
X-55880000Y-10160000D02*
X-86360000Y-40640000D01*
X-86360000Y-40640000D02*
X-86360000Y-76200000D01*
X-86360000Y-76200000D02*
X-105491400Y-95331400D01*
X-105491400Y-95331400D02*
X-110408600Y-95331400D01*
X-110408600Y-95331400D02*
X-111760000Y-93980000D01*
%TO.N,Net-(A1-PadD29)*%
X-87710000Y-75640812D02*
X-102320588Y-90251400D01*
X-118786285Y-5530000D02*
X-91440000Y-5530000D01*
X-123379332Y-10123047D02*
X-118786285Y-5530000D01*
X-91440000Y-5530000D02*
X-87710000Y-9260000D01*
X-87710000Y-9260000D02*
X-87710000Y-75640812D01*
X-102320588Y-90251400D02*
X-110408600Y-90251400D01*
X-110408600Y-90251400D02*
X-111760000Y-88900000D01*
%TO.N,Net-(A1-PadD26)*%
X-85759734Y-10160000D02*
X-87260000Y-11660266D01*
X-87260000Y-11660266D02*
X-87260000Y-75827208D01*
X-108583604Y-90803604D02*
X-109220000Y-91440000D01*
X-87260000Y-75827208D02*
X-102236396Y-90803604D01*
X-102236396Y-90803604D02*
X-108583604Y-90803604D01*
%TO.N,Net-(A1-PadD27)*%
X-102236396Y-91440000D02*
X-105491400Y-91440000D01*
X-105491400Y-91440000D02*
X-106842800Y-92791400D01*
X-70819868Y-10160000D02*
X-86810000Y-26150132D01*
X-86810000Y-26150132D02*
X-86810000Y-76013604D01*
X-86810000Y-76013604D02*
X-102236396Y-91440000D01*
X-106842800Y-92791400D02*
X-110408600Y-92791400D01*
X-110408600Y-92791400D02*
X-111760000Y-91440000D01*
D40*
%TO.N,Net-(J3-Pin_2)*%
X-30480000Y-11080000D02*
X-30480000Y-15240000D01*
X-30480000Y-15240000D02*
X-25400000Y-20320000D01*
D39*
X-30480000Y-5080000D02*
X-30480000Y-11080000D01*
%TO.N,GND*%
X-41480000Y-19480000D02*
X-40640000Y-20320000D01*
D40*
%TO.N,7-12V*%
X-30480000Y-20320000D02*
X-38100000Y-20320000D01*
%TD*%
M02*
