%TF.GenerationSoftware,KiCad,Pcbnew,(7.0.0-0)*%
%TF.CreationDate,2024-03-29T02:07:55+01:00*%
%TF.ProjectId,universalRobotTx,756e6976-6572-4736-916c-526f626f7454,rev?*%
%TF.SameCoordinates,Original*%
%TF.FileFunction,Copper,L2,Bot*%
%TF.FilePolarity,Positive*%
%FSLAX46Y46*%
G04 Gerber Fmt 4.6, Leading zero omitted, Abs format (unit mm)*
G04 Created by KiCad (PCBNEW (7.0.0-0)) date 2024-03-29 02:07:55*
%MOMM*%
%LPD*%
G01*
G04 APERTURE LIST*
G04 Aperture macros list*
%AMRoundRect*
0 Rectangle with rounded corners*
0 $1 Rounding radius*
0 $2 $3 $4 $5 $6 $7 $8 $9 X,Y pos of 4 corners*
0 Add a 4 corners polygon primitive as box body*
4,1,4,$2,$3,$4,$5,$6,$7,$8,$9,$2,$3,0*
0 Add four circle primitives for the rounded corners*
1,1,$1+$1,$2,$3*
1,1,$1+$1,$4,$5*
1,1,$1+$1,$6,$7*
1,1,$1+$1,$8,$9*
0 Add four rect primitives between the rounded corners*
20,1,$1+$1,$2,$3,$4,$5,0*
20,1,$1+$1,$4,$5,$6,$7,0*
20,1,$1+$1,$6,$7,$8,$9,0*
20,1,$1+$1,$8,$9,$2,$3,0*%
G04 Aperture macros list end*
%TA.AperFunction,ComponentPad*%
%ADD10R,1.700000X1.700000*%
%TD*%
%TA.AperFunction,ComponentPad*%
%ADD11O,1.700000X1.700000*%
%TD*%
%TA.AperFunction,ComponentPad*%
%ADD12O,1.727200X1.727200*%
%TD*%
%TA.AperFunction,ComponentPad*%
%ADD13R,1.727200X1.727200*%
%TD*%
%TA.AperFunction,ComponentPad*%
%ADD14R,4.000000X4.000000*%
%TD*%
%TA.AperFunction,ComponentPad*%
%ADD15C,4.000000*%
%TD*%
%TA.AperFunction,ComponentPad*%
%ADD16RoundRect,0.250000X-0.600000X-0.750000X0.600000X-0.750000X0.600000X0.750000X-0.600000X0.750000X0*%
%TD*%
%TA.AperFunction,ComponentPad*%
%ADD17O,1.700000X2.000000*%
%TD*%
%TA.AperFunction,ComponentPad*%
%ADD18RoundRect,0.250000X-0.750000X0.600000X-0.750000X-0.600000X0.750000X-0.600000X0.750000X0.600000X0*%
%TD*%
%TA.AperFunction,ComponentPad*%
%ADD19O,2.000000X1.700000*%
%TD*%
%TA.AperFunction,ComponentPad*%
%ADD20C,1.600000*%
%TD*%
%TA.AperFunction,ComponentPad*%
%ADD21O,1.600000X1.600000*%
%TD*%
%TA.AperFunction,ComponentPad*%
%ADD22R,2.600000X2.600000*%
%TD*%
%TA.AperFunction,ComponentPad*%
%ADD23C,2.600000*%
%TD*%
%TA.AperFunction,ComponentPad*%
%ADD24C,1.440000*%
%TD*%
%TA.AperFunction,WasherPad*%
%ADD25C,4.000000*%
%TD*%
%TA.AperFunction,ComponentPad*%
%ADD26C,1.800000*%
%TD*%
%TA.AperFunction,ComponentPad*%
%ADD27C,1.700000*%
%TD*%
%TA.AperFunction,ComponentPad*%
%ADD28R,1.800000X1.800000*%
%TD*%
%TA.AperFunction,ComponentPad*%
%ADD29R,1.800000X1.070000*%
%TD*%
%TA.AperFunction,ComponentPad*%
%ADD30O,1.800000X1.070000*%
%TD*%
%TA.AperFunction,ComponentPad*%
%ADD31O,1.750000X1.200000*%
%TD*%
%TA.AperFunction,ComponentPad*%
%ADD32RoundRect,0.250000X0.625000X-0.350000X0.625000X0.350000X-0.625000X0.350000X-0.625000X-0.350000X0*%
%TD*%
%TA.AperFunction,ComponentPad*%
%ADD33O,1.200000X1.750000*%
%TD*%
%TA.AperFunction,ComponentPad*%
%ADD34RoundRect,0.250000X-0.350000X-0.625000X0.350000X-0.625000X0.350000X0.625000X-0.350000X0.625000X0*%
%TD*%
%TA.AperFunction,ViaPad*%
%ADD35C,1.000000*%
%TD*%
%TA.AperFunction,Conductor*%
%ADD36C,0.250000*%
%TD*%
%TA.AperFunction,Conductor*%
%ADD37C,0.500000*%
%TD*%
G04 APERTURE END LIST*
D10*
%TO.P,J13,1,Pin_1*%
%TO.N,unconnected-(J13-Pin_1-Pad1)*%
X-20319999Y-134619999D03*
D11*
%TO.P,J13,2,Pin_2*%
%TO.N,unconnected-(J13-Pin_2-Pad2)*%
X-20319999Y-132079999D03*
%TO.P,J13,3,Pin_3*%
%TO.N,D11*%
X-20319999Y-129539999D03*
%TO.P,J13,4,Pin_4*%
%TO.N,D12*%
X-20319999Y-126999999D03*
%TO.P,J13,5,Pin_5*%
%TO.N,GND*%
X-20319999Y-124459999D03*
%TO.P,J13,6,Pin_6*%
%TO.N,AREF*%
X-20319999Y-121919999D03*
%TO.P,J13,7,Pin_7*%
%TO.N,SDA*%
X-20319999Y-119379999D03*
%TO.P,J13,8,Pin_8*%
%TO.N,SCL*%
X-20319999Y-116839999D03*
%TO.P,J13,9,Pin_9*%
%TO.N,unconnected-(J13-Pin_9-Pad9)*%
X-20319999Y-114299999D03*
%TO.P,J13,10,Pin_10*%
%TO.N,unconnected-(J13-Pin_10-Pad10)*%
X-20319999Y-111759999D03*
%TO.P,J13,11,Pin_11*%
%TO.N,3V3*%
X-20319999Y-109219999D03*
%TO.P,J13,12,Pin_12*%
%TO.N,IORF*%
X-20319999Y-106679999D03*
%TD*%
D10*
%TO.P,J15,1,Pin_1*%
%TO.N,D53*%
X-118540514Y-49471853D03*
D11*
%TO.P,J15,2,Pin_2*%
%TO.N,D52*%
X-118540514Y-52011853D03*
%TO.P,J15,3,Pin_3*%
%TO.N,D51*%
X-118540514Y-54551853D03*
%TO.P,J15,4,Pin_4*%
%TO.N,D50*%
X-118540514Y-57091853D03*
%TO.P,J15,5,Pin_5*%
%TO.N,D47*%
X-118540514Y-59631853D03*
%TO.P,J15,6,Pin_6*%
%TO.N,D46*%
X-118540514Y-62171853D03*
%TO.P,J15,7,Pin_7*%
%TO.N,D45*%
X-118540514Y-64711853D03*
%TO.P,J15,8,Pin_8*%
%TO.N,D44*%
X-118540514Y-67251853D03*
%TO.P,J15,9,Pin_9*%
%TO.N,D43*%
X-118540514Y-69791853D03*
%TO.P,J15,10,Pin_10*%
%TO.N,D42*%
X-118540514Y-72331853D03*
%TO.P,J15,11,Pin_11*%
%TO.N,D41*%
X-118540514Y-74871853D03*
%TO.P,J15,12,Pin_12*%
%TO.N,D40*%
X-118540514Y-77411853D03*
%TD*%
D10*
%TO.P,J14,1,Pin_1*%
%TO.N,Net-(A1-SPI_GND)*%
X-21492353Y-64080078D03*
D11*
%TO.P,J14,2,Pin_2*%
%TO.N,Net-(A1-SPI_5V)*%
X-21492353Y-66620078D03*
%TO.P,J14,3,Pin_3*%
%TO.N,Net-(A1-SPI_RESET)*%
X-21492353Y-69160078D03*
%TO.P,J14,4,Pin_4*%
%TO.N,Net-(A1-SPI_SCK)*%
X-21492353Y-71700078D03*
%TO.P,J14,5,Pin_5*%
%TO.N,Net-(A1-SPI_MOSI)*%
X-21492353Y-74240078D03*
%TO.P,J14,6,Pin_6*%
%TO.N,Net-(A1-SPI_MISO)*%
X-21492353Y-76780078D03*
%TD*%
D12*
%TO.P,A1,VIN,VIN*%
%TO.N,7-12V*%
X-60959999Y-50799999D03*
%TO.P,A1,SDA,SDA*%
%TO.N,SDA*%
X-36575999Y-99059999D03*
%TO.P,A1,SCL,SCL*%
%TO.N,SCL*%
X-34035999Y-99059999D03*
%TO.P,A1,SCK,SPI_SCK*%
%TO.N,Net-(A1-SPI_SCK)*%
X-78866999Y-76199999D03*
%TO.P,A1,RST2,SPI_RESET*%
%TO.N,Net-(A1-SPI_RESET)*%
X-78866999Y-73659999D03*
%TO.P,A1,RST1,RESET*%
%TO.N,Net-(A1-RESET)*%
X-48259999Y-50799999D03*
%TO.P,A1,MOSI,SPI_MOSI*%
%TO.N,Net-(A1-SPI_MOSI)*%
X-81406999Y-76199999D03*
%TO.P,A1,MISO,SPI_MISO*%
%TO.N,Net-(A1-SPI_MISO)*%
X-78866999Y-78739999D03*
%TO.P,A1,IORF,IOREF*%
%TO.N,IORF*%
X-45719999Y-50799999D03*
D13*
%TO.P,A1,GND6,GND*%
%TO.N,GND*%
X-111759999Y-55879999D03*
%TO.P,A1,GND5,GND*%
X-109219999Y-55879999D03*
%TO.P,A1,GND4,SPI_GND*%
%TO.N,Net-(A1-SPI_GND)*%
X-81406999Y-73659999D03*
%TO.P,A1,GND3,GND*%
%TO.N,GND*%
X-58419999Y-50799999D03*
%TO.P,A1,GND2,GND*%
X-55879999Y-50799999D03*
%TO.P,A1,GND1,GND*%
X-41655999Y-99059999D03*
D12*
%TO.P,A1,D53,D53_CS*%
%TO.N,D53*%
X-111759999Y-58419999D03*
%TO.P,A1,D52,D52_SCK*%
%TO.N,D52*%
X-109219999Y-58419999D03*
%TO.P,A1,D51,D51_MOSI*%
%TO.N,D51*%
X-111759999Y-60959999D03*
%TO.P,A1,D50,D50_MISO*%
%TO.N,D50*%
X-109219999Y-60959999D03*
%TO.P,A1,D49,D49*%
%TO.N,D49*%
X-111759999Y-63499999D03*
%TO.P,A1,D48,D48*%
%TO.N,D48*%
X-109219999Y-63499999D03*
%TO.P,A1,D47,D47*%
%TO.N,D47*%
X-111759999Y-66039999D03*
%TO.P,A1,D46,D46*%
%TO.N,D46*%
X-109219999Y-66039999D03*
%TO.P,A1,D45,D45*%
%TO.N,D45*%
X-111759999Y-68579999D03*
%TO.P,A1,D44,D44*%
%TO.N,D44*%
X-109219999Y-68579999D03*
%TO.P,A1,D43,D43*%
%TO.N,D43*%
X-111759999Y-71119999D03*
%TO.P,A1,D42,D42*%
%TO.N,D42*%
X-109219999Y-71119999D03*
%TO.P,A1,D41,D41*%
%TO.N,D41*%
X-111759999Y-73659999D03*
%TO.P,A1,D40,D40*%
%TO.N,D40*%
X-109219999Y-73659999D03*
%TO.P,A1,D39,D39*%
%TO.N,D39*%
X-111759999Y-76199999D03*
%TO.P,A1,D38,D38*%
%TO.N,D38*%
X-109219999Y-76199999D03*
%TO.P,A1,D37,D37*%
%TO.N,D37*%
X-111759999Y-78739999D03*
%TO.P,A1,D36,D36*%
%TO.N,Net-(SW16-B)*%
X-109219999Y-78739999D03*
%TO.P,A1,D35,D35*%
%TO.N,Net-(SW17-B)*%
X-111759999Y-81279999D03*
%TO.P,A1,D34,D34*%
%TO.N,Net-(SW15-B)*%
X-109219999Y-81279999D03*
%TO.P,A1,D33,D33*%
%TO.N,Net-(SW14-B)*%
X-111759999Y-83819999D03*
%TO.P,A1,D32,D32*%
%TO.N,Net-(SW13-B)*%
X-109219999Y-83819999D03*
%TO.P,A1,D31,D31*%
%TO.N,Net-(SW1-B)*%
X-111759999Y-86359999D03*
%TO.P,A1,D30,D30*%
%TO.N,Net-(A1-PadD30)*%
X-109219999Y-86359999D03*
%TO.P,A1,D29,D29*%
%TO.N,Net-(A1-PadD29)*%
X-111759999Y-88899999D03*
%TO.P,A1,D28,D28*%
%TO.N,Net-(A1-PadD28)*%
X-109219999Y-88899999D03*
%TO.P,A1,D27,D27*%
%TO.N,Net-(A1-PadD27)*%
X-111759999Y-91439999D03*
%TO.P,A1,D26,D26*%
%TO.N,Net-(A1-PadD26)*%
X-109219999Y-91439999D03*
%TO.P,A1,D25,D25*%
%TO.N,Net-(A1-PadD25)*%
X-111759999Y-93979999D03*
%TO.P,A1,D24,D24*%
%TO.N,Net-(A1-PadD24)*%
X-109219999Y-93979999D03*
%TO.P,A1,D23,D23*%
%TO.N,Net-(A1-PadD23)*%
X-111759999Y-96519999D03*
%TO.P,A1,D22,D22*%
%TO.N,Net-(A1-PadD22)*%
X-109219999Y-96519999D03*
%TO.P,A1,D21,D21/SCL*%
%TO.N,unconnected-(A1-D21{slash}SCL-PadD21)*%
X-101599999Y-99059999D03*
%TO.P,A1,D20,D20/SDA*%
%TO.N,unconnected-(A1-D20{slash}SDA-PadD20)*%
X-99059999Y-99059999D03*
%TO.P,A1,D19,D19/RX1*%
%TO.N,unconnected-(A1-D19{slash}RX1-PadD19)*%
X-96519999Y-99059999D03*
%TO.P,A1,D18,D18/TX1*%
%TO.N,unconnected-(A1-D18{slash}TX1-PadD18)*%
X-93979999Y-99059999D03*
%TO.P,A1,D17,D17/RX2*%
%TO.N,unconnected-(A1-D17{slash}RX2-PadD17)*%
X-91439999Y-99059999D03*
%TO.P,A1,D16,D16/TX2*%
%TO.N,unconnected-(A1-D16{slash}TX2-PadD16)*%
X-88899999Y-99059999D03*
%TO.P,A1,D15,D15/RX3*%
%TO.N,unconnected-(A1-D15{slash}RX3-PadD15)*%
X-86359999Y-99059999D03*
%TO.P,A1,D14,D14/TX3*%
%TO.N,unconnected-(A1-D14{slash}TX3-PadD14)*%
X-83819999Y-99059999D03*
%TO.P,A1,D13,D13*%
%TO.N,Net-(A1-PadD13)*%
X-44195999Y-99059999D03*
%TO.P,A1,D12,D12*%
%TO.N,D12*%
X-46735999Y-99059999D03*
%TO.P,A1,D11,D11*%
%TO.N,D11*%
X-49275999Y-99059999D03*
%TO.P,A1,D10,D10*%
%TO.N,Net-(J5-Pin_1)*%
X-51815999Y-99059999D03*
%TO.P,A1,D9,D9*%
%TO.N,Net-(J4-Pin_1)*%
X-54355999Y-99059999D03*
%TO.P,A1,D8,D8*%
%TO.N,Net-(A1-PadD8)*%
X-56895999Y-99059999D03*
%TO.P,A1,D7,D7*%
%TO.N,Net-(A1-PadD7)*%
X-60959999Y-99059999D03*
%TO.P,A1,D6,D6*%
%TO.N,Net-(A1-PadD6)*%
X-63499999Y-99059999D03*
%TO.P,A1,D5,D5*%
%TO.N,Net-(A1-PadD5)*%
X-66039999Y-99059999D03*
%TO.P,A1,D4,D4*%
%TO.N,Net-(A1-PadD4)*%
X-68579999Y-99059999D03*
%TO.P,A1,D3,D3_INT1*%
%TO.N,D3*%
X-71119999Y-99059999D03*
%TO.P,A1,D2,D2_INT0*%
%TO.N,D2*%
X-73659999Y-99059999D03*
%TO.P,A1,D1,D1/TX0*%
%TO.N,unconnected-(A1-D1{slash}TX0-PadD1)*%
X-76199999Y-99059999D03*
%TO.P,A1,D0,D0/RX0*%
%TO.N,unconnected-(A1-D0{slash}RX0-PadD0)*%
X-78739999Y-99059999D03*
%TO.P,A1,AREF,AREF*%
%TO.N,AREF*%
X-39115999Y-99059999D03*
%TO.P,A1,A15,A15*%
%TO.N,Net-(A1-PadA15)*%
X-106679999Y-50799999D03*
%TO.P,A1,A14,A14*%
%TO.N,Net-(A1-PadA14)*%
X-104139999Y-50799999D03*
%TO.P,A1,A13,A13*%
%TO.N,Net-(A1-PadA13)*%
X-101599999Y-50799999D03*
%TO.P,A1,A12,A12*%
%TO.N,Net-(A1-PadA12)*%
X-99059999Y-50799999D03*
%TO.P,A1,A11,A11*%
%TO.N,Net-(A1-PadA11)*%
X-96519999Y-50799999D03*
%TO.P,A1,A10,A10*%
%TO.N,Net-(A1-PadA10)*%
X-93979999Y-50799999D03*
%TO.P,A1,A9,A9*%
%TO.N,Net-(A1-PadA9)*%
X-91439999Y-50799999D03*
%TO.P,A1,A8,A8*%
%TO.N,Net-(A1-PadA8)*%
X-88899999Y-50799999D03*
%TO.P,A1,A7,A7*%
%TO.N,Net-(A1-PadA7)*%
X-83819999Y-50799999D03*
%TO.P,A1,A6,A6*%
%TO.N,Net-(A1-PadA6)*%
X-81279999Y-50799999D03*
%TO.P,A1,A5,A5*%
%TO.N,Net-(J1-Pin_5)*%
X-78739999Y-50799999D03*
%TO.P,A1,A4,A4*%
%TO.N,Net-(J9-Pin_3)*%
X-76199999Y-50799999D03*
%TO.P,A1,A3,A3*%
%TO.N,Net-(J8-Pin_3)*%
X-73659999Y-50799999D03*
%TO.P,A1,A2,A2*%
%TO.N,Net-(J2-Pin_5)*%
X-71119999Y-50799999D03*
%TO.P,A1,A1,A1*%
%TO.N,Net-(J6-Pin_3)*%
X-68579999Y-50799999D03*
%TO.P,A1,A0,A0*%
%TO.N,Net-(J7-Pin_3)*%
X-66039999Y-50799999D03*
%TO.P,A1,5V4,5V*%
%TO.N,5V*%
X-111759999Y-99059999D03*
%TO.P,A1,5V3,5V*%
X-109219999Y-99059999D03*
%TO.P,A1,5V2,SPI_5V*%
%TO.N,Net-(A1-SPI_5V)*%
X-81406999Y-78739999D03*
%TO.P,A1,5V1,5V*%
%TO.N,5V*%
X-53339999Y-50799999D03*
%TO.P,A1,3V3,3.3V*%
%TO.N,3V3*%
X-50799999Y-50799999D03*
%TO.P,A1,*%
%TO.N,*%
X-43179999Y-50799999D03*
%TD*%
D14*
%TO.P,SW17,1,A*%
%TO.N,GND*%
X-172719999Y-15239999D03*
D15*
%TO.P,SW17,2,B*%
%TO.N,Net-(SW17-B)*%
X-172720000Y-10160000D03*
%TO.P,SW17,3,C*%
%TO.N,unconnected-(SW17-C-Pad3)*%
X-172720000Y-5080000D03*
%TD*%
%TO.P,SW16,3,C*%
%TO.N,unconnected-(SW16-C-Pad3)*%
X-142240000Y-5080000D03*
%TO.P,SW16,2,B*%
%TO.N,Net-(SW16-B)*%
X-142240000Y-10160000D03*
D14*
%TO.P,SW16,1,A*%
%TO.N,GND*%
X-142239999Y-15239999D03*
%TD*%
%TO.P,SW15,1,A*%
%TO.N,GND*%
X-157479999Y-15239999D03*
D15*
%TO.P,SW15,2,B*%
%TO.N,Net-(SW15-B)*%
X-157480000Y-10160000D03*
%TO.P,SW15,3,C*%
%TO.N,unconnected-(SW15-C-Pad3)*%
X-157480000Y-5080000D03*
%TD*%
D14*
%TO.P,SW14,1,A*%
%TO.N,GND*%
X-203199999Y-15239999D03*
D15*
%TO.P,SW14,2,B*%
%TO.N,Net-(SW14-B)*%
X-203200000Y-10160000D03*
%TO.P,SW14,3,C*%
%TO.N,unconnected-(SW14-C-Pad3)*%
X-203200000Y-5080000D03*
%TD*%
D14*
%TO.P,SW13,1,A*%
%TO.N,GND*%
X-187959999Y-15239999D03*
D15*
%TO.P,SW13,2,B*%
%TO.N,Net-(SW13-B)*%
X-187960000Y-10160000D03*
%TO.P,SW13,3,C*%
%TO.N,unconnected-(SW13-C-Pad3)*%
X-187960000Y-5080000D03*
%TD*%
D14*
%TO.P,SW1,1,A*%
%TO.N,GND*%
X-218439999Y-15239999D03*
D15*
%TO.P,SW1,2,B*%
%TO.N,Net-(SW1-B)*%
X-218440000Y-10160000D03*
%TO.P,SW1,3,C*%
%TO.N,unconnected-(SW1-C-Pad3)*%
X-218440000Y-5080000D03*
%TD*%
D16*
%TO.P,SW5,1,1*%
%TO.N,Net-(A1-PadD24)*%
X-128080429Y-145661307D03*
D17*
%TO.P,SW5,2,2*%
%TO.N,GND*%
X-125580428Y-145661306D03*
%TD*%
D16*
%TO.P,SW4,1,1*%
%TO.N,Net-(A1-PadD23)*%
X-128080429Y-131199771D03*
D17*
%TO.P,SW4,2,2*%
%TO.N,GND*%
X-125580428Y-131199770D03*
%TD*%
D16*
%TO.P,SW3,1,1*%
%TO.N,Net-(A1-PadD22)*%
X-128080429Y-115761307D03*
D17*
%TO.P,SW3,2,2*%
%TO.N,GND*%
X-125580428Y-115761306D03*
%TD*%
D18*
%TO.P,SW6,1,1*%
%TO.N,GND*%
X-25999730Y-35277234D03*
D19*
%TO.P,SW6,2,2*%
%TO.N,Net-(A1-RESET)*%
X-25999729Y-37777233D03*
%TD*%
D20*
%TO.P,R6,1*%
%TO.N,Net-(A1-PadD13)*%
X-116840000Y-92249283D03*
D21*
%TO.P,R6,2*%
%TO.N,Net-(D1-A)*%
X-121919999Y-92249282D03*
%TD*%
D20*
%TO.P,R5,1*%
%TO.N,Net-(A1-PadD8)*%
X-50800000Y-40640000D03*
D21*
%TO.P,R5,2*%
%TO.N,Net-(D4-A)*%
X-45719999Y-40639999D03*
%TD*%
%TO.P,R4,2*%
%TO.N,Net-(D2-BK)*%
X-121918787Y-98260331D03*
D20*
%TO.P,R4,1*%
%TO.N,Net-(A1-PadD6)*%
X-116838788Y-98260332D03*
%TD*%
%TO.P,R3,1*%
%TO.N,Net-(A1-PadD5)*%
X-116840000Y-102409283D03*
D21*
%TO.P,R3,2*%
%TO.N,Net-(D2-GK)*%
X-121919999Y-102409282D03*
%TD*%
%TO.P,R2,2*%
%TO.N,Net-(D2-RK)*%
X-121919999Y-106679999D03*
D20*
%TO.P,R2,1*%
%TO.N,Net-(A1-PadD4)*%
X-116840000Y-106680000D03*
%TD*%
%TO.P,R1,1*%
%TO.N,Net-(A1-PadD7)*%
X-50800000Y-30480000D03*
D21*
%TO.P,R1,2*%
%TO.N,Net-(D3-A)*%
X-45719999Y-30479999D03*
%TD*%
D22*
%TO.P,J3,1,Pin_1*%
%TO.N,Net-(J3-Pin_1)*%
X-60959999Y-25399999D03*
D23*
%TO.P,J3,2,Pin_2*%
%TO.N,Net-(J3-Pin_2)*%
X-60960000Y-30480000D03*
%TD*%
D24*
%TO.P,RV13,1,1*%
%TO.N,GND*%
X-127000000Y-172720000D03*
%TO.P,RV13,2,2*%
%TO.N,Net-(A1-PadA15)*%
X-129540000Y-175260000D03*
%TO.P,RV13,3,3*%
%TO.N,5V*%
X-132080000Y-172720000D03*
%TD*%
%TO.P,RV12,1,1*%
%TO.N,GND*%
X-111760000Y-172720000D03*
%TO.P,RV12,2,2*%
%TO.N,Net-(A1-PadA14)*%
X-114300000Y-175260000D03*
%TO.P,RV12,3,3*%
%TO.N,5V*%
X-116840000Y-172720000D03*
%TD*%
%TO.P,RV11,1,1*%
%TO.N,GND*%
X-96520000Y-172720000D03*
%TO.P,RV11,2,2*%
%TO.N,Net-(A1-PadA13)*%
X-99060000Y-175260000D03*
%TO.P,RV11,3,3*%
%TO.N,5V*%
X-101600000Y-172720000D03*
%TD*%
%TO.P,RV7,1,1*%
%TO.N,GND*%
X-142240000Y-172720000D03*
%TO.P,RV7,2,2*%
%TO.N,Net-(A1-PadA12)*%
X-144780000Y-175260000D03*
%TO.P,RV7,3,3*%
%TO.N,5V*%
X-147320000Y-172720000D03*
%TD*%
D25*
%TO.P,RV6,*%
%TO.N,*%
X-123952000Y-55880000D03*
X-132752000Y-55880000D03*
D26*
%TO.P,RV6,1,1*%
%TO.N,GND*%
X-130852000Y-48880000D03*
%TO.P,RV6,2,2*%
%TO.N,Net-(A1-PadA11)*%
X-128352000Y-48880000D03*
%TO.P,RV6,3,3*%
%TO.N,5V*%
X-125852000Y-48880000D03*
%TD*%
D25*
%TO.P,RV5,*%
%TO.N,*%
X-142240000Y-55880000D03*
X-151040000Y-55880000D03*
D26*
%TO.P,RV5,1,1*%
%TO.N,GND*%
X-149140000Y-48880000D03*
%TO.P,RV5,2,2*%
%TO.N,Net-(A1-PadA10)*%
X-146640000Y-48880000D03*
%TO.P,RV5,3,3*%
%TO.N,5V*%
X-144140000Y-48880000D03*
%TD*%
D25*
%TO.P,RV4,*%
%TO.N,*%
X-160528000Y-55880000D03*
X-169328000Y-55880000D03*
D26*
%TO.P,RV4,1,1*%
%TO.N,GND*%
X-167428000Y-48880000D03*
%TO.P,RV4,2,2*%
%TO.N,Net-(A1-PadA9)*%
X-164928000Y-48880000D03*
%TO.P,RV4,3,3*%
%TO.N,5V*%
X-162428000Y-48880000D03*
%TD*%
D25*
%TO.P,RV3,*%
%TO.N,*%
X-178816000Y-55880000D03*
X-187616000Y-55880000D03*
D26*
%TO.P,RV3,1,1*%
%TO.N,GND*%
X-185716000Y-48880000D03*
%TO.P,RV3,2,2*%
%TO.N,Net-(A1-PadA8)*%
X-183216000Y-48880000D03*
%TO.P,RV3,3,3*%
%TO.N,5V*%
X-180716000Y-48880000D03*
%TD*%
D25*
%TO.P,RV2,*%
%TO.N,*%
X-197104000Y-55880000D03*
X-205904000Y-55880000D03*
D26*
%TO.P,RV2,1,1*%
%TO.N,GND*%
X-204004000Y-48880000D03*
%TO.P,RV2,2,2*%
%TO.N,Net-(A1-PadA7)*%
X-201504000Y-48880000D03*
%TO.P,RV2,3,3*%
%TO.N,5V*%
X-199004000Y-48880000D03*
%TD*%
%TO.P,RV1,3,3*%
%TO.N,5V*%
X-217292000Y-48880000D03*
%TO.P,RV1,2,2*%
%TO.N,Net-(A1-PadA6)*%
X-219792000Y-48880000D03*
%TO.P,RV1,1,1*%
%TO.N,GND*%
X-222292000Y-48880000D03*
D25*
%TO.P,RV1,*%
%TO.N,*%
X-224192000Y-55880000D03*
X-215392000Y-55880000D03*
%TD*%
D27*
%TO.P,SW2,3*%
%TO.N,N/C*%
X-48680000Y-15160000D03*
%TO.P,SW2,2,2*%
%TO.N,GND*%
X-55880000Y-15160000D03*
%TO.P,SW2,1,1*%
%TO.N,Net-(A1-PadD25)*%
X-48680000Y-10160000D03*
X-55880000Y-10160000D03*
%TD*%
D26*
%TO.P,D3,2,A*%
%TO.N,Net-(D3-A)*%
X-40818345Y-30571326D03*
D28*
%TO.P,D3,1,K*%
%TO.N,GND*%
X-38278344Y-30571325D03*
%TD*%
D29*
%TO.P,D2,1,RK*%
%TO.N,Net-(D2-RK)*%
X-126999999Y-106679999D03*
D30*
%TO.P,D2,2,GK*%
%TO.N,Net-(D2-GK)*%
X-126999999Y-105409999D03*
%TO.P,D2,3,A*%
%TO.N,GND*%
X-126999999Y-104139999D03*
%TO.P,D2,4,BK*%
%TO.N,Net-(D2-BK)*%
X-126999999Y-102869999D03*
%TD*%
D27*
%TO.P,SW11,3*%
%TO.N,N/C*%
X-123379332Y-15123047D03*
%TO.P,SW11,2,2*%
%TO.N,GND*%
X-130579332Y-15123047D03*
%TO.P,SW11,1,1*%
%TO.N,Net-(A1-PadD29)*%
X-123379332Y-10123047D03*
X-130579332Y-10123047D03*
%TD*%
D20*
%TO.P,C3,1*%
%TO.N,Net-(J2-Pin_5)*%
X-103703118Y-116840000D03*
%TO.P,C3,2*%
%TO.N,GND*%
X-103703118Y-119340000D03*
%TD*%
D28*
%TO.P,D4,1,K*%
%TO.N,GND*%
X-38308868Y-40639999D03*
D26*
%TO.P,D4,2,A*%
%TO.N,Net-(D4-A)*%
X-40848869Y-40640000D03*
%TD*%
D27*
%TO.P,SW8,1,1*%
%TO.N,Net-(A1-PadD26)*%
X-85759734Y-10160000D03*
X-78559734Y-10160000D03*
%TO.P,SW8,2,2*%
%TO.N,GND*%
X-85759734Y-15160000D03*
%TO.P,SW8,3*%
%TO.N,N/C*%
X-78559734Y-15160000D03*
%TD*%
D31*
%TO.P,J7,3,Pin_3*%
%TO.N,Net-(J7-Pin_3)*%
X-96519999Y-148399999D03*
%TO.P,J7,2,Pin_2*%
%TO.N,5V*%
X-96519999Y-150399999D03*
D32*
%TO.P,J7,1,Pin_1*%
%TO.N,GND*%
X-96520000Y-152400000D03*
%TD*%
%TO.P,J2,1,Pin_1*%
%TO.N,GND*%
X-96520000Y-122840000D03*
D31*
%TO.P,J2,2,Pin_2*%
%TO.N,5V*%
X-96519999Y-120839999D03*
%TO.P,J2,3,Pin_3*%
%TO.N,D49*%
X-96519999Y-118839999D03*
%TO.P,J2,4,Pin_4*%
%TO.N,GND*%
X-96519999Y-116839999D03*
%TO.P,J2,5,Pin_5*%
%TO.N,Net-(J2-Pin_5)*%
X-96519999Y-114839999D03*
%TD*%
D32*
%TO.P,J9,1,Pin_1*%
%TO.N,GND*%
X-162560000Y-136080000D03*
D31*
%TO.P,J9,2,Pin_2*%
%TO.N,5V*%
X-162559999Y-134079999D03*
%TO.P,J9,3,Pin_3*%
%TO.N,Net-(J9-Pin_3)*%
X-162559999Y-132079999D03*
%TD*%
D27*
%TO.P,SW10,3*%
%TO.N,N/C*%
X-108439466Y-15160000D03*
%TO.P,SW10,2,2*%
%TO.N,GND*%
X-115639466Y-15160000D03*
%TO.P,SW10,1,1*%
%TO.N,Net-(A1-PadD28)*%
X-108439466Y-10160000D03*
X-115639466Y-10160000D03*
%TD*%
D16*
%TO.P,J11,1,Pin_1*%
%TO.N,GND*%
X-63460000Y-40640000D03*
D17*
%TO.P,J11,2,Pin_2*%
%TO.N,7-12V*%
X-60959999Y-40639999D03*
%TD*%
D26*
%TO.P,D5,2,A*%
%TO.N,7-12V*%
X-38100000Y-20320000D03*
D28*
%TO.P,D5,1,K*%
%TO.N,GND*%
X-40639999Y-20319999D03*
%TD*%
D20*
%TO.P,C17,2*%
%TO.N,GND*%
X-101600000Y-162560000D03*
%TO.P,C17,1*%
%TO.N,Net-(A1-PadA13)*%
X-104100000Y-162560000D03*
%TD*%
%TO.P,C2,1*%
%TO.N,Net-(J6-Pin_3)*%
X-103703118Y-134781657D03*
%TO.P,C2,2*%
%TO.N,GND*%
X-103703118Y-137281657D03*
%TD*%
%TO.P,C12,1*%
%TO.N,Net-(A1-PadA11)*%
X-116840000Y-45720000D03*
%TO.P,C12,2*%
%TO.N,GND*%
X-116840000Y-43220000D03*
%TD*%
D32*
%TO.P,J1,1,Pin_1*%
%TO.N,GND*%
X-162560000Y-122840000D03*
D31*
%TO.P,J1,2,Pin_2*%
%TO.N,5V*%
X-162559999Y-120839999D03*
%TO.P,J1,3,Pin_3*%
%TO.N,D48*%
X-162559999Y-118839999D03*
%TO.P,J1,4,Pin_4*%
%TO.N,GND*%
X-162559999Y-116839999D03*
%TO.P,J1,5,Pin_5*%
%TO.N,Net-(J1-Pin_5)*%
X-162559999Y-114839999D03*
%TD*%
D27*
%TO.P,SW9,3*%
%TO.N,N/C*%
X-63619868Y-15160000D03*
%TO.P,SW9,2,2*%
%TO.N,GND*%
X-70819868Y-15160000D03*
%TO.P,SW9,1,1*%
%TO.N,Net-(A1-PadD27)*%
X-63619868Y-10160000D03*
X-70819868Y-10160000D03*
%TD*%
D20*
%TO.P,C5,1*%
%TO.N,Net-(J9-Pin_3)*%
X-154503118Y-129701657D03*
%TO.P,C5,2*%
%TO.N,GND*%
X-154503118Y-132201657D03*
%TD*%
%TO.P,C8,1*%
%TO.N,Net-(A1-PadA7)*%
X-195936020Y-45720000D03*
%TO.P,C8,2*%
%TO.N,GND*%
X-195936020Y-43220000D03*
%TD*%
%TO.P,C18,1*%
%TO.N,Net-(A1-PadA14)*%
X-114260000Y-162560000D03*
%TO.P,C18,2*%
%TO.N,GND*%
X-111760000Y-162560000D03*
%TD*%
%TO.P,C7,1*%
%TO.N,Net-(A1-PadA6)*%
X-214234683Y-45649417D03*
%TO.P,C7,2*%
%TO.N,GND*%
X-214234683Y-43149417D03*
%TD*%
%TO.P,C19,1*%
%TO.N,Net-(A1-PadA15)*%
X-129500000Y-167640000D03*
%TO.P,C19,2*%
%TO.N,GND*%
X-127000000Y-167640000D03*
%TD*%
D15*
%TO.P,SW7,3,C*%
%TO.N,unconnected-(SW7-C-Pad3)*%
X-20320000Y-20320000D03*
%TO.P,SW7,2,B*%
%TO.N,Net-(J3-Pin_2)*%
X-25400000Y-20320000D03*
D14*
%TO.P,SW7,1,A*%
%TO.N,7-12V*%
X-30479999Y-20319999D03*
%TD*%
D20*
%TO.P,C13,2*%
%TO.N,GND*%
X-142240000Y-162560000D03*
%TO.P,C13,1*%
%TO.N,Net-(A1-PadA12)*%
X-144740000Y-162560000D03*
%TD*%
%TO.P,C4,1*%
%TO.N,Net-(J8-Pin_3)*%
X-154503118Y-144941657D03*
%TO.P,C4,2*%
%TO.N,GND*%
X-154503118Y-147441657D03*
%TD*%
%TO.P,C6,2*%
%TO.N,GND*%
X-154503118Y-116961657D03*
%TO.P,C6,1*%
%TO.N,Net-(J1-Pin_5)*%
X-154503118Y-114461657D03*
%TD*%
D32*
%TO.P,J8,1,Pin_1*%
%TO.N,GND*%
X-162560000Y-152400000D03*
D31*
%TO.P,J8,2,Pin_2*%
%TO.N,5V*%
X-162559999Y-150399999D03*
%TO.P,J8,3,Pin_3*%
%TO.N,Net-(J8-Pin_3)*%
X-162559999Y-148399999D03*
%TD*%
D33*
%TO.P,J4,5,Pin_5*%
%TO.N,unconnected-(J4-Pin_5-Pad5)*%
X-140239999Y5079999D03*
%TO.P,J4,4,Pin_4*%
%TO.N,GND*%
X-142239999Y5079999D03*
%TO.P,J4,3,Pin_3*%
%TO.N,7-12V*%
X-144239999Y5079999D03*
%TO.P,J4,2,Pin_2*%
%TO.N,unconnected-(J4-Pin_2-Pad2)*%
X-146239999Y5079999D03*
D34*
%TO.P,J4,1,Pin_1*%
%TO.N,Net-(J4-Pin_1)*%
X-148240000Y5080000D03*
%TD*%
D28*
%TO.P,D1,1,K*%
%TO.N,GND*%
X-128194297Y-96519999D03*
D26*
%TO.P,D1,2,A*%
%TO.N,Net-(D1-A)*%
X-125654298Y-96520000D03*
%TD*%
D20*
%TO.P,C11,2*%
%TO.N,GND*%
X-141040028Y-43235024D03*
%TO.P,C11,1*%
%TO.N,Net-(A1-PadA10)*%
X-141040028Y-45735024D03*
%TD*%
%TO.P,C1,1*%
%TO.N,Net-(J7-Pin_3)*%
X-103703118Y-150021657D03*
%TO.P,C1,2*%
%TO.N,GND*%
X-103703118Y-152521657D03*
%TD*%
D34*
%TO.P,J5,1,Pin_1*%
%TO.N,Net-(J5-Pin_1)*%
X-114680000Y5080000D03*
D33*
%TO.P,J5,2,Pin_2*%
%TO.N,unconnected-(J5-Pin_2-Pad2)*%
X-112679999Y5079999D03*
%TO.P,J5,3,Pin_3*%
%TO.N,7-12V*%
X-110679999Y5079999D03*
%TO.P,J5,4,Pin_4*%
%TO.N,GND*%
X-108679999Y5079999D03*
%TO.P,J5,5,Pin_5*%
%TO.N,unconnected-(J5-Pin_5-Pad5)*%
X-106679999Y5079999D03*
%TD*%
D27*
%TO.P,SW12,3*%
%TO.N,N/C*%
X-93499600Y-15160000D03*
%TO.P,SW12,2,2*%
%TO.N,GND*%
X-100699600Y-15160000D03*
%TO.P,SW12,1,1*%
%TO.N,Net-(A1-PadD30)*%
X-93499600Y-10160000D03*
X-100699600Y-10160000D03*
%TD*%
D20*
%TO.P,C10,1*%
%TO.N,Net-(A1-PadA9)*%
X-159338694Y-45720000D03*
%TO.P,C10,2*%
%TO.N,GND*%
X-159338694Y-43220000D03*
%TD*%
D32*
%TO.P,J6,1,Pin_1*%
%TO.N,GND*%
X-96520000Y-136080000D03*
D31*
%TO.P,J6,2,Pin_2*%
%TO.N,5V*%
X-96519999Y-134079999D03*
%TO.P,J6,3,Pin_3*%
%TO.N,Net-(J6-Pin_3)*%
X-96519999Y-132079999D03*
%TD*%
D20*
%TO.P,C9,1*%
%TO.N,Net-(A1-PadA8)*%
X-177637357Y-45720000D03*
%TO.P,C9,2*%
%TO.N,GND*%
X-177637357Y-43220000D03*
%TD*%
D35*
%TO.N,Net-(J3-Pin_2)*%
X-30415149Y-5112314D03*
%TO.N,GND*%
X-41498132Y-11063852D03*
X-120693615Y-78290373D03*
%TO.N,5V*%
X-156015566Y-64755739D03*
%TO.N,Net-(A1-PadA12)*%
X-87605681Y-92656315D03*
%TO.N,Net-(A1-PadA13)*%
X-90208382Y-91644154D03*
%TO.N,Net-(A1-PadA14)*%
X-92521894Y-93090099D03*
%TO.N,Net-(A1-PadA15)*%
X-95320039Y-95066223D03*
%TO.N,Net-(J3-Pin_2)*%
X-37081308Y-16502422D03*
X-55110698Y-22533159D03*
%TD*%
D36*
%TO.N,Net-(A1-SPI_GND)*%
X-81407000Y-73660000D02*
X-80668400Y-74398600D01*
X-80668400Y-74398600D02*
X-80668400Y-73144069D01*
X-80668400Y-73144069D02*
X-79545731Y-72021400D01*
X-79545731Y-72021400D02*
X-73110608Y-72021400D01*
X-73110608Y-72021400D02*
X-71326929Y-73805079D01*
X-71326929Y-73805079D02*
X-31217354Y-73805079D01*
X-31217354Y-73805079D02*
X-21492354Y-64080079D01*
%TO.N,Net-(A1-SPI_5V)*%
X-81407000Y-78740000D02*
X-82595600Y-77551400D01*
X-82595600Y-77551400D02*
X-82595600Y-75707665D01*
X-82595600Y-75707665D02*
X-81736535Y-74848600D01*
X-81736535Y-74848600D02*
X-80218400Y-74848600D01*
X-80218400Y-74848600D02*
X-80218400Y-73330465D01*
X-80218400Y-73330465D02*
X-79359335Y-72471400D01*
X-79359335Y-72471400D02*
X-73297004Y-72471400D01*
X-73297004Y-72471400D02*
X-71513325Y-74255079D01*
X-71513325Y-74255079D02*
X-29127354Y-74255079D01*
X-29127354Y-74255079D02*
X-21492354Y-66620079D01*
%TO.N,Net-(A1-SPI_RESET)*%
X-78867000Y-73660000D02*
X-76537829Y-75989171D01*
X-27037354Y-74705079D02*
X-21492354Y-69160079D01*
X-76537829Y-75989171D02*
X-72611021Y-75989171D01*
X-72611021Y-75989171D02*
X-71326929Y-74705079D01*
X-71326929Y-74705079D02*
X-27037354Y-74705079D01*
%TO.N,Net-(A1-SPI_SCK)*%
X-78867000Y-76200000D02*
X-77965600Y-77101400D01*
X-77965600Y-77101400D02*
X-73086854Y-77101400D01*
X-73086854Y-77101400D02*
X-71140533Y-75155079D01*
X-71140533Y-75155079D02*
X-24947354Y-75155079D01*
X-24947354Y-75155079D02*
X-21492354Y-71700079D01*
%TO.N,Net-(A1-SPI_MISO)*%
X-78867000Y-78740000D02*
X-73452662Y-78740000D01*
X-73452662Y-78740000D02*
X-70767741Y-76055079D01*
X-70767741Y-76055079D02*
X-22217354Y-76055079D01*
X-22217354Y-76055079D02*
X-21492354Y-76780079D01*
%TO.N,Net-(A1-SPI_MOSI)*%
X-72917210Y-77551400D02*
X-72908834Y-77559776D01*
X-72908834Y-77559776D02*
X-70954137Y-75605079D01*
X-80055600Y-77551400D02*
X-72917210Y-77551400D01*
X-81407000Y-76200000D02*
X-80055600Y-77551400D01*
X-70954137Y-75605079D02*
X-22857354Y-75605079D01*
X-22857354Y-75605079D02*
X-21492354Y-74240079D01*
%TO.N,GND*%
X-120693615Y-78290373D02*
X-120653524Y-78330464D01*
X-120653524Y-78330464D02*
X-120653524Y-88979226D01*
X-120653524Y-88979226D02*
X-128194298Y-96520000D01*
%TO.N,D49*%
X-96520000Y-118840000D02*
X-97720000Y-117640000D01*
X-97720000Y-117640000D02*
X-97720000Y-112960000D01*
X-97720000Y-112960000D02*
X-90217645Y-105457645D01*
X-90217645Y-105457645D02*
X-48912710Y-105457645D01*
X-48912710Y-105457645D02*
X-43007400Y-99552335D01*
X-43007400Y-99552335D02*
X-43007400Y-98567665D01*
X-43007400Y-98567665D02*
X-45390065Y-96185000D01*
X-45390065Y-96185000D02*
X-101261409Y-96185000D01*
X-101261409Y-96185000D02*
X-105040000Y-92406409D01*
X-105040000Y-92406409D02*
X-105040000Y-65999065D01*
X-105040000Y-65999065D02*
X-108727665Y-62311400D01*
X-108727665Y-62311400D02*
X-110571400Y-62311400D01*
X-110571400Y-62311400D02*
X-111760000Y-63500000D01*
%TO.N,Net-(A1-PadA15)*%
X-95320039Y-95066223D02*
X-104590000Y-85796262D01*
X-104590000Y-52890000D02*
X-106680000Y-50800000D01*
X-104590000Y-85796262D02*
X-104590000Y-52890000D01*
%TO.N,GND*%
X-195936020Y-43220000D02*
X-198344000Y-43220000D01*
X-198344000Y-43220000D02*
X-204004000Y-48880000D01*
D37*
%TO.N,Net-(J3-Pin_2)*%
X-30415149Y-5112314D02*
X-30480000Y-5080000D01*
%TO.N,GND*%
X-41498132Y-11061868D02*
X-47480000Y-5080000D01*
X-41498132Y-11063852D02*
X-41498132Y-11061868D01*
X-41496148Y-11063852D02*
X-41498132Y-11063852D01*
D36*
X-55880000Y-15160000D02*
X-54705000Y-13985000D01*
X-54705000Y-13985000D02*
X-46829302Y-13985000D01*
X-46829302Y-13985000D02*
X-43924302Y-11080000D01*
X-43924302Y-11080000D02*
X-41480000Y-11080000D01*
D37*
X-55880000Y-25480000D02*
X-41480000Y-11080000D01*
D36*
X-111760000Y-55880000D02*
X-109220000Y-55880000D01*
X-124915047Y-58205000D02*
X-114085000Y-58205000D01*
X-114085000Y-58205000D02*
X-111760000Y-55880000D01*
%TO.N,Net-(A1-PadD25)*%
X-55880000Y-10160000D02*
X-48680000Y-10160000D01*
D37*
%TO.N,GND*%
X-41480000Y-11080000D02*
X-40640000Y-11920000D01*
D36*
%TO.N,5V*%
X-156078118Y-64693187D02*
X-156078118Y-64638118D01*
X-156015566Y-64755739D02*
X-156078118Y-64693187D01*
X-156078118Y-64818291D02*
X-156015566Y-64755739D01*
X-156078118Y-111941266D02*
X-156078118Y-64818291D01*
X-161901852Y-117765000D02*
X-156078118Y-111941266D01*
X-162560000Y-117765000D02*
X-161901852Y-117765000D01*
%TO.N,D48*%
X-162560000Y-118840000D02*
X-159480000Y-118840000D01*
X-155628118Y-114988118D02*
X-155628118Y-108227183D01*
X-112252335Y-64851400D02*
X-110571400Y-64851400D01*
X-159480000Y-118840000D02*
X-155628118Y-114988118D01*
X-110571400Y-64851400D02*
X-109220000Y-63500000D01*
X-155628118Y-108227183D02*
X-112252335Y-64851400D01*
%TO.N,5V*%
X-163218148Y-117765000D02*
X-162560000Y-117765000D01*
X-163760000Y-118306852D02*
X-163218148Y-117765000D01*
X-163760000Y-119640000D02*
X-163760000Y-118306852D01*
X-162560000Y-120840000D02*
X-163760000Y-119640000D01*
%TO.N,GND*%
X-166748366Y-121028366D02*
X-166748366Y-118202169D01*
X-166761561Y-121041561D02*
X-166748366Y-121028366D01*
X-166748366Y-118202169D02*
X-165386197Y-116840000D01*
X-165386197Y-116840000D02*
X-162560000Y-116840000D01*
X-166761561Y-127041561D02*
X-166761561Y-121041561D01*
D37*
%TO.N,Net-(J3-Pin_2)*%
X-58857852Y-26280313D02*
X-58857852Y-28377852D01*
X-58857852Y-28377852D02*
X-60960000Y-30480000D01*
D36*
%TO.N,Net-(A1-PadA12)*%
X-87605681Y-92656315D02*
X-99060000Y-81201996D01*
X-99060000Y-81201996D02*
X-99060000Y-50800000D01*
%TO.N,Net-(A1-PadA13)*%
X-90208382Y-91644154D02*
X-101600000Y-80252536D01*
X-101600000Y-80252536D02*
X-101600000Y-50800000D01*
%TO.N,Net-(A1-PadA14)*%
X-92521894Y-93090099D02*
X-104140000Y-81471993D01*
X-104140000Y-81471993D02*
X-104140000Y-50800000D01*
%TO.N,GND*%
X-96520000Y-116840000D02*
X-87672401Y-107992401D01*
X-87672401Y-107992401D02*
X-87672401Y-105907645D01*
X-87672401Y-105907645D02*
X-48503645Y-105907645D01*
X-48503645Y-105907645D02*
X-41656000Y-99060000D01*
X-96520000Y-122840000D02*
X-97720000Y-121640000D01*
X-97720000Y-120436460D02*
X-97048540Y-119765000D01*
X-95235840Y-118124160D02*
X-96520000Y-116840000D01*
X-97720000Y-121640000D02*
X-97720000Y-120436460D01*
X-97048540Y-119765000D02*
X-95846601Y-119765000D01*
X-95846601Y-119765000D02*
X-95235840Y-119154239D01*
X-95235840Y-119154239D02*
X-95235840Y-118124160D01*
%TO.N,Net-(A1-PadD13)*%
X-116840000Y-92249283D02*
X-114842117Y-90251400D01*
X-114842117Y-90251400D02*
X-107868600Y-90251400D01*
X-107868600Y-90251400D02*
X-101485000Y-96635000D01*
X-64803078Y-97120526D02*
X-46135474Y-97120526D01*
X-46135474Y-97120526D02*
X-44196000Y-99060000D01*
X-65288604Y-96635000D02*
X-64803078Y-97120526D01*
X-101485000Y-96635000D02*
X-65288604Y-96635000D01*
%TO.N,Net-(A1-PadD24)*%
X-128080429Y-145661307D02*
X-129255429Y-144486307D01*
X-129255429Y-144486307D02*
X-129255429Y-102907809D01*
X-114342335Y-94881400D02*
X-112252335Y-92791400D01*
X-129255429Y-102907809D02*
X-121229020Y-94881400D01*
X-121229020Y-94881400D02*
X-114342335Y-94881400D01*
X-112252335Y-92791400D02*
X-110408600Y-92791400D01*
X-110408600Y-92791400D02*
X-109220000Y-93980000D01*
%TO.N,Net-(A1-PadD23)*%
X-128080429Y-131199771D02*
X-126905429Y-130024771D01*
X-126905429Y-130024771D02*
X-126905429Y-111854571D01*
X-126905429Y-111854571D02*
X-125775000Y-110724142D01*
X-117621708Y-96520000D02*
X-111760000Y-96520000D01*
X-125775000Y-110724142D02*
X-125775000Y-104673292D01*
X-125775000Y-104673292D02*
X-117621708Y-96520000D01*
%TO.N,Net-(A1-PadD22)*%
X-128080429Y-115761307D02*
X-128225000Y-115616736D01*
X-128225000Y-115616736D02*
X-128225000Y-102513776D01*
X-128225000Y-102513776D02*
X-121042624Y-95331400D01*
X-121042624Y-95331400D02*
X-110408600Y-95331400D01*
X-110408600Y-95331400D02*
X-109220000Y-96520000D01*
%TO.N,GND*%
X-142240000Y-172720000D02*
X-142990455Y-173470455D01*
X-142990455Y-173470455D02*
X-142990455Y-177183577D01*
X-142990455Y-177183577D02*
X-147815094Y-177183577D01*
X-147815094Y-177183577D02*
X-166761561Y-158237110D01*
X-127000000Y-172720000D02*
X-127000000Y-175438075D01*
X-127000000Y-175438075D02*
X-128804115Y-177242190D01*
X-128804115Y-177242190D02*
X-137717810Y-177242190D01*
X-137717810Y-177242190D02*
X-142240000Y-172720000D01*
X-111760000Y-172720000D02*
X-112779915Y-173739915D01*
X-112779915Y-173739915D02*
X-112779915Y-177214814D01*
X-112779915Y-177214814D02*
X-122505186Y-177214814D01*
X-122505186Y-177214814D02*
X-127000000Y-172720000D01*
%TO.N,Net-(A1-PadA13)*%
X-99060000Y-175260000D02*
X-99060000Y-170816396D01*
X-104100000Y-165776396D02*
X-104100000Y-162560000D01*
X-99060000Y-170816396D02*
X-104100000Y-165776396D01*
%TO.N,GND*%
X-96520000Y-172720000D02*
X-96520000Y-174197854D01*
X-96520000Y-174197854D02*
X-99472826Y-177150680D01*
X-99472826Y-177150680D02*
X-107329320Y-177150680D01*
X-107329320Y-177150680D02*
X-111760000Y-172720000D01*
%TO.N,5V*%
X-125852000Y-48880000D02*
X-124267000Y-47295000D01*
X-124267000Y-47295000D02*
X-100661396Y-47295000D01*
X-54691400Y-50247796D02*
X-54291802Y-49848198D01*
X-100661396Y-47295000D02*
X-97708600Y-50247796D01*
X-97708600Y-50247796D02*
X-97708600Y-51292335D01*
X-97708600Y-51292335D02*
X-97012335Y-51988600D01*
X-97012335Y-51988600D02*
X-54691400Y-51988600D01*
X-54291802Y-49848198D02*
X-53340000Y-50800000D01*
X-54691400Y-51988600D02*
X-54691400Y-50247796D01*
%TO.N,Net-(A1-PadD4)*%
X-116840000Y-106680000D02*
X-113019283Y-102859283D01*
X-113019283Y-102859283D02*
X-72379283Y-102859283D01*
X-72379283Y-102859283D02*
X-68580000Y-99060000D01*
%TO.N,Net-(J8-Pin_3)*%
X-162560000Y-148400000D02*
X-157961461Y-148400000D01*
X-157961461Y-148400000D02*
X-154503118Y-144941657D01*
%TO.N,GND*%
X-166761561Y-140281561D02*
X-166761561Y-127041561D01*
X-166761561Y-127041561D02*
X-162560000Y-122840000D01*
X-166761561Y-158237110D02*
X-166761561Y-140281561D01*
X-166761561Y-140281561D02*
X-162560000Y-136080000D01*
X-166761561Y-158237110D02*
X-162560000Y-154035549D01*
X-162560000Y-154035549D02*
X-162560000Y-152400000D01*
X-127000000Y-167640000D02*
X-128728531Y-165911469D01*
X-128728531Y-165911469D02*
X-128728531Y-148809409D01*
X-128728531Y-148809409D02*
X-125580429Y-145661307D01*
X-125580429Y-131199771D02*
X-125580429Y-115761307D01*
X-125580429Y-145661307D02*
X-125580429Y-131199771D01*
X-154503118Y-132201657D02*
X-153378118Y-131076657D01*
X-153378118Y-131076657D02*
X-153378118Y-118086657D01*
X-153378118Y-118086657D02*
X-154503118Y-116961657D01*
X-154503118Y-147441657D02*
X-152400000Y-145338539D01*
X-152400000Y-145338539D02*
X-152400000Y-133849275D01*
X-153062971Y-133186304D02*
X-153518471Y-133186304D01*
X-152400000Y-133849275D02*
X-153062971Y-133186304D01*
X-153518471Y-133186304D02*
X-154503118Y-132201657D01*
X-142240000Y-162560000D02*
X-142240000Y-159704775D01*
X-142240000Y-159704775D02*
X-154503118Y-147441657D01*
X-142240000Y-172720000D02*
X-142240000Y-162560000D01*
X-111760000Y-172720000D02*
X-111760000Y-162560000D01*
X-127000000Y-172720000D02*
X-127000000Y-167640000D01*
X-101600000Y-162560000D02*
X-101600000Y-167640000D01*
X-101600000Y-167640000D02*
X-96520000Y-172720000D01*
X-103703118Y-152521657D02*
X-103703118Y-160456882D01*
X-103703118Y-160456882D02*
X-101600000Y-162560000D01*
X-103703118Y-137281657D02*
X-101563817Y-139420958D01*
X-101563817Y-139420958D02*
X-101563817Y-150382356D01*
X-101563817Y-150382356D02*
X-103703118Y-152521657D01*
X-103703118Y-137281657D02*
X-101600000Y-135178539D01*
X-101600000Y-135178539D02*
X-101600000Y-121443118D01*
X-101600000Y-121443118D02*
X-103703118Y-119340000D01*
%TO.N,Net-(A1-PadA12)*%
X-144780000Y-175260000D02*
X-144780000Y-162600000D01*
%TO.N,Net-(A1-PadA15)*%
X-129540000Y-175260000D02*
X-129540000Y-167680000D01*
%TO.N,Net-(A1-PadA14)*%
X-114300000Y-175260000D02*
X-114300000Y-162600000D01*
%TO.N,5V*%
X-96520000Y-134080000D02*
X-95320000Y-135280000D01*
X-95320000Y-135280000D02*
X-95320000Y-149200000D01*
X-95320000Y-149200000D02*
X-96520000Y-150400000D01*
X-96520000Y-120840000D02*
X-95320000Y-122040000D01*
X-95320000Y-122040000D02*
X-95320000Y-132880000D01*
X-95320000Y-132880000D02*
X-96520000Y-134080000D01*
D37*
%TO.N,GND*%
X-63460000Y-43220000D02*
X-60960000Y-45720000D01*
X-63460000Y-40640000D02*
X-63460000Y-43220000D01*
X-55880000Y-25480000D02*
X-55880000Y-40640000D01*
X-55880000Y-40640000D02*
X-55880000Y-50800000D01*
X-60960000Y-45720000D02*
X-55880000Y-40640000D01*
D36*
X-30480000Y-30571326D02*
X-38278345Y-30571326D01*
X-25999730Y-35277234D02*
X-30480000Y-30796964D01*
X-30480000Y-30796964D02*
X-30480000Y-30571326D01*
%TO.N,Net-(J9-Pin_3)*%
X-162560000Y-132080000D02*
X-156881461Y-132080000D01*
X-156881461Y-132080000D02*
X-154503118Y-129701657D01*
%TO.N,Net-(A1-PadD6)*%
X-116838788Y-98260332D02*
X-116449856Y-97871400D01*
X-116449856Y-97871400D02*
X-107014472Y-97871400D01*
X-107014472Y-97871400D02*
X-106228072Y-97085000D01*
X-65475000Y-97085000D02*
X-63500000Y-99060000D01*
X-106228072Y-97085000D02*
X-65475000Y-97085000D01*
%TO.N,Net-(A1-PadD5)*%
X-116840000Y-102409283D02*
X-72625548Y-102409283D01*
X-72625548Y-102409283D02*
X-69768600Y-99552335D01*
X-69768600Y-99552335D02*
X-69768600Y-98567665D01*
X-69768600Y-98567665D02*
X-69072335Y-97871400D01*
X-69072335Y-97871400D02*
X-67228600Y-97871400D01*
X-67228600Y-97871400D02*
X-66040000Y-99060000D01*
%TO.N,Net-(A1-PadA6)*%
X-214234683Y-45649417D02*
X-209795290Y-41210024D01*
X-209795290Y-41210024D02*
X-140201245Y-41210024D01*
X-140201245Y-41210024D02*
X-138151245Y-43260024D01*
X-93240000Y-38840000D02*
X-81280000Y-50800000D01*
X-138151245Y-43260024D02*
X-122005608Y-43260024D01*
X-122005608Y-43260024D02*
X-117585584Y-38840000D01*
X-117585584Y-38840000D02*
X-93240000Y-38840000D01*
%TO.N,Net-(A1-PadA7)*%
X-195936020Y-45720000D02*
X-191876044Y-41660024D01*
X-191876044Y-41660024D02*
X-140387641Y-41660024D01*
X-95330000Y-39290000D02*
X-83820000Y-50800000D01*
X-140387641Y-41660024D02*
X-138337641Y-43710024D01*
X-138337641Y-43710024D02*
X-121819212Y-43710024D01*
X-121819212Y-43710024D02*
X-117399188Y-39290000D01*
X-117399188Y-39290000D02*
X-95330000Y-39290000D01*
%TO.N,Net-(A1-PadA8)*%
X-177637357Y-45720000D02*
X-176512357Y-44595000D01*
X-176512357Y-44595000D02*
X-158872703Y-44595000D01*
X-140574037Y-42110024D02*
X-138524037Y-44160024D01*
X-158872703Y-44595000D02*
X-156387727Y-42110024D01*
X-99960000Y-39740000D02*
X-88900000Y-50800000D01*
X-156387727Y-42110024D02*
X-140574037Y-42110024D01*
X-138524037Y-44160024D02*
X-121632816Y-44160024D01*
X-121632816Y-44160024D02*
X-117212792Y-39740000D01*
X-117212792Y-39740000D02*
X-99960000Y-39740000D01*
%TO.N,Net-(A1-PadA9)*%
X-159338694Y-45720000D02*
X-158228718Y-44610024D01*
X-158228718Y-44610024D02*
X-121446420Y-44610024D01*
X-121446420Y-44610024D02*
X-117026396Y-40190000D01*
X-117026396Y-40190000D02*
X-102050000Y-40190000D01*
X-102050000Y-40190000D02*
X-91440000Y-50800000D01*
%TO.N,Net-(A1-PadA10)*%
X-123045000Y-46845000D02*
X-116840000Y-40640000D01*
X-104140000Y-40640000D02*
X-93980000Y-50800000D01*
X-139930052Y-46845000D02*
X-123045000Y-46845000D01*
X-116840000Y-40640000D02*
X-104140000Y-40640000D01*
X-141040028Y-45735024D02*
X-139930052Y-46845000D01*
%TO.N,Net-(A1-PadA11)*%
X-116840000Y-45720000D02*
X-101600000Y-45720000D01*
X-101600000Y-45720000D02*
X-96520000Y-50800000D01*
%TO.N,GND*%
X-204004000Y-48880000D02*
X-205229000Y-50105000D01*
X-205229000Y-50105000D02*
X-221067000Y-50105000D01*
X-221067000Y-50105000D02*
X-222292000Y-48880000D01*
X-185716000Y-48880000D02*
X-186941000Y-50105000D01*
X-202779000Y-50105000D02*
X-204004000Y-48880000D01*
X-186941000Y-50105000D02*
X-202779000Y-50105000D01*
X-167428000Y-48880000D02*
X-168653000Y-50105000D01*
X-168653000Y-50105000D02*
X-184491000Y-50105000D01*
X-184491000Y-50105000D02*
X-185716000Y-48880000D01*
X-149140000Y-48880000D02*
X-150365000Y-50105000D01*
X-150365000Y-50105000D02*
X-166203000Y-50105000D01*
X-166203000Y-50105000D02*
X-167428000Y-48880000D01*
X-130852000Y-48880000D02*
X-132077000Y-50105000D01*
X-132077000Y-50105000D02*
X-147915000Y-50105000D01*
X-147915000Y-50105000D02*
X-149140000Y-48880000D01*
X-124915047Y-58205000D02*
X-130852000Y-52268047D01*
X-130852000Y-52268047D02*
X-130852000Y-48880000D01*
X-157480000Y-15240000D02*
X-142240000Y0D01*
X-142240000Y0D02*
X-142240000Y5080000D01*
X-203200000Y-15240000D02*
X-218440000Y-15240000D01*
X-187960000Y-15240000D02*
X-203200000Y-15240000D01*
X-172720000Y-15240000D02*
X-187960000Y-15240000D01*
X-157480000Y-15240000D02*
X-172720000Y-15240000D01*
X-142240000Y-15240000D02*
X-157480000Y-15240000D01*
X-130579332Y-15123047D02*
X-142123047Y-15123047D01*
X-142123047Y-15123047D02*
X-142240000Y-15240000D01*
D37*
%TO.N,Net-(J3-Pin_2)*%
X-58857852Y-26280313D02*
X-55110698Y-22533159D01*
X-30480000Y-9901114D02*
X-30415149Y-5112314D01*
X-37081308Y-16502422D02*
X-30480000Y-9901114D01*
D36*
X-55110698Y-22533159D02*
X-55299159Y-22470338D01*
D37*
%TO.N,GND*%
X-55880000Y-50800000D02*
X-58420000Y-50800000D01*
D36*
X-38308869Y-40640000D02*
X-45687121Y-48018252D01*
X-45687121Y-48018252D02*
X-53098252Y-48018252D01*
X-53098252Y-48018252D02*
X-55880000Y-50800000D01*
X-38278345Y-30571326D02*
X-38278345Y-40609476D01*
X-38278345Y-40609476D02*
X-38308869Y-40640000D01*
D37*
X-40640000Y-11920000D02*
X-40640000Y-20320000D01*
D36*
X-115639466Y-15160000D02*
X-116777513Y-16298047D01*
X-116777513Y-16298047D02*
X-129404332Y-16298047D01*
X-129404332Y-16298047D02*
X-130579332Y-15123047D01*
X-100699600Y-15160000D02*
X-101874600Y-16335000D01*
X-101874600Y-16335000D02*
X-114464466Y-16335000D01*
X-114464466Y-16335000D02*
X-115639466Y-15160000D01*
X-85759734Y-15160000D02*
X-86934734Y-16335000D01*
X-86934734Y-16335000D02*
X-99524600Y-16335000D01*
X-99524600Y-16335000D02*
X-100699600Y-15160000D01*
X-70819868Y-15160000D02*
X-71994868Y-16335000D01*
X-71994868Y-16335000D02*
X-84584734Y-16335000D01*
X-84584734Y-16335000D02*
X-85759734Y-15160000D01*
X-55880000Y-15160000D02*
X-57055000Y-16335000D01*
X-57055000Y-16335000D02*
X-69644868Y-16335000D01*
X-69644868Y-16335000D02*
X-70819868Y-15160000D01*
D37*
X-98520000Y-5080000D02*
X-132080000Y-5080000D01*
X-132080000Y-5080000D02*
X-142240000Y5080000D01*
X-41480000Y-11080000D02*
X-41496148Y-11063852D01*
X-47480000Y-5080000D02*
X-98520000Y-5080000D01*
X-98520000Y-5080000D02*
X-108680000Y5080000D01*
D36*
X-38278345Y-30571326D02*
X-38278345Y-22681655D01*
X-38278345Y-22681655D02*
X-40640000Y-20320000D01*
X-96520000Y-122840000D02*
X-100020000Y-119340000D01*
X-100020000Y-119340000D02*
X-103703118Y-119340000D01*
X-96520000Y-136080000D02*
X-97721657Y-137281657D01*
X-97721657Y-137281657D02*
X-103703118Y-137281657D01*
X-96520000Y-152400000D02*
X-96641657Y-152521657D01*
X-96641657Y-152521657D02*
X-103703118Y-152521657D01*
%TD*%
M02*
